<svg width="153" height="243" viewBox="0 0 153 243" fill="none" xmlns="http://www.w3.org/2000/svg">
<g id="Card-Back" clip-path="url(#clip0_1998:195)">
<path id="Card" fill-rule="evenodd" clip-rule="evenodd" d="M8 0C3.58172 0 0 3.58172 0 8V234.65C0 239.068 3.58172 242.65 8 242.65H145C149.418 242.65 153 239.068 153 234.65V8C153 3.58172 149.418 0 145 0H8ZM64.5 14C61.1863 14 58.5 16.6863 58.5 20C58.5 23.3137 61.1863 26 64.5 26H88.5C91.8137 26 94.5 23.3137 94.5 20C94.5 16.6863 91.8137 14 88.5 14H64.5Z" fill="#FF4D00"/>
<g id="Icon-Helping_hand" clip-path="url(#clip1_1998:195)">
<g id="Vector">
<path d="M121.718 140.281C113.694 134.419 110.103 132.728 107.289 134.072C104.39 135.456 104.274 139.352 104.181 142.482L103.686 158.941L103.19 170.269C103.154 171.091 102.797 171.853 102.184 172.415C101.573 172.977 100.785 173.267 99.9654 173.231C98.2574 173.156 96.9287 171.706 97.0032 169.998L97.1752 166.063C97.1764 166.038 97.1792 166.013 97.1804 165.988C97.1809 165.975 97.1799 165.963 97.1802 165.951L97.4992 158.653C97.5594 157.274 96.4902 156.107 95.1107 156.046C93.7347 155.98 92.5642 157.055 92.5039 158.435L92.1817 165.805C92.0874 167.495 90.6564 168.804 88.9527 168.731C87.2447 168.656 85.9159 167.206 85.9904 165.499L86.1624 161.563C86.1637 161.538 86.1664 161.513 86.1677 161.488C86.1682 161.475 86.1672 161.463 86.1674 161.451L86.4864 154.153C86.5467 152.774 85.4774 151.607 84.0979 151.547C82.7244 151.481 81.5512 152.556 81.4912 153.935L81.1689 161.307C81.1239 162.112 80.7697 162.857 80.1662 163.409C79.5522 163.971 78.7634 164.258 77.9402 164.224C77.1184 164.188 76.3562 163.831 75.7937 163.218C75.2319 162.606 74.9424 161.818 74.9781 160.999L75.1509 157.042C75.1519 157.021 75.1542 157.001 75.1552 156.981C75.1557 156.971 75.1546 156.961 75.1549 156.951L75.4739 149.646C75.5341 148.267 74.4649 147.1 73.0854 147.039C71.6961 146.976 70.5387 148.048 70.4787 149.428L70.1569 156.792C70.0667 158.485 68.6196 159.796 66.9276 159.724C66.1084 159.688 65.3484 159.331 64.7874 158.718C64.2259 158.104 63.9366 157.313 63.9726 156.488L64.1426 152.469L64.4689 145.145C64.5779 142.614 64.3167 140.013 63.6951 137.388C65.0436 136.644 66.1546 135.526 66.9039 134.132C67.9299 132.223 68.1534 130.034 67.5311 127.964C66.5626 124.767 63.7814 122.601 60.6514 122.253C60.8956 120.987 60.8336 119.675 60.4534 118.41C59.8329 116.344 58.4391 114.642 56.5296 113.615C55.5954 113.113 54.5939 112.804 53.5726 112.692C53.8094 111.452 53.7616 110.14 53.3741 108.85C52.7536 106.785 51.3599 105.082 49.4504 104.055C48.5169 103.554 47.5164 103.245 46.4961 103.132C46.7344 101.89 46.6861 100.575 46.2949 99.2833C45.6741 97.2173 44.2796 95.5153 42.3686 94.4908C40.4601 93.4678 38.2724 93.2463 36.2071 93.8671L30.3289 95.6363L18.5371 83.8391L39.0114 63.3646L46.9659 71.3148C44.9521 72.4363 43.3536 74.3103 42.6389 76.6893C41.9406 79.0288 42.1974 81.5063 43.3621 83.6651C44.5276 85.8256 46.4584 87.3998 48.7951 88.0971L63.1891 92.4133C66.6347 93.4443 66.6346 93.4443 68.8251 95.6553C69.0944 95.9271 69.3909 96.2263 69.7204 96.5553L75.7556 102.59C78.2786 105.121 81.4429 107.826 87.0824 107.889C97.534 108.022 104.081 114.308 110.552 121.472C115.893 127.386 119.875 132.292 121.718 140.281Z" fill="#FFE600"/>
<path d="M47.4294 78.1228C47.7481 77.0618 48.4661 76.1853 49.4511 75.6548C50.4356 75.1246 51.5619 75.0078 52.6231 75.3268L71.5497 80.9956C74.1527 81.7771 74.7271 82.5928 76.2621 84.7728L76.2727 84.7878C76.5656 85.2034 76.8969 85.6734 77.2669 86.1748L89.7527 103.06C88.8729 102.96 88.0024 102.899 87.1469 102.888H87.1452C87.1442 102.888 87.1432 102.888 87.1422 102.888C83.7197 102.851 81.7444 101.514 79.2944 99.0563L73.2549 93.0168C72.9321 92.6948 72.6436 92.4036 72.3809 92.1384L72.3803 92.1378L72.3798 92.1372L72.3779 92.1353C69.6392 89.3706 69.0304 88.9408 64.6244 87.6226L50.2286 83.3058C49.1696 82.9898 48.2941 82.2741 47.7634 81.2901C47.2321 80.3061 47.1141 79.1793 47.4294 78.1228Z" fill="#FFE600"/>
<path d="M35.6366 117.423C34.8516 117.661 34.0166 117.576 33.2844 117.183C32.5519 116.79 32.0186 116.141 31.7806 115.35C31.5431 114.565 31.6284 113.73 32.0209 112.998C32.4139 112.265 33.0631 111.732 33.8491 111.496C33.8686 111.49 33.8869 111.482 33.9064 111.475L40.8799 109.376C40.8814 109.376 40.8829 109.375 40.8841 109.375L44.7269 108.214C46.3619 107.722 48.0949 108.653 48.5864 110.288C49.0749 111.913 48.1644 113.63 46.5551 114.135C46.5551 114.135 39.4876 116.267 39.4864 116.267L35.6366 117.423Z" fill="#FFE600"/>
<path d="M28.5624 107.862C27.7741 108.099 26.9364 108.013 26.2031 107.62C25.4711 107.228 24.9384 106.58 24.7011 105.79C24.4634 105.005 24.5491 104.169 24.9421 103.436C25.3359 102.702 25.9869 102.166 26.7706 101.929L37.6474 98.6551C37.9391 98.5673 38.2376 98.5241 38.5354 98.5241C39.0414 98.5241 39.5449 98.6498 40.0069 98.8973C40.7386 99.2896 41.2714 99.9376 41.5086 100.727C42.0034 102.361 41.0731 104.094 39.4349 104.59L28.5624 107.862Z" fill="#FFE600"/>
<path d="M42.7089 126.983C41.0786 127.477 39.3491 126.547 38.8546 124.915C38.3629 123.278 39.2931 121.547 40.9311 121.055L51.8064 117.774C52.0966 117.687 52.3939 117.644 52.6901 117.644C53.1966 117.644 53.7006 117.77 54.1634 118.019C54.8961 118.413 55.4296 119.062 55.6659 119.848C55.9024 120.635 55.8156 121.472 55.4214 122.205C55.0276 122.938 54.3776 123.471 53.5919 123.707L53.5886 123.708C53.5886 123.708 53.5881 123.709 53.5876 123.709L42.7089 126.983Z" fill="#FFE600"/>
<path d="M62.5006 131.765C62.1069 132.497 61.4569 133.031 60.6689 133.268L49.7934 136.548C49.0069 136.784 48.1701 136.698 47.4366 136.304C46.7039 135.91 46.1704 135.26 45.9341 134.474C45.6971 133.686 45.7831 132.848 46.1764 132.115C46.5684 131.383 47.2164 130.85 48.0009 130.615C48.0199 130.609 48.0379 130.601 48.0566 130.595L58.8789 127.334C60.5149 126.842 62.2504 127.775 62.7451 129.408C62.9816 130.195 62.8946 131.032 62.5006 131.765Z" fill="#FFE600"/>
<path d="M113.987 179.294L107.676 172.983C107.973 172.193 108.148 171.353 108.186 170.487L108.682 159.142C108.682 159.131 108.683 159.119 108.683 159.108L109.179 142.631C109.248 140.306 109.412 139.202 109.57 138.691C110.05 138.807 111.124 139.203 113.26 140.532C115.461 141.9 118.464 144.04 122.932 147.425C123.319 147.719 123.687 148.039 124.031 148.383L134.467 158.813L113.987 179.294Z" fill="#FFE600"/>
</g>
</g>
</g>
<defs>
<clipPath id="clip0_1998:195">
<rect width="153" height="242.65" fill="white"/>
</clipPath>
<clipPath id="clip1_1998:195">
<rect width="128" height="128" fill="white" transform="translate(12.5 57.325)"/>
</clipPath>
</defs>
</svg>
