<svg width="153" height="243" viewBox="0 0 153 243" fill="none" xmlns="http://www.w3.org/2000/svg">
<g id="SolCard-FF4D00">
<g clip-path="url(#clip0)">
<path id="Card" fill-rule="evenodd" clip-rule="evenodd" d="M8 0C3.58172 0 0 3.58172 0 8V234.65C0 239.068 3.58172 242.65 8 242.65H145C149.418 242.65 153 239.068 153 234.65V8C153 3.58172 149.418 0 145 0H8ZM64.5 14C61.1863 14 58.5 16.6863 58.5 20C58.5 23.3137 61.1863 26 64.5 26H88.5C91.8137 26 94.5 23.3137 94.5 20C94.5 16.6863 91.8137 14 88.5 14H64.5Z" fill="#FF4D00"/>
<path id="Contactless" fill-rule="evenodd" clip-rule="evenodd" d="M136.101 202.158C136.664 201.833 137.385 202.026 137.711 202.589C139.538 205.755 140.5 209.345 140.5 213C140.5 216.655 139.538 220.245 137.711 223.411C137.385 223.974 136.664 224.167 136.101 223.842C135.537 223.516 135.344 222.796 135.669 222.232C137.29 219.425 138.143 216.241 138.143 213C138.143 209.759 137.29 206.575 135.669 203.768C135.344 203.204 135.537 202.484 136.101 202.158ZM131.779 204.319C132.343 203.993 133.064 204.186 133.389 204.75C134.837 207.258 135.6 210.104 135.6 213C135.6 215.896 134.837 218.742 133.389 221.25C133.064 221.814 132.343 222.007 131.779 221.681C131.216 221.356 131.022 220.635 131.348 220.071C132.589 217.921 133.243 215.483 133.243 213C133.243 210.517 132.589 208.079 131.348 205.929C131.022 205.365 131.216 204.644 131.779 204.319ZM127.659 206.3C128.224 205.977 128.944 206.174 129.267 206.739C130.341 208.619 130.906 210.752 130.906 212.921C130.906 215.091 130.341 217.224 129.267 219.104C128.944 219.669 128.224 219.866 127.659 219.543C127.094 219.22 126.897 218.5 127.22 217.935C128.091 216.411 128.549 214.682 128.549 212.921C128.549 211.161 128.091 209.431 127.22 207.908C126.897 207.343 127.094 206.623 127.659 206.3ZM123.469 208.481C124.012 208.122 124.743 208.272 125.102 208.815C125.928 210.064 126.369 211.515 126.369 213C126.369 214.485 125.928 215.936 125.102 217.185C124.743 217.728 124.012 217.878 123.469 217.519C122.926 217.16 122.777 216.429 123.135 215.886C123.711 215.015 124.012 214.015 124.012 213C124.012 211.985 123.711 210.985 123.135 210.114C122.777 209.571 122.926 208.84 123.469 208.481Z" fill="black"/>
<path id="solcard.org/ 0123456789abcdef" d="M13.0625 207.704C13.0625 208.614 13.7612 208.812 14.6226 208.987C15.2642 209.115 15.7783 209.211 15.7783 209.726C15.7783 210.125 15.4795 210.455 14.75 210.455C14.104 210.455 13.8184 210.196 13.7568 209.787H12.979C12.979 210.613 13.6865 211.075 14.7148 211.075C15.8223 211.075 16.5605 210.552 16.5605 209.633C16.5605 208.732 15.8442 208.491 14.9785 208.341C14.4556 208.245 13.8315 208.174 13.8315 207.625C13.8315 207.177 14.2183 206.926 14.7588 206.926C15.3784 206.926 15.6772 207.273 15.7036 207.594H16.4419C16.4419 206.816 15.7827 206.302 14.7852 206.302C13.8843 206.302 13.0625 206.724 13.0625 207.704ZM19.6367 206.302C18.481 206.302 17.6372 207.098 17.6372 208.346V209.027C17.6372 210.345 18.4678 211.075 19.6367 211.075C20.7837 211.075 21.6318 210.332 21.6318 209.027V208.341C21.6318 207.054 20.7837 206.302 19.6367 206.302ZM19.6411 206.979C20.3838 206.979 20.832 207.568 20.832 208.412V208.97C20.832 209.827 20.4058 210.402 19.6411 210.402C18.8677 210.402 18.4326 209.827 18.4326 208.97V208.412C18.4326 207.568 18.8984 206.979 19.6411 206.979ZM22.9941 211H23.7896V204.685H22.9941V211ZM25.1606 209.058C25.1606 210.297 25.8989 211.075 27.0898 211.075C28.3115 211.075 28.8696 210.398 28.896 209.717H28.1226C28.0391 210.068 27.7842 210.38 27.103 210.38C26.3911 210.38 25.9561 209.871 25.9561 209.066V208.328C25.9561 207.52 26.3472 206.997 27.103 206.997C27.8237 206.997 28.0391 207.44 28.0874 207.713H28.8652C28.8433 207.014 28.2456 206.302 27.0898 206.302C25.9033 206.302 25.1606 207.089 25.1606 208.302V209.058ZM31.4053 211.075C32.0864 211.075 32.5039 210.758 32.728 210.385H32.7632V211H33.5278V207.845C33.5278 206.711 32.7412 206.302 31.7876 206.302C30.7549 206.302 30.1396 206.742 30.0693 207.524H30.8384C30.9307 207.203 31.1768 206.975 31.7612 206.975C32.3545 206.975 32.728 207.247 32.728 207.84V208.297H31.5195C30.4561 208.297 29.8936 208.847 29.8936 209.655C29.8936 210.512 30.5088 211.075 31.4053 211.075ZM31.625 210.407C31.146 210.407 30.7065 210.165 30.7065 209.629C30.7065 209.216 30.9614 208.904 31.5854 208.904H32.728V209.418C32.728 209.985 32.249 210.407 31.625 210.407ZM35.1406 211H35.9404V208.144C35.9404 207.515 36.3447 207.027 37.1577 207.027C37.2983 207.027 37.4565 207.036 37.5312 207.054V206.329C37.439 206.315 37.3423 206.307 37.2412 206.307C36.4238 206.307 36.0898 206.786 35.9756 207.089H35.936V206.377H35.1406V211ZM40.146 206.307C39.0693 206.307 38.353 207.062 38.353 208.24V209.137C38.353 210.314 39.0518 211.066 40.1284 211.066C40.8052 211.066 41.3809 210.732 41.5171 210.262H41.5566V211H42.3213V204.685H41.5259V207.062H41.4863C41.3018 206.592 40.7964 206.307 40.146 206.307ZM40.3086 206.988C41.0117 206.988 41.5259 207.506 41.5259 208.24V209.04C41.5259 209.871 41.0557 210.385 40.3306 210.385C39.5967 210.385 39.1528 209.862 39.1528 208.965V208.403C39.1528 207.515 39.5879 206.988 40.3086 206.988ZM43.8022 210.459C43.8022 210.815 44.0835 211.079 44.4307 211.079C44.7954 211.079 45.0723 210.815 45.0723 210.459C45.0723 210.086 44.7954 209.822 44.4307 209.822C44.0835 209.822 43.8022 210.086 43.8022 210.459ZM48.3154 206.302C47.1597 206.302 46.3159 207.098 46.3159 208.346V209.027C46.3159 210.345 47.1465 211.075 48.3154 211.075C49.4624 211.075 50.3105 210.332 50.3105 209.027V208.341C50.3105 207.054 49.4624 206.302 48.3154 206.302ZM48.3198 206.979C49.0625 206.979 49.5107 207.568 49.5107 208.412V208.97C49.5107 209.827 49.0845 210.402 48.3198 210.402C47.5464 210.402 47.1113 209.827 47.1113 208.97V208.412C47.1113 207.568 47.5771 206.979 48.3198 206.979ZM51.7168 211H52.5166V208.144C52.5166 207.515 52.9209 207.027 53.7339 207.027C53.8745 207.027 54.0327 207.036 54.1074 207.054V206.329C54.0151 206.315 53.9185 206.307 53.8174 206.307C53 206.307 52.666 206.786 52.5518 207.089H52.5122V206.377H51.7168V211ZM56.8232 212.024C56.2168 212.024 55.8433 211.751 55.7817 211.426H54.9731C55.0347 212.099 55.6147 212.692 56.7969 212.692C57.979 212.692 58.8315 212.134 58.8315 210.859V206.377H58.0713V207.076H58.0317C57.8779 206.698 57.3857 206.307 56.6914 206.307C55.6675 206.307 54.8721 207.041 54.8721 208.258V208.974C54.8721 210.191 55.6719 210.917 56.6958 210.917C57.3374 210.917 57.812 210.591 57.9922 210.191H58.0361V210.864C58.0361 211.589 57.6362 212.024 56.8232 212.024ZM56.8892 206.988C57.6143 206.988 58.0361 207.603 58.0361 208.28V208.979C58.0361 209.638 57.6362 210.249 56.8979 210.249C56.1816 210.249 55.6719 209.682 55.6719 208.838V208.403C55.6719 207.559 56.1377 206.988 56.8892 206.988ZM60.3872 212.358L62.5537 204.685H61.8154L59.6533 212.358H60.3872ZM13.0977 219.117C13.0977 220.937 13.8843 222.123 15.2422 222.123C16.6045 222.123 17.3867 220.932 17.3867 219.117V218.893C17.3867 217.074 16.6089 215.878 15.251 215.878C13.8843 215.878 13.0977 217.078 13.0977 218.893V219.117ZM13.9019 218.897C13.9019 217.456 14.4204 216.577 15.2422 216.577C16.0684 216.577 16.5825 217.456 16.5825 218.897V219.108C16.5825 220.55 16.0684 221.424 15.2422 221.424C14.4204 221.424 13.9019 220.55 13.9019 219.108V218.897ZM20.9111 222V216.001H20.1113L18.6831 217.061V217.874L20.0718 216.867H20.1113V222H20.9111ZM23.5127 217.671C23.5127 217.667 23.5127 217.645 23.5127 217.641C23.5127 217.069 23.917 216.568 24.6157 216.568C25.231 216.568 25.6924 216.959 25.6924 217.579C25.6924 218.128 25.3364 218.546 25.0068 218.919L22.748 221.49V222H26.624V221.297H23.895V221.249L25.4902 219.42C26.0527 218.779 26.5098 218.273 26.5098 217.522C26.5098 216.582 25.7671 215.878 24.6333 215.878C23.3853 215.878 22.7261 216.731 22.7261 217.641V217.671H23.5127ZM29.0015 219.253H29.6562C30.3901 219.253 30.8999 219.684 30.9087 220.33C30.9175 220.976 30.4077 221.446 29.6167 221.442C28.9224 221.438 28.4258 221.064 28.373 220.594H27.6172C27.6611 221.446 28.4038 222.127 29.5991 222.127C30.8428 222.127 31.748 221.385 31.7261 220.334C31.7085 219.363 30.9219 218.946 30.4165 218.889V218.845C30.8691 218.766 31.5503 218.26 31.5239 217.412C31.502 216.542 30.7681 215.87 29.6255 215.878C28.4214 215.883 27.7886 216.625 27.7622 217.395H28.5312C28.5708 216.951 28.9883 216.56 29.6211 216.56C30.2627 216.56 30.7109 216.959 30.7109 217.54C30.7153 218.133 30.2495 218.563 29.6211 218.563H29.0015V219.253ZM35.1934 216.001C34.3408 217.355 33.4487 218.708 32.7017 220.062V220.77H35.6152V222H36.3887V220.77H37.1665V220.066H36.3887V216.001H35.1934ZM33.5015 220.066V220.027C34.1299 218.924 34.8726 217.742 35.5713 216.696H35.6152V220.066H33.5015ZM38.208 220.603C38.2651 221.481 39.0562 222.123 40.1636 222.123C41.4292 222.123 42.2905 221.279 42.2905 220.04C42.2905 218.827 41.4204 218.106 40.3745 218.106C39.7109 218.106 39.2935 218.427 39.1704 218.621H39.1265L39.2891 216.7H41.9917V216.001H38.6035L38.3354 219.447H39.021C39.1836 219.152 39.5791 218.788 40.1987 218.788C40.8755 218.788 41.4775 219.271 41.4775 220.062C41.4775 220.958 40.8271 221.438 40.2119 221.438C39.6626 221.438 39.1001 221.2 38.9814 220.603H38.208ZM47.5156 217.245C47.4673 216.582 46.7993 215.887 45.6699 215.887C44.334 215.887 43.4023 216.92 43.4023 219.236C43.4023 220.132 43.5737 220.774 43.8462 221.218C44.2681 221.899 44.9272 222.123 45.5732 222.123C46.751 222.123 47.6431 221.372 47.6431 220.053C47.6431 218.801 46.6938 218.137 45.7622 218.137C44.8877 218.137 44.4043 218.621 44.2373 219.038H44.1934C44.1934 217.368 44.813 216.577 45.6436 216.577C46.3203 216.577 46.6411 216.968 46.707 217.245H47.5156ZM44.3032 220.093C44.3032 219.346 44.8394 218.814 45.582 218.814C46.2236 218.814 46.8477 219.223 46.8477 220.102C46.8477 221.007 46.2808 221.433 45.5776 221.433C44.8921 221.433 44.3032 220.945 44.3032 220.093ZM48.6978 216.001V216.705H51.7168V216.753L49.2339 222H50.082L52.5386 216.731V216.001H48.6978ZM55.6763 222.123C56.9287 222.123 57.8296 221.402 57.8296 220.356C57.8296 219.425 57.1265 218.977 56.6167 218.854V218.814C57.021 218.682 57.6011 218.278 57.6011 217.478C57.6011 216.551 56.8013 215.878 55.6982 215.878C54.5952 215.878 53.7954 216.551 53.7954 217.478C53.7954 218.265 54.3491 218.673 54.771 218.814V218.854C54.27 218.977 53.5581 219.42 53.5581 220.365C53.5581 221.411 54.4326 222.123 55.6763 222.123ZM55.6982 218.546C55.0522 218.546 54.5732 218.133 54.5732 217.54C54.5732 216.946 55.0522 216.551 55.6982 216.551C56.3486 216.551 56.8145 216.946 56.8145 217.54C56.8145 218.133 56.3486 218.546 55.6982 218.546ZM55.6982 221.459C54.9336 221.459 54.3491 221.002 54.3491 220.33C54.3491 219.658 54.9336 219.192 55.6982 219.192C56.4629 219.192 57.0386 219.658 57.0386 220.33C57.0386 221.002 56.4629 221.459 55.6982 221.459ZM59.104 220.844C59.1831 221.512 59.7939 222.114 60.9058 222.114C62.4526 222.114 63.1777 221.016 63.1777 218.862C63.1777 216.454 62.0791 215.87 61.0332 215.87C59.8555 215.87 58.9458 216.621 58.9458 217.896C58.9458 219.161 59.7939 219.913 60.8618 219.913C61.6748 219.913 62.1626 219.478 62.3516 218.981H62.3955C62.4307 220.321 62.0308 221.424 60.9233 221.424C60.3389 221.424 60.0005 221.125 59.917 220.844H59.104ZM62.2593 217.931C62.2593 218.81 61.6484 219.227 61.0068 219.227C60.3345 219.227 59.7456 218.801 59.7456 217.909C59.7456 217.052 60.3125 216.56 60.9849 216.56C61.7056 216.56 62.2593 217.052 62.2593 217.931ZM65.8057 222.075C66.4868 222.075 66.9043 221.758 67.1284 221.385H67.1636V222H67.9282V218.845C67.9282 217.711 67.1416 217.302 66.188 217.302C65.1553 217.302 64.54 217.742 64.4697 218.524H65.2388C65.3311 218.203 65.5771 217.975 66.1616 217.975C66.7549 217.975 67.1284 218.247 67.1284 218.84V219.297H65.9199C64.8564 219.297 64.2939 219.847 64.2939 220.655C64.2939 221.512 64.9092 222.075 65.8057 222.075ZM66.0254 221.407C65.5464 221.407 65.1069 221.165 65.1069 220.629C65.1069 220.216 65.3618 219.904 65.9858 219.904H67.1284V220.418C67.1284 220.985 66.6494 221.407 66.0254 221.407ZM71.6504 222.07C72.7534 222.07 73.4434 221.31 73.4434 220.084V219.289C73.4434 218.067 72.7622 217.307 71.6724 217.307C71.0044 217.307 70.4551 217.627 70.3101 218.111H70.2705V215.685H69.4751V222H70.2397V221.314H70.2793C70.4858 221.789 71 222.07 71.6504 222.07ZM71.4966 221.389C70.7847 221.389 70.2705 220.862 70.2705 220.115V219.354C70.2705 218.515 70.7363 217.988 71.4746 217.988C72.2173 217.988 72.6436 218.524 72.6436 219.456V219.948C72.6436 220.862 72.2217 221.389 71.4966 221.389ZM74.564 220.058C74.564 221.297 75.3022 222.075 76.4932 222.075C77.7148 222.075 78.2729 221.398 78.2993 220.717H77.5259C77.4424 221.068 77.1875 221.38 76.5063 221.38C75.7944 221.38 75.3594 220.871 75.3594 220.066V219.328C75.3594 218.52 75.7505 217.997 76.5063 217.997C77.2271 217.997 77.4424 218.44 77.4907 218.713H78.2686C78.2466 218.014 77.6489 217.302 76.4932 217.302C75.3066 217.302 74.564 218.089 74.564 219.302V220.058ZM81.1294 217.307C80.0527 217.307 79.3364 218.062 79.3364 219.24V220.137C79.3364 221.314 80.0352 222.066 81.1118 222.066C81.7886 222.066 82.3643 221.732 82.5005 221.262H82.54V222H83.3047V215.685H82.5093V218.062H82.4697C82.2852 217.592 81.7798 217.307 81.1294 217.307ZM81.292 217.988C81.9951 217.988 82.5093 218.506 82.5093 219.24V220.04C82.5093 220.871 82.0391 221.385 81.314 221.385C80.5801 221.385 80.1362 220.862 80.1362 219.965V219.403C80.1362 218.515 80.5713 217.988 81.292 217.988ZM86.6401 222.075C87.8091 222.075 88.3672 221.35 88.4375 220.857H87.6201C87.541 221.143 87.1763 221.402 86.6357 221.402C85.8667 221.402 85.4536 220.844 85.4536 220.128V219.895H88.499V219.337C88.499 218.093 87.6992 217.302 86.5786 217.302C85.4712 217.302 84.6626 218.08 84.6626 219.337V220.04C84.6626 221.288 85.3965 222.075 86.6401 222.075ZM85.4536 219.319V219.245C85.4536 218.476 85.9062 217.97 86.583 217.97C87.2598 217.97 87.708 218.476 87.708 219.245V219.319H85.4536ZM90.2129 222H91.0083V218.036H92.0718V217.39H90.9995V216.99C90.9995 216.441 91.2324 216.283 91.7773 216.283C91.8916 216.283 92.1201 216.292 92.1904 216.3V215.659C92.0981 215.65 91.8696 215.632 91.6631 215.632C90.6304 215.632 90.2129 216.041 90.2129 216.929V217.39H89.4351V218.036H90.2129V222Z" fill="black"/>
<path id="SolidarityCard" d="M22.1562 190.094C22.25 191.781 23.5625 193.203 26.2734 193.203C28.9766 193.203 30.5 191.844 30.5 189.859C30.5 188.07 29.3594 187.242 27.6328 186.852L25.9766 186.469C25.0391 186.266 24.5156 185.844 24.5156 185.203C24.5156 184.375 25.2109 183.773 26.375 183.773C27.5078 183.773 28.2031 184.359 28.3359 185.125H30.3359C30.2344 183.484 28.8281 182.117 26.3906 182.117C24.0391 182.117 22.4062 183.391 22.4062 185.344C22.4062 186.961 23.4531 187.914 25.1094 188.289L26.7578 188.672C27.8672 188.93 28.3984 189.312 28.3984 190.055C28.3984 190.93 27.7031 191.531 26.3906 191.531C25.1328 191.531 24.3359 190.922 24.1953 190.094H22.1562ZM35.9688 184.562C33.6875 184.562 32.1641 186.078 32.1641 188.383V189.297C32.1641 191.773 33.6719 193.148 35.9688 193.148C38.2344 193.148 39.75 191.758 39.75 189.297V188.367C39.75 186.023 38.2344 184.562 35.9688 184.562ZM35.9688 186.156C37.1094 186.156 37.6719 187.164 37.6719 188.422V189.281C37.6719 190.531 37.1484 191.547 35.9688 191.547C34.7812 191.547 34.2422 190.523 34.2422 189.281V188.422C34.2422 187.172 34.8203 186.156 35.9688 186.156ZM41.8828 193H43.9453V181.773H41.8828V193ZM46.3359 182.266C46.3359 182.938 46.8672 183.398 47.625 183.398C48.3984 183.398 48.9219 182.938 48.9219 182.266C48.9219 181.586 48.3984 181.117 47.625 181.117C46.8672 181.117 46.3359 181.578 46.3359 182.266ZM46.6016 193H48.6562V184.711H46.6016V193ZM54.0156 184.602C52.1328 184.602 50.8984 185.961 50.8984 188.234V189.469C50.8984 191.742 52.1172 193.102 53.9922 193.102C55.1953 193.102 56.1641 192.516 56.4219 191.672H56.5234V193H58.5469V181.773H56.4844V185.969H56.3906C56.0703 185.125 55.1797 184.602 54.0156 184.602ZM54.7031 186.242C55.7344 186.242 56.4844 187.023 56.4844 188.266V189.336C56.4844 190.688 55.7812 191.469 54.7344 191.469C53.6719 191.469 53.0078 190.672 53.0078 189.25V188.445C53.0078 187.031 53.6641 186.242 54.7031 186.242ZM63.3281 193.125C64.5547 193.125 65.25 192.555 65.5781 191.945H65.6719V193H67.6172V187.43C67.6172 185.328 66.1016 184.578 64.2422 184.578C61.9688 184.578 61 185.672 60.9062 187.031H62.8516C62.9531 186.516 63.3516 186.148 64.1953 186.148C65.0391 186.148 65.5781 186.547 65.5781 187.383V188.125H63.5547C61.6328 188.125 60.6016 189.109 60.6016 190.594C60.6016 192.156 61.7109 193.125 63.3281 193.125ZM64 191.609C63.2969 191.609 62.6484 191.234 62.6484 190.461C62.6484 189.828 63.0781 189.367 63.9922 189.367H65.5781V190.227C65.5781 191.031 64.8672 191.609 64 191.609ZM70.0938 193H72.1953V188.258C72.1953 187.141 72.8359 186.352 74.1797 186.352C74.5 186.352 74.8359 186.375 74.9922 186.422V184.641C74.8359 184.609 74.625 184.586 74.3438 184.586C73.0312 184.586 72.4219 185.445 72.25 186.008H72.1484V184.711H70.0938V193ZM76.5547 182.266C76.5547 182.938 77.0859 183.398 77.8438 183.398C78.6172 183.398 79.1406 182.938 79.1406 182.266C79.1406 181.586 78.6172 181.117 77.8438 181.117C77.0859 181.117 76.5547 181.578 76.5547 182.266ZM76.8203 193H78.875V184.711H76.8203V193ZM82.0312 184.789H80.7266V186.367H81.9844V190.656C81.9844 192.352 82.6719 193.047 84.7344 193.047C85.2031 193.047 85.7812 192.992 85.9453 192.961V191.438C85.7969 191.453 85.4922 191.469 85.2344 191.469C84.375 191.469 84.0312 191.219 84.0312 190.391V186.367H85.8672V184.789H84.0312V182.727H82.0312V184.789ZM95.2422 184.711H93.0625L91.2656 191.227H91.1797L89.4141 184.711H87.1406L90.0156 193.016L89.9609 193.234C89.8047 194.047 89.3438 194.375 88.4141 194.375C88.1953 194.375 87.8828 194.352 87.75 194.328V195.82C87.9922 195.875 88.4766 195.906 88.8438 195.906C90.6172 195.906 91.6172 195.156 92.3359 193.258L92.5234 192.766C92.5391 192.719 94.6641 186.586 95.2422 184.711ZM98.875 187.031C98.875 185.055 99.7422 183.914 101.219 183.914C102.43 183.914 103.242 184.75 103.328 185.883H105.367V185.688C105.273 183.578 103.547 182.133 101.203 182.133C98.3516 182.133 96.7266 184 96.7266 187.023V188.352C96.7266 191.375 98.3359 193.203 101.203 193.203C103.539 193.203 105.266 191.797 105.367 189.758V189.555H103.328C103.242 190.648 102.445 191.422 101.219 191.422C99.7266 191.422 98.875 190.32 98.875 188.352V187.031ZM109.75 193.125C110.977 193.125 111.672 192.555 112 191.945H112.094V193H114.039V187.43C114.039 185.328 112.523 184.578 110.664 184.578C108.391 184.578 107.422 185.672 107.328 187.031H109.273C109.375 186.516 109.773 186.148 110.617 186.148C111.461 186.148 112 186.547 112 187.383V188.125H109.977C108.055 188.125 107.023 189.109 107.023 190.594C107.023 192.156 108.133 193.125 109.75 193.125ZM110.422 191.609C109.719 191.609 109.07 191.234 109.07 190.461C109.07 189.828 109.5 189.367 110.414 189.367H112V190.227C112 191.031 111.289 191.609 110.422 191.609ZM116.516 193H118.617V188.258C118.617 187.141 119.258 186.352 120.602 186.352C120.922 186.352 121.258 186.375 121.414 186.422V184.641C121.258 184.609 121.047 184.586 120.766 184.586C119.453 184.586 118.844 185.445 118.672 186.008H118.57V184.711H116.516V193ZM125.734 184.602C123.852 184.602 122.617 185.961 122.617 188.234V189.469C122.617 191.742 123.836 193.102 125.711 193.102C126.914 193.102 127.883 192.516 128.141 191.672H128.242V193H130.266V181.773H128.203V185.969H128.109C127.789 185.125 126.898 184.602 125.734 184.602ZM126.422 186.242C127.453 186.242 128.203 187.023 128.203 188.266V189.336C128.203 190.688 127.5 191.469 126.453 191.469C125.391 191.469 124.727 190.672 124.727 189.25V188.445C124.727 187.031 125.383 186.242 126.422 186.242Z" fill="#FFE600"/>
<g id="QR [solcard.org/0123456789abcdef]">
<path id="Vector" d="M140.5 40H12.5V168H140.5V40Z" fill="white"/>
<g id="Vector_2">
<path d="M24.3621 48H20.5V51.8621H24.3621V48Z" fill="black"/>
<path d="M28.2241 48H24.3621V51.8621H28.2241V48Z" fill="black"/>
<path d="M32.0862 48H28.2241V51.8621H32.0862V48Z" fill="black"/>
<path d="M35.9483 48H32.0862V51.8621H35.9483V48Z" fill="black"/>
<path d="M39.8103 48H35.9483V51.8621H39.8103V48Z" fill="black"/>
<path d="M43.6724 48H39.8103V51.8621H43.6724V48Z" fill="black"/>
<path d="M47.5345 48H43.6724V51.8621H47.5345V48Z" fill="black"/>
<path d="M55.2586 48H51.3966V51.8621H55.2586V48Z" fill="black"/>
<path d="M59.1207 48H55.2586V51.8621H59.1207V48Z" fill="black"/>
<path d="M70.7069 48H66.8448V51.8621H70.7069V48Z" fill="black"/>
<path d="M74.569 48H70.7069V51.8621H74.569V48Z" fill="black"/>
<path d="M86.1552 48H82.2931V51.8621H86.1552V48Z" fill="black"/>
<path d="M93.8793 48H90.0172V51.8621H93.8793V48Z" fill="black"/>
<path d="M101.603 48H97.7414V51.8621H101.603V48Z" fill="black"/>
<path d="M109.328 48H105.466V51.8621H109.328V48Z" fill="black"/>
<path d="M113.19 48H109.328V51.8621H113.19V48Z" fill="black"/>
<path d="M117.052 48H113.19V51.8621H117.052V48Z" fill="black"/>
<path d="M120.914 48H117.052V51.8621H120.914V48Z" fill="black"/>
<path d="M124.776 48H120.914V51.8621H124.776V48Z" fill="black"/>
<path d="M128.638 48H124.776V51.8621H128.638V48Z" fill="black"/>
<path d="M132.5 48H128.638V51.8621H132.5V48Z" fill="black"/>
<path d="M24.3621 51.8621H20.5V55.7241H24.3621V51.8621Z" fill="black"/>
<path d="M47.5345 51.8621H43.6724V55.7241H47.5345V51.8621Z" fill="black"/>
<path d="M59.1207 51.8621H55.2586V55.7241H59.1207V51.8621Z" fill="black"/>
<path d="M62.9828 51.8621H59.1207V55.7241H62.9828V51.8621Z" fill="black"/>
<path d="M66.8448 51.8621H62.9828V55.7241H66.8448V51.8621Z" fill="black"/>
<path d="M70.7069 51.8621H66.8448V55.7241H70.7069V51.8621Z" fill="black"/>
<path d="M90.0172 51.8621H86.1552V55.7241H90.0172V51.8621Z" fill="black"/>
<path d="M109.328 51.8621H105.466V55.7241H109.328V51.8621Z" fill="black"/>
<path d="M132.5 51.8621H128.638V55.7241H132.5V51.8621Z" fill="black"/>
<path d="M24.3621 55.7241H20.5V59.5862H24.3621V55.7241Z" fill="black"/>
<path d="M32.0862 55.7241H28.2241V59.5862H32.0862V55.7241Z" fill="black"/>
<path d="M35.9483 55.7241H32.0862V59.5862H35.9483V55.7241Z" fill="black"/>
<path d="M39.8103 55.7241H35.9483V59.5862H39.8103V55.7241Z" fill="black"/>
<path d="M47.5345 55.7241H43.6724V59.5862H47.5345V55.7241Z" fill="black"/>
<path d="M78.431 55.7241H74.569V59.5862H78.431V55.7241Z" fill="black"/>
<path d="M86.1552 55.7241H82.2931V59.5862H86.1552V55.7241Z" fill="black"/>
<path d="M90.0172 55.7241H86.1552V59.5862H90.0172V55.7241Z" fill="black"/>
<path d="M93.8793 55.7241H90.0172V59.5862H93.8793V55.7241Z" fill="black"/>
<path d="M97.7414 55.7241H93.8793V59.5862H97.7414V55.7241Z" fill="black"/>
<path d="M109.328 55.7241H105.466V59.5862H109.328V55.7241Z" fill="black"/>
<path d="M117.052 55.7241H113.19V59.5862H117.052V55.7241Z" fill="black"/>
<path d="M120.914 55.7241H117.052V59.5862H120.914V55.7241Z" fill="black"/>
<path d="M124.776 55.7241H120.914V59.5862H124.776V55.7241Z" fill="black"/>
<path d="M132.5 55.7241H128.638V59.5862H132.5V55.7241Z" fill="black"/>
<path d="M24.3621 59.5862H20.5V63.4483H24.3621V59.5862Z" fill="black"/>
<path d="M32.0862 59.5862H28.2241V63.4483H32.0862V59.5862Z" fill="black"/>
<path d="M35.9483 59.5862H32.0862V63.4483H35.9483V59.5862Z" fill="black"/>
<path d="M39.8103 59.5862H35.9483V63.4483H39.8103V59.5862Z" fill="black"/>
<path d="M47.5345 59.5862H43.6724V63.4483H47.5345V59.5862Z" fill="black"/>
<path d="M55.2586 59.5862H51.3966V63.4483H55.2586V59.5862Z" fill="black"/>
<path d="M59.1207 59.5862H55.2586V63.4483H59.1207V59.5862Z" fill="black"/>
<path d="M66.8448 59.5862H62.9828V63.4483H66.8448V59.5862Z" fill="black"/>
<path d="M74.569 59.5862H70.7069V63.4483H74.569V59.5862Z" fill="black"/>
<path d="M78.431 59.5862H74.569V63.4483H78.431V59.5862Z" fill="black"/>
<path d="M82.2931 59.5862H78.431V63.4483H82.2931V59.5862Z" fill="black"/>
<path d="M101.603 59.5862H97.7414V63.4483H101.603V59.5862Z" fill="black"/>
<path d="M109.328 59.5862H105.466V63.4483H109.328V59.5862Z" fill="black"/>
<path d="M117.052 59.5862H113.19V63.4483H117.052V59.5862Z" fill="black"/>
<path d="M120.914 59.5862H117.052V63.4483H120.914V59.5862Z" fill="black"/>
<path d="M124.776 59.5862H120.914V63.4483H124.776V59.5862Z" fill="black"/>
<path d="M132.5 59.5862H128.638V63.4483H132.5V59.5862Z" fill="black"/>
<path d="M24.3621 63.4483H20.5V67.3103H24.3621V63.4483Z" fill="black"/>
<path d="M32.0862 63.4483H28.2241V67.3103H32.0862V63.4483Z" fill="black"/>
<path d="M35.9483 63.4483H32.0862V67.3103H35.9483V63.4483Z" fill="black"/>
<path d="M39.8103 63.4483H35.9483V67.3103H39.8103V63.4483Z" fill="black"/>
<path d="M47.5345 63.4483H43.6724V67.3103H47.5345V63.4483Z" fill="black"/>
<path d="M62.9828 63.4483H59.1207V67.3103H62.9828V63.4483Z" fill="black"/>
<path d="M78.431 63.4483H74.569V67.3103H78.431V63.4483Z" fill="black"/>
<path d="M86.1552 63.4483H82.2931V67.3103H86.1552V63.4483Z" fill="black"/>
<path d="M90.0172 63.4483H86.1552V67.3103H90.0172V63.4483Z" fill="black"/>
<path d="M93.8793 63.4483H90.0172V67.3103H93.8793V63.4483Z" fill="black"/>
<path d="M109.328 63.4483H105.466V67.3103H109.328V63.4483Z" fill="black"/>
<path d="M117.052 63.4483H113.19V67.3103H117.052V63.4483Z" fill="black"/>
<path d="M120.914 63.4483H117.052V67.3103H120.914V63.4483Z" fill="black"/>
<path d="M124.776 63.4483H120.914V67.3103H124.776V63.4483Z" fill="black"/>
<path d="M132.5 63.4483H128.638V67.3103H132.5V63.4483Z" fill="black"/>
<path d="M24.3621 67.3103H20.5V71.1724H24.3621V67.3103Z" fill="black"/>
<path d="M47.5345 67.3103H43.6724V71.1724H47.5345V67.3103Z" fill="black"/>
<path d="M55.2586 67.3103H51.3966V71.1724H55.2586V67.3103Z" fill="black"/>
<path d="M66.8448 67.3103H62.9828V71.1724H66.8448V67.3103Z" fill="black"/>
<path d="M74.569 67.3103H70.7069V71.1724H74.569V67.3103Z" fill="black"/>
<path d="M86.1552 67.3103H82.2931V71.1724H86.1552V67.3103Z" fill="black"/>
<path d="M90.0172 67.3103H86.1552V71.1724H90.0172V67.3103Z" fill="black"/>
<path d="M93.8793 67.3103H90.0172V71.1724H93.8793V67.3103Z" fill="black"/>
<path d="M97.7414 67.3103H93.8793V71.1724H97.7414V67.3103Z" fill="black"/>
<path d="M101.603 67.3103H97.7414V71.1724H101.603V67.3103Z" fill="black"/>
<path d="M109.328 67.3103H105.466V71.1724H109.328V67.3103Z" fill="black"/>
<path d="M132.5 67.3103H128.638V71.1724H132.5V67.3103Z" fill="black"/>
<path d="M24.3621 71.1724H20.5V75.0345H24.3621V71.1724Z" fill="black"/>
<path d="M28.2241 71.1724H24.3621V75.0345H28.2241V71.1724Z" fill="black"/>
<path d="M32.0862 71.1724H28.2241V75.0345H32.0862V71.1724Z" fill="black"/>
<path d="M35.9483 71.1724H32.0862V75.0345H35.9483V71.1724Z" fill="black"/>
<path d="M39.8103 71.1724H35.9483V75.0345H39.8103V71.1724Z" fill="black"/>
<path d="M43.6724 71.1724H39.8103V75.0345H43.6724V71.1724Z" fill="black"/>
<path d="M47.5345 71.1724H43.6724V75.0345H47.5345V71.1724Z" fill="black"/>
<path d="M55.2586 71.1724H51.3966V75.0345H55.2586V71.1724Z" fill="black"/>
<path d="M62.9828 71.1724H59.1207V75.0345H62.9828V71.1724Z" fill="black"/>
<path d="M70.7069 71.1724H66.8448V75.0345H70.7069V71.1724Z" fill="black"/>
<path d="M78.431 71.1724H74.569V75.0345H78.431V71.1724Z" fill="black"/>
<path d="M86.1552 71.1724H82.2931V75.0345H86.1552V71.1724Z" fill="black"/>
<path d="M93.8793 71.1724H90.0172V75.0345H93.8793V71.1724Z" fill="black"/>
<path d="M101.603 71.1724H97.7414V75.0345H101.603V71.1724Z" fill="black"/>
<path d="M109.328 71.1724H105.466V75.0345H109.328V71.1724Z" fill="black"/>
<path d="M113.19 71.1724H109.328V75.0345H113.19V71.1724Z" fill="black"/>
<path d="M117.052 71.1724H113.19V75.0345H117.052V71.1724Z" fill="black"/>
<path d="M120.914 71.1724H117.052V75.0345H120.914V71.1724Z" fill="black"/>
<path d="M124.776 71.1724H120.914V75.0345H124.776V71.1724Z" fill="black"/>
<path d="M128.638 71.1724H124.776V75.0345H128.638V71.1724Z" fill="black"/>
<path d="M132.5 71.1724H128.638V75.0345H132.5V71.1724Z" fill="black"/>
<path d="M62.9828 75.0345H59.1207V78.8966H62.9828V75.0345Z" fill="black"/>
<path d="M70.7069 75.0345H66.8448V78.8966H70.7069V75.0345Z" fill="black"/>
<path d="M74.569 75.0345H70.7069V78.8966H74.569V75.0345Z" fill="black"/>
<path d="M78.431 75.0345H74.569V78.8966H78.431V75.0345Z" fill="black"/>
<path d="M82.2931 75.0345H78.431V78.8966H82.2931V75.0345Z" fill="black"/>
<path d="M86.1552 75.0345H82.2931V78.8966H86.1552V75.0345Z" fill="black"/>
<path d="M93.8793 75.0345H90.0172V78.8966H93.8793V75.0345Z" fill="black"/>
<path d="M43.6724 78.8966H39.8103V82.7586H43.6724V78.8966Z" fill="black"/>
<path d="M47.5345 78.8966H43.6724V82.7586H47.5345V78.8966Z" fill="black"/>
<path d="M55.2586 78.8966H51.3966V82.7586H55.2586V78.8966Z" fill="black"/>
<path d="M62.9828 78.8966H59.1207V82.7586H62.9828V78.8966Z" fill="black"/>
<path d="M82.2931 78.8966H78.431V82.7586H82.2931V78.8966Z" fill="black"/>
<path d="M93.8793 78.8966H90.0172V82.7586H93.8793V78.8966Z" fill="black"/>
<path d="M105.466 78.8966H101.603V82.7586H105.466V78.8966Z" fill="black"/>
<path d="M113.19 78.8966H109.328V82.7586H113.19V78.8966Z" fill="black"/>
<path d="M120.914 78.8966H117.052V82.7586H120.914V78.8966Z" fill="black"/>
<path d="M132.5 78.8966H128.638V82.7586H132.5V78.8966Z" fill="black"/>
<path d="M24.3621 82.7586H20.5V86.6207H24.3621V82.7586Z" fill="black"/>
<path d="M28.2241 82.7586H24.3621V86.6207H28.2241V82.7586Z" fill="black"/>
<path d="M32.0862 82.7586H28.2241V86.6207H32.0862V82.7586Z" fill="black"/>
<path d="M35.9483 82.7586H32.0862V86.6207H35.9483V82.7586Z" fill="black"/>
<path d="M39.8103 82.7586H35.9483V86.6207H39.8103V82.7586Z" fill="black"/>
<path d="M51.3966 82.7586H47.5345V86.6207H51.3966V82.7586Z" fill="black"/>
<path d="M55.2586 82.7586H51.3966V86.6207H55.2586V82.7586Z" fill="black"/>
<path d="M59.1207 82.7586H55.2586V86.6207H59.1207V82.7586Z" fill="black"/>
<path d="M62.9828 82.7586H59.1207V86.6207H62.9828V82.7586Z" fill="black"/>
<path d="M66.8448 82.7586H62.9828V86.6207H66.8448V82.7586Z" fill="black"/>
<path d="M78.431 82.7586H74.569V86.6207H78.431V82.7586Z" fill="black"/>
<path d="M82.2931 82.7586H78.431V86.6207H82.2931V82.7586Z" fill="black"/>
<path d="M93.8793 82.7586H90.0172V86.6207H93.8793V82.7586Z" fill="black"/>
<path d="M97.7414 82.7586H93.8793V86.6207H97.7414V82.7586Z" fill="black"/>
<path d="M101.603 82.7586H97.7414V86.6207H101.603V82.7586Z" fill="black"/>
<path d="M105.466 82.7586H101.603V86.6207H105.466V82.7586Z" fill="black"/>
<path d="M113.19 82.7586H109.328V86.6207H113.19V82.7586Z" fill="black"/>
<path d="M117.052 82.7586H113.19V86.6207H117.052V82.7586Z" fill="black"/>
<path d="M120.914 82.7586H117.052V86.6207H120.914V82.7586Z" fill="black"/>
<path d="M124.776 82.7586H120.914V86.6207H124.776V82.7586Z" fill="black"/>
<path d="M128.638 82.7586H124.776V86.6207H128.638V82.7586Z" fill="black"/>
<path d="M132.5 82.7586H128.638V86.6207H132.5V82.7586Z" fill="black"/>
<path d="M35.9483 86.6207H32.0862V90.4828H35.9483V86.6207Z" fill="black"/>
<path d="M43.6724 86.6207H39.8103V90.4828H43.6724V86.6207Z" fill="black"/>
<path d="M47.5345 86.6207H43.6724V90.4828H47.5345V86.6207Z" fill="black"/>
<path d="M55.2586 86.6207H51.3966V90.4828H55.2586V86.6207Z" fill="black"/>
<path d="M59.1207 86.6207H55.2586V90.4828H59.1207V86.6207Z" fill="black"/>
<path d="M66.8448 86.6207H62.9828V90.4828H66.8448V86.6207Z" fill="black"/>
<path d="M74.569 86.6207H70.7069V90.4828H74.569V86.6207Z" fill="black"/>
<path d="M78.431 86.6207H74.569V90.4828H78.431V86.6207Z" fill="black"/>
<path d="M82.2931 86.6207H78.431V90.4828H82.2931V86.6207Z" fill="black"/>
<path d="M86.1552 86.6207H82.2931V90.4828H86.1552V86.6207Z" fill="black"/>
<path d="M97.7414 86.6207H93.8793V90.4828H97.7414V86.6207Z" fill="black"/>
<path d="M117.052 86.6207H113.19V90.4828H117.052V86.6207Z" fill="black"/>
<path d="M120.914 86.6207H117.052V90.4828H120.914V86.6207Z" fill="black"/>
<path d="M124.776 86.6207H120.914V90.4828H124.776V86.6207Z" fill="black"/>
<path d="M128.638 86.6207H124.776V90.4828H128.638V86.6207Z" fill="black"/>
<path d="M24.3621 90.4828H20.5V94.3448H24.3621V90.4828Z" fill="black"/>
<path d="M35.9483 90.4828H32.0862V94.3448H35.9483V90.4828Z" fill="black"/>
<path d="M39.8103 90.4828H35.9483V94.3448H39.8103V90.4828Z" fill="black"/>
<path d="M55.2586 90.4828H51.3966V94.3448H55.2586V90.4828Z" fill="black"/>
<path d="M59.1207 90.4828H55.2586V94.3448H59.1207V90.4828Z" fill="black"/>
<path d="M70.7069 90.4828H66.8448V94.3448H70.7069V90.4828Z" fill="black"/>
<path d="M74.569 90.4828H70.7069V94.3448H74.569V90.4828Z" fill="black"/>
<path d="M82.2931 90.4828H78.431V94.3448H82.2931V90.4828Z" fill="black"/>
<path d="M120.914 90.4828H117.052V94.3448H120.914V90.4828Z" fill="black"/>
<path d="M124.776 90.4828H120.914V94.3448H124.776V90.4828Z" fill="black"/>
<path d="M132.5 90.4828H128.638V94.3448H132.5V90.4828Z" fill="black"/>
<path d="M24.3621 94.3448H20.5V98.2069H24.3621V94.3448Z" fill="black"/>
<path d="M28.2241 94.3448H24.3621V98.2069H28.2241V94.3448Z" fill="black"/>
<path d="M32.0862 94.3448H28.2241V98.2069H32.0862V94.3448Z" fill="black"/>
<path d="M47.5345 94.3448H43.6724V98.2069H47.5345V94.3448Z" fill="black"/>
<path d="M51.3966 94.3448H47.5345V98.2069H51.3966V94.3448Z" fill="black"/>
<path d="M55.2586 94.3448H51.3966V98.2069H55.2586V94.3448Z" fill="black"/>
<path d="M62.9828 94.3448H59.1207V98.2069H62.9828V94.3448Z" fill="black"/>
<path d="M70.7069 94.3448H66.8448V98.2069H70.7069V94.3448Z" fill="black"/>
<path d="M74.569 94.3448H70.7069V98.2069H74.569V94.3448Z" fill="black"/>
<path d="M78.431 94.3448H74.569V98.2069H78.431V94.3448Z" fill="black"/>
<path d="M101.603 94.3448H97.7414V98.2069H101.603V94.3448Z" fill="black"/>
<path d="M109.328 94.3448H105.466V98.2069H109.328V94.3448Z" fill="black"/>
<path d="M113.19 94.3448H109.328V98.2069H113.19V94.3448Z" fill="black"/>
<path d="M117.052 94.3448H113.19V98.2069H117.052V94.3448Z" fill="black"/>
<path d="M128.638 94.3448H124.776V98.2069H128.638V94.3448Z" fill="black"/>
<path d="M24.3621 98.2069H20.5V102.069H24.3621V98.2069Z" fill="black"/>
<path d="M28.2241 98.2069H24.3621V102.069H28.2241V98.2069Z" fill="black"/>
<path d="M32.0862 98.2069H28.2241V102.069H32.0862V98.2069Z" fill="black"/>
<path d="M35.9483 98.2069H32.0862V102.069H35.9483V98.2069Z" fill="black"/>
<path d="M39.8103 98.2069H35.9483V102.069H39.8103V98.2069Z" fill="black"/>
<path d="M43.6724 98.2069H39.8103V102.069H43.6724V98.2069Z" fill="black"/>
<path d="M82.2931 98.2069H78.431V102.069H82.2931V98.2069Z" fill="black"/>
<path d="M86.1552 98.2069H82.2931V102.069H86.1552V98.2069Z" fill="black"/>
<path d="M93.8793 98.2069H90.0172V102.069H93.8793V98.2069Z" fill="black"/>
<path d="M97.7414 98.2069H93.8793V102.069H97.7414V98.2069Z" fill="black"/>
<path d="M105.466 98.2069H101.603V102.069H105.466V98.2069Z" fill="black"/>
<path d="M109.328 98.2069H105.466V102.069H109.328V98.2069Z" fill="black"/>
<path d="M113.19 98.2069H109.328V102.069H113.19V98.2069Z" fill="black"/>
<path d="M28.2241 102.069H24.3621V105.931H28.2241V102.069Z" fill="black"/>
<path d="M35.9483 102.069H32.0862V105.931H35.9483V102.069Z" fill="black"/>
<path d="M39.8103 102.069H35.9483V105.931H39.8103V102.069Z" fill="black"/>
<path d="M43.6724 102.069H39.8103V105.931H43.6724V102.069Z" fill="black"/>
<path d="M47.5345 102.069H43.6724V105.931H47.5345V102.069Z" fill="black"/>
<path d="M51.3966 102.069H47.5345V105.931H51.3966V102.069Z" fill="black"/>
<path d="M59.1207 102.069H55.2586V105.931H59.1207V102.069Z" fill="black"/>
<path d="M66.8448 102.069H62.9828V105.931H66.8448V102.069Z" fill="black"/>
<path d="M82.2931 102.069H78.431V105.931H82.2931V102.069Z" fill="black"/>
<path d="M86.1552 102.069H82.2931V105.931H86.1552V102.069Z" fill="black"/>
<path d="M101.603 102.069H97.7414V105.931H101.603V102.069Z" fill="black"/>
<path d="M109.328 102.069H105.466V105.931H109.328V102.069Z" fill="black"/>
<path d="M117.052 102.069H113.19V105.931H117.052V102.069Z" fill="black"/>
<path d="M120.914 102.069H117.052V105.931H120.914V102.069Z" fill="black"/>
<path d="M132.5 102.069H128.638V105.931H132.5V102.069Z" fill="black"/>
<path d="M28.2241 105.931H24.3621V109.793H28.2241V105.931Z" fill="black"/>
<path d="M35.9483 105.931H32.0862V109.793H35.9483V105.931Z" fill="black"/>
<path d="M55.2586 105.931H51.3966V109.793H55.2586V105.931Z" fill="black"/>
<path d="M59.1207 105.931H55.2586V109.793H59.1207V105.931Z" fill="black"/>
<path d="M66.8448 105.931H62.9828V109.793H66.8448V105.931Z" fill="black"/>
<path d="M74.569 105.931H70.7069V109.793H74.569V105.931Z" fill="black"/>
<path d="M78.431 105.931H74.569V109.793H78.431V105.931Z" fill="black"/>
<path d="M86.1552 105.931H82.2931V109.793H86.1552V105.931Z" fill="black"/>
<path d="M90.0172 105.931H86.1552V109.793H90.0172V105.931Z" fill="black"/>
<path d="M97.7414 105.931H93.8793V109.793H97.7414V105.931Z" fill="black"/>
<path d="M105.466 105.931H101.603V109.793H105.466V105.931Z" fill="black"/>
<path d="M109.328 105.931H105.466V109.793H109.328V105.931Z" fill="black"/>
<path d="M117.052 105.931H113.19V109.793H117.052V105.931Z" fill="black"/>
<path d="M120.914 105.931H117.052V109.793H120.914V105.931Z" fill="black"/>
<path d="M128.638 105.931H124.776V109.793H128.638V105.931Z" fill="black"/>
<path d="M24.3621 109.793H20.5V113.655H24.3621V109.793Z" fill="black"/>
<path d="M32.0862 109.793H28.2241V113.655H32.0862V109.793Z" fill="black"/>
<path d="M39.8103 109.793H35.9483V113.655H39.8103V109.793Z" fill="black"/>
<path d="M47.5345 109.793H43.6724V113.655H47.5345V109.793Z" fill="black"/>
<path d="M62.9828 109.793H59.1207V113.655H62.9828V109.793Z" fill="black"/>
<path d="M70.7069 109.793H66.8448V113.655H70.7069V109.793Z" fill="black"/>
<path d="M78.431 109.793H74.569V113.655H78.431V109.793Z" fill="black"/>
<path d="M82.2931 109.793H78.431V113.655H82.2931V109.793Z" fill="black"/>
<path d="M86.1552 109.793H82.2931V113.655H86.1552V109.793Z" fill="black"/>
<path d="M97.7414 109.793H93.8793V113.655H97.7414V109.793Z" fill="black"/>
<path d="M101.603 109.793H97.7414V113.655H101.603V109.793Z" fill="black"/>
<path d="M105.466 109.793H101.603V113.655H105.466V109.793Z" fill="black"/>
<path d="M113.19 109.793H109.328V113.655H113.19V109.793Z" fill="black"/>
<path d="M120.914 109.793H117.052V113.655H120.914V109.793Z" fill="black"/>
<path d="M28.2241 113.655H24.3621V117.517H28.2241V113.655Z" fill="black"/>
<path d="M32.0862 113.655H28.2241V117.517H32.0862V113.655Z" fill="black"/>
<path d="M43.6724 113.655H39.8103V117.517H43.6724V113.655Z" fill="black"/>
<path d="M51.3966 113.655H47.5345V117.517H51.3966V113.655Z" fill="black"/>
<path d="M59.1207 113.655H55.2586V117.517H59.1207V113.655Z" fill="black"/>
<path d="M62.9828 113.655H59.1207V117.517H62.9828V113.655Z" fill="black"/>
<path d="M70.7069 113.655H66.8448V117.517H70.7069V113.655Z" fill="black"/>
<path d="M74.569 113.655H70.7069V117.517H74.569V113.655Z" fill="black"/>
<path d="M78.431 113.655H74.569V117.517H78.431V113.655Z" fill="black"/>
<path d="M82.2931 113.655H78.431V117.517H82.2931V113.655Z" fill="black"/>
<path d="M86.1552 113.655H82.2931V117.517H86.1552V113.655Z" fill="black"/>
<path d="M97.7414 113.655H93.8793V117.517H97.7414V113.655Z" fill="black"/>
<path d="M105.466 113.655H101.603V117.517H105.466V113.655Z" fill="black"/>
<path d="M109.328 113.655H105.466V117.517H109.328V113.655Z" fill="black"/>
<path d="M24.3621 117.517H20.5V121.379H24.3621V117.517Z" fill="black"/>
<path d="M35.9483 117.517H32.0862V121.379H35.9483V117.517Z" fill="black"/>
<path d="M39.8103 117.517H35.9483V121.379H39.8103V117.517Z" fill="black"/>
<path d="M47.5345 117.517H43.6724V121.379H47.5345V117.517Z" fill="black"/>
<path d="M62.9828 117.517H59.1207V121.379H62.9828V117.517Z" fill="black"/>
<path d="M66.8448 117.517H62.9828V121.379H66.8448V117.517Z" fill="black"/>
<path d="M97.7414 117.517H93.8793V121.379H97.7414V117.517Z" fill="black"/>
<path d="M117.052 117.517H113.19V121.379H117.052V117.517Z" fill="black"/>
<path d="M24.3621 121.379H20.5V125.241H24.3621V121.379Z" fill="black"/>
<path d="M43.6724 121.379H39.8103V125.241H43.6724V121.379Z" fill="black"/>
<path d="M55.2586 121.379H51.3966V125.241H55.2586V121.379Z" fill="black"/>
<path d="M62.9828 121.379H59.1207V125.241H62.9828V121.379Z" fill="black"/>
<path d="M74.569 121.379H70.7069V125.241H74.569V121.379Z" fill="black"/>
<path d="M86.1552 121.379H82.2931V125.241H86.1552V121.379Z" fill="black"/>
<path d="M113.19 121.379H109.328V125.241H113.19V121.379Z" fill="black"/>
<path d="M124.776 121.379H120.914V125.241H124.776V121.379Z" fill="black"/>
<path d="M132.5 121.379H128.638V125.241H132.5V121.379Z" fill="black"/>
<path d="M28.2241 125.241H24.3621V129.103H28.2241V125.241Z" fill="black"/>
<path d="M35.9483 125.241H32.0862V129.103H35.9483V125.241Z" fill="black"/>
<path d="M39.8103 125.241H35.9483V129.103H39.8103V125.241Z" fill="black"/>
<path d="M43.6724 125.241H39.8103V129.103H43.6724V125.241Z" fill="black"/>
<path d="M47.5345 125.241H43.6724V129.103H47.5345V125.241Z" fill="black"/>
<path d="M55.2586 125.241H51.3966V129.103H55.2586V125.241Z" fill="black"/>
<path d="M82.2931 125.241H78.431V129.103H82.2931V125.241Z" fill="black"/>
<path d="M90.0172 125.241H86.1552V129.103H90.0172V125.241Z" fill="black"/>
<path d="M97.7414 125.241H93.8793V129.103H97.7414V125.241Z" fill="black"/>
<path d="M101.603 125.241H97.7414V129.103H101.603V125.241Z" fill="black"/>
<path d="M105.466 125.241H101.603V129.103H105.466V125.241Z" fill="black"/>
<path d="M109.328 125.241H105.466V129.103H109.328V125.241Z" fill="black"/>
<path d="M113.19 125.241H109.328V129.103H113.19V125.241Z" fill="black"/>
<path d="M117.052 125.241H113.19V129.103H117.052V125.241Z" fill="black"/>
<path d="M128.638 125.241H124.776V129.103H128.638V125.241Z" fill="black"/>
<path d="M132.5 125.241H128.638V129.103H132.5V125.241Z" fill="black"/>
<path d="M55.2586 129.103H51.3966V132.966H55.2586V129.103Z" fill="black"/>
<path d="M66.8448 129.103H62.9828V132.966H66.8448V129.103Z" fill="black"/>
<path d="M97.7414 129.103H93.8793V132.966H97.7414V129.103Z" fill="black"/>
<path d="M101.603 129.103H97.7414V132.966H101.603V129.103Z" fill="black"/>
<path d="M117.052 129.103H113.19V132.966H117.052V129.103Z" fill="black"/>
<path d="M120.914 129.103H117.052V132.966H120.914V129.103Z" fill="black"/>
<path d="M124.776 129.103H120.914V132.966H124.776V129.103Z" fill="black"/>
<path d="M128.638 129.103H124.776V132.966H128.638V129.103Z" fill="black"/>
<path d="M132.5 129.103H128.638V132.966H132.5V129.103Z" fill="black"/>
<path d="M24.3621 132.966H20.5V136.828H24.3621V132.966Z" fill="black"/>
<path d="M28.2241 132.966H24.3621V136.828H28.2241V132.966Z" fill="black"/>
<path d="M32.0862 132.966H28.2241V136.828H32.0862V132.966Z" fill="black"/>
<path d="M35.9483 132.966H32.0862V136.828H35.9483V132.966Z" fill="black"/>
<path d="M39.8103 132.966H35.9483V136.828H39.8103V132.966Z" fill="black"/>
<path d="M43.6724 132.966H39.8103V136.828H43.6724V132.966Z" fill="black"/>
<path d="M47.5345 132.966H43.6724V136.828H47.5345V132.966Z" fill="black"/>
<path d="M59.1207 132.966H55.2586V136.828H59.1207V132.966Z" fill="black"/>
<path d="M70.7069 132.966H66.8448V136.828H70.7069V132.966Z" fill="black"/>
<path d="M78.431 132.966H74.569V136.828H78.431V132.966Z" fill="black"/>
<path d="M90.0172 132.966H86.1552V136.828H90.0172V132.966Z" fill="black"/>
<path d="M93.8793 132.966H90.0172V136.828H93.8793V132.966Z" fill="black"/>
<path d="M101.603 132.966H97.7414V136.828H101.603V132.966Z" fill="black"/>
<path d="M109.328 132.966H105.466V136.828H109.328V132.966Z" fill="black"/>
<path d="M117.052 132.966H113.19V136.828H117.052V132.966Z" fill="black"/>
<path d="M120.914 132.966H117.052V136.828H120.914V132.966Z" fill="black"/>
<path d="M132.5 132.966H128.638V136.828H132.5V132.966Z" fill="black"/>
<path d="M24.3621 136.828H20.5V140.69H24.3621V136.828Z" fill="black"/>
<path d="M47.5345 136.828H43.6724V140.69H47.5345V136.828Z" fill="black"/>
<path d="M55.2586 136.828H51.3966V140.69H55.2586V136.828Z" fill="black"/>
<path d="M59.1207 136.828H55.2586V140.69H59.1207V136.828Z" fill="black"/>
<path d="M62.9828 136.828H59.1207V140.69H62.9828V136.828Z" fill="black"/>
<path d="M66.8448 136.828H62.9828V140.69H66.8448V136.828Z" fill="black"/>
<path d="M74.569 136.828H70.7069V140.69H74.569V136.828Z" fill="black"/>
<path d="M90.0172 136.828H86.1552V140.69H90.0172V136.828Z" fill="black"/>
<path d="M97.7414 136.828H93.8793V140.69H97.7414V136.828Z" fill="black"/>
<path d="M101.603 136.828H97.7414V140.69H101.603V136.828Z" fill="black"/>
<path d="M117.052 136.828H113.19V140.69H117.052V136.828Z" fill="black"/>
<path d="M132.5 136.828H128.638V140.69H132.5V136.828Z" fill="black"/>
<path d="M24.3621 140.69H20.5V144.552H24.3621V140.69Z" fill="black"/>
<path d="M32.0862 140.69H28.2241V144.552H32.0862V140.69Z" fill="black"/>
<path d="M35.9483 140.69H32.0862V144.552H35.9483V140.69Z" fill="black"/>
<path d="M39.8103 140.69H35.9483V144.552H39.8103V140.69Z" fill="black"/>
<path d="M47.5345 140.69H43.6724V144.552H47.5345V140.69Z" fill="black"/>
<path d="M66.8448 140.69H62.9828V144.552H66.8448V140.69Z" fill="black"/>
<path d="M101.603 140.69H97.7414V144.552H101.603V140.69Z" fill="black"/>
<path d="M105.466 140.69H101.603V144.552H105.466V140.69Z" fill="black"/>
<path d="M109.328 140.69H105.466V144.552H109.328V140.69Z" fill="black"/>
<path d="M113.19 140.69H109.328V144.552H113.19V140.69Z" fill="black"/>
<path d="M117.052 140.69H113.19V144.552H117.052V140.69Z" fill="black"/>
<path d="M120.914 140.69H117.052V144.552H120.914V140.69Z" fill="black"/>
<path d="M124.776 140.69H120.914V144.552H124.776V140.69Z" fill="black"/>
<path d="M128.638 140.69H124.776V144.552H128.638V140.69Z" fill="black"/>
<path d="M24.3621 144.552H20.5V148.414H24.3621V144.552Z" fill="black"/>
<path d="M32.0862 144.552H28.2241V148.414H32.0862V144.552Z" fill="black"/>
<path d="M35.9483 144.552H32.0862V148.414H35.9483V144.552Z" fill="black"/>
<path d="M39.8103 144.552H35.9483V148.414H39.8103V144.552Z" fill="black"/>
<path d="M47.5345 144.552H43.6724V148.414H47.5345V144.552Z" fill="black"/>
<path d="M59.1207 144.552H55.2586V148.414H59.1207V144.552Z" fill="black"/>
<path d="M78.431 144.552H74.569V148.414H78.431V144.552Z" fill="black"/>
<path d="M90.0172 144.552H86.1552V148.414H90.0172V144.552Z" fill="black"/>
<path d="M97.7414 144.552H93.8793V148.414H97.7414V144.552Z" fill="black"/>
<path d="M109.328 144.552H105.466V148.414H109.328V144.552Z" fill="black"/>
<path d="M113.19 144.552H109.328V148.414H113.19V144.552Z" fill="black"/>
<path d="M120.914 144.552H117.052V148.414H120.914V144.552Z" fill="black"/>
<path d="M132.5 144.552H128.638V148.414H132.5V144.552Z" fill="black"/>
<path d="M24.3621 148.414H20.5V152.276H24.3621V148.414Z" fill="black"/>
<path d="M32.0862 148.414H28.2241V152.276H32.0862V148.414Z" fill="black"/>
<path d="M35.9483 148.414H32.0862V152.276H35.9483V148.414Z" fill="black"/>
<path d="M39.8103 148.414H35.9483V152.276H39.8103V148.414Z" fill="black"/>
<path d="M47.5345 148.414H43.6724V152.276H47.5345V148.414Z" fill="black"/>
<path d="M66.8448 148.414H62.9828V152.276H66.8448V148.414Z" fill="black"/>
<path d="M90.0172 148.414H86.1552V152.276H90.0172V148.414Z" fill="black"/>
<path d="M101.603 148.414H97.7414V152.276H101.603V148.414Z" fill="black"/>
<path d="M109.328 148.414H105.466V152.276H109.328V148.414Z" fill="black"/>
<path d="M113.19 148.414H109.328V152.276H113.19V148.414Z" fill="black"/>
<path d="M120.914 148.414H117.052V152.276H120.914V148.414Z" fill="black"/>
<path d="M124.776 148.414H120.914V152.276H124.776V148.414Z" fill="black"/>
<path d="M24.3621 152.276H20.5V156.138H24.3621V152.276Z" fill="black"/>
<path d="M47.5345 152.276H43.6724V156.138H47.5345V152.276Z" fill="black"/>
<path d="M59.1207 152.276H55.2586V156.138H59.1207V152.276Z" fill="black"/>
<path d="M62.9828 152.276H59.1207V156.138H62.9828V152.276Z" fill="black"/>
<path d="M66.8448 152.276H62.9828V156.138H66.8448V152.276Z" fill="black"/>
<path d="M70.7069 152.276H66.8448V156.138H70.7069V152.276Z" fill="black"/>
<path d="M74.569 152.276H70.7069V156.138H74.569V152.276Z" fill="black"/>
<path d="M78.431 152.276H74.569V156.138H78.431V152.276Z" fill="black"/>
<path d="M86.1552 152.276H82.2931V156.138H86.1552V152.276Z" fill="black"/>
<path d="M90.0172 152.276H86.1552V156.138H90.0172V152.276Z" fill="black"/>
<path d="M93.8793 152.276H90.0172V156.138H93.8793V152.276Z" fill="black"/>
<path d="M109.328 152.276H105.466V156.138H109.328V152.276Z" fill="black"/>
<path d="M113.19 152.276H109.328V156.138H113.19V152.276Z" fill="black"/>
<path d="M117.052 152.276H113.19V156.138H117.052V152.276Z" fill="black"/>
<path d="M128.638 152.276H124.776V156.138H128.638V152.276Z" fill="black"/>
<path d="M132.5 152.276H128.638V156.138H132.5V152.276Z" fill="black"/>
<path d="M24.3621 156.138H20.5V160H24.3621V156.138Z" fill="black"/>
<path d="M28.2241 156.138H24.3621V160H28.2241V156.138Z" fill="black"/>
<path d="M32.0862 156.138H28.2241V160H32.0862V156.138Z" fill="black"/>
<path d="M35.9483 156.138H32.0862V160H35.9483V156.138Z" fill="black"/>
<path d="M39.8103 156.138H35.9483V160H39.8103V156.138Z" fill="black"/>
<path d="M43.6724 156.138H39.8103V160H43.6724V156.138Z" fill="black"/>
<path d="M47.5345 156.138H43.6724V160H47.5345V156.138Z" fill="black"/>
<path d="M59.1207 156.138H55.2586V160H59.1207V156.138Z" fill="black"/>
<path d="M78.431 156.138H74.569V160H78.431V156.138Z" fill="black"/>
<path d="M82.2931 156.138H78.431V160H82.2931V156.138Z" fill="black"/>
<path d="M86.1552 156.138H82.2931V160H86.1552V156.138Z" fill="black"/>
<path d="M90.0172 156.138H86.1552V160H90.0172V156.138Z" fill="black"/>
<path d="M93.8793 156.138H90.0172V160H93.8793V156.138Z" fill="black"/>
<path d="M101.603 156.138H97.7414V160H101.603V156.138Z" fill="black"/>
<path d="M105.466 156.138H101.603V160H105.466V156.138Z" fill="black"/>
<path d="M120.914 156.138H117.052V160H120.914V156.138Z" fill="black"/>
<path d="M124.776 156.138H120.914V160H124.776V156.138Z" fill="black"/>
</g>
</g>
</g>
</g>
<defs>
<clipPath id="clip0">
<rect width="153" height="242.65" fill="white"/>
</clipPath>
</defs>
</svg>
