<svg width="256" height="256" viewBox="0 0 256 256" fill="none" xmlns="http://www.w3.org/2000/svg">
<g id="confusion-256px">
<g clip-path="url(#clip0)">
<g id="Group">
<g id="Group_2">
<path id="Vector" fill-rule="evenodd" clip-rule="evenodd" d="M131.316 53.825C89.6835 54.511 48.0515 85.625 48.0515 147.021H214.581C214.581 85.6255 172.949 54.5115 131.316 53.825V53.825Z" fill="#6D80AA"/>
</g>
<g id="Group_3">
<path id="Vector_2" fill-rule="evenodd" clip-rule="evenodd" d="M214.581 147.021L203.081 163.535L213.007 185.041C223.595 185.187 235.595 174.353 235.595 163.738V155.431C235.595 150.803 231.786 147.021 227.125 147.021H214.581Z" fill="#FFBC85"/>
</g>
<g id="Group_4">
<path id="Vector_3" fill-rule="evenodd" clip-rule="evenodd" d="M27.0515 155.431V163.738C27.0515 174.353 39.0515 185.187 49.625 185.041L62.228 166.031L48.0515 147.021H35.5075C30.8605 147.021 27.0515 150.803 27.0515 155.431V155.431Z" fill="#FFBC85"/>
</g>
<g id="Group_5">
<path id="Vector_4" fill-rule="evenodd" clip-rule="evenodd" d="M128.037 53.942C163.419 60.819 195.081 90.283 196.39 142.247C200.89 144.656 206.669 146.481 214.581 147.021C214.581 85.6255 172.948 54.5115 131.316 53.825C130.228 53.84 129.139 53.8835 128.037 53.942V53.942Z" fill="#49679B"/>
</g>
<g id="Group_6">
<path id="Vector_5" fill-rule="evenodd" clip-rule="evenodd" d="M99.9925 125.091C76.7425 119.149 81.757 144.685 48.0515 147.021V172.31C48.0515 176.442 48.5955 180.705 49.625 185.042C55.9925 211.848 80.9045 240.948 110.463 251.825C118.007 254.613 124.669 256.001 131.316 256.001C137.978 256.001 144.625 254.614 152.169 251.825C181.728 240.947 206.655 211.848 213.007 185.042C214.037 180.705 214.581 176.442 214.581 172.31V147.021C180.875 144.685 185.904 119.149 162.64 125.091C144.654 129.69 138.007 131.997 131.316 131.997C124.64 131.997 117.978 129.69 99.9925 125.091V125.091Z" fill="#FFE5C1"/>
</g>
<g id="Group_7">
<path id="Vector_6" fill-rule="evenodd" clip-rule="evenodd" d="M196.419 145.59L196.434 170.878C196.434 174.996 195.89 179.274 194.86 183.61C188.493 210.417 163.566 239.516 134.022 250.393C128.405 252.467 123.286 253.751 118.286 254.292C122.786 255.431 127.051 256 131.316 256C137.978 256 144.625 254.613 152.169 251.824C181.728 240.947 206.655 211.848 213.007 185.041C214.037 180.705 214.581 176.441 214.581 172.309V147.021C206.669 146.481 200.889 144.655 196.389 142.246C196.419 143.356 196.419 144.466 196.419 145.59V145.59Z" fill="#FED1A3"/>
</g>
<g id="Group_8">
<path id="Vector_7" fill-rule="evenodd" clip-rule="evenodd" d="M176.845 96.4735C192.316 104.679 211.978 102.314 225.022 89.363C240.992 73.5065 240.992 47.8095 225.022 31.968C209.066 16.1115 183.184 16.1115 167.213 31.968C154.169 44.9185 151.786 64.44 160.051 79.7995L156.418 98.5615C156.08 100.299 156.051 100.445 157.801 100.109L176.845 96.4735Z" fill="#FDB440"/>
</g>
<g id="Group_9">
<path id="Vector_8" d="M197.022 73.906C194.892 73.906 193.166 72.178 193.166 70.046V64.206C193.166 60.0045 195.826 56.85 197.964 54.3155C199.231 52.814 200.666 51.1115 200.666 50.1165V46.408C200.666 43.2955 198.102 40.763 194.949 40.763C191.788 40.763 189.217 43.2955 189.217 46.408V50.1165C189.217 52.2485 187.491 53.9765 185.361 53.9765C183.231 53.9765 181.505 52.2485 181.505 50.1165V46.408C181.505 39.0385 187.536 33.043 194.949 33.043C202.354 33.043 208.378 39.0385 208.378 46.408V50.1165C208.378 53.9345 205.976 56.7825 203.857 59.295C202.393 61.0315 200.878 62.827 200.878 64.206V70.046C200.879 72.1785 199.152 73.906 197.022 73.906Z" fill="#F8F2F0"/>
</g>
<g id="Group_10">
<path id="Vector_9" d="M197.037 87.8285C194.907 87.8285 193.181 86.1075 193.181 83.9755V83.961C193.181 81.829 194.907 80.101 197.037 80.101C199.167 80.101 200.893 81.829 200.893 83.961C200.893 86.093 199.166 87.8285 197.037 87.8285V87.8285Z" fill="#F8F2F0"/>
</g>
<g id="Group_11">
<path id="Vector_10" d="M142.157 229.563C141.03 229.563 139.914 229.072 139.152 228.125C136.261 224.535 129.493 222.996 124.952 224.899C122.989 225.72 120.728 224.795 119.906 222.828C119.084 220.862 120.01 218.6 121.975 217.777C129.706 214.54 140.106 217.008 145.156 223.282C146.492 224.942 146.232 227.371 144.574 228.709C143.861 229.284 143.006 229.563 142.157 229.563V229.563Z" fill="#6D80AA"/>
</g>
<g id="Group_12">
<path id="Vector_11" d="M177.878 160.036C176.582 160.036 175.316 159.381 174.588 158.194C170.385 151.338 160.693 149.43 154.124 151.592C152.099 152.258 149.921 151.157 149.256 149.132C148.59 147.107 149.691 144.926 151.714 144.26C161.277 141.11 174.906 143.952 181.161 154.157C182.275 155.974 181.707 158.351 179.891 159.466C179.263 159.852 178.566 160.036 177.878 160.036V160.036Z" fill="#6D80AA"/>
</g>
<g id="Group_13">
<path id="Vector_12" fill-rule="evenodd" clip-rule="evenodd" d="M94.022 95.291C74.7425 105.526 50.213 102.576 33.934 86.4285C14.022 66.6595 14.022 34.5965 33.934 14.827C53.846 -4.9425 86.14 -4.942 106.051 14.827C122.316 30.99 125.287 55.3435 114.978 74.4995L119.522 97.9045C119.934 100.066 119.978 100.255 117.772 99.832L94.022 95.291Z" fill="#FDB440"/>
</g>
<g id="Group_14">
<path id="Vector_13" d="M70.1689 66.4455C68.0394 66.4455 66.3129 64.7175 66.3129 62.5855V55.3145C66.3129 50.4155 69.3749 46.783 72.0764 43.578C73.8409 41.4845 75.6659 39.3195 75.6659 37.735V33.1215C75.6659 28.705 72.0389 25.1115 67.5809 25.1115C63.1149 25.1115 59.4809 28.705 59.4809 33.1215V37.735C59.4809 39.867 57.7544 41.595 55.6249 41.595C53.4954 41.595 51.7689 39.867 51.7689 37.735V33.1215C51.7689 24.448 58.8619 17.3915 67.5809 17.3915C76.2914 17.3915 83.3779 24.448 83.3779 33.1215V37.735C83.3779 42.141 80.5049 45.5495 77.9704 48.556C75.9414 50.9635 74.0249 53.2365 74.0249 55.3145V62.5855C74.0249 64.7175 72.2984 66.4455 70.1689 66.4455Z" fill="#F8F2F0"/>
</g>
<g id="Group_15">
<path id="Vector_14" d="M70.184 83.82C68.0545 83.82 66.328 82.1065 66.328 79.9745V79.9455C66.328 77.8135 68.0545 76.0855 70.184 76.0855C72.3135 76.0855 74.04 77.8135 74.04 79.9455C74.04 82.0775 72.3135 83.82 70.184 83.82Z" fill="#F8F2F0"/>
</g>
<g id="Group_16">
<path id="Vector_15" fill-rule="evenodd" clip-rule="evenodd" d="M120.816 54.643C121.963 40.393 117.036 25.734 106.051 14.827C89.8749 -1.21898 65.5514 -4.24148 46.3159 5.77452C61.2719 4.03702 76.8454 8.87002 88.3159 20.2585C99.0514 30.917 104.007 45.1525 103.154 59.1105C102.727 66.294 100.757 73.4045 97.2419 79.9165L100.462 96.5175L117.771 99.832C119.977 100.256 119.933 100.066 119.521 97.9045L114.977 74.4995C118.316 68.28 120.272 61.505 120.816 54.643V54.643Z" fill="#FE9900"/>
</g>
<g id="Group_17">
<path id="Vector_16" fill-rule="evenodd" clip-rule="evenodd" d="M225.022 89.363C240.992 73.5065 240.992 47.8095 225.022 31.968C215.242 22.2585 201.742 18.4915 189.081 20.6815C197.081 22.054 204.757 25.821 210.948 31.968C226.904 47.8095 226.904 73.507 210.948 89.363C208.316 91.9765 205.419 94.152 202.345 95.904C198.183 98.2695 193.683 99.846 189.081 100.649C194.243 101.54 199.537 101.438 204.669 100.357C212.125 98.7805 219.228 95.116 225.022 89.363Z" fill="#FE9900"/>
</g>
<g id="Group_18">
<path id="Vector_17" d="M81.0625 160.036C80.375 160.036 79.6785 159.852 79.0495 159.465C77.234 158.351 76.666 155.973 77.7795 154.156C84.035 143.952 97.664 141.111 107.227 144.259C109.25 144.925 110.35 147.107 109.685 149.132C109.019 151.157 106.839 152.26 104.817 151.592C98.2465 149.429 88.555 151.337 84.3525 158.194C83.625 159.381 82.359 160.036 81.0625 160.036V160.036Z" fill="#6D80AA"/>
</g>
<g id="Group_19">
<path id="Vector_18" d="M167.204 175.691C165.072 175.691 163.344 173.961 163.344 171.828V168.901C163.344 166.767 165.072 165.038 167.204 165.038C169.336 165.038 171.065 166.768 171.065 168.901V171.828C171.065 173.961 169.336 175.691 167.204 175.691Z" fill="#6D80AA"/>
</g>
<g id="Group_20">
<path id="Vector_19" d="M103.704 175.691C101.572 175.691 99.844 173.961 99.844 171.828V168.901C99.844 166.767 101.572 165.038 103.704 165.038C105.836 165.038 107.565 166.768 107.565 168.901V171.828C107.565 173.961 105.836 175.691 103.704 175.691Z" fill="#6D80AA"/>
</g>
</g>
</g>
</g>
<defs>
<clipPath id="clip0">
<rect width="256" height="256" fill="white"/>
</clipPath>
</defs>
</svg>
