<svg width="256" height="256" viewBox="0 0 256 256" fill="none" xmlns="http://www.w3.org/2000/svg">
<g id="Icon-Funding-Euro-256px" clip-path="url(#clip0_2804_110)">
<g id="Hand">
<path id="Vector" d="M178.407 212.685L215.866 194.992C224.126 190.821 234.203 193.879 238.753 201.933L162.613 251.186C152.404 255.897 140.948 257.193 129.945 254.884L77.432 240.145C72.6003 238.79 67.4289 239.355 63.0037 241.725L52.023 247.601L53.5009 194.042L53.9386 194.052C69.63 182.903 90.2386 181.46 107.331 190.317L110.474 191.945C115.389 194.49 120.815 195.893 126.349 196.043L157.219 196.895C166.905 197.16 175.385 203.478 178.407 212.685V212.685Z" fill="#DBAB84"/>
<path id="Vector_2" d="M179.539 224.745H179.423L128.682 223.347C126.324 223.282 124.467 221.318 124.532 218.963C124.596 216.606 126.56 214.748 128.915 214.813L174.902 216.08C174.76 215.384 174.576 214.698 174.353 214.023C171.885 206.532 164.988 201.389 157.103 201.164L126.231 200.31C120.057 200.135 113.999 198.569 108.511 195.734L105.37 194.109C89.7055 185.944 70.7853 187.268 56.4112 197.533C54.4893 198.899 51.8234 198.446 50.4581 196.524C49.0928 194.603 49.5451 191.937 51.467 190.571C68.4445 178.448 90.7935 176.885 109.295 186.528L112.438 188.153C116.782 190.398 121.576 191.634 126.464 191.776L157.336 192.629C164.557 192.823 171.404 195.878 176.369 201.125C181.334 206.369 184.01 213.375 183.806 220.593C183.744 222.907 181.851 224.747 179.537 224.745H179.539Z" fill="#CC8866"/>
<path id="Vector_3" d="M52.0232 247.601L51.8565 253.629L18.0098 252.701L20.0546 178.417L53.9055 179.347L53.5011 194.042L52.0232 247.601Z" fill="#62688F"/>
</g>
<g id="Coin-Euro">
<g id="Ellipse">
<circle cx="128" cy="128" r="50" fill="#CCCCCC"/>
<circle cx="128" cy="128" r="49.875" stroke="black" stroke-opacity="0.25" stroke-width="0.25"/>
</g>
<g id="Ellipse_2">
<circle cx="128" cy="128" r="46" fill="#EBEBEB"/>
<circle cx="128" cy="128" r="45.875" stroke="black" stroke-opacity="0.25" stroke-width="0.25"/>
</g>
<g id="Ellipse_3">
<circle cx="128" cy="128" r="34" fill="#EAD583"/>
<circle cx="128" cy="128" r="33.875" stroke="black" stroke-opacity="0.25" stroke-width="0.25"/>
</g>
<g id="&#226;&#130;&#172;">
<path d="M112 133.217H115.665C116.867 143.869 123.627 150 134.202 150C136.365 150 138.288 149.783 140 149.35V144.395C138.318 144.798 136.365 145.015 134.232 145.015C126.991 145.015 122.275 140.649 121.163 133.217H135.133V129.811H120.923C120.923 129.749 120.923 129.688 120.923 129.595V126.405C120.923 126.003 120.923 125.6 120.923 125.198H135.133V121.792H121.343C122.725 114.949 127.292 111.016 134.232 111.016C136.365 111.016 138.318 111.202 140 111.635V106.681C138.288 106.217 136.365 106 134.202 106C123.957 106 117.288 111.759 115.785 121.792H112V125.198H115.485C115.455 125.569 115.455 125.941 115.455 126.312V129.811H112V133.217Z" fill="black" fill-opacity="0.125"/>
<path d="M111.875 133.217V133.342H112H115.554C116.172 138.639 118.167 142.827 121.335 145.696C124.524 148.585 128.89 150.125 134.202 150.125C136.373 150.125 138.306 149.907 140.031 149.471L140.125 149.447V149.35V144.395V144.237L139.971 144.274C138.3 144.674 136.357 144.89 134.232 144.89C130.638 144.89 127.68 143.807 125.483 141.81C123.314 139.839 121.877 136.968 121.309 133.342H135.133H135.258V133.217V129.811V129.686H135.133H121.048V129.686V129.686V129.685V129.685V129.684V129.684V129.683V129.683V129.682V129.682V129.682V129.681V129.681V129.68V129.68V129.679V129.679V129.679V129.678V129.678V129.677V129.677V129.676V129.676V129.675V129.675V129.675V129.674V129.674V129.673V129.673V129.672V129.672V129.671V129.671V129.67V129.67V129.67V129.669V129.669V129.668V129.668V129.667V129.667V129.666V129.666V129.665V129.665V129.665V129.664V129.664V129.663V129.663V129.662V129.662V129.661V129.661V129.66V129.66V129.659V129.659V129.659V129.658V129.658V129.657V129.657V129.656V129.656V129.655V129.655V129.654V129.654V129.653V129.653V129.652V129.652V129.651V129.651V129.651V129.65V129.65V129.649V129.649V129.648V129.648V129.647V129.647V129.646V129.646V129.645V129.645V129.644V129.644V129.643V129.643V129.642V129.642V129.641V129.641V129.64V129.64V129.639V129.639V129.638V129.638V129.638V129.637V129.637V129.636V129.636V129.635V129.635V129.634V129.634V129.633V129.633V129.632V129.632V129.631V129.631V129.63V129.63V129.629V129.629V129.628V129.628V129.627V129.627V129.626V129.626V129.625V129.625V129.624V129.624V129.623V129.623V129.622V129.622V129.621V129.62V129.62V129.619V129.619V129.618V129.618V129.617V129.617V129.616V129.616V129.615V129.615V129.614V129.614V129.613V129.613V129.612V129.612V129.611V129.611V129.61V129.61V129.609V129.609V129.608V129.608V129.607V129.606V129.606V129.605V129.605V129.604V129.604V129.603V129.603V129.602V129.602V129.601V129.601V129.6V129.6V129.599V129.598V129.598V129.597V129.597V129.596V129.596V129.595V129.595V126.405V126.403V126.401V126.398V126.396V126.394V126.391V126.389V126.386V126.384V126.382V126.379V126.377V126.375V126.372V126.37V126.368V126.365V126.363V126.361V126.358V126.356V126.353V126.351V126.349V126.346V126.344V126.342V126.339V126.337V126.335V126.332V126.33V126.328V126.325V126.323V126.32V126.318V126.316V126.313V126.311V126.309V126.306V126.304V126.302V126.299V126.297V126.294V126.292V126.29V126.287V126.285V126.283V126.28V126.278V126.276V126.273V126.271V126.269V126.266V126.264V126.261V126.259V126.257V126.254V126.252V126.25V126.247V126.245V126.243V126.24V126.238V126.236V126.233V126.231V126.228V126.226V126.224V126.221V126.219V126.217V126.214V126.212V126.21V126.207V126.205V126.203V126.2V126.198V126.195V126.193V126.191V126.188V126.186V126.184V126.181V126.179V126.177V126.174V126.172V126.169V126.167V126.165V126.162V126.16V126.158V126.155V126.153V126.151V126.148V126.146V126.144V126.141V126.139V126.136V126.134V126.132V126.129V126.127V126.125V126.122V126.12V126.118V126.115V126.113V126.111V126.108V126.106V126.103V126.101V126.099V126.096V126.094V126.092V126.089V126.087V126.085V126.082V126.08V126.078V126.075V126.073V126.07V126.068V126.066V126.063V126.061V126.059V126.056V126.054V126.052V126.049V126.047V126.044V126.042V126.04V126.037V126.035V126.033V126.03V126.028V126.026V126.023V126.021V126.019V126.016V126.014V126.011V126.009V126.007V126.004V126.002V126V125.997V125.995V125.993V125.99V125.988V125.986V125.983V125.981V125.978V125.976V125.974V125.971V125.969V125.967V125.964V125.962V125.96V125.957V125.955V125.952V125.95V125.948V125.945V125.943V125.941V125.938V125.936V125.934V125.931V125.929V125.927V125.924V125.922V125.919V125.917V125.915V125.912V125.91V125.908V125.905V125.903V125.901V125.898V125.896V125.894V125.891V125.889V125.886V125.884V125.882V125.879V125.877V125.875V125.872V125.87V125.868V125.865V125.863V125.861V125.858V125.856V125.853V125.851V125.849V125.846V125.844V125.842V125.839V125.837V125.835V125.832V125.83V125.827V125.825V125.823V125.82V125.818V125.816V125.813V125.811V125.809V125.806V125.804V125.802V125.799V125.797V125.794V125.792V125.79V125.787V125.785V125.783V125.78V125.778V125.776V125.773V125.771V125.769V125.766V125.764V125.761V125.759V125.757V125.754V125.752V125.75V125.747V125.745V125.743V125.74V125.738V125.736V125.733V125.731V125.728V125.726V125.724V125.721V125.719V125.717V125.714V125.712V125.71V125.707V125.705V125.702V125.7V125.698V125.695V125.693V125.691V125.688V125.686V125.684V125.681V125.679V125.677V125.674V125.672V125.669V125.667V125.665V125.662V125.66V125.658V125.655V125.653V125.651V125.648V125.646V125.644V125.641V125.639V125.636V125.634V125.632V125.629V125.627V125.625V125.622V125.62V125.618V125.615V125.613V125.611V125.608V125.606V125.603V125.601V125.599V125.596V125.594V125.592V125.589V125.587V125.585V125.582V125.58V125.577V125.575V125.573V125.57V125.568V125.566V125.563V125.561V125.559V125.556V125.554V125.552V125.549V125.547V125.544V125.542V125.54V125.537V125.535V125.533V125.53V125.528V125.526V125.523V125.521V125.519V125.516V125.514V125.511V125.509V125.507V125.504V125.502V125.5V125.497V125.495V125.493V125.49V125.488V125.485V125.483V125.481V125.478V125.476V125.474V125.471V125.469V125.467V125.464V125.462V125.46V125.457V125.455V125.452V125.45V125.448V125.445V125.443V125.441V125.438V125.436V125.434V125.431V125.429V125.427V125.424V125.422V125.419V125.417V125.415V125.412V125.41V125.408V125.405V125.403V125.401V125.398V125.396V125.394V125.391V125.389V125.386V125.384V125.382V125.379V125.377V125.375V125.372V125.37V125.368V125.365V125.363V125.36V125.358V125.356V125.353V125.351V125.349V125.346V125.344V125.342V125.339V125.337V125.335V125.332V125.33V125.327V125.325V125.323L135.133 125.323H135.258V125.198V121.792V121.667H135.133H121.497C122.196 118.338 123.66 115.723 125.784 113.933C127.94 112.117 130.786 111.141 134.232 111.141C136.358 111.141 138.3 111.326 139.969 111.757L140.125 111.797V111.635V106.681V106.586L140.033 106.561C138.307 106.093 136.373 105.875 134.202 105.875C129.056 105.875 124.796 107.322 121.634 110.039C118.493 112.737 116.445 116.677 115.678 121.667H112H111.875V121.792V125.198V125.323H112H115.351C115.33 125.654 115.33 125.984 115.33 126.31V126.312V129.686H112H111.875V129.811V133.217Z" stroke="black" stroke-opacity="0.25" stroke-width="0.25"/>
</g>
</g>
<g id="Motion Lines">
<path id="Line 1 (Stroke)" fill-rule="evenodd" clip-rule="evenodd" d="M98 23C99.1046 23 100 23.8954 100 25L100 66C100 67.1046 99.1046 68 98 68C96.8954 68 96 67.1046 96 66L96 25C96 23.8954 96.8954 23 98 23Z" fill="#CCCCCC" stroke="black" stroke-opacity="0.25" stroke-width="0.25" stroke-linecap="round"/>
<path id="Line 2 (Stroke)" fill-rule="evenodd" clip-rule="evenodd" d="M128 -8.74228e-08C129.105 -3.91405e-08 130 0.895431 130 2L130 58C130 59.1046 129.105 60 128 60C126.895 60 126 59.1046 126 58L126 2C126 0.89543 126.895 -1.35705e-07 128 -8.74228e-08Z" fill="#CCCCCC" stroke="black" stroke-opacity="0.25" stroke-width="0.25" stroke-linecap="round"/>
<path id="Line 3 (Stroke)" fill-rule="evenodd" clip-rule="evenodd" d="M158 23C159.105 23 160 23.8954 160 25L160 66C160 67.1046 159.105 68 158 68C156.895 68 156 67.1046 156 66L156 25C156 23.8954 156.895 23 158 23Z" fill="#CCCCCC" stroke="black" stroke-opacity="0.25" stroke-width="0.25" stroke-linecap="round"/>
</g>
</g>
<defs>
<clipPath id="clip0_2804_110">
<rect width="256" height="256" fill="white"/>
</clipPath>
</defs>
</svg>
