<svg width="256" height="256" viewBox="0 0 256 256" fill="none" xmlns="http://www.w3.org/2000/svg">
<g id="Icon-Passport-256px">
<path id="Vector" d="M218.379 256H35.4465C31.18 256 27.4465 252.266 27.4465 248V18.6665C27.4465 12.8 32.2465 8 38.113 8H217.846C223.713 8 228.513 12.8 228.513 18.6665V245.333C229.046 251.2 224.247 256 218.379 256Z" fill="#334A5E"/>
<path id="Vector_2" d="M210.379 248H27.4465V10.6665C27.4465 4.8 32.2465 0 38.113 0H209.846C215.713 0 220.513 4.8 220.513 10.6665V237.333C221.046 243.2 216.247 248 210.379 248Z" fill="#40596B"/>
<path id="Vector_3" d="M124.513 156.267C159.859 156.267 188.513 127.613 188.513 92.2665C188.513 56.9203 159.859 28.2665 124.513 28.2665C89.1668 28.2665 60.513 56.9203 60.513 92.2665C60.513 127.613 89.1668 156.267 124.513 156.267Z" fill="white"/>
<g id="Group">
<path id="Vector_4" d="M124.513 151.466C157.208 151.466 183.713 124.962 183.713 92.2665C183.713 59.5712 157.208 33.0665 124.513 33.0665C91.8177 33.0665 65.313 59.5712 65.313 92.2665C65.313 124.962 91.8177 151.466 124.513 151.466Z" fill="#54C0EB"/>
<path id="Vector_5" d="M137.313 34.1335C122.913 37.867 106.913 46.9335 93.0465 60.8C79.713 74.1335 70.113 89.6 66.38 105.066C65.8465 101.866 65.3135 98.6665 64.78 94.933C64.78 93.8665 64.78 92.7995 64.78 91.733C64.78 59.1995 91.4465 32.533 123.98 32.533C125.047 32.533 126.114 32.533 127.714 32.533C130.913 33.0665 134.113 33.6 137.313 34.1335Z" fill="#54C0EB"/>
</g>
<g id="Group_2">
<path id="Vector_6" d="M96.7795 122.666C96.246 122.133 96.246 121.6 96.246 120.533C96.246 119.466 94.646 118.933 93.5795 118.933C92.513 118.933 91.446 119.466 90.3795 118.933C88.7795 118.399 87.713 116.799 86.646 115.733C85.046 114.133 82.3795 113.599 81.3125 111.999C80.246 110.933 80.246 109.866 79.7125 108.266C79.179 106.132 78.646 103.999 78.1125 101.866C78.1125 101.332 77.579 100.799 77.579 100.266C77.0455 99.7325 76.5125 99.7325 76.5125 99.1995C73.846 97.5995 72.779 94.3995 73.3125 91.1995C73.846 89.066 75.446 87.466 76.5125 85.333C78.646 82.6665 80.779 79.9995 83.446 77.8665C84.5125 77.333 85.5795 76.2665 86.1125 75.733C88.246 73.5995 88.246 69.8665 87.179 67.1995C86.6455 66.133 86.1125 65.5995 85.579 65.066C85.579 63.9995 85.579 62.3995 85.0455 60.7995C84.512 59.1995 82.912 57.5995 81.312 58.133L71.712 65.0665C67.4455 73.0665 65.312 82.133 65.312 91.733C65.312 113.6 77.0455 132.799 95.1785 142.933C96.7785 142.399 97.845 141.333 99.445 140.799C99.9785 140.266 100.511 140.266 100.511 140.266C101.578 138.666 99.978 137.066 99.978 134.932C99.978 132.799 102.111 131.732 102.645 129.599C102.645 129.065 103.178 128.533 103.178 127.999C103.713 124.8 100.513 121.6 96.7795 122.666C97.313 122.666 96.7795 122.666 96.7795 122.666Z" fill="#84DBFF"/>
<path id="Vector_7" d="M176.247 100.8C173.58 100.267 176.78 94.4 175.713 91.7335C175.179 89.067 174.113 85.867 171.98 84.267C169.846 82.1335 166.646 81.067 163.98 82.667C164.513 84.8005 167.713 84.8005 168.779 86.4005C169.846 87.467 169.313 89.6005 168.246 90.667C167.18 91.7335 166.112 92.8005 164.512 93.867C163.979 94.4005 163.446 94.9335 163.446 96.0005C163.446 97.067 164.512 97.6005 164.512 98.134C165.046 99.2005 164.512 100.8 163.446 101.334C162.379 102.4 161.312 102.934 160.246 103.467C157.046 105.601 154.912 109.334 154.379 113.067C154.379 114.667 154.379 116.268 153.846 117.334C153.312 118.934 151.713 120.534 151.18 122.134C149.58 124.268 149.046 126.934 148.513 129.6C147.446 132.8 145.313 135.467 142.646 137.6C141.58 138.667 139.98 139.734 138.38 139.734C135.18 140.267 131.98 137.601 130.38 134.934C129.314 132.268 128.78 129.067 129.314 126.4C129.847 123.734 131.447 120.534 129.847 118.4C129.313 117.334 128.247 116.8 127.18 116.267C124.514 113.6 125.58 108.8 125.047 104.534C125.047 104 124.513 102.934 123.98 102.934C123.447 102.934 123.447 102.934 122.914 102.4C119.714 101.867 116.514 102.4 112.78 101.867C109.58 101.333 106.38 99.733 104.247 97.0665C102.647 94.933 102.647 91.733 103.18 89.0665C103.18 86.933 103.714 84.8 104.78 83.2C106.38 81.0665 108.514 79.4665 111.18 78.4C115.447 76.2665 120.247 74.6665 124.514 75.2C127.18 75.7335 129.848 77.3335 132.514 77.3335C134.114 77.3335 135.714 77.3335 137.314 76.8C141.58 75.7335 146.38 75.2 150.114 73.0665C152.78 72 155.447 69.8665 154.914 67.2C154.38 65.6 153.314 64.5335 151.714 64C150.114 63.4665 148.514 64 146.914 64.5335C144.78 65.6 142.647 66.667 141.047 68.267C140.514 68.8005 139.981 69.3335 138.914 69.867C136.247 70.4005 135.181 65.067 132.514 65.067C133.581 66.1335 133.047 67.7335 131.98 68.8005C130.914 69.867 129.314 69.867 128.247 68.8005C127.18 67.734 126.113 66.134 125.047 65.6005C123.447 65.067 121.847 66.134 120.78 66.667C118.114 68.267 115.447 69.3335 112.247 69.3335C110.647 69.3335 108.513 69.3335 107.447 67.7335C106.38 66.1335 107.98 63.467 109.58 62.9335C111.714 61.867 113.847 61.867 115.98 61.3335C116.514 60.267 116.514 58.667 116.514 57.067C114.38 56.0005 110.647 57.067 108.514 55.467C106.914 54.4005 106.38 52.8005 106.914 50.667C107.447 49.067 108.514 47.467 110.114 46.9335C112.247 45.867 115.447 45.867 115.98 48C115.98 49.0665 115.98 50.1335 115.447 50.6665C115.447 51.733 115.447 52.8 116.513 53.333C117.047 53.333 117.58 53.333 117.58 53.333C123.446 52.2665 128.78 50.6665 134.646 49.5995C135.713 49.5995 136.78 49.066 137.313 48.533C138.913 49.0665 139.446 47.9995 138.913 46.933C137.846 45.333 135.713 46.933 133.579 47.4665C131.446 48.533 128.779 48 126.646 46.933C125.58 46.3995 123.979 45.8665 123.979 44.7995C123.979 44.266 124.513 43.1995 125.046 42.666C129.312 38.9325 135.713 37.3325 141.046 38.9325C143.713 39.999 146.379 41.066 149.579 41.599C151.179 42.1325 153.313 41.599 154.913 41.0655C170.379 50.6655 181.047 67.732 182.646 86.932C182.113 87.4655 181.58 88.532 181.046 89.0655C179.979 93.3335 183.18 102.4 176.247 100.8Z" fill="#84DBFF"/>
</g>
<g id="Group_3">
<path id="Vector_8" d="M59.4465 204.8V188.8H66.913C70.6465 188.8 72.2465 190.933 72.2465 194.133C72.2465 196.8 70.113 199.467 66.913 199.467H62.6465V205.333H59.4465V204.8ZM69.0465 193.6C69.0465 192 67.98 191.466 66.38 191.466H62.6465V195.733H66.38C67.9795 195.733 69.0465 195.2 69.0465 193.6Z" fill="#FFD15C"/>
<path id="Vector_9" d="M85.0465 204.8L83.98 202.133H77.0465L75.98 204.8H72.2465L78.6465 188.8H82.913L89.313 204.8H85.0465ZM80.7795 192L78.113 198.933H83.4465L80.7795 192Z" fill="#FFD15C"/>
<path id="Vector_10" d="M90.913 202.666L93.0465 200C94.113 201.066 95.713 202.133 98.38 202.133C100.513 202.133 101.047 201.067 101.047 200.533C101.047 197.867 91.4465 199.467 91.4465 193.6C91.4465 190.933 93.58 188.8 97.8465 188.8C100.513 188.8 102.646 189.333 104.246 190.933L102.113 193.6C101.046 192.533 98.913 192 97.313 192C95.713 192 95.1795 192.533 95.1795 193.6C95.1795 196.266 104.246 194.666 104.246 200.533C104.246 203.733 102.113 205.867 97.846 205.867C94.6465 204.8 92.513 203.733 90.913 202.666Z" fill="#FFD15C"/>
<path id="Vector_11" d="M106.913 202.666L109.047 200C110.113 201.066 111.713 202.133 114.38 202.133C116.513 202.133 117.047 201.067 117.047 200.533C117.047 197.867 107.447 199.467 107.447 193.6C107.447 190.933 109.58 188.8 113.846 188.8C116.513 188.8 118.646 189.333 120.246 190.933L118.113 193.6C117.046 192.533 114.913 192 113.313 192C111.713 192 111.179 192.533 111.179 193.6C111.179 196.266 120.246 194.666 120.246 200.533C120.246 203.733 118.113 205.867 113.846 205.867C110.647 204.8 108.513 203.733 106.913 202.666Z" fill="#FFD15C"/>
<path id="Vector_12" d="M123.98 204.8V188.8H131.446C135.179 188.8 136.779 190.933 136.779 194.133C136.779 196.8 134.646 199.467 131.446 199.467H127.18V205.333H123.98V204.8ZM133.579 193.6C133.579 192 132.513 191.466 130.913 191.466H127.18V195.733H130.913C132.513 195.733 133.579 195.2 133.579 193.6Z" fill="#FFD15C"/>
<path id="Vector_13" d="M139.447 196.8C139.447 192 143.18 188.266 147.98 188.266C152.78 188.266 156.513 192 156.513 196.8C156.513 201.6 152.78 205.333 147.98 205.333C143.18 204.8 139.447 201.6 139.447 196.8ZM153.313 196.8C153.313 193.6 151.18 191.466 148.513 191.466C145.313 191.466 143.713 193.6 143.713 196.8C143.713 200 145.847 202.133 148.513 202.133C151.18 202.133 153.313 199.466 153.313 196.8Z" fill="#FFD15C"/>
<path id="Vector_14" d="M169.846 204.8L166.646 198.933H163.98V204.8H160.246V188.8H167.713C170.913 188.8 173.046 190.933 173.046 194.133C173.046 196.8 171.446 198.4 169.313 198.933L173.046 205.333H169.846V204.8ZM169.846 193.6C169.846 192 168.78 191.466 167.18 191.466H163.446V195.733H167.18C168.779 195.733 169.846 195.2 169.846 193.6Z" fill="#FFD15C"/>
<path id="Vector_15" d="M181.046 204.8V191.466H176.246V188.266H189.046V191.466H184.246V204.8H181.046Z" fill="#FFD15C"/>
</g>
</g>
</svg>
