<svg width="256" height="256" viewBox="0 0 256 256" fill="none" xmlns="http://www.w3.org/2000/svg">
<g clip-path="url(#clip0_3940_1395)">
<path fill-rule="evenodd" clip-rule="evenodd" d="M46.9895 0C43.1293 0 40 3.1293 40 6.98949L40 205.011C40 208.871 43.1293 212 46.9895 212H166.685C170.545 212 173.674 208.871 173.674 205.011V6.98949C173.674 3.1293 170.545 0 166.685 0L46.9895 0ZM96.3534 12.2312C93.4583 12.2312 91.1113 14.5782 91.1113 17.4734C91.1113 20.3685 93.4583 22.7155 96.3534 22.7155H117.322C120.217 22.7155 122.564 20.3685 122.564 17.4734C122.564 14.5782 120.217 12.2312 117.322 12.2312H96.3534Z" fill="#FF4D00"/>
<path fill-rule="evenodd" clip-rule="evenodd" d="M158.909 176.623C159.402 176.339 160.032 176.507 160.316 177C161.913 179.765 162.753 182.902 162.753 186.095C162.753 189.289 161.913 192.426 160.316 195.191C160.032 195.683 159.402 195.852 158.909 195.568C158.417 195.283 158.248 194.654 158.532 194.161C159.948 191.709 160.694 188.927 160.694 186.095C160.694 183.264 159.948 180.482 158.532 178.03C158.248 177.537 158.417 176.907 158.909 176.623ZM155.134 178.511C155.626 178.226 156.256 178.395 156.54 178.888C157.806 181.079 158.472 183.565 158.472 186.095C158.472 188.626 157.806 191.112 156.54 193.303C156.256 193.796 155.626 193.964 155.134 193.68C154.641 193.396 154.473 192.766 154.757 192.274C155.841 190.395 156.412 188.264 156.412 186.095C156.412 183.926 155.841 181.796 154.757 179.917C154.473 179.425 154.641 178.795 155.134 178.511ZM151.534 180.242C152.028 179.96 152.657 180.131 152.939 180.625C153.878 182.268 154.371 184.131 154.371 186.027C154.371 187.923 153.878 189.785 152.939 191.429C152.657 191.922 152.028 192.094 151.534 191.812C151.04 191.53 150.869 190.901 151.151 190.407C151.911 189.076 152.312 187.565 152.312 186.027C152.312 184.488 151.911 182.978 151.151 181.647C150.869 181.153 151.04 180.524 151.534 180.242ZM147.873 182.147C148.348 181.834 148.987 181.964 149.3 182.439C150.022 183.531 150.407 184.798 150.407 186.095C150.407 187.393 150.022 188.66 149.3 189.752C148.987 190.227 148.348 190.357 147.873 190.044C147.399 189.73 147.268 189.091 147.582 188.617C148.085 187.856 148.348 186.982 148.348 186.095C148.348 185.209 148.085 184.335 147.582 183.574C147.268 183.1 147.399 182.461 147.873 182.147Z" fill="black"/>
<path d="M51.4114 180.605C51.4114 181.4 52.0218 181.573 52.7744 181.726C53.3349 181.838 53.7841 181.922 53.7841 182.371C53.7841 182.721 53.5231 183.009 52.8857 183.009C52.3213 183.009 52.0718 182.782 52.018 182.425H51.3384C51.3384 183.147 51.9566 183.55 52.855 183.55C53.8225 183.55 54.4676 183.093 54.4676 182.291C54.4676 181.504 53.8417 181.293 53.0854 181.162C52.6285 181.078 52.0833 181.016 52.0833 180.536C52.0833 180.145 52.4211 179.926 52.8934 179.926C53.4348 179.926 53.6958 180.229 53.7189 180.509H54.3639C54.3639 179.83 53.788 179.38 52.9164 179.38C52.1293 179.38 51.4114 179.749 51.4114 180.605ZM57.1552 179.38C56.1454 179.38 55.4082 180.075 55.4082 181.166V181.761C55.4082 182.913 56.1339 183.55 57.1552 183.55C58.1573 183.55 58.8983 182.901 58.8983 181.761V181.162C58.8983 180.037 58.1573 179.38 57.1552 179.38ZM57.159 179.972C57.8079 179.972 58.1995 180.486 58.1995 181.223V181.711C58.1995 182.46 57.8271 182.963 57.159 182.963C56.4833 182.963 56.1032 182.46 56.1032 181.711V181.223C56.1032 180.486 56.5102 179.972 57.159 179.972ZM60.0885 183.485H60.7834V177.968H60.0885V183.485ZM61.9814 181.788C61.9814 182.871 62.6264 183.55 63.6669 183.55C64.7342 183.55 65.2218 182.959 65.2449 182.364H64.5691C64.4962 182.671 64.2735 182.944 63.6784 182.944C63.0564 182.944 62.6763 182.498 62.6763 181.796V181.15C62.6763 180.444 63.018 179.987 63.6784 179.987C64.3081 179.987 64.4962 180.375 64.5384 180.613H65.218C65.1988 180.002 64.6766 179.38 63.6669 179.38C62.6302 179.38 61.9814 180.068 61.9814 181.127V181.788ZM67.4372 183.55C68.0323 183.55 68.3971 183.274 68.5929 182.947H68.6236V183.485H69.2917V180.728C69.2917 179.738 68.6044 179.38 67.7712 179.38C66.869 179.38 66.3314 179.764 66.27 180.448H66.9419C67.0225 180.168 67.2376 179.968 67.7482 179.968C68.2665 179.968 68.5929 180.206 68.5929 180.724V181.124H67.537C66.6079 181.124 66.1164 181.604 66.1164 182.31C66.1164 183.059 66.654 183.55 67.4372 183.55ZM67.6292 182.967C67.2107 182.967 66.8267 182.755 66.8267 182.287C66.8267 181.926 67.0494 181.653 67.5946 181.653H68.5929V182.103C68.5929 182.598 68.1744 182.967 67.6292 182.967ZM70.7007 183.485H71.3995V180.989C71.3995 180.44 71.7527 180.014 72.463 180.014C72.5859 180.014 72.7241 180.022 72.7894 180.037V179.404C72.7088 179.392 72.6243 179.384 72.536 179.384C71.8218 179.384 71.53 179.803 71.4302 180.068H71.3957V179.446H70.7007V183.485ZM75.0739 179.384C74.1332 179.384 73.5074 180.045 73.5074 181.074V181.857C73.5074 182.886 74.1178 183.542 75.0585 183.542C75.6498 183.542 76.1527 183.251 76.2718 182.84H76.3063V183.485H76.9744V177.968H76.2794V180.045H76.2449C76.0836 179.634 75.6421 179.384 75.0739 179.384ZM75.2159 179.979C75.8302 179.979 76.2794 180.433 76.2794 181.074V181.772C76.2794 182.498 75.8686 182.947 75.2351 182.947C74.5939 182.947 74.2061 182.49 74.2061 181.707V181.216C74.2061 180.44 74.5862 179.979 75.2159 179.979ZM78.2683 183.013C78.2683 183.324 78.514 183.554 78.8173 183.554C79.136 183.554 79.3779 183.324 79.3779 183.013C79.3779 182.686 79.136 182.456 78.8173 182.456C78.514 182.456 78.2683 182.686 78.2683 183.013ZM82.2114 179.38C81.2016 179.38 80.4644 180.075 80.4644 181.166V181.761C80.4644 182.913 81.1901 183.55 82.2114 183.55C83.2135 183.55 83.9545 182.901 83.9545 181.761V181.162C83.9545 180.037 83.2135 179.38 82.2114 179.38ZM82.2152 179.972C82.8641 179.972 83.2557 180.486 83.2557 181.223V181.711C83.2557 182.46 82.8833 182.963 82.2152 182.963C81.5395 182.963 81.1594 182.46 81.1594 181.711V181.223C81.1594 180.486 81.5664 179.972 82.2152 179.972ZM85.1831 183.485H85.8819V180.989C85.8819 180.44 86.2351 180.014 86.9454 180.014C87.0683 180.014 87.2065 180.022 87.2718 180.037V179.404C87.1911 179.392 87.1067 179.384 87.0184 179.384C86.3042 179.384 86.0124 179.803 85.9126 180.068H85.878V179.446H85.1831V183.485ZM89.6445 184.379C89.1147 184.379 88.7883 184.141 88.7346 183.857H88.0281C88.0819 184.445 88.5887 184.963 89.6215 184.963C90.6543 184.963 91.3992 184.475 91.3992 183.362V179.446H90.7349V180.056H90.7004C90.566 179.726 90.136 179.384 89.5294 179.384C88.6348 179.384 87.9398 180.026 87.9398 181.089V181.715C87.9398 182.778 88.6386 183.412 89.5332 183.412C90.0938 183.412 90.5084 183.128 90.6658 182.778H90.7042V183.366C90.7042 183.999 90.3548 184.379 89.6445 184.379ZM89.7021 179.979C90.3356 179.979 90.7042 180.517 90.7042 181.108V181.719C90.7042 182.295 90.3548 182.828 89.7098 182.828C89.084 182.828 88.6386 182.333 88.6386 181.596V181.216C88.6386 180.479 89.0456 179.979 89.7021 179.979ZM92.7583 184.671L94.6512 177.968H94.0061L92.1171 184.671H92.7583ZM51.4421 189.966C51.4421 191.556 52.1293 192.592 53.3157 192.592C54.506 192.592 55.1894 191.552 55.1894 189.966V189.77C55.1894 188.181 54.5098 187.137 53.3234 187.137C52.1293 187.137 51.4421 188.185 51.4421 189.77V189.966ZM52.1447 189.774C52.1447 188.515 52.5978 187.747 53.3157 187.747C54.0375 187.747 54.4868 188.515 54.4868 189.774V189.959C54.4868 191.218 54.0375 191.982 53.3157 191.982C52.5978 191.982 52.1447 191.218 52.1447 189.959V189.774ZM58.2686 192.485V187.244H57.5698L56.322 188.169V188.88L57.5353 188H57.5698V192.485H58.2686ZM60.5416 188.703C60.5416 188.699 60.5416 188.68 60.5416 188.676C60.5416 188.177 60.8948 187.739 61.5053 187.739C62.0428 187.739 62.4459 188.081 62.4459 188.622C62.4459 189.102 62.1349 189.467 61.847 189.793L59.8735 192.039V192.485H63.2599V191.871H60.8756V191.828L62.2693 190.231C62.7608 189.671 63.1601 189.229 63.1601 188.572C63.1601 187.751 62.5112 187.137 61.5206 187.137C60.4302 187.137 59.8543 187.881 59.8543 188.676V188.703H60.5416ZM65.337 190.085H65.9091C66.5503 190.085 66.9957 190.461 67.0033 191.026C67.011 191.59 66.5656 192.001 65.8746 191.997C65.2679 191.993 64.8341 191.667 64.788 191.256H64.1276C64.166 192.001 64.8149 192.596 65.8592 192.596C66.9458 192.596 67.7367 191.947 67.7175 191.03C67.7021 190.181 67.0149 189.816 66.5733 189.767V189.728C66.9688 189.659 67.5639 189.217 67.5409 188.476C67.5217 187.716 66.8805 187.129 65.8822 187.137C64.8302 187.14 64.2773 187.789 64.2543 188.461H64.9262C64.9608 188.073 65.3255 187.732 65.8784 187.732C66.4389 187.732 66.8306 188.081 66.8306 188.588C66.8344 189.106 66.4274 189.482 65.8784 189.482H65.337V190.085ZM70.7468 187.244C70.002 188.427 69.2225 189.609 68.5698 190.792V191.41H71.1154V192.485H71.7911V191.41H72.4707V190.796H71.7911V187.244H70.7468ZM69.2686 190.796V190.761C69.8177 189.797 70.4665 188.764 71.077 187.851H71.1154V190.796H69.2686ZM73.3807 191.264C73.4306 192.032 74.1217 192.592 75.0892 192.592C76.195 192.592 76.9475 191.855 76.9475 190.772C76.9475 189.713 76.1873 189.083 75.2735 189.083C74.6937 189.083 74.329 189.363 74.2215 189.532H74.1831L74.3252 187.854H76.6864V187.244H73.7262L73.492 190.254H74.091C74.233 189.997 74.5786 189.678 75.1199 189.678C75.7112 189.678 76.2372 190.101 76.2372 190.792C76.2372 191.575 75.669 191.993 75.1314 191.993C74.6515 191.993 74.1601 191.786 74.0564 191.264H73.3807ZM81.5126 188.331C81.4704 187.751 80.8868 187.144 79.9 187.144C78.7328 187.144 77.9189 188.046 77.9189 190.07C77.9189 190.853 78.0686 191.414 78.3067 191.801C78.6752 192.397 79.2512 192.592 79.8156 192.592C80.8445 192.592 81.6239 191.936 81.6239 190.784C81.6239 189.69 80.7946 189.11 79.9807 189.11C79.2166 189.11 78.7943 189.532 78.6484 189.897H78.61C78.61 188.438 79.1513 187.747 79.877 187.747C80.4683 187.747 80.7485 188.089 80.8061 188.331H81.5126ZM78.706 190.819C78.706 190.166 79.1744 189.701 79.8232 189.701C80.3838 189.701 80.929 190.058 80.929 190.826C80.929 191.617 80.4337 191.99 79.8194 191.99C79.2205 191.99 78.706 191.563 78.706 190.819ZM82.5454 187.244V187.858H85.1831V187.901L83.0138 192.485H83.7548L85.9011 187.881V187.244H82.5454ZM88.6424 192.592C89.7367 192.592 90.5238 191.963 90.5238 191.049C90.5238 190.235 89.9095 189.843 89.4641 189.736V189.701C89.8173 189.586 90.3241 189.233 90.3241 188.534C90.3241 187.724 89.6253 187.137 88.6616 187.137C87.6979 187.137 86.9992 187.724 86.9992 188.534C86.9992 189.221 87.4829 189.578 87.8515 189.701V189.736C87.4138 189.843 86.7918 190.231 86.7918 191.057C86.7918 191.97 87.5559 192.592 88.6424 192.592ZM88.6616 189.467C88.0972 189.467 87.6787 189.106 87.6787 188.588C87.6787 188.07 88.0972 187.724 88.6616 187.724C89.2299 187.724 89.6369 188.07 89.6369 188.588C89.6369 189.106 89.2299 189.467 88.6616 189.467ZM88.6616 192.013C87.9936 192.013 87.4829 191.613 87.4829 191.026C87.4829 190.438 87.9936 190.031 88.6616 190.031C89.3297 190.031 89.8327 190.438 89.8327 191.026C89.8327 191.613 89.3297 192.013 88.6616 192.013ZM91.6372 191.475C91.7063 192.059 92.24 192.585 93.2114 192.585C94.5629 192.585 95.1964 191.625 95.1964 189.744C95.1964 187.639 94.2365 187.129 93.3227 187.129C92.2938 187.129 91.499 187.785 91.499 188.899C91.499 190.005 92.24 190.661 93.173 190.661C93.8833 190.661 94.3095 190.281 94.4746 189.847H94.513C94.5437 191.018 94.1943 191.982 93.2267 191.982C92.7161 191.982 92.4205 191.721 92.3475 191.475H91.6372ZM94.3939 188.93C94.3939 189.697 93.8602 190.062 93.2997 190.062C92.7123 190.062 92.1978 189.69 92.1978 188.91C92.1978 188.162 92.6931 187.732 93.2805 187.732C93.9102 187.732 94.3939 188.162 94.3939 188.93ZM97.4924 192.55C98.0875 192.55 98.4522 192.274 98.648 191.947H98.6787V192.485H99.3468V189.728C99.3468 188.738 98.6595 188.38 97.8264 188.38C96.9241 188.38 96.3866 188.764 96.3252 189.448H96.9971C97.0777 189.168 97.2927 188.968 97.8033 188.968C98.3217 188.968 98.648 189.206 98.648 189.724V190.124H97.5922C96.663 190.124 96.1716 190.604 96.1716 191.31C96.1716 192.059 96.7091 192.55 97.4924 192.55ZM97.6843 191.967C97.2658 191.967 96.8819 191.755 96.8819 191.287C96.8819 190.926 97.1046 190.653 97.6498 190.653H98.648V191.103C98.648 191.598 98.2295 191.967 97.6843 191.967ZM102.599 192.546C103.563 192.546 104.165 191.882 104.165 190.811V190.116C104.165 189.049 103.57 188.384 102.618 188.384C102.034 188.384 101.554 188.665 101.428 189.087H101.393V186.968H100.698V192.485H101.366V191.886H101.401C101.581 192.301 102.031 192.546 102.599 192.546ZM102.464 191.951C101.842 191.951 101.393 191.49 101.393 190.838V190.174C101.393 189.44 101.8 188.979 102.445 188.979C103.094 188.979 103.467 189.448 103.467 190.262V190.692C103.467 191.49 103.098 191.951 102.464 191.951ZM105.144 190.788C105.144 191.871 105.789 192.55 106.83 192.55C107.897 192.55 108.385 191.959 108.408 191.364H107.732C107.659 191.671 107.437 191.944 106.841 191.944C106.219 191.944 105.839 191.498 105.839 190.796V190.15C105.839 189.444 106.181 188.987 106.841 188.987C107.471 188.987 107.659 189.375 107.701 189.613H108.381C108.362 189.002 107.84 188.38 106.83 188.38C105.793 188.38 105.144 189.068 105.144 190.127V190.788ZM110.88 188.384C109.94 188.384 109.314 189.045 109.314 190.074V190.857C109.314 191.886 109.924 192.542 110.865 192.542C111.456 192.542 111.959 192.251 112.078 191.84H112.113V192.485H112.781V186.968H112.086V189.045H112.052C111.89 188.634 111.449 188.384 110.88 188.384ZM111.023 188.979C111.637 188.979 112.086 189.433 112.086 190.074V190.772C112.086 191.498 111.675 191.947 111.042 191.947C110.401 191.947 110.013 191.49 110.013 190.707V190.216C110.013 189.44 110.393 188.979 111.023 188.979ZM115.695 192.55C116.716 192.55 117.204 191.917 117.265 191.487H116.551C116.482 191.736 116.164 191.963 115.691 191.963C115.019 191.963 114.659 191.475 114.659 190.849V190.646H117.319V190.158C117.319 189.072 116.62 188.38 115.641 188.38C114.674 188.38 113.967 189.06 113.967 190.158V190.772C113.967 191.863 114.609 192.55 115.695 192.55ZM114.659 190.143V190.078C114.659 189.406 115.054 188.964 115.645 188.964C116.237 188.964 116.628 189.406 116.628 190.078V190.143H114.659ZM118.817 192.485H119.512V189.022H120.441V188.457H119.504V188.108C119.504 187.628 119.707 187.49 120.183 187.49C120.283 187.49 120.483 187.497 120.544 187.505V186.945C120.464 186.937 120.264 186.922 120.084 186.922C119.181 186.922 118.817 187.279 118.817 188.054V188.457H118.137V189.022H118.817V192.485Z" fill="black"/>
<path d="M59.3582 165.977C59.4401 167.451 60.5868 168.694 62.9553 168.694C65.317 168.694 66.648 167.506 66.648 165.772C66.648 164.209 65.6514 163.486 64.143 163.144L62.6959 162.81C61.8768 162.632 61.4195 162.264 61.4195 161.704C61.4195 160.981 62.027 160.455 63.044 160.455C64.0337 160.455 64.6412 160.967 64.7573 161.636H66.5046C66.4159 160.202 65.1873 159.008 63.0577 159.008C61.0031 159.008 59.5766 160.121 59.5766 161.827C59.5766 163.24 60.4912 164.073 61.9383 164.4L63.3785 164.735C64.3477 164.96 64.8119 165.294 64.8119 165.943C64.8119 166.707 64.2044 167.233 63.0577 167.233C61.9587 167.233 61.2625 166.7 61.1397 165.977H59.3582ZM71.426 161.144C69.4329 161.144 68.1019 162.469 68.1019 164.482V165.281C68.1019 167.444 69.4192 168.646 71.426 168.646C73.4054 168.646 74.7296 167.431 74.7296 165.281V164.468C74.7296 162.421 73.4054 161.144 71.426 161.144ZM71.426 162.537C72.4225 162.537 72.914 163.417 72.914 164.516V165.267C72.914 166.359 72.4566 167.247 71.426 167.247C70.3885 167.247 69.9175 166.352 69.9175 165.267V164.516C69.9175 163.424 70.4226 162.537 71.426 162.537ZM76.593 168.516H78.395V158.708H76.593V168.516ZM80.4836 159.138C80.4836 159.725 80.9478 160.127 81.6099 160.127C82.2856 160.127 82.7429 159.725 82.7429 159.138C82.7429 158.544 82.2856 158.134 81.6099 158.134C80.9478 158.134 80.4836 158.537 80.4836 159.138ZM80.7157 168.516H82.5109V161.274H80.7157V168.516ZM87.1933 161.179C85.5483 161.179 84.4698 162.366 84.4698 164.352V165.431C84.4698 167.417 85.5346 168.605 87.1728 168.605C88.2239 168.605 89.0703 168.093 89.2956 167.356H89.3843V168.516H91.1522V158.708H89.3502V162.373H89.2683C88.9884 161.636 88.2103 161.179 87.1933 161.179ZM87.7939 162.612C88.6949 162.612 89.3502 163.294 89.3502 164.38V165.315C89.3502 166.496 88.7359 167.178 87.8212 167.178C86.8929 167.178 86.3128 166.482 86.3128 165.24V164.537C86.3128 163.301 86.8861 162.612 87.7939 162.612ZM95.3295 168.625C96.4011 168.625 97.0086 168.127 97.2953 167.595H97.3772V168.516H99.0768V163.649C99.0768 161.813 97.7526 161.158 96.1281 161.158C94.1418 161.158 93.2954 162.114 93.2135 163.301H94.9131C95.0018 162.851 95.35 162.53 96.0871 162.53C96.8243 162.53 97.2953 162.878 97.2953 163.608V164.257H95.5274C93.8483 164.257 92.9473 165.117 92.9473 166.414C92.9473 167.779 93.9166 168.625 95.3295 168.625ZM95.9165 167.301C95.3022 167.301 94.7356 166.974 94.7356 166.298C94.7356 165.745 95.1111 165.342 95.9097 165.342H97.2953V166.093C97.2953 166.796 96.6741 167.301 95.9165 167.301ZM101.241 168.516H103.077V164.373C103.077 163.397 103.636 162.707 104.81 162.707C105.09 162.707 105.384 162.728 105.52 162.769V161.213C105.384 161.185 105.199 161.165 104.954 161.165C103.807 161.165 103.275 161.916 103.124 162.407H103.036V161.274H101.241V168.516ZM106.885 159.138C106.885 159.725 107.349 160.127 108.012 160.127C108.687 160.127 109.145 159.725 109.145 159.138C109.145 158.544 108.687 158.134 108.012 158.134C107.349 158.134 106.885 158.537 106.885 159.138ZM107.117 168.516H108.913V161.274H107.117V168.516ZM111.67 161.342H110.53V162.721H111.629V166.468C111.629 167.95 112.23 168.557 114.032 168.557C114.441 168.557 114.946 168.509 115.09 168.482V167.151C114.96 167.165 114.694 167.178 114.469 167.178C113.718 167.178 113.418 166.96 113.418 166.236V162.721H115.022V161.342H113.418V159.54H111.67V161.342ZM123.212 161.274H121.308L119.738 166.967H119.663L118.12 161.274H116.134L118.646 168.53L118.598 168.721C118.462 169.431 118.059 169.717 117.247 169.717C117.056 169.717 116.783 169.697 116.667 169.676V170.98C116.878 171.028 117.301 171.055 117.622 171.055C119.172 171.055 120.045 170.4 120.673 168.741L120.837 168.311C120.851 168.27 122.707 162.912 123.212 161.274ZM126.386 163.301C126.386 161.574 127.144 160.578 128.434 160.578C129.492 160.578 130.202 161.308 130.277 162.298H132.058V162.127C131.977 160.284 130.468 159.022 128.42 159.022C125.929 159.022 124.509 160.653 124.509 163.294V164.455C124.509 167.096 125.915 168.694 128.42 168.694C130.461 168.694 131.97 167.465 132.058 165.683V165.506H130.277C130.202 166.462 129.506 167.137 128.434 167.137C127.13 167.137 126.386 166.175 126.386 164.455V163.301ZM135.888 168.625C136.959 168.625 137.567 168.127 137.853 167.595H137.935V168.516H139.635V163.649C139.635 161.813 138.311 161.158 136.686 161.158C134.7 161.158 133.854 162.114 133.772 163.301H135.471C135.56 162.851 135.908 162.53 136.645 162.53C137.382 162.53 137.853 162.878 137.853 163.608V164.257H136.086C134.406 164.257 133.505 165.117 133.505 166.414C133.505 167.779 134.475 168.625 135.888 168.625ZM136.475 167.301C135.86 167.301 135.294 166.974 135.294 166.298C135.294 165.745 135.669 165.342 136.468 165.342H137.853V166.093C137.853 166.796 137.232 167.301 136.475 167.301ZM141.799 168.516H143.635V164.373C143.635 163.397 144.194 162.707 145.368 162.707C145.648 162.707 145.942 162.728 146.078 162.769V161.213C145.942 161.185 145.758 161.165 145.512 161.165C144.365 161.165 143.833 161.916 143.683 162.407H143.594V161.274H141.799V168.516ZM149.853 161.179C148.208 161.179 147.13 162.366 147.13 164.352V165.431C147.13 167.417 148.194 168.605 149.832 168.605C150.884 168.605 151.73 168.093 151.955 167.356H152.044V168.516H153.812V158.708H152.01V162.373H151.928C151.648 161.636 150.87 161.179 149.853 161.179ZM150.454 162.612C151.355 162.612 152.01 163.294 152.01 164.38V165.315C152.01 166.496 151.396 167.178 150.481 167.178C149.553 167.178 148.972 166.482 148.972 165.24V164.537C148.972 163.301 149.546 162.612 150.454 162.612Z" fill="#FFE600"/>
<path d="M162.754 34.9473L50.9219 34.9473L50.9219 146.779H162.754V34.9473Z" fill="white"/>
<path d="M61.2854 41.937H57.9111V45.3112H61.2854V41.937Z" fill="black"/>
<path d="M64.6596 41.937H61.2854V45.3112H64.6596V41.937Z" fill="black"/>
<path d="M68.0338 41.937H64.6596V45.3112H68.0338V41.937Z" fill="black"/>
<path d="M71.4081 41.937H68.0338V45.3112H71.4081V41.937Z" fill="black"/>
<path d="M74.7823 41.937H71.4081V45.3112H74.7823V41.937Z" fill="black"/>
<path d="M78.1566 41.937H74.7823V45.3112H78.1566V41.937Z" fill="black"/>
<path d="M81.5308 41.937H78.1566V45.3112H81.5308V41.937Z" fill="black"/>
<path d="M88.2793 41.937H84.905V45.3112H88.2793V41.937Z" fill="black"/>
<path d="M91.6535 41.937H88.2793V45.3112H91.6535V41.937Z" fill="black"/>
<path d="M101.776 41.937H98.402V45.3112H101.776V41.937Z" fill="black"/>
<path d="M105.15 41.937H101.776V45.3112H105.15V41.937Z" fill="black"/>
<path d="M115.273 41.937H111.899V45.3112H115.273V41.937Z" fill="black"/>
<path d="M122.022 41.937L118.647 41.937V45.3112H122.022V41.937Z" fill="black"/>
<path d="M128.77 41.937H125.396V45.3112L128.77 45.3112V41.937Z" fill="black"/>
<path d="M135.519 41.937H132.144V45.3112H135.519V41.937Z" fill="black"/>
<path d="M138.893 41.937H135.519V45.3112H138.893V41.937Z" fill="black"/>
<path d="M142.267 41.937H138.893V45.3112H142.267V41.937Z" fill="black"/>
<path d="M145.641 41.937H142.267V45.3112H145.641V41.937Z" fill="black"/>
<path d="M149.016 41.937H145.641V45.3112H149.016V41.937Z" fill="black"/>
<path d="M152.39 41.937H149.016V45.3112H152.39V41.937Z" fill="black"/>
<path d="M155.764 41.937H152.39V45.3112H155.764V41.937Z" fill="black"/>
<path d="M61.2854 45.3112H57.9111V48.6855H61.2854V45.3112Z" fill="black"/>
<path d="M81.5308 45.3112H78.1566V48.6855H81.5308V45.3112Z" fill="black"/>
<path d="M91.6535 45.3112H88.2793V48.6855H91.6535V45.3112Z" fill="black"/>
<path d="M95.0277 45.3112H91.6535V48.6855H95.0277V45.3112Z" fill="black"/>
<path d="M98.402 45.3112H95.0277V48.6855H98.402V45.3112Z" fill="black"/>
<path d="M101.776 45.3112H98.402V48.6855H101.776V45.3112Z" fill="black"/>
<path d="M118.647 45.3112H115.273V48.6855H118.647V45.3112Z" fill="black"/>
<path d="M135.519 45.3112H132.144V48.6855H135.519V45.3112Z" fill="black"/>
<path d="M155.764 45.3112H152.39V48.6855H155.764V45.3112Z" fill="black"/>
<path d="M61.2854 48.6855H57.9111V52.0597H61.2854V48.6855Z" fill="black"/>
<path d="M68.0338 48.6855H64.6596V52.0597H68.0338V48.6855Z" fill="black"/>
<path d="M71.4081 48.6855H68.0338V52.0597H71.4081V48.6855Z" fill="black"/>
<path d="M74.7823 48.6855H71.4081V52.0597H74.7823V48.6855Z" fill="black"/>
<path d="M81.5308 48.6855H78.1566V52.0597H81.5308V48.6855Z" fill="black"/>
<path d="M108.525 48.6855H105.15V52.0597H108.525V48.6855Z" fill="black"/>
<path d="M115.273 48.6855H111.899V52.0597H115.273V48.6855Z" fill="black"/>
<path d="M118.647 48.6855H115.273V52.0597H118.647V48.6855Z" fill="black"/>
<path d="M122.022 48.6855H118.647V52.0597H122.022V48.6855Z" fill="black"/>
<path d="M125.396 48.6855H122.022V52.0597H125.396V48.6855Z" fill="black"/>
<path d="M135.519 48.6855H132.144V52.0597H135.519V48.6855Z" fill="black"/>
<path d="M142.267 48.6855H138.893V52.0597H142.267V48.6855Z" fill="black"/>
<path d="M145.641 48.6855H142.267V52.0597H145.641V48.6855Z" fill="black"/>
<path d="M149.016 48.6855H145.641V52.0597H149.016V48.6855Z" fill="black"/>
<path d="M155.764 48.6855H152.39V52.0597H155.764V48.6855Z" fill="black"/>
<path d="M61.2854 52.0597H57.9111V55.434H61.2854V52.0597Z" fill="black"/>
<path d="M68.0338 52.0597H64.6596V55.434H68.0338V52.0597Z" fill="black"/>
<path d="M71.4081 52.0597H68.0338V55.434H71.4081V52.0597Z" fill="black"/>
<path d="M74.7823 52.0597H71.4081V55.434H74.7823V52.0597Z" fill="black"/>
<path d="M81.5308 52.0597H78.1566V55.434H81.5308V52.0597Z" fill="black"/>
<path d="M88.2793 52.0597H84.905V55.434H88.2793V52.0597Z" fill="black"/>
<path d="M91.6535 52.0597H88.2793V55.434H91.6535V52.0597Z" fill="black"/>
<path d="M98.402 52.0597H95.0277V55.434H98.402V52.0597Z" fill="black"/>
<path d="M105.15 52.0597H101.776V55.434H105.15V52.0597Z" fill="black"/>
<path d="M108.525 52.0597H105.15V55.434H108.525V52.0597Z" fill="black"/>
<path d="M111.899 52.0597H108.525V55.434H111.899V52.0597Z" fill="black"/>
<path d="M128.77 52.0597H125.396V55.434H128.77V52.0597Z" fill="black"/>
<path d="M135.519 52.0597H132.144V55.434H135.519V52.0597Z" fill="black"/>
<path d="M142.267 52.0597H138.893V55.434H142.267V52.0597Z" fill="black"/>
<path d="M145.641 52.0597H142.267V55.434H145.641V52.0597Z" fill="black"/>
<path d="M149.016 52.0597H145.641V55.434H149.016V52.0597Z" fill="black"/>
<path d="M155.764 52.0597H152.39V55.434H155.764V52.0597Z" fill="black"/>
<path d="M61.2854 55.434H57.9111V58.8082H61.2854V55.434Z" fill="black"/>
<path d="M68.0338 55.434H64.6596V58.8082H68.0338V55.434Z" fill="black"/>
<path d="M71.4081 55.434H68.0338V58.8082H71.4081V55.434Z" fill="black"/>
<path d="M74.7823 55.434H71.4081V58.8082H74.7823V55.434Z" fill="black"/>
<path d="M81.5308 55.434H78.1566V58.8082H81.5308V55.434Z" fill="black"/>
<path d="M95.0277 55.434H91.6535V58.8082H95.0277V55.434Z" fill="black"/>
<path d="M108.525 55.434H105.15V58.8082H108.525V55.434Z" fill="black"/>
<path d="M115.273 55.434H111.899V58.8082H115.273V55.434Z" fill="black"/>
<path d="M118.647 55.434H115.273V58.8082H118.647V55.434Z" fill="black"/>
<path d="M122.022 55.434H118.647V58.8082H122.022V55.434Z" fill="black"/>
<path d="M135.519 55.434H132.144V58.8082H135.519V55.434Z" fill="black"/>
<path d="M142.267 55.434H138.893V58.8082H142.267V55.434Z" fill="black"/>
<path d="M145.641 55.434H142.267V58.8082H145.641V55.434Z" fill="black"/>
<path d="M149.016 55.434H145.641V58.8082H149.016V55.434Z" fill="black"/>
<path d="M155.764 55.434H152.39V58.8082L155.764 58.8082V55.434Z" fill="black"/>
<path d="M61.2854 58.8082H57.9111V62.1824H61.2854V58.8082Z" fill="black"/>
<path d="M81.5308 58.8082H78.1566V62.1824H81.5308V58.8082Z" fill="black"/>
<path d="M88.2793 58.8082H84.905V62.1824H88.2793V58.8082Z" fill="black"/>
<path d="M98.402 58.8082H95.0277V62.1824H98.402V58.8082Z" fill="black"/>
<path d="M105.15 58.8082H101.776V62.1824H105.15V58.8082Z" fill="black"/>
<path d="M115.273 58.8082H111.899V62.1824H115.273V58.8082Z" fill="black"/>
<path d="M118.647 58.8082H115.273V62.1824H118.647V58.8082Z" fill="black"/>
<path d="M122.022 58.8082H118.647V62.1824H122.022V58.8082Z" fill="black"/>
<path d="M125.396 58.8082H122.022V62.1824H125.396V58.8082Z" fill="black"/>
<path d="M128.77 58.8082H125.396V62.1824H128.77V58.8082Z" fill="black"/>
<path d="M135.519 58.8082H132.144V62.1824H135.519V58.8082Z" fill="black"/>
<path d="M155.764 58.8082L152.39 58.8082V62.1824L155.764 62.1824V58.8082Z" fill="black"/>
<path d="M61.2854 62.1824H57.9111V65.5567H61.2854V62.1824Z" fill="black"/>
<path d="M64.6596 62.1824H61.2854V65.5567H64.6596V62.1824Z" fill="black"/>
<path d="M68.0338 62.1824H64.6596V65.5567H68.0338V62.1824Z" fill="black"/>
<path d="M71.4081 62.1824H68.0338V65.5567H71.4081V62.1824Z" fill="black"/>
<path d="M74.7823 62.1824H71.4081V65.5567H74.7823V62.1824Z" fill="black"/>
<path d="M78.1566 62.1824H74.7823V65.5567H78.1566V62.1824Z" fill="black"/>
<path d="M81.5308 62.1824H78.1566V65.5567H81.5308V62.1824Z" fill="black"/>
<path d="M88.2793 62.1824H84.905V65.5567H88.2793V62.1824Z" fill="black"/>
<path d="M95.0277 62.1824H91.6535V65.5567H95.0277V62.1824Z" fill="black"/>
<path d="M101.776 62.1824H98.402V65.5567H101.776V62.1824Z" fill="black"/>
<path d="M108.525 62.1824H105.15V65.5567H108.525V62.1824Z" fill="black"/>
<path d="M115.273 62.1824H111.899V65.5567H115.273V62.1824Z" fill="black"/>
<path d="M122.022 62.1824H118.647V65.5567H122.022V62.1824Z" fill="black"/>
<path d="M128.77 62.1824H125.396V65.5567H128.77V62.1824Z" fill="black"/>
<path d="M135.519 62.1824H132.144V65.5567H135.519V62.1824Z" fill="black"/>
<path d="M138.893 62.1824H135.519V65.5567H138.893V62.1824Z" fill="black"/>
<path d="M142.267 62.1824H138.893V65.5567H142.267V62.1824Z" fill="black"/>
<path d="M145.641 62.1824H142.267V65.5567H145.641V62.1824Z" fill="black"/>
<path d="M149.016 62.1824H145.641V65.5567H149.016V62.1824Z" fill="black"/>
<path d="M152.39 62.1824H149.016V65.5567H152.39V62.1824Z" fill="black"/>
<path d="M155.764 62.1824L152.39 62.1824V65.5567H155.764V62.1824Z" fill="black"/>
<path d="M95.0277 65.5567H91.6535V68.9309H95.0277V65.5567Z" fill="black"/>
<path d="M101.776 65.5567H98.402V68.9309H101.776V65.5567Z" fill="black"/>
<path d="M105.15 65.5567H101.776V68.9309H105.15V65.5567Z" fill="black"/>
<path d="M108.525 65.5567H105.15V68.9309H108.525V65.5567Z" fill="black"/>
<path d="M111.899 65.5567H108.525V68.9309H111.899V65.5567Z" fill="black"/>
<path d="M115.273 65.5567H111.899V68.9309H115.273V65.5567Z" fill="black"/>
<path d="M122.022 65.5567H118.647V68.9309H122.022V65.5567Z" fill="black"/>
<path d="M78.1566 68.9309H74.7823V72.3051H78.1566V68.9309Z" fill="black"/>
<path d="M81.5308 68.9309H78.1566V72.3051H81.5308V68.9309Z" fill="black"/>
<path d="M88.2793 68.9309H84.905V72.3051H88.2793V68.9309Z" fill="black"/>
<path d="M95.0277 68.9309H91.6535V72.3051H95.0277V68.9309Z" fill="black"/>
<path d="M111.899 68.9309H108.525V72.3051H111.899V68.9309Z" fill="black"/>
<path d="M122.022 68.9309H118.647V72.3051H122.022V68.9309Z" fill="black"/>
<path d="M132.144 68.9309H128.77V72.3051H132.144V68.9309Z" fill="black"/>
<path d="M138.893 68.9309H135.519V72.3051H138.893V68.9309Z" fill="black"/>
<path d="M145.641 68.9309H142.267V72.3051H145.641V68.9309Z" fill="black"/>
<path d="M155.764 68.9309H152.39V72.3051H155.764V68.9309Z" fill="black"/>
<path d="M61.2854 72.3051H57.9111V75.6794H61.2854V72.3051Z" fill="black"/>
<path d="M64.6596 72.3051H61.2854V75.6794H64.6596V72.3051Z" fill="black"/>
<path d="M68.0338 72.3051H64.6596V75.6794H68.0338V72.3051Z" fill="black"/>
<path d="M71.4081 72.3051H68.0338V75.6794H71.4081V72.3051Z" fill="black"/>
<path d="M74.7823 72.3051H71.4081V75.6794H74.7823V72.3051Z" fill="black"/>
<path d="M84.905 72.3051H81.5308V75.6794H84.905V72.3051Z" fill="black"/>
<path d="M88.2793 72.3051H84.905V75.6794H88.2793V72.3051Z" fill="black"/>
<path d="M91.6535 72.3051H88.2793V75.6794H91.6535V72.3051Z" fill="black"/>
<path d="M95.0277 72.3051H91.6535V75.6794H95.0277V72.3051Z" fill="black"/>
<path d="M98.402 72.3051H95.0277V75.6794H98.402V72.3051Z" fill="black"/>
<path d="M108.525 72.3051H105.15V75.6794H108.525V72.3051Z" fill="black"/>
<path d="M111.899 72.3051H108.525V75.6794H111.899V72.3051Z" fill="black"/>
<path d="M122.022 72.3051H118.647V75.6794H122.022V72.3051Z" fill="black"/>
<path d="M125.396 72.3051H122.022V75.6794H125.396V72.3051Z" fill="black"/>
<path d="M128.77 72.3051H125.396V75.6794H128.77V72.3051Z" fill="black"/>
<path d="M132.144 72.3051H128.77V75.6794H132.144V72.3051Z" fill="black"/>
<path d="M138.893 72.3051H135.519V75.6794H138.893V72.3051Z" fill="black"/>
<path d="M142.267 72.3051H138.893V75.6794H142.267V72.3051Z" fill="black"/>
<path d="M145.641 72.3051H142.267V75.6794H145.641V72.3051Z" fill="black"/>
<path d="M149.016 72.3051H145.641V75.6794H149.016V72.3051Z" fill="black"/>
<path d="M152.39 72.3051H149.016V75.6794H152.39V72.3051Z" fill="black"/>
<path d="M155.764 72.3051H152.39V75.6794H155.764V72.3051Z" fill="black"/>
<path d="M71.4081 75.6794H68.0338V79.0536H71.4081V75.6794Z" fill="black"/>
<path d="M78.1566 75.6794H74.7823V79.0536H78.1566V75.6794Z" fill="black"/>
<path d="M81.5308 75.6794H78.1566V79.0536H81.5308V75.6794Z" fill="black"/>
<path d="M88.2793 75.6794H84.905V79.0536H88.2793V75.6794Z" fill="black"/>
<path d="M91.6535 75.6794H88.2793V79.0536H91.6535V75.6794Z" fill="black"/>
<path d="M98.402 75.6794H95.0277V79.0536H98.402V75.6794Z" fill="black"/>
<path d="M105.15 75.6794H101.776V79.0536H105.15V75.6794Z" fill="black"/>
<path d="M108.525 75.6794H105.15V79.0536H108.525V75.6794Z" fill="black"/>
<path d="M111.899 75.6794H108.525V79.0536H111.899V75.6794Z" fill="black"/>
<path d="M115.273 75.6794H111.899V79.0536H115.273V75.6794Z" fill="black"/>
<path d="M125.396 75.6794H122.022V79.0536H125.396V75.6794Z" fill="black"/>
<path d="M142.267 75.6794H138.893V79.0536H142.267V75.6794Z" fill="black"/>
<path d="M145.641 75.6794H142.267V79.0536H145.641V75.6794Z" fill="black"/>
<path d="M149.016 75.6794H145.641V79.0536H149.016V75.6794Z" fill="black"/>
<path d="M152.39 75.6794H149.016V79.0536H152.39V75.6794Z" fill="black"/>
<path d="M61.2854 79.0536H57.9111V82.4279H61.2854V79.0536Z" fill="black"/>
<path d="M71.4081 79.0536H68.0338V82.4279H71.4081V79.0536Z" fill="black"/>
<path d="M74.7823 79.0536H71.4081V82.4279H74.7823V79.0536Z" fill="black"/>
<path d="M88.2793 79.0536H84.905V82.4279H88.2793V79.0536Z" fill="black"/>
<path d="M91.6535 79.0536H88.2793V82.4279H91.6535V79.0536Z" fill="black"/>
<path d="M101.776 79.0536H98.402V82.4279H101.776V79.0536Z" fill="black"/>
<path d="M105.15 79.0536H101.776V82.4279H105.15V79.0536Z" fill="black"/>
<path d="M111.899 79.0536H108.525V82.4279H111.899V79.0536Z" fill="black"/>
<path d="M145.641 79.0536H142.267V82.4279H145.641V79.0536Z" fill="black"/>
<path d="M149.016 79.0536H145.641V82.4279H149.016V79.0536Z" fill="black"/>
<path d="M155.764 79.0536H152.39V82.4279H155.764V79.0536Z" fill="black"/>
<path d="M61.2854 82.4279H57.9111V85.8021H61.2854V82.4279Z" fill="black"/>
<path d="M64.6596 82.4279H61.2854V85.8021H64.6596V82.4279Z" fill="black"/>
<path d="M68.0338 82.4279H64.6596V85.8021H68.0338V82.4279Z" fill="black"/>
<path d="M81.5308 82.4279H78.1566V85.8021H81.5308V82.4279Z" fill="black"/>
<path d="M84.905 82.4279H81.5308V85.8021H84.905V82.4279Z" fill="black"/>
<path d="M88.2793 82.4279H84.905V85.8021H88.2793V82.4279Z" fill="black"/>
<path d="M95.0277 82.4279H91.6535V85.8021H95.0277V82.4279Z" fill="black"/>
<path d="M101.776 82.4279H98.402V85.8021H101.776V82.4279Z" fill="black"/>
<path d="M105.15 82.4279H101.776V85.8021H105.15V82.4279Z" fill="black"/>
<path d="M108.525 82.4279H105.15V85.8021H108.525V82.4279Z" fill="black"/>
<path d="M128.77 82.4279H125.396V85.8021H128.77V82.4279Z" fill="black"/>
<path d="M135.519 82.4279H132.144V85.8021H135.519V82.4279Z" fill="black"/>
<path d="M138.893 82.4279H135.519V85.8021H138.893V82.4279Z" fill="black"/>
<path d="M142.267 82.4279H138.893V85.8021H142.267V82.4279Z" fill="black"/>
<path d="M152.39 82.4279H149.016V85.8021H152.39V82.4279Z" fill="black"/>
<path d="M61.2854 85.8021H57.9111V89.1763H61.2854V85.8021Z" fill="black"/>
<path d="M64.6596 85.8021H61.2854V89.1763H64.6596V85.8021Z" fill="black"/>
<path d="M68.0338 85.8021H64.6596V89.1763H68.0338V85.8021Z" fill="black"/>
<path d="M71.4081 85.8021H68.0338V89.1763H71.4081V85.8021Z" fill="black"/>
<path d="M74.7823 85.8021H71.4081V89.1763H74.7823V85.8021Z" fill="black"/>
<path d="M78.1566 85.8021H74.7823V89.1763H78.1566V85.8021Z" fill="black"/>
<path d="M111.899 85.8021H108.525V89.1763H111.899V85.8021Z" fill="black"/>
<path d="M115.273 85.8021H111.899V89.1763H115.273V85.8021Z" fill="black"/>
<path d="M122.022 85.8021H118.647V89.1763H122.022V85.8021Z" fill="black"/>
<path d="M125.396 85.8021H122.022V89.1763H125.396V85.8021Z" fill="black"/>
<path d="M132.144 85.8021H128.77V89.1763H132.144V85.8021Z" fill="black"/>
<path d="M135.519 85.8021H132.144V89.1763H135.519V85.8021Z" fill="black"/>
<path d="M138.893 85.8021H135.519V89.1763H138.893V85.8021Z" fill="black"/>
<path d="M64.6596 89.1763H61.2854V92.5506H64.6596V89.1763Z" fill="black"/>
<path d="M71.4081 89.1763H68.0338V92.5506H71.4081V89.1763Z" fill="black"/>
<path d="M74.7823 89.1763H71.4081V92.5506H74.7823V89.1763Z" fill="black"/>
<path d="M78.1566 89.1763H74.7823V92.5506H78.1566V89.1763Z" fill="black"/>
<path d="M81.5308 89.1763H78.1566V92.5506H81.5308V89.1763Z" fill="black"/>
<path d="M84.905 89.1763H81.5308V92.5506H84.905V89.1763Z" fill="black"/>
<path d="M91.6535 89.1763H88.2793V92.5506H91.6535V89.1763Z" fill="black"/>
<path d="M98.402 89.1763H95.0277V92.5506H98.402V89.1763Z" fill="black"/>
<path d="M111.899 89.1763H108.525V92.5506H111.899V89.1763Z" fill="black"/>
<path d="M115.273 89.1763H111.899V92.5506H115.273V89.1763Z" fill="black"/>
<path d="M128.77 89.1763H125.396V92.5506H128.77V89.1763Z" fill="black"/>
<path d="M135.519 89.1763H132.144V92.5506H135.519V89.1763Z" fill="black"/>
<path d="M142.267 89.1763H138.893V92.5506H142.267V89.1763Z" fill="black"/>
<path d="M145.641 89.1763H142.267V92.5506H145.641V89.1763Z" fill="black"/>
<path d="M155.764 89.1763H152.39V92.5506H155.764V89.1763Z" fill="black"/>
<path d="M64.6596 92.5506H61.2854V95.9248H64.6596V92.5506Z" fill="black"/>
<path d="M71.4081 92.5506H68.0338V95.9248H71.4081V92.5506Z" fill="black"/>
<path d="M88.2793 92.5506H84.905V95.9248H88.2793V92.5506Z" fill="black"/>
<path d="M91.6535 92.5506H88.2793V95.9248H91.6535V92.5506Z" fill="black"/>
<path d="M98.402 92.5506H95.0277V95.9248H98.402V92.5506Z" fill="black"/>
<path d="M105.15 92.5506H101.776V95.9248H105.15V92.5506Z" fill="black"/>
<path d="M108.525 92.5506H105.15V95.9248H108.525V92.5506Z" fill="black"/>
<path d="M115.273 92.5506H111.899V95.9248H115.273V92.5506Z" fill="black"/>
<path d="M118.647 92.5506H115.273V95.9248H118.647V92.5506Z" fill="black"/>
<path d="M125.396 92.5506H122.022V95.9248H125.396V92.5506Z" fill="black"/>
<path d="M132.144 92.5506H128.77V95.9248H132.144V92.5506Z" fill="black"/>
<path d="M135.519 92.5506H132.144V95.9248H135.519V92.5506Z" fill="black"/>
<path d="M142.267 92.5506H138.893V95.9248H142.267V92.5506Z" fill="black"/>
<path d="M145.641 92.5506H142.267V95.9248H145.641V92.5506Z" fill="black"/>
<path d="M152.39 92.5506H149.016V95.9248H152.39V92.5506Z" fill="black"/>
<path d="M61.2854 95.9248H57.9111V99.299H61.2854V95.9248Z" fill="black"/>
<path d="M68.0338 95.9248H64.6596V99.299H68.0338V95.9248Z" fill="black"/>
<path d="M74.7823 95.9248H71.4081V99.299H74.7823V95.9248Z" fill="black"/>
<path d="M81.5308 95.9248H78.1566V99.299H81.5308V95.9248Z" fill="black"/>
<path d="M95.0277 95.9248H91.6535V99.299H95.0277V95.9248Z" fill="black"/>
<path d="M101.776 95.9248H98.402V99.299H101.776V95.9248Z" fill="black"/>
<path d="M108.525 95.9248H105.15V99.299H108.525V95.9248Z" fill="black"/>
<path d="M111.899 95.9248H108.525V99.299H111.899V95.9248Z" fill="black"/>
<path d="M115.273 95.9248H111.899V99.299H115.273V95.9248Z" fill="black"/>
<path d="M125.396 95.9248H122.022V99.299H125.396V95.9248Z" fill="black"/>
<path d="M128.77 95.9248H125.396V99.299H128.77V95.9248Z" fill="black"/>
<path d="M132.144 95.9248H128.77V99.299H132.144V95.9248Z" fill="black"/>
<path d="M138.893 95.9248H135.519V99.299H138.893V95.9248Z" fill="black"/>
<path d="M145.641 95.9248H142.267V99.299H145.641V95.9248Z" fill="black"/>
<path d="M64.6596 99.299H61.2854V102.673H64.6596V99.299Z" fill="black"/>
<path d="M68.0338 99.299H64.6596V102.673H68.0338V99.299Z" fill="black"/>
<path d="M78.1566 99.299H74.7823V102.673H78.1566V99.299Z" fill="black"/>
<path d="M84.905 99.299H81.5308V102.673H84.905V99.299Z" fill="black"/>
<path d="M91.6535 99.299H88.2793V102.673H91.6535V99.299Z" fill="black"/>
<path d="M95.0277 99.299H91.6535V102.673H95.0277V99.299Z" fill="black"/>
<path d="M101.776 99.299H98.402V102.673H101.776V99.299Z" fill="black"/>
<path d="M105.15 99.299H101.776V102.673H105.15V99.299Z" fill="black"/>
<path d="M108.525 99.299H105.15V102.673H108.525V99.299Z" fill="black"/>
<path d="M111.899 99.299H108.525V102.673H111.899V99.299Z" fill="black"/>
<path d="M115.273 99.299H111.899V102.673H115.273V99.299Z" fill="black"/>
<path d="M125.396 99.299H122.022V102.673H125.396V99.299Z" fill="black"/>
<path d="M132.144 99.299H128.77V102.673H132.144V99.299Z" fill="black"/>
<path d="M135.519 99.299H132.144V102.673H135.519V99.299Z" fill="black"/>
<path d="M61.2854 102.673H57.9111L57.9111 106.048H61.2854V102.673Z" fill="black"/>
<path d="M71.4081 102.673H68.0338V106.048H71.4081V102.673Z" fill="black"/>
<path d="M74.7823 102.673H71.4081V106.048H74.7823V102.673Z" fill="black"/>
<path d="M81.5308 102.673H78.1566V106.048H81.5308V102.673Z" fill="black"/>
<path d="M95.0277 102.673H91.6535V106.048H95.0277V102.673Z" fill="black"/>
<path d="M98.402 102.673H95.0277V106.048H98.402V102.673Z" fill="black"/>
<path d="M125.396 102.673H122.022V106.048H125.396V102.673Z" fill="black"/>
<path d="M142.267 102.673H138.893V106.048H142.267V102.673Z" fill="black"/>
<path d="M61.2854 106.048H57.9111V109.422H61.2854V106.048Z" fill="black"/>
<path d="M78.1566 106.048H74.7823V109.422H78.1566V106.048Z" fill="black"/>
<path d="M88.2793 106.048H84.905V109.422H88.2793V106.048Z" fill="black"/>
<path d="M95.0277 106.048H91.6535V109.422H95.0277V106.048Z" fill="black"/>
<path d="M105.15 106.048H101.776V109.422H105.15V106.048Z" fill="black"/>
<path d="M115.273 106.048H111.899V109.422H115.273V106.048Z" fill="black"/>
<path d="M138.893 106.048H135.519V109.422H138.893V106.048Z" fill="black"/>
<path d="M149.016 106.048H145.641V109.422H149.016V106.048Z" fill="black"/>
<path d="M155.764 106.048H152.39V109.422H155.764V106.048Z" fill="black"/>
<path d="M64.6596 109.422H61.2854L61.2854 112.796H64.6596V109.422Z" fill="black"/>
<path d="M71.4081 109.422H68.0338V112.796H71.4081V109.422Z" fill="black"/>
<path d="M74.7823 109.422H71.4081V112.796H74.7823V109.422Z" fill="black"/>
<path d="M78.1566 109.422H74.7823V112.796H78.1566V109.422Z" fill="black"/>
<path d="M81.5308 109.422H78.1566V112.796H81.5308V109.422Z" fill="black"/>
<path d="M88.2793 109.422H84.905V112.796H88.2793V109.422Z" fill="black"/>
<path d="M111.899 109.422H108.525V112.796H111.899V109.422Z" fill="black"/>
<path d="M118.647 109.422H115.273V112.796H118.647V109.422Z" fill="black"/>
<path d="M125.396 109.422H122.022V112.796H125.396V109.422Z" fill="black"/>
<path d="M128.77 109.422H125.396V112.796H128.77V109.422Z" fill="black"/>
<path d="M132.144 109.422H128.77V112.796H132.144V109.422Z" fill="black"/>
<path d="M135.519 109.422H132.144V112.796H135.519V109.422Z" fill="black"/>
<path d="M138.893 109.422H135.519V112.796H138.893V109.422Z" fill="black"/>
<path d="M142.267 109.422H138.893V112.796H142.267V109.422Z" fill="black"/>
<path d="M152.39 109.422H149.016V112.796H152.39V109.422Z" fill="black"/>
<path d="M155.764 109.422H152.39V112.796H155.764V109.422Z" fill="black"/>
<path d="M88.2793 112.796H84.905V116.17H88.2793V112.796Z" fill="black"/>
<path d="M98.402 112.796H95.0277V116.17H98.402V112.796Z" fill="black"/>
<path d="M125.396 112.796H122.022V116.17H125.396V112.796Z" fill="black"/>
<path d="M128.77 112.796H125.396V116.17H128.77V112.796Z" fill="black"/>
<path d="M142.267 112.796H138.893V116.17H142.267V112.796Z" fill="black"/>
<path d="M145.641 112.796H142.267V116.17H145.641V112.796Z" fill="black"/>
<path d="M149.016 112.796H145.641V116.17H149.016V112.796Z" fill="black"/>
<path d="M152.39 112.796H149.016V116.17H152.39V112.796Z" fill="black"/>
<path d="M155.764 112.796H152.39V116.17H155.764V112.796Z" fill="black"/>
<path d="M61.2854 116.17H57.9111V119.544H61.2854V116.17Z" fill="black"/>
<path d="M64.6596 116.17H61.2854V119.544H64.6596V116.17Z" fill="black"/>
<path d="M68.0338 116.17H64.6596V119.544H68.0338V116.17Z" fill="black"/>
<path d="M71.4081 116.17H68.0338V119.544H71.4081V116.17Z" fill="black"/>
<path d="M74.7823 116.17H71.4081V119.544H74.7823V116.17Z" fill="black"/>
<path d="M78.1566 116.17H74.7823V119.544H78.1566V116.17Z" fill="black"/>
<path d="M81.5308 116.17H78.1566V119.544H81.5308V116.17Z" fill="black"/>
<path d="M91.6535 116.17H88.2793V119.544H91.6535V116.17Z" fill="black"/>
<path d="M101.776 116.17H98.402V119.544H101.776V116.17Z" fill="black"/>
<path d="M108.525 116.17H105.15V119.544H108.525V116.17Z" fill="black"/>
<path d="M118.647 116.17H115.273V119.544H118.647V116.17Z" fill="black"/>
<path d="M122.022 116.17H118.647V119.544H122.022V116.17Z" fill="black"/>
<path d="M128.77 116.17H125.396V119.544H128.77V116.17Z" fill="black"/>
<path d="M135.519 116.17H132.144V119.544H135.519V116.17Z" fill="black"/>
<path d="M142.267 116.17H138.893V119.544H142.267V116.17Z" fill="black"/>
<path d="M145.641 116.17H142.267V119.544H145.641V116.17Z" fill="black"/>
<path d="M155.764 116.17H152.39V119.544H155.764V116.17Z" fill="black"/>
<path d="M61.2854 119.544H57.9111V122.919H61.2854V119.544Z" fill="black"/>
<path d="M81.5308 119.544H78.1566V122.919H81.5308V119.544Z" fill="black"/>
<path d="M88.2793 119.544H84.905V122.919H88.2793V119.544Z" fill="black"/>
<path d="M91.6535 119.544H88.2793V122.919H91.6535V119.544Z" fill="black"/>
<path d="M95.0277 119.544H91.6535V122.919H95.0277V119.544Z" fill="black"/>
<path d="M98.402 119.544H95.0277V122.919H98.402V119.544Z" fill="black"/>
<path d="M105.15 119.544H101.776V122.919H105.15V119.544Z" fill="black"/>
<path d="M118.647 119.544H115.273V122.919H118.647V119.544Z" fill="black"/>
<path d="M125.396 119.544H122.022V122.919H125.396V119.544Z" fill="black"/>
<path d="M128.77 119.544H125.396V122.919H128.77V119.544Z" fill="black"/>
<path d="M142.267 119.544H138.893V122.919H142.267V119.544Z" fill="black"/>
<path d="M155.764 119.544H152.39V122.919H155.764V119.544Z" fill="black"/>
<path d="M61.2854 122.919H57.9111V126.293H61.2854V122.919Z" fill="black"/>
<path d="M68.0338 122.919H64.6596V126.293H68.0338V122.919Z" fill="black"/>
<path d="M71.4081 122.919H68.0338V126.293H71.4081V122.919Z" fill="black"/>
<path d="M74.7823 122.919H71.4081V126.293H74.7823V122.919Z" fill="black"/>
<path d="M81.5308 122.919H78.1566V126.293H81.5308V122.919Z" fill="black"/>
<path d="M98.402 122.919H95.0277V126.293H98.402V122.919Z" fill="black"/>
<path d="M128.77 122.919H125.396V126.293H128.77V122.919Z" fill="black"/>
<path d="M132.144 122.919H128.77V126.293H132.144V122.919Z" fill="black"/>
<path d="M135.519 122.919H132.144V126.293H135.519V122.919Z" fill="black"/>
<path d="M138.893 122.919H135.519V126.293H138.893V122.919Z" fill="black"/>
<path d="M142.267 122.919H138.893V126.293H142.267V122.919Z" fill="black"/>
<path d="M145.641 122.919H142.267V126.293H145.641V122.919Z" fill="black"/>
<path d="M149.016 122.919H145.641V126.293H149.016V122.919Z" fill="black"/>
<path d="M152.39 122.919H149.016V126.293H152.39V122.919Z" fill="black"/>
<path d="M61.2854 126.293H57.9111V129.667H61.2854V126.293Z" fill="black"/>
<path d="M68.0338 126.293H64.6596V129.667H68.0338V126.293Z" fill="black"/>
<path d="M71.4081 126.293H68.0338V129.667H71.4081V126.293Z" fill="black"/>
<path d="M74.7823 126.293H71.4081V129.667H74.7823V126.293Z" fill="black"/>
<path d="M81.5308 126.293H78.1566V129.667H81.5308V126.293Z" fill="black"/>
<path d="M91.6535 126.293H88.2793V129.667H91.6535V126.293Z" fill="black"/>
<path d="M108.525 126.293H105.15V129.667H108.525V126.293Z" fill="black"/>
<path d="M118.647 126.293H115.273V129.667H118.647V126.293Z" fill="black"/>
<path d="M125.396 126.293H122.022V129.667H125.396V126.293Z" fill="black"/>
<path d="M135.519 126.293H132.144V129.667H135.519V126.293Z" fill="black"/>
<path d="M138.893 126.293H135.519V129.667H138.893V126.293Z" fill="black"/>
<path d="M145.641 126.293H142.267V129.667H145.641V126.293Z" fill="black"/>
<path d="M155.764 126.293H152.39V129.667H155.764V126.293Z" fill="black"/>
<path d="M61.2854 129.667H57.9111V133.041H61.2854V129.667Z" fill="black"/>
<path d="M68.0338 129.667H64.6596V133.041H68.0338V129.667Z" fill="black"/>
<path d="M71.4081 129.667H68.0338V133.041H71.4081V129.667Z" fill="black"/>
<path d="M74.7823 129.667H71.4081V133.041H74.7823V129.667Z" fill="black"/>
<path d="M81.5308 129.667H78.1566V133.041H81.5308V129.667Z" fill="black"/>
<path d="M98.402 129.667H95.0277V133.041H98.402V129.667Z" fill="black"/>
<path d="M118.647 129.667H115.273V133.041H118.647V129.667Z" fill="black"/>
<path d="M128.77 129.667H125.396V133.041H128.77V129.667Z" fill="black"/>
<path d="M135.519 129.667H132.144V133.041H135.519V129.667Z" fill="black"/>
<path d="M138.893 129.667H135.519V133.041H138.893V129.667Z" fill="black"/>
<path d="M145.641 129.667H142.267V133.041H145.641V129.667Z" fill="black"/>
<path d="M149.016 129.667H145.641V133.041H149.016V129.667Z" fill="black"/>
<path d="M61.2854 133.041H57.9111V136.416H61.2854V133.041Z" fill="black"/>
<path d="M81.5308 133.041H78.1566V136.416H81.5308V133.041Z" fill="black"/>
<path d="M91.6535 133.041H88.2793V136.416H91.6535V133.041Z" fill="black"/>
<path d="M95.0277 133.041H91.6535V136.416H95.0277V133.041Z" fill="black"/>
<path d="M98.402 133.041H95.0277V136.416H98.402V133.041Z" fill="black"/>
<path d="M101.776 133.041H98.402V136.416H101.776V133.041Z" fill="black"/>
<path d="M105.15 133.041H101.776V136.416H105.15V133.041Z" fill="black"/>
<path d="M108.525 133.041H105.15V136.416H108.525V133.041Z" fill="black"/>
<path d="M115.273 133.041H111.899V136.416H115.273V133.041Z" fill="black"/>
<path d="M118.647 133.041H115.273V136.416H118.647V133.041Z" fill="black"/>
<path d="M122.022 133.041H118.647V136.416H122.022V133.041Z" fill="black"/>
<path d="M135.519 133.041H132.144V136.416H135.519V133.041Z" fill="black"/>
<path d="M138.893 133.041H135.519V136.416H138.893V133.041Z" fill="black"/>
<path d="M142.267 133.041H138.893V136.416H142.267V133.041Z" fill="black"/>
<path d="M152.39 133.041H149.016V136.416H152.39V133.041Z" fill="black"/>
<path d="M155.764 133.041H152.39V136.416H155.764V133.041Z" fill="black"/>
<path d="M61.2854 136.416H57.9111V139.79H61.2854V136.416Z" fill="black"/>
<path d="M64.6596 136.416H61.2854V139.79H64.6596V136.416Z" fill="black"/>
<path d="M68.0338 136.416H64.6596V139.79H68.0338V136.416Z" fill="black"/>
<path d="M71.4081 136.416H68.0338V139.79H71.4081V136.416Z" fill="black"/>
<path d="M74.7823 136.416H71.4081V139.79H74.7823V136.416Z" fill="black"/>
<path d="M78.1566 136.416H74.7823V139.79H78.1566V136.416Z" fill="black"/>
<path d="M81.5308 136.416H78.1566V139.79H81.5308V136.416Z" fill="black"/>
<path d="M91.6535 136.416H88.2793V139.79H91.6535V136.416Z" fill="black"/>
<path d="M108.525 136.416H105.15V139.79H108.525V136.416Z" fill="black"/>
<path d="M111.899 136.416H108.525V139.79H111.899V136.416Z" fill="black"/>
<path d="M115.273 136.416H111.899V139.79H115.273V136.416Z" fill="black"/>
<path d="M118.647 136.416H115.273V139.79H118.647V136.416Z" fill="black"/>
<path d="M122.022 136.416H118.647V139.79H122.022V136.416Z" fill="black"/>
<path d="M128.77 136.416H125.396V139.79H128.77V136.416Z" fill="black"/>
<path d="M132.144 136.416H128.77V139.79H132.144V136.416Z" fill="black"/>
<path d="M145.641 136.416H142.267V139.79H145.641V136.416Z" fill="black"/>
<path d="M149.016 136.416H145.641V139.79H149.016V136.416Z" fill="black"/>
<path d="M148 229.24H224V255.741H148V229.24Z" fill="#62688F"/>
<path d="M202.492 125.269L173.669 92.3196V149.738L144.958 121.03C138.762 115.031 128.873 115.19 122.874 121.387C117.014 127.441 117.014 137.058 122.874 143.112L160.418 180.656L157.803 185.881C151.037 199.414 150.383 215.195 156.001 229.24H213.418V154.35C213.418 143.652 209.536 133.322 202.492 125.269Z" fill="#DBAB84"/>
<path d="M186.917 167.406C185.747 167.406 184.622 166.941 183.795 166.111L170.545 152.861C168.849 151.108 168.898 148.312 170.651 146.615C172.365 144.963 175.076 144.963 176.79 146.615L190.041 159.865C191.763 161.593 191.763 164.389 190.041 166.111C189.211 166.941 188.089 167.406 186.917 167.406Z" fill="#CC8866"/>
<path d="M199.537 49.1688H206.119C208.875 67.7875 223.05 79.2625 243.975 79.2625C248.475 79.2625 252.356 78.8125 255.337 78.0813V65.875C252.469 66.55 248.812 66.9438 244.087 66.9438C231.712 66.9438 223.5 60.1938 221.025 49.1688H247.35V42.9813H220.294C220.294 42.6438 220.294 42.3063 220.294 41.9688V36.9063C220.294 36.175 220.35 35.4438 220.35 34.7688H247.35V28.5813H221.306C224.062 18.2313 232.162 11.9313 244.087 11.9313C248.812 11.9313 252.469 12.2688 255.337 13V0.793796C252.356 0.00629574 248.475 -0.443704 243.975 -0.443704C223.444 -0.443704 209.437 10.5813 206.287 28.5813H199.537V34.7688H205.612C205.612 35.3875 205.612 36.0063 205.612 36.625V42.1938C205.612 42.475 205.612 42.7 205.612 42.9813H199.537V49.1688Z" fill="#00B140"/>
</g>
<defs>
<clipPath id="clip0_3940_1395">
<rect width="256" height="256" fill="white"/>
</clipPath>
</defs>
</svg>
