<svg width="256" height="256" viewBox="0 0 256 256" fill="none" xmlns="http://www.w3.org/2000/svg">
<g id="Icon-Bank-256px">
<g id="Group">
<path id="Vector" d="M21.3333 113.778H234.667V241.778H21.3333V113.778Z" fill="#66757F"/>
<path id="Vector_2" d="M14.2222 241.778H241.778C249.628 241.778 256 248.149 256 256H0C0 248.149 6.37156 241.778 14.2222 241.778Z" fill="#CCD6DD"/>
<path id="Vector_3" d="M128 163.556C116.217 163.556 106.667 173.106 106.667 184.889V227.556H149.333V184.889C149.333 173.106 139.783 163.556 128 163.556Z" fill="#292F33"/>
<path id="Vector_4" d="M21.3333 149.333H49.7778V227.556H21.3333V149.333ZM64 149.333H92.4444V227.556H64V149.333ZM206.222 149.333H234.667V227.556H206.222V149.333ZM163.556 149.333H192V227.556H163.556V149.333Z" fill="#CCD6DD"/>
<path id="Vector_5" d="M14.2222 227.556H241.778V241.778H14.2222V227.556Z" fill="#AAB8C2"/>
<path id="Vector_6" d="M256 78.2222L128 0L0 78.2222H256Z" fill="#66757F"/>
<path id="Vector_7" d="M128 17.0668L14.2222 85.3335V113.778H241.778V85.3335L128 17.0668Z" fill="#CCD6DD"/>
<path id="Vector_8" d="M21.3333 135.111H49.7778V149.333H21.3333V135.111ZM64 135.111H92.4444V149.333H64V135.111ZM163.556 135.111H192V149.333H163.556V135.111ZM206.222 135.111H234.667V149.333H206.222V135.111Z" fill="#8899A6"/>
<path id="Vector_9" d="M7.11111 85.3334H248.889V120.889H7.11111V85.3334Z" fill="#CCD6DD"/>
<path id="Vector_10" d="M256 85.3334C256 89.2587 252.821 92.4445 248.889 92.4445H7.11111C3.18578 92.4445 0 89.2587 0 85.3334V78.2223C0 74.2969 3.18578 71.1111 7.11111 71.1111H248.889C252.821 71.1111 256 74.2969 256 78.2223V85.3334ZM256 128C256 131.925 252.821 135.111 248.889 135.111H7.11111C3.18578 135.111 0 131.925 0 128V120.889C0 116.964 3.18578 113.778 7.11111 113.778H248.889C252.821 113.778 256 116.964 256 120.889V128Z" fill="#AAB8C2"/>
<path id="Vector_11" d="M92.4444 227.556H163.556V241.778H92.4444V227.556Z" fill="#E1E8ED"/>
<path id="Vector_12" d="M78.2222 241.778H177.778V256H78.2222V241.778Z" fill="#F5F8FA"/>
<g id="Dollar Coin">
<path id="Circle" d="M174.222 81.7778C174.222 107.306 153.528 128 128 128C102.472 128 81.7778 107.306 81.7778 81.7778C81.7778 56.2499 102.472 35.5555 128 35.5555C153.528 35.5555 174.222 56.2499 174.222 81.7778Z" fill="#FFE600"/>
<path id="dollarsign.circle" d="M128 128C153.286 128 174.222 107.064 174.222 81.7778C174.222 56.5368 153.241 35.5555 127.955 35.5555C102.714 35.5555 81.7778 56.5368 81.7778 81.7778C81.7778 107.064 102.759 128 128 128ZM128 120.296C106.611 120.296 89.5268 103.167 89.5268 81.7778C89.5268 60.434 106.566 43.2592 127.955 43.2592C149.344 43.2592 166.473 60.434 166.519 81.7778C166.564 103.167 149.389 120.296 128 120.296ZM127.955 107.698C129.178 107.698 130.13 106.792 130.13 105.523V102.351C137.108 101.671 142.592 97.593 142.592 90.7503C142.592 84.5874 138.604 80.8714 130.719 79.4667L130.13 79.3307V66.7329C133.347 67.2767 135.613 69.2253 136.519 72.3067C136.973 73.6662 137.834 74.5272 139.284 74.5272C140.824 74.5272 141.957 73.3943 141.957 71.8536C141.957 71.3551 141.821 70.9473 141.731 70.4488C140.553 65.5094 135.93 62.156 130.13 61.5216V58.3948C130.13 57.1259 129.178 56.2196 127.955 56.2196C126.731 56.2196 125.825 57.0806 125.825 58.3948V61.5216C118.937 62.2919 114.088 66.5516 114.088 72.7146C114.088 78.4697 117.94 81.9137 125.508 83.681L125.825 83.7717V97.1852C121.746 96.5961 119.345 94.3756 118.62 91.3394C118.121 89.7987 117.169 89.0736 115.81 89.0736C114.269 89.0736 113.182 90.1612 113.182 91.7473C113.182 92.2457 113.272 92.6536 113.408 93.1521C114.677 98.3634 119.752 101.671 125.825 102.306V105.523C125.825 106.837 126.731 107.698 127.955 107.698ZM125.825 78.2431L125.508 78.1525C121.429 76.929 119.662 75.1616 119.662 72.4427C119.662 69.6784 121.973 67.3673 125.825 66.7329V78.2431ZM130.13 84.9046L131.081 85.1311C135.477 86.3547 137.018 88.2126 137.018 91.0675C137.018 94.285 134.752 96.6867 130.13 97.1852V84.9046Z" fill="#EDAE00"/>
</g>
</g>
</g>
</svg>
