<svg width="256" height="256" viewBox="0 0 256 256" fill="none" xmlns="http://www.w3.org/2000/svg">
<g id="Icon-Donate_to_a_community-256px">
<g id="Group">
<path id="Vector" fill-rule="evenodd" clip-rule="evenodd" d="M107.578 204.619V194.623C107.578 194.584 107.577 194.545 107.576 194.506C107.394 186.771 107.206 178.773 104.985 170.44C99.9209 151.494 88.9423 141.032 68.2797 135.46C67.7111 135.306 66.9751 135.233 66.4646 134.94C66.0366 134.694 65.737 134.016 65.4885 133.612L52.4688 112.497C50.0582 108.567 46.2485 105.811 41.7423 104.734L38.6196 64.455C37.8851 55.0593 30.6402 47.9594 21.7672 47.9399H21.7302C12.7372 47.9399 5.48131 55.0383 4.84678 64.466L0.0495237 135.908C-0.641013 154.757 5.98784 160.765 16.0224 169.86L16.2184 170.037C17.476 171.175 18.956 172.439 20.5231 173.778C29.2171 181.202 42.3553 192.423 42.3553 203.26V204.618C37.3115 206.247 33.6523 210.981 33.6523 216.555V234.707C33.6523 241.623 39.2846 247.25 46.207 247.25H103.725C110.648 247.25 116.28 241.623 116.28 234.707V216.555C116.281 210.982 112.622 206.248 107.578 204.619ZM21.7327 57.9317C18.0705 57.9317 15.1028 61.0255 14.8263 65.1355L10.0436 136.273C9.52303 150.477 13.3927 153.985 22.7417 162.458L22.9347 162.633C24.0632 163.654 25.4618 164.849 26.9438 166.115L27.021 166.181C37.11 174.797 52.3563 187.817 52.3563 203.26V204.012H97.5777V194.681C97.4097 187.549 97.2317 180.175 95.3226 173.014C91.8799 160.135 85.5196 150.458 65.67 145.105L65.341 145.016C61.5253 143.988 59.5807 143.093 56.9711 138.845L43.9494 117.728C42.9298 116.065 41.3217 114.906 39.4156 114.451C37.5425 114.004 35.5334 114.313 33.8928 115.324C30.4567 117.441 29.3781 121.956 31.4892 125.389L52.5913 159.621C54.0394 161.971 53.3074 165.049 50.9563 166.496C48.6051 167.943 45.5245 167.211 44.0764 164.862L22.9713 130.626C17.9745 122.501 20.5206 111.823 28.6441 106.818C29.6401 106.205 30.6827 105.7 31.7567 105.304L28.6501 65.229C28.367 61.6111 25.9049 57.9407 21.7467 57.9317H21.7327ZM103.726 237.258C105.134 237.258 106.28 236.113 106.28 234.708V216.556C106.28 215.173 105.111 214.005 103.726 214.005H46.2075C44.8229 214.005 43.6534 215.173 43.6534 216.556V234.708C43.6534 236.09 44.8229 237.258 46.2075 237.258H103.726Z" fill="#EEEEEE"/>
<path id="Vector_2" d="M255.95 135.908C255.949 135.857 255.946 135.806 255.942 135.756L251.152 64.466C250.518 55.0378 243.263 47.9399 234.27 47.9399C234.258 47.9399 234.245 47.9399 234.233 47.9399C225.36 47.9594 218.116 55.0593 217.381 64.458L214.259 104.734C209.753 105.81 205.944 108.566 203.539 112.487L190.509 133.619C190.262 134.021 189.964 134.696 189.538 134.939C189.027 135.231 188.296 135.305 187.728 135.458C167.061 141.031 156.084 151.493 151.019 170.443C148.799 178.773 148.61 186.771 148.428 194.506C148.427 194.545 148.427 194.584 148.427 194.623V204.618C143.383 206.247 139.724 210.981 139.724 216.555V234.707C139.724 241.623 145.356 247.25 152.279 247.25H209.795C216.717 247.25 222.349 241.623 222.349 234.707V216.555C222.349 210.981 218.69 206.247 213.646 204.618V203.26C213.646 192.423 226.784 181.202 235.477 173.778C237.044 172.44 238.524 171.176 239.785 170.034L239.978 169.86C250.012 160.765 256.641 154.757 255.95 135.908V135.908ZM212.349 234.707C212.349 236.09 211.18 237.257 209.795 237.257H152.279C150.894 237.257 149.725 236.09 149.725 234.707V216.555C149.725 215.173 150.894 214.005 152.279 214.005H209.795C211.18 214.005 212.349 215.173 212.349 216.555V234.707ZM233.26 162.458L233.071 162.63C231.919 163.672 230.492 164.891 228.981 166.181C218.893 174.796 203.647 187.817 203.647 203.259V204.011H158.428V194.682C158.596 187.549 158.774 180.175 160.682 173.017C164.125 160.135 170.485 150.458 190.338 145.104L190.662 145.016C194.478 143.988 196.423 143.093 199.027 138.853L212.059 117.718C213.073 116.066 214.681 114.906 216.587 114.451C217.281 114.286 217.981 114.224 218.672 114.258C218.698 114.26 218.724 114.259 218.75 114.26C219.932 114.332 221.082 114.692 222.114 115.328C223.774 116.348 224.938 117.962 225.393 119.872C225.846 121.777 225.535 123.734 224.516 125.385L203.411 159.621C201.963 161.97 202.695 165.048 205.046 166.495C207.398 167.943 210.478 167.211 211.926 164.862L233.028 130.628C235.45 126.706 236.193 122.066 235.122 117.562C234.05 113.052 231.29 109.236 227.358 106.819C226.362 106.205 225.32 105.701 224.245 105.305L227.352 65.2324C227.635 61.6115 230.097 57.9412 234.255 57.9322H234.269C237.93 57.9322 240.898 61.0265 241.175 65.1355L245.96 136.347C246.464 150.489 242.592 154 233.26 162.458V162.458Z" fill="#EEEEEE"/>
<path id="Vector_3" d="M61.7111 106.051H83.7833C83.2273 108.869 82.9318 111.76 82.9318 114.696V122.602C82.9318 125.364 85.1703 127.602 87.9319 127.602H168.068C170.83 127.602 173.068 125.364 173.068 122.602V114.696C173.068 111.76 172.773 108.869 172.217 106.051H194.303C197.064 106.051 199.303 103.812 199.303 101.05V93.1439C199.303 77.8422 191.438 63.6801 178.803 55.4195C182.956 50.1185 185.441 43.4519 185.441 36.2123C185.441 19.0012 171.436 4.99902 154.221 4.99902C143.35 4.99902 133.616 10.5756 128.004 19.2342C122.398 10.5751 112.661 4.99902 101.779 4.99902C84.5638 4.99902 70.5582 19.0012 70.5582 36.2123C70.5582 43.4524 73.0437 50.1195 77.1973 55.4205C64.5701 63.6786 56.7111 77.8407 56.7111 93.1444V101.051C56.7111 103.812 58.9496 106.051 61.7111 106.051ZM163.068 117.602H92.9319V114.695C92.9319 101.915 99.9865 90.1534 111.119 83.9968C115.99 87.1418 121.783 88.9763 128 88.9763C134.216 88.9763 140.01 87.1423 144.881 83.9968C156.013 90.1534 163.068 101.915 163.068 114.695V117.602H163.068ZM189.303 93.1439V96.0504H168.993C165.469 88.3508 159.805 81.6948 152.58 76.9697C154.842 74.0822 156.61 70.7917 157.749 67.2201C162.629 66.6686 167.168 64.9876 171.105 62.4466C182.244 68.6061 189.303 80.3673 189.303 93.1439ZM154.221 14.9991C165.922 14.9991 175.441 24.5152 175.441 36.2123C175.441 46.1959 168.504 54.585 159.197 56.8305C158.777 42.4139 148.537 30.4248 134.944 27.3242C138.339 19.9527 145.773 14.9991 154.221 14.9991ZM128 36.5358C139.701 36.5358 149.221 46.0519 149.221 57.749C149.221 69.4537 139.701 78.9762 128 78.9762C116.299 78.9762 106.78 69.4537 106.78 57.749C106.78 46.0519 116.299 36.5358 128 36.5358ZM101.78 14.9991C110.238 14.9991 117.674 19.9522 121.062 27.3227C107.465 30.4208 97.223 42.4119 96.803 56.83C87.4959 54.585 80.5588 46.1954 80.5588 36.2118C80.5583 24.5152 90.0779 14.9991 101.78 14.9991ZM66.7112 93.1439C66.7112 80.3643 73.7652 68.6036 84.8958 62.4466C88.8324 64.9876 93.3719 66.6686 98.2515 67.2201C99.3905 70.7917 101.159 74.0822 103.421 76.9697C96.1954 81.6943 90.5314 88.3508 87.0079 96.0504H66.7112V93.1439Z" fill="#EEEEEE"/>
</g>
</g>
</svg>
