<svg width="256" height="256" viewBox="0 0 256 256" fill="none" xmlns="http://www.w3.org/2000/svg">
<g id="Icon-House-256px">
<g id="Group">
<path id="Vector" d="M195.369 13.4736H175.158V33.6842H195.369V13.4736Z" fill="#695A69"/>
<path id="Vector_2" d="M6.73706 107.789V215.579H101.053V134.737H154.947V215.579H249.263V107.789H128H6.73706ZM80.8421 134.737V148.211V154.948V181.895V188.632H74.1051H40.4208H33.6843V181.895V154.948V148.211V134.737V128H40.4213H74.1056H80.8427V134.737H80.8421ZM175.158 181.895V154.948V148.211V134.737V128H181.895H215.579H222.316V134.737V148.211V154.948V181.895V188.632H215.579H181.895H175.158V181.895Z" fill="#F2D057"/>
<path id="Vector_3" d="M222.316 33.6843H195.369H175.158H128H33.6843L0 107.789H6.73707H128H249.263H256L222.316 33.6843Z" fill="#BF515A"/>
<path id="Vector_4" d="M40.4208 181.895H67.3686L40.4208 154.947V181.895Z" fill="#95FFFF"/>
<path id="Vector_5" d="M67.3686 181.895H74.1051V154.947H40.4208L67.3686 181.895Z" fill="#80D7F0"/>
<path id="Vector_6" d="M74.1051 134.737H40.4208V148.211H74.1051V134.737Z" fill="#6EB1E2"/>
<path id="Vector_7" d="M40.4208 128H33.6843V134.737V148.211V154.948V181.895V188.632H40.4213H74.1056H80.8427V181.895V154.948V148.211V134.737V128H74.1056H40.4208ZM74.1051 181.895H67.368H40.4208V154.948H74.1051V181.895ZM74.1051 148.211H40.4208V134.737H74.1051V148.211Z" fill="#695A69"/>
<path id="Vector_8" d="M181.895 154.947V181.895H208.842L181.895 154.947Z" fill="#95FFFF"/>
<path id="Vector_9" d="M215.579 181.895V154.947H181.895L208.842 181.895H215.579Z" fill="#80D7F0"/>
<path id="Vector_10" d="M215.579 134.737H181.895V148.211H215.579V134.737Z" fill="#6EB1E2"/>
<path id="Vector_11" d="M215.579 188.631H222.316V181.894V154.947V148.21V134.737V128H215.579H181.895H175.158V134.737V148.211V154.948V181.895V188.632H181.895H215.579V188.631ZM181.895 134.737H215.579V148.211H181.895V134.737ZM181.895 154.947H215.579V181.894H208.842H181.895V154.947Z" fill="#695A69"/>
<path id="Vector_12" d="M154.947 134.737H101.053V215.579V242.526H154.947V215.579V134.737Z" fill="#944851"/>
<path id="Vector_13" d="M101.053 215.579H6.73706V242.526H101.053V215.579Z" fill="#E9A868"/>
<path id="Vector_14" d="M249.263 215.579H154.947V242.526H249.263V215.579Z" fill="#E9A868"/>
</g>
</g>
</svg>
