<svg width="720" height="720" viewBox="0 0 720 720" fill="none" xmlns="http://www.w3.org/2000/svg">
<g id="Icon-Funding-2Euro">
<g id="Hand">
<path id="Vector" d="M500.213 598.772L605.606 549.254C628.848 537.581 657.197 546.139 670 568.681L455.776 706.528C427.051 719.712 394.819 723.341 363.86 716.877L216.112 675.626C202.518 671.834 187.968 673.415 175.517 680.048L144.622 696.494L148.78 546.594L150.012 546.623C194.161 515.418 252.144 511.381 300.234 536.169L309.078 540.725C322.907 547.849 338.173 551.775 353.743 552.195L440.599 554.581C467.852 555.322 491.709 573.004 500.213 598.772V598.772Z" fill="#DBAB84"/>
<path id="Vector_2" d="M503.399 632.526H503.07L360.307 628.612C353.674 628.431 348.449 622.936 348.631 616.343C348.813 609.745 354.337 604.547 360.964 604.728L490.35 608.275C489.951 606.327 489.435 604.407 488.807 602.517C481.864 581.55 462.458 567.159 440.272 566.528L353.41 564.137C336.039 563.647 318.997 559.265 303.555 551.331L294.717 546.781C250.644 523.93 197.411 527.634 156.968 556.366C151.561 560.187 144.06 558.921 140.219 553.542C136.378 548.164 137.65 540.702 143.057 536.881C190.825 502.952 253.706 498.576 305.76 525.563L314.604 530.114C326.826 536.397 340.315 539.856 354.067 540.253L440.928 542.639C461.244 543.182 480.509 551.734 494.479 566.418C508.448 581.095 515.978 600.703 515.404 620.905C515.228 627.381 509.903 632.532 503.393 632.526H503.399Z" fill="#CC8866"/>
<rect id="Vector_3" x="50" y="508" width="100" height="212" fill="#62688F"/>
</g>
<g id="Coin-2Euro">
<g id="Ellipse">
<circle cx="360" cy="360" r="120" fill="#DBDBDB"/>
<circle cx="360" cy="360" r="119.5" stroke="black" stroke-opacity="0.25"/>
</g>
<g id="Ellipse_2">
<circle cx="360" cy="360" r="110" fill="#EBEBEB"/>
<circle cx="360" cy="360" r="109.5" stroke="black" stroke-opacity="0.25"/>
</g>
<g id="Ellipse_3">
<circle cx="360" cy="360" r="84" fill="#EBD683"/>
<circle cx="360" cy="360" r="83.5" stroke="black" stroke-opacity="0.25"/>
</g>
<g id="&#226;&#130;&#172;">
<path d="M321 372.095H329.901C332.82 396.787 349.236 411 374.918 411C380.172 411 384.841 410.498 389 409.493V398.008C384.914 398.941 380.172 399.443 374.991 399.443C357.408 399.443 345.953 389.322 343.253 372.095H377.18V364.199H342.67C342.67 364.056 342.67 363.912 342.67 363.697V356.303C342.67 355.37 342.67 354.437 342.67 353.504H377.18V345.608H343.691C347.047 329.745 358.137 320.628 374.991 320.628C380.172 320.628 384.914 321.059 389 322.064V310.579C384.841 309.502 380.172 309 374.918 309C350.039 309 333.841 322.351 330.193 345.608H321V353.504H329.464C329.391 354.365 329.391 355.227 329.391 356.088V364.199H321V372.095Z" fill="black" fill-opacity="0.125"/>
<path d="M329.464 353.004H321.5V346.108H330.193H330.621L330.687 345.686C332.495 334.158 337.406 325.124 344.911 318.969C352.419 312.813 362.568 309.5 374.918 309.5C379.983 309.5 384.486 309.97 388.5 310.968V321.432C384.507 320.519 379.939 320.128 374.991 320.128C366.473 320.128 359.37 322.434 353.966 326.78C348.562 331.126 344.899 337.481 343.202 345.505L343.074 346.108H343.691H376.68V353.004H342.67H342.17V353.504V353.509V353.515V353.52V353.526V353.531V353.537V353.542V353.548V353.553V353.559V353.564V353.569V353.575V353.58V353.586V353.591V353.597V353.602V353.608V353.613V353.619V353.624V353.63V353.635V353.641V353.646V353.651V353.657V353.662V353.668V353.673V353.679V353.684V353.69V353.695V353.701V353.706V353.712V353.717V353.723V353.728V353.734V353.739V353.744V353.75V353.755V353.761V353.766V353.772V353.777V353.783V353.788V353.794V353.799V353.805V353.81V353.816V353.821V353.826V353.832V353.837V353.843V353.848V353.854V353.859V353.865V353.87V353.876V353.881V353.887V353.892V353.898V353.903V353.908V353.914V353.919V353.925V353.93V353.936V353.941V353.947V353.952V353.958V353.963V353.969V353.974V353.98V353.985V353.99V353.996V354.001V354.007V354.012V354.018V354.023V354.029V354.034V354.04V354.045V354.051V354.056V354.062V354.067V354.073V354.078V354.083V354.089V354.094V354.1V354.105V354.111V354.116V354.122V354.127V354.133V354.138V354.144V354.149V354.155V354.16V354.165V354.171V354.176V354.182V354.187V354.193V354.198V354.204V354.209V354.215V354.22V354.226V354.231V354.237V354.242V354.247V354.253V354.258V354.264V354.269V354.275V354.28V354.286V354.291V354.297V354.302V354.308V354.313V354.319V354.324V354.329V354.335V354.34V354.346V354.351V354.357V354.362V354.368V354.373V354.379V354.384V354.39V354.395V354.401V354.406V354.411V354.417V354.422V354.428V354.433V354.439V354.444V354.45V354.455V354.461V354.466V354.472V354.477V354.483V354.488V354.494V354.499V354.504V354.51V354.515V354.521V354.526V354.532V354.537V354.543V354.548V354.554V354.559V354.565V354.57V354.576V354.581V354.586V354.592V354.597V354.603V354.608V354.614V354.619V354.625V354.63V354.636V354.641V354.647V354.652V354.658V354.663V354.668V354.674V354.679V354.685V354.69V354.696V354.701V354.707V354.712V354.718V354.723V354.729V354.734V354.74V354.745V354.75V354.756V354.761V354.767V354.772V354.778V354.783V354.789V354.794V354.8V354.805V354.811V354.816V354.822V354.827V354.833V354.838V354.843V354.849V354.854V354.86V354.865V354.871V354.876V354.882V354.887V354.893V354.898V354.904V354.909V354.915V354.92V354.925V354.931V354.936V354.942V354.947V354.953V354.958V354.964V354.969V354.975V354.98V354.986V354.991V354.997V355.002V355.007V355.013V355.018V355.024V355.029V355.035V355.04V355.046V355.051V355.057V355.062V355.068V355.073V355.079V355.084V355.089V355.095V355.1V355.106V355.111V355.117V355.122V355.128V355.133V355.139V355.144V355.15V355.155V355.161V355.166V355.172V355.177V355.182V355.188V355.193V355.199V355.204V355.21V355.215V355.221V355.226V355.232V355.237V355.243V355.248V355.254V355.259V355.264V355.27V355.275V355.281V355.286V355.292V355.297V355.303V355.308V355.314V355.319V355.325V355.33V355.336V355.341V355.346V355.352V355.357V355.363V355.368V355.374V355.379V355.385V355.39V355.396V355.401V355.407V355.412V355.418V355.423V355.428V355.434V355.439V355.445V355.45V355.456V355.461V355.467V355.472V355.478V355.483V355.489V355.494V355.5V355.505V355.51V355.516V355.521V355.527V355.532V355.538V355.543V355.549V355.554V355.56V355.565V355.571V355.576V355.582V355.587V355.593V355.598V355.603V355.609V355.614V355.62V355.625V355.631V355.636V355.642V355.647V355.653V355.658V355.664V355.669V355.675V355.68V355.685V355.691V355.696V355.702V355.707V355.713V355.718V355.724V355.729V355.735V355.74V355.746V355.751V355.757V355.762V355.767V355.773V355.778V355.784V355.789V355.795V355.8V355.806V355.811V355.817V355.822V355.828V355.833V355.839V355.844V355.849V355.855V355.86V355.866V355.871V355.877V355.882V355.888V355.893V355.899V355.904V355.91V355.915V355.921V355.926V355.932V355.937V355.942V355.948V355.953V355.959V355.964V355.97V355.975V355.981V355.986V355.992V355.997V356.003V356.008V356.014V356.019V356.024V356.03V356.035V356.041V356.046V356.052V356.057V356.063V356.068V356.074V356.079V356.085V356.09V356.096V356.101V356.106V356.112V356.117V356.123V356.128V356.134V356.139V356.145V356.15V356.156V356.161V356.167V356.172V356.178V356.183V356.188V356.194V356.199V356.205V356.21V356.216V356.221V356.227V356.232V356.238V356.243V356.249V356.254V356.26V356.265V356.271V356.276V356.281V356.287V356.292V356.298V356.303V363.697V363.698V363.699V363.7V363.702V363.703V363.704V363.705V363.707V363.708V363.709V363.71V363.712V363.713V363.714V363.715V363.717V363.718V363.719V363.72V363.722V363.723V363.724V363.725V363.727V363.728V363.729V363.73V363.731V363.733V363.734V363.735V363.736V363.737V363.739V363.74V363.741V363.742V363.743V363.745V363.746V363.747V363.748V363.749V363.751V363.752V363.753V363.754V363.755V363.757V363.758V363.759V363.76V363.761V363.763V363.764V363.765V363.766V363.767V363.768V363.77V363.771V363.772V363.773V363.774V363.775V363.777V363.778V363.779V363.78V363.781V363.782V363.783V363.785V363.786V363.787V363.788V363.789V363.79V363.792V363.793V363.794V363.795V363.796V363.797V363.798V363.799V363.801V363.802V363.803V363.804V363.805V363.806V363.807V363.808V363.81V363.811V363.812V363.813V363.814V363.815V363.816V363.817V363.819V363.82V363.821V363.822V363.823V363.824V363.825V363.826V363.827V363.828V363.83V363.831V363.832V363.833V363.834V363.835V363.836V363.837V363.838V363.839V363.84V363.842V363.843V363.844V363.845V363.846V363.847V363.848V363.849V363.85V363.851V363.852V363.853V363.854V363.856V363.857V363.858V363.859V363.86V363.861V363.862V363.863V363.864V363.865V363.866V363.867V363.868V363.869V363.87V363.871V363.872V363.873V363.875V363.876V363.877V363.878V363.879V363.88V363.881V363.882V363.883V363.884V363.885V363.886V363.887V363.888V363.889V363.89V363.891V363.892V363.893V363.894V363.895V363.896V363.897V363.898V363.899V363.9V363.901V363.902V363.903V363.904V363.905V363.906V363.907V363.908V363.909V363.91V363.911V363.912V363.913V363.914V363.915V363.916V363.917V363.918V363.919V363.92V363.921V363.922V363.923V363.924V363.925V363.926V363.927V363.928V363.929V363.93V363.931V363.932V363.933V363.934V363.935V363.936V363.937V363.938V363.939V363.94V363.941V363.942V363.943V363.944V363.945V363.946V363.947V363.948V363.949V363.95V363.951V363.952V363.953V363.954V363.955V363.956V363.957V363.958V363.959V363.96V363.961V363.962V363.962V363.963V363.964V363.965V363.966V363.967V363.968V363.969V363.97V363.971V363.972V363.973V363.974V363.975V363.976V363.977V363.978V363.979V363.98V363.981V363.981V363.982V363.983V363.984V363.985V363.986V363.987V363.988V363.989V363.99V363.991V363.992V363.993V363.994V363.995V363.995V363.996V363.997V363.998V363.999V364V364.001V364.002V364.003V364.004V364.005V364.006V364.007V364.007V364.008V364.009V364.01V364.011V364.012V364.013V364.014V364.015V364.016V364.017V364.018V364.018V364.019V364.02V364.021V364.022V364.023V364.024V364.025V364.026V364.027V364.028V364.028V364.029V364.03V364.031V364.032V364.033V364.034V364.035V364.036V364.037V364.037V364.038V364.039V364.04V364.041V364.042V364.043V364.044V364.045V364.046V364.046V364.047V364.048V364.049V364.05V364.051V364.052V364.053V364.054V364.054V364.055V364.056V364.057V364.058V364.059V364.06V364.061V364.061V364.062V364.063V364.064V364.065V364.066V364.067V364.068V364.069V364.069V364.07V364.071V364.072V364.073V364.074V364.075V364.076V364.076V364.077V364.078V364.079V364.08V364.081V364.082V364.083V364.083V364.084V364.085V364.086V364.087V364.088V364.089V364.089V364.09V364.091V364.092V364.093V364.094V364.095V364.096V364.096V364.097V364.098V364.099V364.1V364.101V364.102V364.102V364.103V364.104V364.105V364.106V364.107V364.108V364.108V364.109V364.11V364.111V364.112V364.113V364.114V364.115V364.115V364.116V364.117V364.118V364.119V364.12V364.12V364.121V364.122V364.123V364.124V364.125V364.126V364.126V364.127V364.128V364.129V364.13V364.131V364.132V364.132V364.133V364.134V364.135V364.136V364.137V364.138V364.138V364.139V364.14V364.141V364.142V364.143V364.143V364.144V364.145V364.146V364.147V364.148V364.149V364.149V364.15V364.151V364.152V364.153V364.154V364.154V364.155V364.156V364.157V364.158V364.159V364.16V364.16V364.161V364.162V364.163V364.164V364.165V364.165V364.166V364.167V364.168V364.169V364.17V364.171V364.171V364.172V364.173V364.174V364.175V364.176V364.176V364.177V364.178V364.179V364.18V364.181V364.181V364.182V364.183V364.184V364.185V364.186V364.187V364.187V364.188V364.189V364.19V364.191V364.192V364.192V364.193V364.194V364.195V364.196V364.197V364.197V364.198V364.199V364.699H342.67H376.68V371.595H343.253H342.669L342.759 372.172C344.124 380.879 347.708 387.832 353.213 392.607C358.719 397.383 366.101 399.943 374.991 399.943C379.947 399.943 384.514 399.486 388.5 398.631V409.097C384.483 410.031 379.979 410.5 374.918 410.5C362.17 410.5 351.77 406.974 344.2 400.429C336.633 393.886 331.845 384.283 330.398 372.036L330.346 371.595H329.901H321.5V364.699H329.391H329.891V364.199V356.088C329.891 355.223 329.891 354.383 329.962 353.546L330.008 353.004H329.464Z" stroke="black" stroke-opacity="0.25"/>
</g>
</g>
<g id="Motion-Lines">
<g id="Line 1">
<rect x="280" y="72" width="12" height="120" rx="6" fill="#DBDBDB"/>
<rect x="280.5" y="72.5" width="11" height="119" rx="5.5" stroke="black" stroke-opacity="0.25"/>
</g>
<g id="Line 2">
<rect x="354" width="12" height="168" rx="6" fill="#DBDBDB"/>
<rect x="354.5" y="0.5" width="11" height="167" rx="5.5" stroke="black" stroke-opacity="0.25"/>
</g>
<g id="Line 3">
<rect x="428" y="72" width="12" height="120" rx="6" fill="#DBDBDB"/>
<rect x="428.5" y="72.5" width="11" height="119" rx="5.5" stroke="black" stroke-opacity="0.25"/>
</g>
</g>
</g>
</svg>
