<svg width="256" height="256" viewBox="0 0 256 256" fill="none" xmlns="http://www.w3.org/2000/svg">
<path d="M95.2717 5.85977e-07C95.9207 5.85977e-07 95.2717 2.52998 95.2717 2.52998C95.2717 2.52998 97.9769 2.08923 97.76 1.10015L97.7774 0.93874C98.0411 0.93874 99.8874 4.11947 99.5994 5.3914C99.2749 6.82123 97.0035 10.5607 95.9207 10.5607V11.6608C95.9207 11.6608 100.465 12.1016 101.439 13.4204C102.412 14.7409 102.088 19.9119 102.088 19.9119C102.088 19.9119 100.923 22.579 97.7635 22.579C97.5882 22.579 97.4078 22.5703 97.2186 22.5512L95.8131 24.8625L99.1656 31.4634L99.707 45.9856C99.707 45.9856 103.495 60.1782 103.495 61.936V68.0995L100.682 68.3182L103.495 68.5125V69.6387C103.495 69.6387 106.146 69.7202 107.434 72.7725L103.603 73.3781L107.701 73.5169C107.79 73.8137 107.868 74.1347 107.93 74.4783C107.93 74.4783 109.77 77.2286 109.877 80.0883C109.987 82.9497 112.473 84.0498 112.473 84.0498L114.205 80.0883C114.205 80.0883 113.556 77.6694 113.988 75.6877C113.988 75.6877 113.231 74.5876 113.339 73.7095L107.701 73.5169C107.621 73.2515 107.531 73.0033 107.434 72.7725L113.339 71.8372V69.1979L103.495 68.5125V68.0995L113.448 67.3273C113.448 67.3273 114.854 64.9067 115.829 64.9067L107.93 56.987L117.776 63.3675C117.776 63.3675 119.87 62.1494 121.472 62.1494L121.67 62.1563V49.5047L124.484 62.1563L124.719 62.1529C125.389 62.1529 127.335 62.2257 128.486 63.0361L137.466 54.785L131.3 64.4659L133.084 66.2827L145.255 63.4768L134.492 68.6478L134.707 70.9592L148.936 71.4537L135.248 73.2133C135.248 73.2133 134.87 85.0406 135.194 85.3686C135.519 85.7 136.602 86.3612 136.06 87.5707C135.519 88.7801 135.194 88.7801 135.519 90.21C135.843 91.6415 136.277 95.1606 137.034 95.931C137.79 96.7015 142.984 99.6722 143.418 101.543C143.85 103.412 147.638 113.863 148.936 115.624C150.234 117.384 154.237 120.134 154.452 121.125C154.567 121.649 154.712 121.772 154.823 121.772L154.993 121.673L160.187 113.754L171.548 120.573L168.41 127.835L170.572 130.695L166.247 139.498C166.247 139.498 165.381 141.807 161.702 142.907L160.728 153.029C160.728 153.029 159.429 159.849 155.21 159.96C155.21 159.96 154.993 162.71 151.207 163.26L153.912 192.193L152.29 193.294V199.893L150.99 201.545L150.775 216.947L148.611 220.027L149.043 242.139H150.126L157.914 250.279L158.023 256L84.6694 255.67L84.4525 243.569L88.7802 242.58L92.5664 242.25C92.5664 242.25 93.3837 238.719 98.3899 238.719L98.8411 238.727C98.8411 238.727 100.682 236.97 100.682 234.219C100.682 231.469 100.682 230.367 100.141 228.717C99.5994 227.068 100.031 223.877 100.465 223.877C100.899 223.877 101.439 222.007 100.682 218.927C99.9239 215.847 98.5166 197.583 99.49 189.332C99.49 189.332 99.058 186.802 100.031 185.483C101.007 184.161 99.5994 170.741 99.5994 170.741C99.5994 170.741 96.1376 164.799 97.111 160.18C98.0845 155.559 100.79 147.969 100.79 147.969C100.79 147.969 100.635 147.98 100.382 147.98C99.1378 147.98 95.4886 147.678 95.4886 144.117C95.4886 139.826 95.7038 129.815 101.007 122.994C101.007 122.994 99.3825 116.724 97.6507 116.063C97.6507 116.063 96.0282 114.633 97.6507 112.433C99.2749 110.233 97.5431 109.022 97.5431 108.583C97.5431 108.142 98.0845 104.073 98.0845 104.073C98.0845 104.073 95.8131 101.873 94.7303 101.543C93.6492 101.211 93.6492 98.461 94.9472 97.5813C96.2452 96.7015 92.0268 95.4903 92.0268 95.4903C92.0268 95.4903 88.8895 92.6306 90.4026 87.6799C91.9175 82.7293 95.8131 75.4673 95.8131 75.4673L94.7303 68.6478C94.7303 68.6478 93.1078 66.8883 92.6758 62.2674C92.242 57.6464 92.1344 47.1951 92.1344 47.1951C92.1344 47.1951 91.0516 44.9948 91.0516 43.7836C91.0516 42.5741 90.1874 42.2445 90.1874 42.2445L90.5119 38.7236L90.7271 37.4048L90.5119 35.2028L90.4859 35.2046C90.302 35.2046 89.1775 35.1109 88.7802 32.8932C88.3481 30.4743 88.4557 26.5127 88.4557 26.5127L89.3215 25.9627V25.3033C89.3215 25.3033 87.1577 22.6622 87.1577 21.5621L86.9321 21.5708C86.3734 21.5708 84.9713 21.4302 84.8845 20.0212C84.777 18.2617 84.9939 13.4204 84.9939 13.4204C84.9939 13.4204 86.8332 11.6608 90.4026 11.4404L90.295 9.89956C90.295 9.89956 88.4557 8.6901 89.5385 6.48982C90.6195 4.29127 94.6227 5.85977e-07 95.2717 5.85977e-07Z" fill="#43B3AE"/>
</svg>
