<svg width="256" height="256" viewBox="0 0 256 256" fill="none" xmlns="http://www.w3.org/2000/svg">
<g id="Icon-Spending-256px">
<g id="Card">
<path id="Card_2" fill-rule="evenodd" clip-rule="evenodd" d="M46.9895 0C43.1293 0 40 3.1293 40 6.98949L40 205.011C40 208.871 43.1293 212 46.9895 212H166.685C170.545 212 173.674 208.871 173.674 205.011V6.98949C173.674 3.1293 170.545 0 166.685 0L46.9895 0ZM96.3526 12.2316C93.4575 12.2316 91.1105 14.5786 91.1105 17.4737C91.1105 20.3689 93.4575 22.7158 96.3526 22.7158H117.321C120.216 22.7158 122.563 20.3689 122.563 17.4737C122.563 14.5786 120.216 12.2316 117.321 12.2316H96.3526Z" fill="#FF4D00"/>
<path id="Contactless" fill-rule="evenodd" clip-rule="evenodd" d="M158.909 176.623C159.402 176.338 160.032 176.507 160.316 177C161.913 179.765 162.753 182.902 162.753 186.095C162.753 189.288 161.913 192.425 160.316 195.191C160.032 195.683 159.402 195.852 158.909 195.567C158.417 195.283 158.248 194.653 158.533 194.161C159.948 191.709 160.694 188.927 160.694 186.095C160.694 183.263 159.948 180.482 158.533 178.029C158.248 177.537 158.417 176.907 158.909 176.623ZM155.134 178.51C155.626 178.226 156.256 178.395 156.541 178.887C157.806 181.079 158.472 183.565 158.472 186.095C158.472 188.626 157.806 191.111 156.541 193.303C156.256 193.795 155.626 193.964 155.134 193.68C154.641 193.395 154.473 192.766 154.757 192.273C155.842 190.395 156.412 188.264 156.412 186.095C156.412 183.926 155.842 181.795 154.757 179.917C154.473 179.424 154.641 178.795 155.134 178.51ZM151.534 180.241C152.028 179.959 152.657 180.131 152.939 180.625C153.878 182.268 154.371 184.131 154.371 186.026C154.371 187.922 153.878 189.785 152.939 191.428C152.657 191.922 152.028 192.094 151.534 191.811C151.04 191.529 150.869 190.9 151.151 190.407C151.911 189.076 152.312 187.565 152.312 186.026C152.312 184.488 151.911 182.977 151.151 181.646C150.869 181.152 151.04 180.523 151.534 180.241ZM147.873 182.147C148.348 181.833 148.987 181.964 149.3 182.438C150.022 183.53 150.407 184.797 150.407 186.095C150.407 187.393 150.022 188.66 149.3 189.752C148.987 190.226 148.348 190.357 147.873 190.043C147.399 189.73 147.268 189.091 147.582 188.616C148.085 187.855 148.348 186.982 148.348 186.095C148.348 185.208 148.085 184.335 147.582 183.574C147.268 183.099 147.399 182.46 147.873 182.147Z" fill="black"/>
<path id="solcard.org/ 0123456789abcdef" d="M51.4125 180.605C51.4125 181.4 52.0229 181.572 52.7755 181.726C53.336 181.837 53.7852 181.922 53.7852 182.371C53.7852 182.72 53.5242 183.008 52.8868 183.008C52.3224 183.008 52.0729 182.782 52.0191 182.425H51.3395C51.3395 183.147 51.9577 183.55 52.8561 183.55C53.8236 183.55 54.4687 183.093 54.4687 182.29C54.4687 181.503 53.8428 181.292 53.0865 181.162C52.6296 181.077 52.0844 181.016 52.0844 180.536C52.0844 180.144 52.4222 179.925 52.8945 179.925C53.4359 179.925 53.6969 180.229 53.72 180.509H54.365C54.365 179.829 53.7891 179.38 52.9175 179.38C52.1304 179.38 51.4125 179.749 51.4125 180.605ZM57.1563 179.38C56.1465 179.38 55.4093 180.075 55.4093 181.165V181.761C55.4093 182.912 56.135 183.55 57.1563 183.55C58.1584 183.55 58.8994 182.901 58.8994 181.761V181.162C58.8994 180.037 58.1584 179.38 57.1563 179.38ZM57.1601 179.971C57.809 179.971 58.2006 180.486 58.2006 181.223V181.711C58.2006 182.459 57.8282 182.962 57.1601 182.962C56.4844 182.962 56.1043 182.459 56.1043 181.711V181.223C56.1043 180.486 56.5112 179.971 57.1601 179.971ZM60.0896 183.484H60.7845V177.967H60.0896V183.484ZM61.9825 181.787C61.9825 182.87 62.6275 183.55 63.668 183.55C64.7353 183.55 65.2229 182.958 65.246 182.363H64.5702C64.4973 182.671 64.2746 182.943 63.6795 182.943C63.0575 182.943 62.6774 182.498 62.6774 181.795V181.15C62.6774 180.444 63.0191 179.987 63.6795 179.987C64.3092 179.987 64.4973 180.375 64.5395 180.613H65.2191C65.1999 180.002 64.6777 179.38 63.668 179.38C62.6313 179.38 61.9825 180.067 61.9825 181.127V181.787ZM67.4383 183.55C68.0334 183.55 68.3982 183.273 68.594 182.947H68.6247V183.484H69.2928V180.728C69.2928 179.737 68.6055 179.38 67.7723 179.38C66.8701 179.38 66.3325 179.764 66.2711 180.447H66.943C67.0236 180.167 67.2387 179.968 67.7493 179.968C68.2676 179.968 68.594 180.206 68.594 180.724V181.123H67.5381C66.609 181.123 66.1175 181.603 66.1175 182.31C66.1175 183.058 66.6551 183.55 67.4383 183.55ZM67.6303 182.966C67.2118 182.966 66.8278 182.755 66.8278 182.287C66.8278 181.926 67.0505 181.653 67.5957 181.653H68.594V182.102C68.594 182.598 68.1755 182.966 67.6303 182.966ZM70.7018 183.484H71.4006V180.989C71.4006 180.44 71.7538 180.014 72.4641 180.014C72.587 180.014 72.7252 180.021 72.7905 180.037V179.403C72.7099 179.392 72.6254 179.384 72.5371 179.384C71.8229 179.384 71.5311 179.802 71.4313 180.067H71.3968V179.445H70.7018V183.484ZM75.075 179.384C74.1343 179.384 73.5085 180.044 73.5085 181.073V181.857C73.5085 182.886 74.1189 183.542 75.0596 183.542C75.6509 183.542 76.1538 183.25 76.2729 182.839H76.3074V183.484H76.9755V177.967H76.2805V180.044H76.246C76.0847 179.634 75.6432 179.384 75.075 179.384ZM75.217 179.979C75.8313 179.979 76.2805 180.432 76.2805 181.073V181.772C76.2805 182.498 75.8697 182.947 75.2362 182.947C74.595 182.947 74.2072 182.49 74.2072 181.707V181.215C74.2072 180.44 74.5873 179.979 75.217 179.979ZM78.2694 183.012C78.2694 183.323 78.5151 183.554 78.8184 183.554C79.1371 183.554 79.379 183.323 79.379 183.012C79.379 182.686 79.1371 182.456 78.8184 182.456C78.5151 182.456 78.2694 182.686 78.2694 183.012ZM82.2125 179.38C81.2027 179.38 80.4655 180.075 80.4655 181.165V181.761C80.4655 182.912 81.1912 183.55 82.2125 183.55C83.2146 183.55 83.9556 182.901 83.9556 181.761V181.162C83.9556 180.037 83.2146 179.38 82.2125 179.38ZM82.2163 179.971C82.8652 179.971 83.2568 180.486 83.2568 181.223V181.711C83.2568 182.459 82.8844 182.962 82.2163 182.962C81.5406 182.962 81.1605 182.459 81.1605 181.711V181.223C81.1605 180.486 81.5674 179.971 82.2163 179.971ZM85.1842 183.484H85.883V180.989C85.883 180.44 86.2362 180.014 86.9465 180.014C87.0694 180.014 87.2076 180.021 87.2729 180.037V179.403C87.1922 179.392 87.1078 179.384 87.0195 179.384C86.3053 179.384 86.0135 179.802 85.9137 180.067H85.8791V179.445H85.1842V183.484ZM89.6456 184.379C89.1158 184.379 88.7894 184.141 88.7357 183.857H88.0292C88.083 184.444 88.5898 184.963 89.6226 184.963C90.6554 184.963 91.4003 184.475 91.4003 183.362V179.445H90.736V180.056H90.7015C90.5671 179.726 90.1371 179.384 89.5305 179.384C88.6359 179.384 87.9409 180.025 87.9409 181.089V181.715C87.9409 182.778 88.6397 183.412 89.5343 183.412C90.0949 183.412 90.5095 183.127 90.6669 182.778H90.7053V183.365C90.7053 183.999 90.3559 184.379 89.6456 184.379ZM89.7032 179.979C90.3367 179.979 90.7053 180.517 90.7053 181.108V181.718C90.7053 182.294 90.3559 182.828 89.7109 182.828C89.0851 182.828 88.6397 182.333 88.6397 181.595V181.215C88.6397 180.478 89.0467 179.979 89.7032 179.979ZM92.7594 184.671L94.6523 177.967H94.0072L92.1182 184.671H92.7594ZM51.4432 189.966C51.4432 191.555 52.1304 192.592 53.3168 192.592C54.5071 192.592 55.1905 191.552 55.1905 189.966V189.77C55.1905 188.18 54.5109 187.136 53.3245 187.136C52.1304 187.136 51.4432 188.184 51.4432 189.77V189.966ZM52.1458 189.774C52.1458 188.515 52.5989 187.747 53.3168 187.747C54.0386 187.747 54.4879 188.515 54.4879 189.774V189.958C54.4879 191.217 54.0386 191.982 53.3168 191.982C52.5989 191.982 52.1458 191.217 52.1458 189.958V189.774ZM58.2697 192.484V187.244H57.5709L56.3231 188.169V188.879L57.5364 188H57.5709V192.484H58.2697ZM60.5427 188.703C60.5427 188.699 60.5427 188.68 60.5427 188.676C60.5427 188.177 60.8959 187.739 61.5064 187.739C62.0439 187.739 62.447 188.081 62.447 188.622C62.447 189.102 62.136 189.467 61.8481 189.793L59.8746 192.039V192.484H63.261V191.87H60.8767V191.828L62.2704 190.231C62.7619 189.67 63.1612 189.229 63.1612 188.572C63.1612 187.75 62.5123 187.136 61.5217 187.136C60.4313 187.136 59.8554 187.881 59.8554 188.676V188.703H60.5427ZM65.3381 190.085H65.9102C66.5514 190.085 66.9968 190.461 67.0044 191.026C67.0121 191.59 66.5667 192.001 65.8756 191.997C65.269 191.993 64.8352 191.667 64.7891 191.256H64.1287C64.1671 192.001 64.816 192.596 65.8603 192.596C66.9469 192.596 67.7378 191.947 67.7186 191.029C67.7032 190.181 67.016 189.816 66.5744 189.766V189.728C66.9699 189.659 67.565 189.217 67.542 188.476C67.5228 187.716 66.8816 187.128 65.8833 187.136C64.8313 187.14 64.2784 187.789 64.2554 188.461H64.9273C64.9619 188.073 65.3266 187.731 65.8795 187.731C66.44 187.731 66.8317 188.081 66.8317 188.587C66.8355 189.106 66.4285 189.482 65.8795 189.482H65.3381V190.085ZM70.7479 187.244C70.003 188.426 69.2236 189.609 68.5709 190.791V191.409H71.1165V192.484H71.7922V191.409H72.4718V190.795H71.7922V187.244H70.7479ZM69.2697 190.795V190.761C69.8188 189.797 70.4676 188.764 71.0781 187.85H71.1165V190.795H69.2697ZM73.3818 191.264C73.4317 192.031 74.1228 192.592 75.0903 192.592C76.1961 192.592 76.9486 191.855 76.9486 190.772C76.9486 189.712 76.1884 189.083 75.2746 189.083C74.6948 189.083 74.3301 189.363 74.2226 189.532H74.1842L74.3263 187.854H76.6875V187.244H73.7273L73.4931 190.254H74.0921C74.2341 189.997 74.5797 189.678 75.121 189.678C75.7123 189.678 76.2383 190.1 76.2383 190.791C76.2383 191.575 75.6701 191.993 75.1325 191.993C74.6526 191.993 74.1612 191.786 74.0575 191.264H73.3818ZM81.5137 188.33C81.4715 187.75 80.8879 187.144 79.9011 187.144C78.7339 187.144 77.92 188.046 77.92 190.069C77.92 190.853 78.0697 191.413 78.3078 191.801C78.6763 192.396 79.2523 192.592 79.8167 192.592C80.8456 192.592 81.625 191.935 81.625 190.784C81.625 189.689 80.7957 189.11 79.9818 189.11C79.2177 189.11 78.7954 189.532 78.6495 189.897H78.6111C78.6111 188.438 79.1524 187.747 79.8781 187.747C80.4694 187.747 80.7496 188.088 80.8072 188.33H81.5137ZM78.7071 190.818C78.7071 190.165 79.1755 189.701 79.8243 189.701C80.3849 189.701 80.9301 190.058 80.9301 190.826C80.9301 191.617 80.4348 191.989 79.8205 191.989C79.2215 191.989 78.7071 191.563 78.7071 190.818ZM82.5465 187.244V187.858H85.1842V187.9L83.0149 192.484H83.7559L85.9022 187.881V187.244H82.5465ZM88.6435 192.592C89.7378 192.592 90.5249 191.962 90.5249 191.049C90.5249 190.235 89.9106 189.843 89.4652 189.735V189.701C89.8184 189.586 90.3252 189.232 90.3252 188.534C90.3252 187.724 89.6264 187.136 88.6627 187.136C87.699 187.136 87.0003 187.724 87.0003 188.534C87.0003 189.221 87.484 189.578 87.8526 189.701V189.735C87.4149 189.843 86.7929 190.231 86.7929 191.056C86.7929 191.97 87.557 192.592 88.6435 192.592ZM88.6627 189.467C88.0983 189.467 87.6798 189.106 87.6798 188.587C87.6798 188.069 88.0983 187.724 88.6627 187.724C89.231 187.724 89.638 188.069 89.638 188.587C89.638 189.106 89.231 189.467 88.6627 189.467ZM88.6627 192.012C87.9947 192.012 87.484 191.613 87.484 191.026C87.484 190.438 87.9947 190.031 88.6627 190.031C89.3308 190.031 89.8338 190.438 89.8338 191.026C89.8338 191.613 89.3308 192.012 88.6627 192.012ZM91.6383 191.475C91.7074 192.058 92.2411 192.584 93.2125 192.584C94.564 192.584 95.1975 191.624 95.1975 189.743C95.1975 187.639 94.2376 187.128 93.3238 187.128C92.2949 187.128 91.5001 187.785 91.5001 188.898C91.5001 190.004 92.2411 190.661 93.1741 190.661C93.8844 190.661 94.3106 190.281 94.4757 189.847H94.514C94.5448 191.018 94.1954 191.982 93.2278 191.982C92.7172 191.982 92.4216 191.72 92.3486 191.475H91.6383ZM94.395 188.929C94.395 189.697 93.8613 190.062 93.3008 190.062C92.7134 190.062 92.1989 189.689 92.1989 188.91C92.1989 188.161 92.6942 187.731 93.2816 187.731C93.9113 187.731 94.395 188.161 94.395 188.929ZM97.4935 192.55C98.0886 192.55 98.4533 192.273 98.6491 191.947H98.6798V192.484H99.3479V189.728C99.3479 188.737 98.6606 188.38 97.8275 188.38C96.9252 188.38 96.3877 188.764 96.3263 189.447H96.9982C97.0788 189.167 97.2938 188.968 97.8044 188.968C98.3228 188.968 98.6491 189.206 98.6491 189.724V190.123H97.5933C96.6641 190.123 96.1727 190.603 96.1727 191.31C96.1727 192.058 96.7102 192.55 97.4935 192.55ZM97.6854 191.966C97.2669 191.966 96.883 191.755 96.883 191.287C96.883 190.926 97.1057 190.653 97.6509 190.653H98.6491V191.102C98.6491 191.598 98.2306 191.966 97.6854 191.966ZM102.6 192.546C103.564 192.546 104.166 191.882 104.166 190.811V190.116C104.166 189.048 103.571 188.384 102.619 188.384C102.036 188.384 101.556 188.664 101.429 189.087H101.394V186.967H100.699V192.484H101.367V191.886H101.402C101.582 192.3 102.032 192.546 102.6 192.546ZM102.466 191.951C101.844 191.951 101.394 191.49 101.394 190.837V190.173C101.394 189.44 101.801 188.979 102.446 188.979C103.095 188.979 103.468 189.447 103.468 190.261V190.691C103.468 191.49 103.099 191.951 102.466 191.951ZM105.145 190.787C105.145 191.87 105.79 192.55 106.831 192.55C107.898 192.55 108.386 191.958 108.409 191.363H107.733C107.66 191.671 107.438 191.943 106.842 191.943C106.221 191.943 105.84 191.498 105.84 190.795V190.15C105.84 189.444 106.182 188.987 106.842 188.987C107.472 188.987 107.66 189.375 107.703 189.613H108.382C108.363 189.002 107.841 188.38 106.831 188.38C105.794 188.38 105.145 189.067 105.145 190.127V190.787ZM110.882 188.384C109.941 188.384 109.315 189.044 109.315 190.073V190.857C109.315 191.886 109.926 192.542 110.866 192.542C111.458 192.542 111.96 192.25 112.079 191.839H112.114V192.484H112.782V186.967H112.087V189.044H112.053C111.891 188.634 111.45 188.384 110.882 188.384ZM111.024 188.979C111.638 188.979 112.087 189.432 112.087 190.073V190.772C112.087 191.498 111.676 191.947 111.043 191.947C110.402 191.947 110.014 191.49 110.014 190.707V190.215C110.014 189.44 110.394 188.979 111.024 188.979ZM115.696 192.55C116.718 192.55 117.205 191.916 117.267 191.486H116.552C116.483 191.736 116.165 191.962 115.692 191.962C115.021 191.962 114.66 191.475 114.66 190.849V190.645H117.32V190.158C117.32 189.071 116.622 188.38 115.642 188.38C114.675 188.38 113.969 189.06 113.969 190.158V190.772C113.969 191.863 114.61 192.55 115.696 192.55ZM114.66 190.142V190.077C114.66 189.405 115.055 188.964 115.646 188.964C116.238 188.964 116.629 189.405 116.629 190.077V190.142H114.66ZM118.818 192.484H119.513V189.021H120.442V188.457H119.505V188.108C119.505 187.628 119.708 187.489 120.185 187.489C120.284 187.489 120.484 187.497 120.545 187.505V186.944C120.465 186.937 120.265 186.921 120.085 186.921C119.182 186.921 118.818 187.278 118.818 188.054V188.457H118.138V189.021H118.818V192.484Z" fill="black"/>
<path id="SolidarityCard" d="M59.3576 165.977C59.4395 167.451 60.5862 168.694 62.9547 168.694C65.3164 168.694 66.6474 167.506 66.6474 165.772C66.6474 164.209 65.6508 163.486 64.1424 163.144L62.6953 162.81C61.8762 162.632 61.4189 162.264 61.4189 161.704C61.4189 160.981 62.0264 160.455 63.0434 160.455C64.0331 160.455 64.6406 160.967 64.7567 161.636H66.504C66.4153 160.202 65.1867 159.008 63.0571 159.008C61.0025 159.008 59.576 160.121 59.576 161.827C59.576 163.24 60.4906 164.073 61.9377 164.4L63.3779 164.735C64.3471 164.96 64.8113 165.294 64.8113 165.943C64.8113 166.707 64.2038 167.233 63.0571 167.233C61.9581 167.233 61.2619 166.7 61.1391 165.977H59.3576ZM71.4254 161.144C69.4323 161.144 68.1012 162.469 68.1012 164.482V165.281C68.1012 167.444 69.4186 168.646 71.4254 168.646C73.4048 168.646 74.729 167.431 74.729 165.281V164.468C74.729 162.421 73.4048 161.144 71.4254 161.144ZM71.4254 162.537C72.4219 162.537 72.9133 163.417 72.9133 164.516V165.267C72.9133 166.359 72.456 167.247 71.4254 167.247C70.3878 167.247 69.9169 166.352 69.9169 165.267V164.516C69.9169 163.424 70.422 162.537 71.4254 162.537ZM76.5924 168.516H78.3944V158.708H76.5924V168.516ZM80.483 159.138C80.483 159.725 80.9472 160.127 81.6093 160.127C82.285 160.127 82.7423 159.725 82.7423 159.138C82.7423 158.544 82.285 158.134 81.6093 158.134C80.9472 158.134 80.483 158.537 80.483 159.138ZM80.7151 168.516H82.5102V161.274H80.7151V168.516ZM87.1927 161.179C85.5477 161.179 84.4692 162.366 84.4692 164.352V165.431C84.4692 167.417 85.534 168.605 87.1722 168.605C88.2233 168.605 89.0697 168.093 89.295 167.356H89.3837V168.516H91.1516V158.708H89.3496V162.373H89.2677C88.9878 161.636 88.2097 161.179 87.1927 161.179ZM87.7933 162.612C88.6943 162.612 89.3496 163.294 89.3496 164.38V165.315C89.3496 166.496 88.7353 167.178 87.8206 167.178C86.8923 167.178 86.3121 166.482 86.3121 165.24V164.537C86.3121 163.301 86.8855 162.612 87.7933 162.612ZM95.3289 168.625C96.4005 168.625 97.008 168.127 97.2947 167.595H97.3766V168.516H99.0762V163.649C99.0762 161.813 97.752 161.158 96.1275 161.158C94.1412 161.158 93.2948 162.114 93.2129 163.301H94.9125C95.0012 162.851 95.3493 162.53 96.0865 162.53C96.8237 162.53 97.2947 162.878 97.2947 163.608V164.257H95.5268C93.8477 164.257 92.9467 165.117 92.9467 166.414C92.9467 167.779 93.916 168.625 95.3289 168.625ZM95.9159 167.301C95.3016 167.301 94.735 166.974 94.735 166.298C94.735 165.745 95.1104 165.342 95.9091 165.342H97.2947V166.093C97.2947 166.796 96.6735 167.301 95.9159 167.301ZM101.24 168.516H103.076V164.373C103.076 163.397 103.636 162.707 104.81 162.707C105.09 162.707 105.383 162.728 105.52 162.769V161.213C105.383 161.185 105.199 161.165 104.953 161.165C103.806 161.165 103.274 161.916 103.124 162.407H103.035V161.274H101.24V168.516ZM106.885 159.138C106.885 159.725 107.349 160.127 108.011 160.127C108.687 160.127 109.144 159.725 109.144 159.138C109.144 158.544 108.687 158.134 108.011 158.134C107.349 158.134 106.885 158.537 106.885 159.138ZM107.117 168.516H108.912V161.274H107.117V168.516ZM111.67 161.342H110.53V162.721H111.629V166.468C111.629 167.95 112.229 168.557 114.031 168.557C114.441 168.557 114.946 168.509 115.089 168.482V167.151C114.96 167.165 114.693 167.178 114.468 167.178C113.717 167.178 113.417 166.96 113.417 166.236V162.721H115.021V161.342H113.417V159.54H111.67V161.342ZM123.212 161.274H121.307L119.737 166.967H119.662L118.12 161.274H116.134L118.645 168.53L118.598 168.721C118.461 169.431 118.058 169.717 117.246 169.717C117.055 169.717 116.782 169.697 116.666 169.676V170.98C116.878 171.028 117.301 171.055 117.622 171.055C119.171 171.055 120.045 170.4 120.673 168.741L120.836 168.311C120.85 168.27 122.707 162.912 123.212 161.274ZM126.386 163.301C126.386 161.574 127.143 160.578 128.433 160.578C129.491 160.578 130.201 161.308 130.276 162.298H132.058V162.127C131.976 160.284 130.467 159.022 128.42 159.022C125.928 159.022 124.509 160.653 124.509 163.294V164.455C124.509 167.096 125.915 168.694 128.42 168.694C130.461 168.694 131.969 167.465 132.058 165.683V165.506H130.276C130.201 166.462 129.505 167.137 128.433 167.137C127.13 167.137 126.386 166.175 126.386 164.455V163.301ZM135.887 168.625C136.959 168.625 137.566 168.127 137.853 167.595H137.935V168.516H139.634V163.649C139.634 161.813 138.31 161.158 136.686 161.158C134.699 161.158 133.853 162.114 133.771 163.301H135.471C135.559 162.851 135.908 162.53 136.645 162.53C137.382 162.53 137.853 162.878 137.853 163.608V164.257H136.085C134.406 164.257 133.505 165.117 133.505 166.414C133.505 167.779 134.474 168.625 135.887 168.625ZM136.474 167.301C135.86 167.301 135.293 166.974 135.293 166.298C135.293 165.745 135.669 165.342 136.467 165.342H137.853V166.093C137.853 166.796 137.232 167.301 136.474 167.301ZM141.798 168.516H143.634V164.373C143.634 163.397 144.194 162.707 145.368 162.707C145.648 162.707 145.941 162.728 146.078 162.769V161.213C145.941 161.185 145.757 161.165 145.511 161.165C144.365 161.165 143.832 161.916 143.682 162.407H143.593V161.274H141.798V168.516ZM149.852 161.179C148.207 161.179 147.129 162.366 147.129 164.352V165.431C147.129 167.417 148.194 168.605 149.832 168.605C150.883 168.605 151.729 168.093 151.955 167.356H152.043V168.516H153.811V158.708H152.009V162.373H151.927C151.648 161.636 150.869 161.179 149.852 161.179ZM150.453 162.612C151.354 162.612 152.009 163.294 152.009 164.38V165.315C152.009 166.496 151.395 167.178 150.48 167.178C149.552 167.178 148.972 166.482 148.972 165.24V164.537C148.972 163.301 149.545 162.612 150.453 162.612Z" fill="#FFE600"/>
<g id="QR [solcard.org/0123456789abcdef]">
<path id="Vector" d="M162.753 34.9474L50.921 34.9474L50.921 146.779H162.753V34.9474Z" fill="white"/>
<g id="Vector_2">
<path d="M61.2848 41.9369H57.9105V45.3111H61.2848V41.9369Z" fill="black"/>
<path d="M64.659 41.9369H61.2848V45.3111H64.659V41.9369Z" fill="black"/>
<path d="M68.0332 41.9369H64.659V45.3111H68.0332V41.9369Z" fill="black"/>
<path d="M71.4075 41.9369H68.0332V45.3111H71.4075V41.9369Z" fill="black"/>
<path d="M74.7817 41.9369H71.4075V45.3111H74.7817V41.9369Z" fill="black"/>
<path d="M78.1559 41.9369H74.7817V45.3111H78.1559V41.9369Z" fill="black"/>
<path d="M81.5302 41.9369H78.1559V45.3111H81.5302V41.9369Z" fill="black"/>
<path d="M88.2787 41.9369H84.9044V45.3111H88.2787V41.9369Z" fill="black"/>
<path d="M91.6529 41.9369H88.2787V45.3111H91.6529V41.9369Z" fill="black"/>
<path d="M101.776 41.9369H98.4014V45.3111H101.776V41.9369Z" fill="black"/>
<path d="M105.15 41.9369H101.776V45.3111H105.15V41.9369Z" fill="black"/>
<path d="M115.273 41.9369H111.898V45.3111H115.273V41.9369Z" fill="black"/>
<path d="M122.021 41.9369L118.647 41.9369V45.3111H122.021V41.9369Z" fill="black"/>
<path d="M128.769 41.9369H125.395V45.3111L128.769 45.3111V41.9369Z" fill="black"/>
<path d="M135.518 41.9369H132.144V45.3111H135.518V41.9369Z" fill="black"/>
<path d="M138.892 41.9369H135.518V45.3111H138.892V41.9369Z" fill="black"/>
<path d="M142.266 41.9369H138.892V45.3111H142.266V41.9369Z" fill="black"/>
<path d="M145.641 41.9369H142.266V45.3111H145.641V41.9369Z" fill="black"/>
<path d="M149.015 41.9369H145.641V45.3111H149.015V41.9369Z" fill="black"/>
<path d="M152.389 41.9369H149.015V45.3111H152.389V41.9369Z" fill="black"/>
<path d="M155.763 41.9369H152.389V45.3111H155.763V41.9369Z" fill="black"/>
<path d="M61.2848 45.3111H57.9105V48.6854H61.2848V45.3111Z" fill="black"/>
<path d="M81.5302 45.3111H78.1559V48.6854H81.5302V45.3111Z" fill="black"/>
<path d="M91.6529 45.3111H88.2787V48.6854H91.6529V45.3111Z" fill="black"/>
<path d="M95.0271 45.3111H91.6529V48.6854H95.0271V45.3111Z" fill="black"/>
<path d="M98.4014 45.3111H95.0271V48.6854H98.4014V45.3111Z" fill="black"/>
<path d="M101.776 45.3111H98.4014V48.6854H101.776V45.3111Z" fill="black"/>
<path d="M118.647 45.3111H115.273V48.6854H118.647V45.3111Z" fill="black"/>
<path d="M135.518 45.3111H132.144V48.6854H135.518V45.3111Z" fill="black"/>
<path d="M155.763 45.3111H152.389V48.6854H155.763V45.3111Z" fill="black"/>
<path d="M61.2848 48.6854H57.9105V52.0596H61.2848V48.6854Z" fill="black"/>
<path d="M68.0332 48.6854H64.659V52.0596H68.0332V48.6854Z" fill="black"/>
<path d="M71.4075 48.6854H68.0332V52.0596H71.4075V48.6854Z" fill="black"/>
<path d="M74.7817 48.6854H71.4075V52.0596H74.7817V48.6854Z" fill="black"/>
<path d="M81.5302 48.6854H78.1559V52.0596H81.5302V48.6854Z" fill="black"/>
<path d="M108.524 48.6854H105.15V52.0596H108.524V48.6854Z" fill="black"/>
<path d="M115.273 48.6854H111.898V52.0596H115.273V48.6854Z" fill="black"/>
<path d="M118.647 48.6854H115.273V52.0596H118.647V48.6854Z" fill="black"/>
<path d="M122.021 48.6854H118.647V52.0596H122.021V48.6854Z" fill="black"/>
<path d="M125.395 48.6854H122.021V52.0596H125.395V48.6854Z" fill="black"/>
<path d="M135.518 48.6854H132.144V52.0596H135.518V48.6854Z" fill="black"/>
<path d="M142.266 48.6854H138.892V52.0596H142.266V48.6854Z" fill="black"/>
<path d="M145.641 48.6854H142.266V52.0596H145.641V48.6854Z" fill="black"/>
<path d="M149.015 48.6854H145.641V52.0596H149.015V48.6854Z" fill="black"/>
<path d="M155.763 48.6854H152.389V52.0596H155.763V48.6854Z" fill="black"/>
<path d="M61.2848 52.0596H57.9105V55.4338H61.2848V52.0596Z" fill="black"/>
<path d="M68.0332 52.0596H64.659V55.4338H68.0332V52.0596Z" fill="black"/>
<path d="M71.4075 52.0596H68.0332V55.4338H71.4075V52.0596Z" fill="black"/>
<path d="M74.7817 52.0596H71.4075V55.4338H74.7817V52.0596Z" fill="black"/>
<path d="M81.5302 52.0596H78.1559V55.4338H81.5302V52.0596Z" fill="black"/>
<path d="M88.2787 52.0596H84.9044V55.4338H88.2787V52.0596Z" fill="black"/>
<path d="M91.6529 52.0596H88.2787V55.4338H91.6529V52.0596Z" fill="black"/>
<path d="M98.4014 52.0596H95.0271V55.4338H98.4014V52.0596Z" fill="black"/>
<path d="M105.15 52.0596H101.776V55.4338H105.15V52.0596Z" fill="black"/>
<path d="M108.524 52.0596H105.15V55.4338H108.524V52.0596Z" fill="black"/>
<path d="M111.898 52.0596H108.524V55.4338H111.898V52.0596Z" fill="black"/>
<path d="M128.769 52.0596H125.395V55.4338H128.769V52.0596Z" fill="black"/>
<path d="M135.518 52.0596H132.144V55.4338H135.518V52.0596Z" fill="black"/>
<path d="M142.266 52.0596H138.892V55.4338H142.266V52.0596Z" fill="black"/>
<path d="M145.641 52.0596H142.266V55.4338H145.641V52.0596Z" fill="black"/>
<path d="M149.015 52.0596H145.641V55.4338H149.015V52.0596Z" fill="black"/>
<path d="M155.763 52.0596H152.389V55.4338H155.763V52.0596Z" fill="black"/>
<path d="M61.2848 55.4338H57.9105V58.8081H61.2848V55.4338Z" fill="black"/>
<path d="M68.0332 55.4338H64.659V58.8081H68.0332V55.4338Z" fill="black"/>
<path d="M71.4075 55.4338H68.0332V58.8081H71.4075V55.4338Z" fill="black"/>
<path d="M74.7817 55.4338H71.4075V58.8081H74.7817V55.4338Z" fill="black"/>
<path d="M81.5302 55.4338H78.1559V58.8081H81.5302V55.4338Z" fill="black"/>
<path d="M95.0271 55.4338H91.6529V58.8081H95.0271V55.4338Z" fill="black"/>
<path d="M108.524 55.4338H105.15V58.8081H108.524V55.4338Z" fill="black"/>
<path d="M115.273 55.4338H111.898V58.8081H115.273V55.4338Z" fill="black"/>
<path d="M118.647 55.4338H115.273V58.8081H118.647V55.4338Z" fill="black"/>
<path d="M122.021 55.4338H118.647V58.8081H122.021V55.4338Z" fill="black"/>
<path d="M135.518 55.4338H132.144V58.8081H135.518V55.4338Z" fill="black"/>
<path d="M142.266 55.4338H138.892V58.8081H142.266V55.4338Z" fill="black"/>
<path d="M145.641 55.4338H142.266V58.8081H145.641V55.4338Z" fill="black"/>
<path d="M149.015 55.4338H145.641V58.8081H149.015V55.4338Z" fill="black"/>
<path d="M155.763 55.4338H152.389V58.8081L155.763 58.8081V55.4338Z" fill="black"/>
<path d="M61.2848 58.8081H57.9105V62.1823H61.2848V58.8081Z" fill="black"/>
<path d="M81.5302 58.8081H78.1559V62.1823H81.5302V58.8081Z" fill="black"/>
<path d="M88.2787 58.8081H84.9044V62.1823H88.2787V58.8081Z" fill="black"/>
<path d="M98.4014 58.8081H95.0271V62.1823H98.4014V58.8081Z" fill="black"/>
<path d="M105.15 58.8081H101.776V62.1823H105.15V58.8081Z" fill="black"/>
<path d="M115.273 58.8081H111.898V62.1823H115.273V58.8081Z" fill="black"/>
<path d="M118.647 58.8081H115.273V62.1823H118.647V58.8081Z" fill="black"/>
<path d="M122.021 58.8081H118.647V62.1823H122.021V58.8081Z" fill="black"/>
<path d="M125.395 58.8081H122.021V62.1823H125.395V58.8081Z" fill="black"/>
<path d="M128.769 58.8081H125.395V62.1823H128.769V58.8081Z" fill="black"/>
<path d="M135.518 58.8081H132.144V62.1823H135.518V58.8081Z" fill="black"/>
<path d="M155.763 58.8081L152.389 58.8081V62.1823L155.763 62.1823V58.8081Z" fill="black"/>
<path d="M61.2848 62.1823H57.9105V65.5565H61.2848V62.1823Z" fill="black"/>
<path d="M64.659 62.1823H61.2848V65.5565H64.659V62.1823Z" fill="black"/>
<path d="M68.0332 62.1823H64.659V65.5565H68.0332V62.1823Z" fill="black"/>
<path d="M71.4075 62.1823H68.0332V65.5565H71.4075V62.1823Z" fill="black"/>
<path d="M74.7817 62.1823H71.4075V65.5565H74.7817V62.1823Z" fill="black"/>
<path d="M78.1559 62.1823H74.7817V65.5565H78.1559V62.1823Z" fill="black"/>
<path d="M81.5302 62.1823H78.1559V65.5565H81.5302V62.1823Z" fill="black"/>
<path d="M88.2787 62.1823H84.9044V65.5565H88.2787V62.1823Z" fill="black"/>
<path d="M95.0271 62.1823H91.6529V65.5565H95.0271V62.1823Z" fill="black"/>
<path d="M101.776 62.1823H98.4014V65.5565H101.776V62.1823Z" fill="black"/>
<path d="M108.524 62.1823H105.15V65.5565H108.524V62.1823Z" fill="black"/>
<path d="M115.273 62.1823H111.898V65.5565H115.273V62.1823Z" fill="black"/>
<path d="M122.021 62.1823H118.647V65.5565H122.021V62.1823Z" fill="black"/>
<path d="M128.769 62.1823H125.395V65.5565H128.769V62.1823Z" fill="black"/>
<path d="M135.518 62.1823H132.144V65.5565H135.518V62.1823Z" fill="black"/>
<path d="M138.892 62.1823H135.518V65.5565H138.892V62.1823Z" fill="black"/>
<path d="M142.266 62.1823H138.892V65.5565H142.266V62.1823Z" fill="black"/>
<path d="M145.641 62.1823H142.266V65.5565H145.641V62.1823Z" fill="black"/>
<path d="M149.015 62.1823H145.641V65.5565H149.015V62.1823Z" fill="black"/>
<path d="M152.389 62.1823H149.015V65.5565H152.389V62.1823Z" fill="black"/>
<path d="M155.763 62.1823L152.389 62.1823V65.5565H155.763V62.1823Z" fill="black"/>
<path d="M95.0271 65.5565H91.6529V68.9308H95.0271V65.5565Z" fill="black"/>
<path d="M101.776 65.5565H98.4014V68.9308H101.776V65.5565Z" fill="black"/>
<path d="M105.15 65.5565H101.776V68.9308H105.15V65.5565Z" fill="black"/>
<path d="M108.524 65.5565H105.15V68.9308H108.524V65.5565Z" fill="black"/>
<path d="M111.898 65.5565H108.524V68.9308H111.898V65.5565Z" fill="black"/>
<path d="M115.273 65.5565H111.898V68.9308H115.273V65.5565Z" fill="black"/>
<path d="M122.021 65.5565H118.647V68.9308H122.021V65.5565Z" fill="black"/>
<path d="M78.1559 68.9308H74.7817V72.305H78.1559V68.9308Z" fill="black"/>
<path d="M81.5302 68.9308H78.1559V72.305H81.5302V68.9308Z" fill="black"/>
<path d="M88.2787 68.9308H84.9044V72.305H88.2787V68.9308Z" fill="black"/>
<path d="M95.0271 68.9308H91.6529V72.305H95.0271V68.9308Z" fill="black"/>
<path d="M111.898 68.9308H108.524V72.305H111.898V68.9308Z" fill="black"/>
<path d="M122.021 68.9308H118.647V72.305H122.021V68.9308Z" fill="black"/>
<path d="M132.144 68.9308H128.769V72.305H132.144V68.9308Z" fill="black"/>
<path d="M138.892 68.9308H135.518V72.305H138.892V68.9308Z" fill="black"/>
<path d="M145.641 68.9308H142.266V72.305H145.641V68.9308Z" fill="black"/>
<path d="M155.763 68.9308H152.389V72.305H155.763V68.9308Z" fill="black"/>
<path d="M61.2848 72.305H57.9105V75.6793H61.2848V72.305Z" fill="black"/>
<path d="M64.659 72.305H61.2848V75.6793H64.659V72.305Z" fill="black"/>
<path d="M68.0332 72.305H64.659V75.6793H68.0332V72.305Z" fill="black"/>
<path d="M71.4075 72.305H68.0332V75.6793H71.4075V72.305Z" fill="black"/>
<path d="M74.7817 72.305H71.4075V75.6793H74.7817V72.305Z" fill="black"/>
<path d="M84.9044 72.305H81.5302V75.6793H84.9044V72.305Z" fill="black"/>
<path d="M88.2787 72.305H84.9044V75.6793H88.2787V72.305Z" fill="black"/>
<path d="M91.6529 72.305H88.2787V75.6793H91.6529V72.305Z" fill="black"/>
<path d="M95.0271 72.305H91.6529V75.6793H95.0271V72.305Z" fill="black"/>
<path d="M98.4014 72.305H95.0271V75.6793H98.4014V72.305Z" fill="black"/>
<path d="M108.524 72.305H105.15V75.6793H108.524V72.305Z" fill="black"/>
<path d="M111.898 72.305H108.524V75.6793H111.898V72.305Z" fill="black"/>
<path d="M122.021 72.305H118.647V75.6793H122.021V72.305Z" fill="black"/>
<path d="M125.395 72.305H122.021V75.6793H125.395V72.305Z" fill="black"/>
<path d="M128.769 72.305H125.395V75.6793H128.769V72.305Z" fill="black"/>
<path d="M132.144 72.305H128.769V75.6793H132.144V72.305Z" fill="black"/>
<path d="M138.892 72.305H135.518V75.6793H138.892V72.305Z" fill="black"/>
<path d="M142.266 72.305H138.892V75.6793H142.266V72.305Z" fill="black"/>
<path d="M145.641 72.305H142.266V75.6793H145.641V72.305Z" fill="black"/>
<path d="M149.015 72.305H145.641V75.6793H149.015V72.305Z" fill="black"/>
<path d="M152.389 72.305H149.015V75.6793H152.389V72.305Z" fill="black"/>
<path d="M155.763 72.305H152.389V75.6793H155.763V72.305Z" fill="black"/>
<path d="M71.4075 75.6793H68.0332V79.0535H71.4075V75.6793Z" fill="black"/>
<path d="M78.1559 75.6793H74.7817V79.0535H78.1559V75.6793Z" fill="black"/>
<path d="M81.5302 75.6793H78.1559V79.0535H81.5302V75.6793Z" fill="black"/>
<path d="M88.2787 75.6793H84.9044V79.0535H88.2787V75.6793Z" fill="black"/>
<path d="M91.6529 75.6793H88.2787V79.0535H91.6529V75.6793Z" fill="black"/>
<path d="M98.4014 75.6793H95.0271V79.0535H98.4014V75.6793Z" fill="black"/>
<path d="M105.15 75.6793H101.776V79.0535H105.15V75.6793Z" fill="black"/>
<path d="M108.524 75.6793H105.15V79.0535H108.524V75.6793Z" fill="black"/>
<path d="M111.898 75.6793H108.524V79.0535H111.898V75.6793Z" fill="black"/>
<path d="M115.273 75.6793H111.898V79.0535H115.273V75.6793Z" fill="black"/>
<path d="M125.395 75.6793H122.021V79.0535H125.395V75.6793Z" fill="black"/>
<path d="M142.266 75.6793H138.892V79.0535H142.266V75.6793Z" fill="black"/>
<path d="M145.641 75.6793H142.266V79.0535H145.641V75.6793Z" fill="black"/>
<path d="M149.015 75.6793H145.641V79.0535H149.015V75.6793Z" fill="black"/>
<path d="M152.389 75.6793H149.015V79.0535H152.389V75.6793Z" fill="black"/>
<path d="M61.2848 79.0535H57.9105V82.4277H61.2848V79.0535Z" fill="black"/>
<path d="M71.4075 79.0535H68.0332V82.4277H71.4075V79.0535Z" fill="black"/>
<path d="M74.7817 79.0535H71.4075V82.4277H74.7817V79.0535Z" fill="black"/>
<path d="M88.2787 79.0535H84.9044V82.4277H88.2787V79.0535Z" fill="black"/>
<path d="M91.6529 79.0535H88.2787V82.4277H91.6529V79.0535Z" fill="black"/>
<path d="M101.776 79.0535H98.4014V82.4277H101.776V79.0535Z" fill="black"/>
<path d="M105.15 79.0535H101.776V82.4277H105.15V79.0535Z" fill="black"/>
<path d="M111.898 79.0535H108.524V82.4277H111.898V79.0535Z" fill="black"/>
<path d="M145.641 79.0535H142.266V82.4277H145.641V79.0535Z" fill="black"/>
<path d="M149.015 79.0535H145.641V82.4277H149.015V79.0535Z" fill="black"/>
<path d="M155.763 79.0535H152.389V82.4277H155.763V79.0535Z" fill="black"/>
<path d="M61.2848 82.4277H57.9105V85.802H61.2848V82.4277Z" fill="black"/>
<path d="M64.659 82.4277H61.2848V85.802H64.659V82.4277Z" fill="black"/>
<path d="M68.0332 82.4277H64.659V85.802H68.0332V82.4277Z" fill="black"/>
<path d="M81.5302 82.4277H78.1559V85.802H81.5302V82.4277Z" fill="black"/>
<path d="M84.9044 82.4277H81.5302V85.802H84.9044V82.4277Z" fill="black"/>
<path d="M88.2787 82.4277H84.9044V85.802H88.2787V82.4277Z" fill="black"/>
<path d="M95.0271 82.4277H91.6529V85.802H95.0271V82.4277Z" fill="black"/>
<path d="M101.776 82.4277H98.4014V85.802H101.776V82.4277Z" fill="black"/>
<path d="M105.15 82.4277H101.776V85.802H105.15V82.4277Z" fill="black"/>
<path d="M108.524 82.4277H105.15V85.802H108.524V82.4277Z" fill="black"/>
<path d="M128.769 82.4277H125.395V85.802H128.769V82.4277Z" fill="black"/>
<path d="M135.518 82.4277H132.144V85.802H135.518V82.4277Z" fill="black"/>
<path d="M138.892 82.4277H135.518V85.802H138.892V82.4277Z" fill="black"/>
<path d="M142.266 82.4277H138.892V85.802H142.266V82.4277Z" fill="black"/>
<path d="M152.389 82.4277H149.015V85.802H152.389V82.4277Z" fill="black"/>
<path d="M61.2848 85.802H57.9105V89.1762H61.2848V85.802Z" fill="black"/>
<path d="M64.659 85.802H61.2848V89.1762H64.659V85.802Z" fill="black"/>
<path d="M68.0332 85.802H64.659V89.1762H68.0332V85.802Z" fill="black"/>
<path d="M71.4075 85.802H68.0332V89.1762H71.4075V85.802Z" fill="black"/>
<path d="M74.7817 85.802H71.4075V89.1762H74.7817V85.802Z" fill="black"/>
<path d="M78.1559 85.802H74.7817V89.1762H78.1559V85.802Z" fill="black"/>
<path d="M111.898 85.802H108.524V89.1762H111.898V85.802Z" fill="black"/>
<path d="M115.273 85.802H111.898V89.1762H115.273V85.802Z" fill="black"/>
<path d="M122.021 85.802H118.647V89.1762H122.021V85.802Z" fill="black"/>
<path d="M125.395 85.802H122.021V89.1762H125.395V85.802Z" fill="black"/>
<path d="M132.144 85.802H128.769V89.1762H132.144V85.802Z" fill="black"/>
<path d="M135.518 85.802H132.144V89.1762H135.518V85.802Z" fill="black"/>
<path d="M138.892 85.802H135.518V89.1762H138.892V85.802Z" fill="black"/>
<path d="M64.659 89.1762H61.2848V92.5504H64.659V89.1762Z" fill="black"/>
<path d="M71.4075 89.1762H68.0332V92.5504H71.4075V89.1762Z" fill="black"/>
<path d="M74.7817 89.1762H71.4075V92.5504H74.7817V89.1762Z" fill="black"/>
<path d="M78.1559 89.1762H74.7817V92.5504H78.1559V89.1762Z" fill="black"/>
<path d="M81.5302 89.1762H78.1559V92.5504H81.5302V89.1762Z" fill="black"/>
<path d="M84.9044 89.1762H81.5302V92.5504H84.9044V89.1762Z" fill="black"/>
<path d="M91.6529 89.1762H88.2787V92.5504H91.6529V89.1762Z" fill="black"/>
<path d="M98.4014 89.1762H95.0271V92.5504H98.4014V89.1762Z" fill="black"/>
<path d="M111.898 89.1762H108.524V92.5504H111.898V89.1762Z" fill="black"/>
<path d="M115.273 89.1762H111.898V92.5504H115.273V89.1762Z" fill="black"/>
<path d="M128.769 89.1762H125.395V92.5504H128.769V89.1762Z" fill="black"/>
<path d="M135.518 89.1762H132.144V92.5504H135.518V89.1762Z" fill="black"/>
<path d="M142.266 89.1762H138.892V92.5504H142.266V89.1762Z" fill="black"/>
<path d="M145.641 89.1762H142.266V92.5504H145.641V89.1762Z" fill="black"/>
<path d="M155.763 89.1762H152.389V92.5504H155.763V89.1762Z" fill="black"/>
<path d="M64.659 92.5504H61.2848V95.9247H64.659V92.5504Z" fill="black"/>
<path d="M71.4075 92.5504H68.0332V95.9247H71.4075V92.5504Z" fill="black"/>
<path d="M88.2787 92.5504H84.9044V95.9247H88.2787V92.5504Z" fill="black"/>
<path d="M91.6529 92.5504H88.2787V95.9247H91.6529V92.5504Z" fill="black"/>
<path d="M98.4014 92.5504H95.0271V95.9247H98.4014V92.5504Z" fill="black"/>
<path d="M105.15 92.5504H101.776V95.9247H105.15V92.5504Z" fill="black"/>
<path d="M108.524 92.5504H105.15V95.9247H108.524V92.5504Z" fill="black"/>
<path d="M115.273 92.5504H111.898V95.9247H115.273V92.5504Z" fill="black"/>
<path d="M118.647 92.5504H115.273V95.9247H118.647V92.5504Z" fill="black"/>
<path d="M125.395 92.5504H122.021V95.9247H125.395V92.5504Z" fill="black"/>
<path d="M132.144 92.5504H128.769V95.9247H132.144V92.5504Z" fill="black"/>
<path d="M135.518 92.5504H132.144V95.9247H135.518V92.5504Z" fill="black"/>
<path d="M142.266 92.5504H138.892V95.9247H142.266V92.5504Z" fill="black"/>
<path d="M145.641 92.5504H142.266V95.9247H145.641V92.5504Z" fill="black"/>
<path d="M152.389 92.5504H149.015V95.9247H152.389V92.5504Z" fill="black"/>
<path d="M61.2848 95.9247H57.9105V99.2989H61.2848V95.9247Z" fill="black"/>
<path d="M68.0332 95.9247H64.659V99.2989H68.0332V95.9247Z" fill="black"/>
<path d="M74.7817 95.9247H71.4075V99.2989H74.7817V95.9247Z" fill="black"/>
<path d="M81.5302 95.9247H78.1559V99.2989H81.5302V95.9247Z" fill="black"/>
<path d="M95.0271 95.9247H91.6529V99.2989H95.0271V95.9247Z" fill="black"/>
<path d="M101.776 95.9247H98.4014V99.2989H101.776V95.9247Z" fill="black"/>
<path d="M108.524 95.9247H105.15V99.2989H108.524V95.9247Z" fill="black"/>
<path d="M111.898 95.9247H108.524V99.2989H111.898V95.9247Z" fill="black"/>
<path d="M115.273 95.9247H111.898V99.2989H115.273V95.9247Z" fill="black"/>
<path d="M125.395 95.9247H122.021V99.2989H125.395V95.9247Z" fill="black"/>
<path d="M128.769 95.9247H125.395V99.2989H128.769V95.9247Z" fill="black"/>
<path d="M132.144 95.9247H128.769V99.2989H132.144V95.9247Z" fill="black"/>
<path d="M138.892 95.9247H135.518V99.2989H138.892V95.9247Z" fill="black"/>
<path d="M145.641 95.9247H142.266V99.2989H145.641V95.9247Z" fill="black"/>
<path d="M64.659 99.2989H61.2848V102.673H64.659V99.2989Z" fill="black"/>
<path d="M68.0332 99.2989H64.659V102.673H68.0332V99.2989Z" fill="black"/>
<path d="M78.1559 99.2989H74.7817V102.673H78.1559V99.2989Z" fill="black"/>
<path d="M84.9044 99.2989H81.5302V102.673H84.9044V99.2989Z" fill="black"/>
<path d="M91.6529 99.2989H88.2787V102.673H91.6529V99.2989Z" fill="black"/>
<path d="M95.0271 99.2989H91.6529V102.673H95.0271V99.2989Z" fill="black"/>
<path d="M101.776 99.2989H98.4014V102.673H101.776V99.2989Z" fill="black"/>
<path d="M105.15 99.2989H101.776V102.673H105.15V99.2989Z" fill="black"/>
<path d="M108.524 99.2989H105.15V102.673H108.524V99.2989Z" fill="black"/>
<path d="M111.898 99.2989H108.524V102.673H111.898V99.2989Z" fill="black"/>
<path d="M115.273 99.2989H111.898V102.673H115.273V99.2989Z" fill="black"/>
<path d="M125.395 99.2989H122.021V102.673H125.395V99.2989Z" fill="black"/>
<path d="M132.144 99.2989H128.769V102.673H132.144V99.2989Z" fill="black"/>
<path d="M135.518 99.2989H132.144V102.673H135.518V99.2989Z" fill="black"/>
<path d="M61.2848 102.673H57.9105L57.9105 106.047H61.2848V102.673Z" fill="black"/>
<path d="M71.4075 102.673H68.0332V106.047H71.4075V102.673Z" fill="black"/>
<path d="M74.7817 102.673H71.4075V106.047H74.7817V102.673Z" fill="black"/>
<path d="M81.5302 102.673H78.1559V106.047H81.5302V102.673Z" fill="black"/>
<path d="M95.0271 102.673H91.6529V106.047H95.0271V102.673Z" fill="black"/>
<path d="M98.4014 102.673H95.0271V106.047H98.4014V102.673Z" fill="black"/>
<path d="M125.395 102.673H122.021V106.047H125.395V102.673Z" fill="black"/>
<path d="M142.266 102.673H138.892V106.047H142.266V102.673Z" fill="black"/>
<path d="M61.2848 106.047H57.9105V109.422H61.2848V106.047Z" fill="black"/>
<path d="M78.1559 106.047H74.7817V109.422H78.1559V106.047Z" fill="black"/>
<path d="M88.2787 106.047H84.9044V109.422H88.2787V106.047Z" fill="black"/>
<path d="M95.0271 106.047H91.6529V109.422H95.0271V106.047Z" fill="black"/>
<path d="M105.15 106.047H101.776V109.422H105.15V106.047Z" fill="black"/>
<path d="M115.273 106.047H111.898V109.422H115.273V106.047Z" fill="black"/>
<path d="M138.892 106.047H135.518V109.422H138.892V106.047Z" fill="black"/>
<path d="M149.015 106.047H145.641V109.422H149.015V106.047Z" fill="black"/>
<path d="M155.763 106.047H152.389V109.422H155.763V106.047Z" fill="black"/>
<path d="M64.659 109.422H61.2848L61.2848 112.796H64.659V109.422Z" fill="black"/>
<path d="M71.4075 109.422H68.0332V112.796H71.4075V109.422Z" fill="black"/>
<path d="M74.7817 109.422H71.4075V112.796H74.7817V109.422Z" fill="black"/>
<path d="M78.1559 109.422H74.7817V112.796H78.1559V109.422Z" fill="black"/>
<path d="M81.5302 109.422H78.1559V112.796H81.5302V109.422Z" fill="black"/>
<path d="M88.2787 109.422H84.9044V112.796H88.2787V109.422Z" fill="black"/>
<path d="M111.898 109.422H108.524V112.796H111.898V109.422Z" fill="black"/>
<path d="M118.647 109.422H115.273V112.796H118.647V109.422Z" fill="black"/>
<path d="M125.395 109.422H122.021V112.796H125.395V109.422Z" fill="black"/>
<path d="M128.769 109.422H125.395V112.796H128.769V109.422Z" fill="black"/>
<path d="M132.144 109.422H128.769V112.796H132.144V109.422Z" fill="black"/>
<path d="M135.518 109.422H132.144V112.796H135.518V109.422Z" fill="black"/>
<path d="M138.892 109.422H135.518V112.796H138.892V109.422Z" fill="black"/>
<path d="M142.266 109.422H138.892V112.796H142.266V109.422Z" fill="black"/>
<path d="M152.389 109.422H149.015V112.796H152.389V109.422Z" fill="black"/>
<path d="M155.763 109.422H152.389V112.796H155.763V109.422Z" fill="black"/>
<path d="M88.2787 112.796H84.9044V116.17H88.2787V112.796Z" fill="black"/>
<path d="M98.4014 112.796H95.0271V116.17H98.4014V112.796Z" fill="black"/>
<path d="M125.395 112.796H122.021V116.17H125.395V112.796Z" fill="black"/>
<path d="M128.769 112.796H125.395V116.17H128.769V112.796Z" fill="black"/>
<path d="M142.266 112.796H138.892V116.17H142.266V112.796Z" fill="black"/>
<path d="M145.641 112.796H142.266V116.17H145.641V112.796Z" fill="black"/>
<path d="M149.015 112.796H145.641V116.17H149.015V112.796Z" fill="black"/>
<path d="M152.389 112.796H149.015V116.17H152.389V112.796Z" fill="black"/>
<path d="M155.763 112.796H152.389V116.17H155.763V112.796Z" fill="black"/>
<path d="M61.2848 116.17H57.9105V119.544H61.2848V116.17Z" fill="black"/>
<path d="M64.659 116.17H61.2848V119.544H64.659V116.17Z" fill="black"/>
<path d="M68.0332 116.17H64.659V119.544H68.0332V116.17Z" fill="black"/>
<path d="M71.4075 116.17H68.0332V119.544H71.4075V116.17Z" fill="black"/>
<path d="M74.7817 116.17H71.4075V119.544H74.7817V116.17Z" fill="black"/>
<path d="M78.1559 116.17H74.7817V119.544H78.1559V116.17Z" fill="black"/>
<path d="M81.5302 116.17H78.1559V119.544H81.5302V116.17Z" fill="black"/>
<path d="M91.6529 116.17H88.2787V119.544H91.6529V116.17Z" fill="black"/>
<path d="M101.776 116.17H98.4014V119.544H101.776V116.17Z" fill="black"/>
<path d="M108.524 116.17H105.15V119.544H108.524V116.17Z" fill="black"/>
<path d="M118.647 116.17H115.273V119.544H118.647V116.17Z" fill="black"/>
<path d="M122.021 116.17H118.647V119.544H122.021V116.17Z" fill="black"/>
<path d="M128.769 116.17H125.395V119.544H128.769V116.17Z" fill="black"/>
<path d="M135.518 116.17H132.144V119.544H135.518V116.17Z" fill="black"/>
<path d="M142.266 116.17H138.892V119.544H142.266V116.17Z" fill="black"/>
<path d="M145.641 116.17H142.266V119.544H145.641V116.17Z" fill="black"/>
<path d="M155.763 116.17H152.389V119.544H155.763V116.17Z" fill="black"/>
<path d="M61.2848 119.544H57.9105V122.919H61.2848V119.544Z" fill="black"/>
<path d="M81.5302 119.544H78.1559V122.919H81.5302V119.544Z" fill="black"/>
<path d="M88.2787 119.544H84.9044V122.919H88.2787V119.544Z" fill="black"/>
<path d="M91.6529 119.544H88.2787V122.919H91.6529V119.544Z" fill="black"/>
<path d="M95.0271 119.544H91.6529V122.919H95.0271V119.544Z" fill="black"/>
<path d="M98.4014 119.544H95.0271V122.919H98.4014V119.544Z" fill="black"/>
<path d="M105.15 119.544H101.776V122.919H105.15V119.544Z" fill="black"/>
<path d="M118.647 119.544H115.273V122.919H118.647V119.544Z" fill="black"/>
<path d="M125.395 119.544H122.021V122.919H125.395V119.544Z" fill="black"/>
<path d="M128.769 119.544H125.395V122.919H128.769V119.544Z" fill="black"/>
<path d="M142.266 119.544H138.892V122.919H142.266V119.544Z" fill="black"/>
<path d="M155.763 119.544H152.389V122.919H155.763V119.544Z" fill="black"/>
<path d="M61.2848 122.919H57.9105V126.293H61.2848V122.919Z" fill="black"/>
<path d="M68.0332 122.919H64.659V126.293H68.0332V122.919Z" fill="black"/>
<path d="M71.4075 122.919H68.0332V126.293H71.4075V122.919Z" fill="black"/>
<path d="M74.7817 122.919H71.4075V126.293H74.7817V122.919Z" fill="black"/>
<path d="M81.5302 122.919H78.1559V126.293H81.5302V122.919Z" fill="black"/>
<path d="M98.4014 122.919H95.0271V126.293H98.4014V122.919Z" fill="black"/>
<path d="M128.769 122.919H125.395V126.293H128.769V122.919Z" fill="black"/>
<path d="M132.144 122.919H128.769V126.293H132.144V122.919Z" fill="black"/>
<path d="M135.518 122.919H132.144V126.293H135.518V122.919Z" fill="black"/>
<path d="M138.892 122.919H135.518V126.293H138.892V122.919Z" fill="black"/>
<path d="M142.266 122.919H138.892V126.293H142.266V122.919Z" fill="black"/>
<path d="M145.641 122.919H142.266V126.293H145.641V122.919Z" fill="black"/>
<path d="M149.015 122.919H145.641V126.293H149.015V122.919Z" fill="black"/>
<path d="M152.389 122.919H149.015V126.293H152.389V122.919Z" fill="black"/>
<path d="M61.2848 126.293H57.9105V129.667H61.2848V126.293Z" fill="black"/>
<path d="M68.0332 126.293H64.659V129.667H68.0332V126.293Z" fill="black"/>
<path d="M71.4075 126.293H68.0332V129.667H71.4075V126.293Z" fill="black"/>
<path d="M74.7817 126.293H71.4075V129.667H74.7817V126.293Z" fill="black"/>
<path d="M81.5302 126.293H78.1559V129.667H81.5302V126.293Z" fill="black"/>
<path d="M91.6529 126.293H88.2787V129.667H91.6529V126.293Z" fill="black"/>
<path d="M108.524 126.293H105.15V129.667H108.524V126.293Z" fill="black"/>
<path d="M118.647 126.293H115.273V129.667H118.647V126.293Z" fill="black"/>
<path d="M125.395 126.293H122.021V129.667H125.395V126.293Z" fill="black"/>
<path d="M135.518 126.293H132.144V129.667H135.518V126.293Z" fill="black"/>
<path d="M138.892 126.293H135.518V129.667H138.892V126.293Z" fill="black"/>
<path d="M145.641 126.293H142.266V129.667H145.641V126.293Z" fill="black"/>
<path d="M155.763 126.293H152.389V129.667H155.763V126.293Z" fill="black"/>
<path d="M61.2848 129.667H57.9105V133.041H61.2848V129.667Z" fill="black"/>
<path d="M68.0332 129.667H64.659V133.041H68.0332V129.667Z" fill="black"/>
<path d="M71.4075 129.667H68.0332V133.041H71.4075V129.667Z" fill="black"/>
<path d="M74.7817 129.667H71.4075V133.041H74.7817V129.667Z" fill="black"/>
<path d="M81.5302 129.667H78.1559V133.041H81.5302V129.667Z" fill="black"/>
<path d="M98.4014 129.667H95.0271V133.041H98.4014V129.667Z" fill="black"/>
<path d="M118.647 129.667H115.273V133.041H118.647V129.667Z" fill="black"/>
<path d="M128.769 129.667H125.395V133.041H128.769V129.667Z" fill="black"/>
<path d="M135.518 129.667H132.144V133.041H135.518V129.667Z" fill="black"/>
<path d="M138.892 129.667H135.518V133.041H138.892V129.667Z" fill="black"/>
<path d="M145.641 129.667H142.266V133.041H145.641V129.667Z" fill="black"/>
<path d="M149.015 129.667H145.641V133.041H149.015V129.667Z" fill="black"/>
<path d="M61.2848 133.041H57.9105V136.416H61.2848V133.041Z" fill="black"/>
<path d="M81.5302 133.041H78.1559V136.416H81.5302V133.041Z" fill="black"/>
<path d="M91.6529 133.041H88.2787V136.416H91.6529V133.041Z" fill="black"/>
<path d="M95.0271 133.041H91.6529V136.416H95.0271V133.041Z" fill="black"/>
<path d="M98.4014 133.041H95.0271V136.416H98.4014V133.041Z" fill="black"/>
<path d="M101.776 133.041H98.4014V136.416H101.776V133.041Z" fill="black"/>
<path d="M105.15 133.041H101.776V136.416H105.15V133.041Z" fill="black"/>
<path d="M108.524 133.041H105.15V136.416H108.524V133.041Z" fill="black"/>
<path d="M115.273 133.041H111.898V136.416H115.273V133.041Z" fill="black"/>
<path d="M118.647 133.041H115.273V136.416H118.647V133.041Z" fill="black"/>
<path d="M122.021 133.041H118.647V136.416H122.021V133.041Z" fill="black"/>
<path d="M135.518 133.041H132.144V136.416H135.518V133.041Z" fill="black"/>
<path d="M138.892 133.041H135.518V136.416H138.892V133.041Z" fill="black"/>
<path d="M142.266 133.041H138.892V136.416H142.266V133.041Z" fill="black"/>
<path d="M152.389 133.041H149.015V136.416H152.389V133.041Z" fill="black"/>
<path d="M155.763 133.041H152.389V136.416H155.763V133.041Z" fill="black"/>
<path d="M61.2848 136.416H57.9105V139.79H61.2848V136.416Z" fill="black"/>
<path d="M64.659 136.416H61.2848V139.79H64.659V136.416Z" fill="black"/>
<path d="M68.0332 136.416H64.659V139.79H68.0332V136.416Z" fill="black"/>
<path d="M71.4075 136.416H68.0332V139.79H71.4075V136.416Z" fill="black"/>
<path d="M74.7817 136.416H71.4075V139.79H74.7817V136.416Z" fill="black"/>
<path d="M78.1559 136.416H74.7817V139.79H78.1559V136.416Z" fill="black"/>
<path d="M81.5302 136.416H78.1559V139.79H81.5302V136.416Z" fill="black"/>
<path d="M91.6529 136.416H88.2787V139.79H91.6529V136.416Z" fill="black"/>
<path d="M108.524 136.416H105.15V139.79H108.524V136.416Z" fill="black"/>
<path d="M111.898 136.416H108.524V139.79H111.898V136.416Z" fill="black"/>
<path d="M115.273 136.416H111.898V139.79H115.273V136.416Z" fill="black"/>
<path d="M118.647 136.416H115.273V139.79H118.647V136.416Z" fill="black"/>
<path d="M122.021 136.416H118.647V139.79H122.021V136.416Z" fill="black"/>
<path d="M128.769 136.416H125.395V139.79H128.769V136.416Z" fill="black"/>
<path d="M132.144 136.416H128.769V139.79H132.144V136.416Z" fill="black"/>
<path d="M145.641 136.416H142.266V139.79H145.641V136.416Z" fill="black"/>
<path d="M149.015 136.416H145.641V139.79H149.015V136.416Z" fill="black"/>
</g>
</g>
</g>
<g id="Hand">
<path id="Vector_3" d="M148.002 229.239H224.002V255.74H148.002V229.239Z" fill="#62688F"/>
<path id="Vector_4" d="M202.493 125.269L173.67 92.3193V149.738L144.959 121.03C138.763 115.031 128.874 115.19 122.875 121.386C117.015 127.441 117.015 137.057 122.875 143.112L160.419 180.656L157.804 185.881C151.038 199.414 150.384 215.195 156.002 229.24H213.42V154.349C213.42 143.651 209.537 133.322 202.493 125.269Z" fill="#DBAB84"/>
<path id="Vector_5" d="M186.918 167.406C185.749 167.406 184.623 166.941 183.796 166.111L170.546 152.86C168.85 151.107 168.899 148.312 170.652 146.614C172.366 144.963 175.078 144.963 176.792 146.614L190.042 159.865C191.765 161.592 191.765 164.388 190.042 166.111C189.212 166.941 188.09 167.406 186.918 167.406Z" fill="#CC8866"/>
</g>
</g>
</svg>
