<svg width="256" height="256" viewBox="0 0 256 256" fill="none" xmlns="http://www.w3.org/2000/svg">
<g id="Icon-Electricity-256px">
<g clip-path="url(#clip0)">
<path id="Vector" d="M107.926 130.346H31.5566C22.6875 130.346 15.498 123.156 15.498 114.287V63.3125H123.984V114.287C123.984 123.156 116.795 130.346 107.926 130.346Z" fill="#5F6C75"/>
<path id="Vector_2" d="M103.984 63.3105V100.07C103.984 111.268 94.9062 120.346 83.709 120.346H16.6836C19.0762 126.211 24.832 130.346 31.5566 130.346H107.924C116.793 130.346 123.984 123.156 123.984 114.287V63.3105H103.984Z" fill="#4E5A61"/>
<path id="Vector_3" d="M82.0938 189.721H57.3887C55.3184 189.721 53.6387 188.041 53.6387 185.971V153.75H85.8438V185.971C85.8438 188.041 84.1641 189.721 82.0938 189.721Z" fill="#5F6C75"/>
<path id="Vector_4" d="M70.8438 153.75V167.098C70.8438 174.068 65.1914 179.721 58.2207 179.721H53.6387V185.971C53.6387 188.041 55.3184 189.721 57.3887 189.721H82.0938C84.1641 189.721 85.8438 188.041 85.8438 185.971V153.75H70.8438Z" fill="#4E5A61"/>
<path id="Vector_5" d="M150.76 52.3711V196.129C150.76 215.627 134.953 231.434 115.455 231.434C96.0098 231.434 80.1484 215.682 80.1484 196.129V189.721H59.334V196.129C59.334 227.123 84.459 252.25 115.455 252.25C146.363 252.25 171.576 227.209 171.576 196.129V52.3711C171.576 37.0137 184.025 24.5664 199.381 24.5664C214.695 24.5664 227.186 36.9727 227.186 52.3711V253.213C227.186 254.752 228.434 256 229.973 256H245.215C246.754 256 248.002 254.752 248.002 253.213V52.3711C248.002 25.5176 226.234 3.75 199.381 3.75C172.604 3.75 150.76 25.4453 150.76 52.3711Z" fill="#8F9BAE"/>
<path id="Vector_6" d="M204.23 3.99023C214.398 11.9082 221.336 23.7793 222.738 37.2949C225.549 41.6387 227.188 46.8125 227.188 52.3711V253.213C227.188 254.752 228.434 256 229.973 256H245.217C246.756 256 248.002 254.752 248.002 253.213V52.3711C248.002 27.1543 228.805 6.42383 204.23 3.99023Z" fill="#7E8B96"/>
<path id="Vector_7" d="M93.8926 153.75H45.5898C41.125 153.75 37.209 150.771 36.0176 146.469L31.5566 130.346H107.924L103.463 146.469C102.273 150.771 98.3574 153.75 93.8926 153.75Z" fill="#5F6C75"/>
<path id="Vector_8" d="M85.1582 130.346L83.4629 136.469C82.2715 140.771 78.3574 143.75 73.8926 143.75H35.2656L36.0195 146.469C37.2109 150.771 41.125 153.75 45.5898 153.75H93.8926C98.3574 153.75 102.273 150.771 103.463 146.469L107.926 130.346H85.1582Z" fill="#4E5A61"/>
<path id="Vector_9" d="M124.604 63.3105H14.8789C10.8027 63.3105 7.5 60.0078 7.5 55.9336V54.7227C7.5 50.6465 10.8027 47.3438 14.8789 47.3438H124.604C128.68 47.3438 131.982 50.6465 131.982 54.7227V55.9336C131.982 60.0078 128.68 63.3105 124.604 63.3105Z" fill="#5F6C75"/>
<path id="Vector_10" d="M124.604 47.3438H111.982V48.4336C111.982 52.5078 108.678 55.8105 104.604 55.8105H7.5C7.5 60.1973 10.9473 63.3105 14.8789 63.3105H124.604C128.678 63.3105 131.982 60.0078 131.982 55.9336V54.7227C131.982 50.6465 128.68 47.3438 124.604 47.3438Z" fill="#4E5A61"/>
<path id="Vector_11" d="M46.8613 47.3438H31.5566V4.16211C31.5566 1.86328 33.4199 0 35.7188 0H42.6992C44.998 0 46.8613 1.86328 46.8613 4.16211V47.3438Z" fill="#DADEE4"/>
<path id="Vector_12" d="M92.6211 47.3438H107.926V4.16211C107.926 1.86328 106.062 0 103.764 0H96.7832C94.4844 0 92.6211 1.86328 92.6211 4.16211V47.3438Z" fill="#DADEE4"/>
<path id="Vector_13" d="M67.0097 99.6484L62.082 113.447C61.373 115.434 62.8456 117.525 64.955 117.525C65.9902 117.525 66.9648 116.998 67.5292 116.113L82.7558 92.1953C83.4765 91.0645 82.664 89.584 81.3241 89.584H75.3593C74.1855 89.584 73.3652 88.4219 73.7597 87.3145L78.7284 73.4023C79.123 72.2969 78.3046 71.1328 77.1288 71.1328H66.9218C66.205 71.1328 65.5644 71.584 65.3222 72.2598L56.5566 96.8047C56.162 97.9102 56.9823 99.0742 58.1562 99.0742H66.6054C66.9023 99.0723 67.1113 99.3672 67.0097 99.6484Z" fill="#F7B735"/>
<path id="Vector_14" d="M53.6387 161.643H60.7305C62.8008 161.643 64.4805 163.322 64.4805 165.393C64.4805 167.465 62.8008 169.143 60.7305 169.143H53.6387V161.643ZM75.002 165.393C75.002 167.465 76.6816 169.143 78.752 169.143H85.8438V161.643H78.752C76.6816 161.643 75.002 163.322 75.002 165.393ZM64.4805 178.076C64.4805 176.006 62.8008 174.326 60.7305 174.326H53.6387V181.826H60.7305C62.8008 181.826 64.4805 180.148 64.4805 178.076ZM85.8438 174.326H78.752C76.6816 174.326 75.002 176.006 75.002 178.076C75.002 180.148 76.6816 181.826 78.752 181.826H85.8438V174.326Z" fill="#4E5A61"/>
<g id="Group">
<path id="Vector_15" d="M75.002 165.393C75.002 167.465 76.6816 169.143 78.752 169.143H85.8438V161.643H78.752C76.6816 161.643 75.002 163.322 75.002 165.393Z" fill="#3F4A4A"/>
<path id="Vector_16" d="M64.4785 178.059C62.6348 179.113 60.498 179.721 58.2207 179.721H53.6387V181.826H60.7305C62.7812 181.826 64.4883 180.164 64.4785 178.059Z" fill="#3F4A4A"/>
<path id="Vector_17" d="M75.002 178.076C75.002 180.148 76.6816 181.826 78.752 181.826H85.8438V174.326H78.752C76.6816 174.326 75.002 176.006 75.002 178.076Z" fill="#3F4A4A"/>
</g>
</g>
</g>
<defs>
<clipPath id="clip0">
<rect width="256" height="256" fill="white"/>
</clipPath>
</defs>
</svg>
