<svg width="256" height="256" viewBox="0 0 256 256" fill="none" xmlns="http://www.w3.org/2000/svg">
<g id="Icon-Withdrawal-256px">
<g id="flat">
<path id="Vector" d="M0 0H256V256H0V0Z" fill="#CCCCCC"/>
<path id="Vector_2" d="M44.1379 238.345C29.3768 238.346 14.6319 237.369 0 235.421V256H256V161.672C196.575 211.317 121.571 238.46 44.1379 238.345Z" fill="#B3B3B3"/>
<path id="Vector_3" d="M17.6552 17.6552H238.345V123.586H17.6552V17.6552Z" fill="#C6E9FD"/>
<path id="Vector_4" d="M41.931 114.759C33.7534 114.759 25.6614 114.417 17.6552 113.733V123.586H238.345V36.1517C185.456 86.6965 115.088 114.859 41.931 114.759Z" fill="#ABDDEF"/>
<g id="Group">
<path id="Vector_5" d="M17.6552 17.6552H44.1379V123.586H17.6552V17.6552Z" fill="#808080"/>
<path id="Vector_6" d="M211.862 17.6552H238.345V123.586H211.862V17.6552Z" fill="#808080"/>
<path id="Vector_7" d="M17.6552 105.931H44.1379V123.586H17.6552V105.931Z" fill="#808080"/>
</g>
<path id="Vector_8" d="M17.6552 88.2759H44.1379V105.931H17.6552V88.2759Z" fill="#999999"/>
<path id="Vector_9" d="M17.6552 70.6207H44.1379V88.2759H17.6552V70.6207Z" fill="#808080"/>
<path id="Vector_10" d="M17.6552 52.9656H44.1379V70.6207H17.6552V52.9656Z" fill="#999999"/>
<path id="Vector_11" d="M211.862 105.931H238.345V123.586H211.862V105.931Z" fill="#808080"/>
<path id="Vector_12" d="M211.862 88.2759H238.345V105.931H211.862V88.2759Z" fill="#999999"/>
<path id="Vector_13" d="M211.862 70.6207H238.345V88.2759H211.862V70.6207Z" fill="#808080"/>
<path id="Vector_14" d="M211.862 52.9656H238.345V70.6207H211.862V52.9656Z" fill="#999999"/>
<path id="Vector_15" d="M167.724 141.241H238.345V167.724H167.724V141.241Z" fill="#808080"/>
<path id="Vector_16" d="M185.379 154.483H220.69L229.517 207.448H176.552L185.379 154.483Z" fill="#39B54A"/>
<path id="Vector_17" d="M17.6552 141.241H150.069V167.724H17.6552V141.241Z" fill="#808080"/>
<path id="Vector_18" d="M30.8965 150.069H136.828V158.897H30.8965V150.069Z" fill="#4D4D4D"/>
<path id="Vector_19" d="M30.8965 180.966H48.5517V189.793H30.8965V180.966Z" fill="#808080"/>
<path id="Vector_20" d="M57.3793 180.966H75.0345V189.793H57.3793V180.966Z" fill="#808080"/>
<path id="Vector_21" d="M83.8621 180.966H101.517V189.793H83.8621V180.966Z" fill="#808080"/>
<path id="Vector_22" d="M110.345 180.966H136.828V189.793H110.345V180.966Z" fill="#D5494C"/>
<path id="Vector_23" d="M30.8965 198.621H48.5517V207.448H30.8965V198.621Z" fill="#808080"/>
<path id="Vector_24" d="M57.3793 198.621H75.0345V207.448H57.3793V198.621Z" fill="#808080"/>
<path id="Vector_25" d="M83.8621 198.621H101.517V207.448H83.8621V198.621Z" fill="#808080"/>
<path id="Vector_26" d="M110.345 198.621H136.828V207.448H110.345V198.621Z" fill="#FFC841"/>
<path id="Vector_27" d="M30.8965 216.276H48.5517V225.103H30.8965V216.276Z" fill="#808080"/>
<path id="Vector_28" d="M57.3793 216.276H75.0345V225.103H57.3793V216.276Z" fill="#808080"/>
<path id="Vector_29" d="M83.8621 216.276H101.517V225.103H83.8621V216.276Z" fill="#808080"/>
<path id="Vector_30" d="M110.345 216.276H136.828V225.103H110.345V216.276Z" fill="#E6E6E6"/>
<path id="Vector_31" d="M30.8965 233.931H48.5517V242.759H30.8965V233.931Z" fill="#808080"/>
<path id="Vector_32" d="M57.3793 233.931H75.0345V242.759H57.3793V233.931Z" fill="#808080"/>
<path id="Vector_33" d="M83.8621 233.931H101.517V242.759H83.8621V233.931Z" fill="#808080"/>
<path id="Vector_34" d="M110.345 233.931H136.828V242.759H110.345V233.931Z" fill="#39B54A"/>
<path id="Vector_35" d="M98.3795 85.1648L146.924 36.6203L153.165 42.8614L104.621 91.4059L98.3795 85.1648Z" fill="#84C7FE"/>
<path id="Vector_36" d="M120.444 85.1671L146.923 58.6885L153.164 64.9296L126.685 91.4082L120.444 85.1671Z" fill="#84C7FE"/>
<path id="Vector_37" d="M198.621 163.31H207.448V172.138H198.621V163.31Z" fill="#009245"/>
<path id="Vector_38" d="M189.793 189.793H216.276V198.621H189.793V189.793Z" fill="#009245"/>
<path id="Vector_39" d="M98.38 63.0969L124.859 36.6183L131.1 42.8594L104.621 69.338L98.38 63.0969Z" fill="#84C7FE"/>
</g>
</g>
</svg>
