<svg width="256" height="256" viewBox="0 0 256 256" fill="none" xmlns="http://www.w3.org/2000/svg">
<path d="M134.287 5.21594C132.271 5.1335 130.191 5.06062 128.304 5.77197C126.418 6.48523 124.753 8.19362 124.744 10.2107C124.732 13.1366 128.03 15.4931 127.503 18.3711C127.123 20.4419 124.845 21.8396 124.682 23.9372C124.477 26.5621 127.614 29.3845 125.887 31.369C124.976 32.414 123.35 32.2453 121.994 32.5348C118.61 33.2576 116.831 36.9505 113.983 38.9196C110.049 41.6423 104.742 40.7201 100.067 41.742C98.0481 42.183 95.9888 43.1072 94.9094 44.8712C93.8299 46.6352 94.198 49.3579 96.0617 50.2552C97.5419 50.9666 100.036 51.0011 99.931 52.6423C99.8715 53.5569 98.8764 54.0766 98.0136 54.3872C92.9019 56.2298 87.4469 57.1137 82.015 56.9795C77.0144 56.8568 71.2393 55.2558 69.3833 50.6118C68.507 48.4184 68.6221 45.7609 67.0594 43.9911C65.6712 42.4189 63.2898 42.0526 61.2497 42.5416C59.2096 43.0324 57.4246 44.2346 55.6893 45.4138C59.2921 52.0786 63.008 59.2918 62.1336 66.8156C61.9668 68.2498 61.6466 69.7761 62.2659 71.078C63.3991 73.4689 67.3508 74.4928 66.9194 77.1024C63.4164 78.8721 58.9891 78.6669 55.6663 76.577C54.7057 75.9749 53.7988 75.2118 52.6906 74.9683C49.9545 74.3663 47.6996 77.0564 45.0728 78.0381C42.6186 78.9546 39.7981 78.2969 37.5605 76.9356C35.3229 75.5742 33.5532 73.5763 31.8218 71.6129C29.891 69.4213 25.9527 71.1777 23.3374 72.4796C20.724 73.7796 18.3752 75.6969 15.5451 76.4217C11.3346 77.5012 6.41456 75.8465 2.79455 78.2528C-0.359542 80.3466 -0.965423 85.3912 1.60195 88.1733C3.1301 89.8261 5.71281 91.199 5.37151 93.425C5.13567 94.9455 3.49248 96.0442 3.51165 97.5838C3.53274 99.2999 5.49614 100.214 7.1355 100.719C12.1648 102.27 17.2459 103.831 22.4937 104.214C27.9966 104.615 33.9903 103.823 38.617 106.829C41.7078 108.839 43.5926 112.206 45.3585 115.442C47.6843 119.701 50.0101 123.959 52.3339 128.22C52.9858 129.414 53.6473 130.622 54.5773 131.615C55.5129 132.616 56.6825 133.36 57.8023 134.148C61.7617 136.934 65.3318 140.535 67.0747 145.052C68.1715 147.892 68.4994 150.962 68.8176 153.989C69.3488 159.047 69.8799 164.107 70.411 169.165C71.0073 174.837 71.4483 180.666 70.5241 186.293C69.7629 190.937 66.5896 194.841 65.3414 199.379C63.1575 207.329 67.0364 216.475 63.1786 223.761C62.0186 225.952 60.2144 228.646 61.7598 230.587C63.3378 232.569 66.7162 231.35 68.8847 232.661C70.0831 233.386 70.7043 234.763 71.6765 235.771C73.2123 237.365 75.4997 237.934 77.6568 238.431C84.9351 240.109 92.2135 241.786 99.4919 243.466C100.661 243.734 101.973 243.984 102.993 243.353C103.871 242.81 104.282 241.763 104.972 240.994C106.845 238.906 110.346 239.349 112.683 240.902C115.019 242.455 116.677 244.835 118.846 246.616C122.035 249.235 126.134 250.414 130.107 251.532C132.636 252.242 135.418 252.938 137.807 251.847C139.433 251.107 140.652 249.617 142.332 249.009C146.648 247.446 151.848 252.251 155.686 249.736C154.202 244.892 152.578 237.838 154.918 233.346C155.637 231.967 156.674 230.779 157.776 229.682C160.397 227.07 163.467 224.877 166.892 223.477C173.622 220.724 181.617 221.286 187.898 224.948C190.696 226.579 193.154 228.777 196.07 230.184C199.466 231.825 203.289 232.303 207.032 232.759C211.534 233.308 216.467 233.764 220.266 231.283C225.33 227.977 226.434 220.71 231.245 217.042C233.712 215.16 236.861 214.462 239.643 213.087C242.427 211.714 245.082 209.137 244.854 206.042C244.776 204.98 244.271 203.87 243.307 203.419C242.045 202.829 240.602 203.546 239.261 203.928C236.293 204.767 232.886 203.774 230.838 201.469C228.789 199.165 228.2 195.666 229.381 192.818C230.462 190.211 232.921 187.616 231.822 185.016C230.971 183.003 228.489 182.407 226.524 181.452C224.559 180.497 222.789 177.88 224.306 176.308C225.28 175.299 226.906 175.529 228.305 175.598C229.705 175.667 231.492 175.146 231.615 173.75C231.96 169.852 235.542 167.382 233.373 164.125C232.221 162.395 230.083 161.498 228.984 159.734C226.507 155.755 230.668 150.743 230.167 146.084C229.922 143.793 228.407 141.649 226.279 140.767C224.15 139.887 221.491 140.372 219.9 142.038C218.607 143.39 218.099 145.29 217.179 146.918C216.257 148.546 214.508 150.043 212.698 149.576C211.082 149.159 210.2 147.288 210.33 145.626C210.46 143.961 211.346 142.466 212.209 141.037C217.767 131.846 223.324 122.654 228.882 113.462C229.695 112.116 230.643 110.662 232.154 110.221C234.125 109.648 236.094 111.032 238.126 111.32C240.161 111.606 242.32 110.674 243.508 109C244.697 107.324 244.862 104.979 243.919 103.154C238.782 93.2007 246.499 81.5162 253.25 72.5773C254.928 70.357 256.911 67.4944 255.542 65.0727C254.777 63.7171 253.18 63.0748 251.661 62.7297C247.27 61.7346 242.699 62.4248 238.197 62.4574C233.693 62.4881 228.812 61.6655 225.723 58.3887C223.732 56.2796 222.672 53.3288 220.35 51.5916C216.224 48.5066 210.412 50.585 205.274 50.2399C197.949 49.749 191.492 43.3181 190.97 35.9957C190.892 34.8874 190.88 33.6392 190.084 32.8646C188.729 31.5454 186.409 32.7265 185.291 34.2508C184.171 35.7771 183.36 37.7386 181.606 38.4422C179.194 39.4086 176.563 37.3071 175.476 34.9488C174.387 32.5885 174.159 29.8735 172.872 27.6148C170.4 23.2777 164.917 21.878 160.894 18.9194C156.791 15.9015 154.22 11.2308 150.425 7.83508C146.629 4.43748 137.991 1.72055 134.287 5.21594Z" fill="white"/>
<path d="M106.721 41.0167C104.499 41.2084 102.217 41.2717 100.068 41.7415C98.0471 42.1825 95.9897 43.1086 94.9102 44.8725C93.8307 46.6365 94.1989 49.3573 96.0626 50.2546C97.5428 50.9679 100.035 51.0024 99.9299 52.6418C99.8705 53.5583 98.8773 54.076 98.0145 54.3885C92.9027 56.2311 87.4478 57.115 82.0159 56.9808C77.0134 56.8562 71.2402 55.2571 69.3841 50.6113C68.5079 48.4178 68.6229 45.7603 67.0603 43.9906C65.6721 42.4183 63.2888 42.0521 61.2487 42.5429C59.2105 43.0319 57.4254 44.2341 55.6902 45.4152C59.293 52.0781 63.0089 59.2913 62.1345 66.815C61.9677 68.2493 61.6475 69.7755 62.2668 71.0793C63.4 73.4684 67.3517 74.4922 66.9203 77.1018C63.4153 78.8735 58.99 78.6664 55.6653 76.5784C54.7066 75.9744 53.7997 75.2113 52.6914 74.9678C49.9553 74.3657 47.6986 77.0577 45.0737 78.0375C42.6194 78.954 39.799 78.2982 37.5614 76.935C35.3238 75.5737 33.5541 73.5777 31.8207 71.6123C29.8899 69.4227 25.9516 71.179 23.3383 72.479C20.7229 73.779 18.3742 75.6964 15.546 76.4211C11.3355 77.5006 6.41545 75.8478 2.79352 78.2522C-0.358656 80.346 -0.964552 85.3906 1.60282 88.1728C3.13097 89.8255 5.71369 91.1984 5.37047 93.4245C5.13655 94.9449 3.49336 96.0455 3.51254 97.5852C3.53171 99.2993 5.49702 100.214 7.13638 100.72C12.1638 102.271 17.2467 103.83 22.4946 104.214C27.9956 104.616 33.9912 103.824 38.6159 106.829C41.7068 108.838 43.5935 112.207 45.3594 115.442C47.6852 119.7 50.009 123.961 52.3348 128.219C52.9867 129.414 53.6482 130.622 54.5781 131.615C55.5119 132.616 56.6815 133.36 57.8032 134.148C61.7626 136.934 65.3327 140.535 67.0756 145.052C68.1724 147.893 68.5002 150.961 68.8166 153.991C69.3496 159.049 69.8807 164.107 70.4119 169.165C71.0082 174.838 71.4492 180.665 70.525 186.295C69.7619 190.939 66.5905 194.842 65.3423 199.379C63.1565 207.328 67.0373 216.476 63.1795 223.762C62.0195 225.952 60.2152 228.646 61.7587 230.586C63.3386 232.569 66.7171 231.349 68.8856 232.661C70.084 233.386 70.7052 234.762 71.6773 235.771C73.2132 237.366 75.4987 237.934 77.6576 238.43C84.936 240.108 92.2144 241.788 99.4928 243.465C100.66 243.736 101.972 243.985 102.994 243.354C103.872 242.811 104.282 241.765 104.971 240.996C105.46 240.451 106.062 240.087 106.721 239.861V41.0167Z" fill="#051440"/>
<path d="M251.662 62.7299C247.271 61.7348 242.7 62.4251 238.196 62.4577C233.694 62.4883 228.811 61.6658 225.722 58.389C223.732 56.2799 222.673 53.329 220.349 51.5919C216.225 48.5068 210.414 50.5853 205.273 50.2401C197.949 49.7493 191.491 43.3184 190.971 35.9959C190.891 34.8876 190.881 33.6395 190.084 32.8648C188.73 31.5457 186.41 32.7268 185.29 34.2511C184.172 35.7773 183.361 37.7388 181.605 38.4425C179.193 39.4088 176.564 37.3074 175.475 34.9471C174.955 33.8197 174.631 32.6098 174.296 31.4076V221.821C179.009 221.522 183.816 222.567 187.898 224.948C190.695 226.58 193.153 228.777 196.07 230.184C199.467 231.826 203.289 232.303 207.031 232.759C211.535 233.308 216.467 233.764 220.265 231.283C225.331 227.977 226.433 220.709 231.244 217.041C233.712 215.16 236.862 214.462 239.644 213.087C242.426 211.712 245.084 209.137 244.854 206.043C244.775 204.98 244.271 203.87 243.308 203.42C242.045 202.829 240.603 203.546 239.261 203.928C236.294 204.768 232.887 203.774 230.838 201.47C228.79 199.165 228.199 195.666 229.38 192.818C230.462 190.211 232.922 187.617 231.821 185.017C230.97 183.003 228.489 182.407 226.523 181.452C224.558 180.497 222.79 177.88 224.307 176.308C225.279 175.299 226.907 175.529 228.307 175.598C229.706 175.667 231.491 175.146 231.616 173.75C231.959 169.852 235.541 167.382 233.374 164.125C232.222 162.395 230.084 161.498 228.985 159.734C226.506 155.755 230.669 150.743 230.168 146.082C229.921 143.793 228.408 141.649 226.278 140.767C224.15 139.887 221.492 140.372 219.899 142.039C218.607 143.39 218.098 145.29 217.178 146.918C216.258 148.546 214.509 150.044 212.697 149.576C211.081 149.16 210.199 147.288 210.329 145.626C210.46 143.962 211.345 142.464 212.21 141.038C217.767 131.846 223.325 122.654 228.882 113.46C229.697 112.116 230.644 110.663 232.153 110.223C234.124 109.648 236.095 111.035 238.127 111.32C240.162 111.606 242.319 110.674 243.508 109C244.696 107.324 244.861 104.979 243.92 103.154C238.781 93.2009 246.501 81.5164 253.252 72.5776C254.928 70.3573 256.912 67.4946 255.543 65.073C254.776 63.7174 253.181 63.0751 251.662 62.7299Z" fill="#EC1920"/>
</svg>
