<svg width="256" height="256" viewBox="0 0 256 256" fill="none" xmlns="http://www.w3.org/2000/svg">
<path d="M119.601 189.18C122.745 174.695 124.661 160.593 125.821 149.046H129.386C130.548 160.593 132.464 174.695 135.608 189.18H119.601ZM127.604 121.492C127.604 121.492 127.721 130.668 128.954 144.489H126.253C127.488 130.668 127.604 121.492 127.604 121.492ZM190.953 252.746H188.133C188.133 250.121 186.006 247.995 183.382 247.995H180.778C174.573 240.341 165.428 226.606 156.721 204.367H165.788V200.896H167.197V196.991H170.995V189.18H151.317C147.595 177.658 144.106 164.345 141.14 149.046H147.781V146.659H151.252V144.489H140.284C135.263 116.946 131.943 83.2098 131.943 42.0879L133.787 40.4617H134.221V37.9665H133.896V34.604H134.221V30.4875H134.538V27.8224H134.135L133.679 24.6249C133.679 24.6249 132.376 19.3093 130.642 19.3093L128.71 7.03084V9.31464e-06H126.499V7.02921L124.567 19.3093C122.831 19.3093 121.53 24.6249 121.53 24.6249L121.072 27.8224H120.533V30.4875H120.988V34.604H121.313V37.9665H120.988V40.4617H121.421L123.265 42.0879C123.265 83.2098 119.946 116.946 114.925 144.489H103.957V146.659H107.428V149.046H114.069C111.101 164.345 107.612 177.658 103.892 189.18H84.2139V196.991H88.0116V200.896H89.421V204.367H98.4875C89.7803 226.606 80.6361 240.341 74.4306 247.995H71.827C69.2023 247.995 67.0761 250.121 67.0761 252.746H64.2541C62.4579 252.746 61 254.204 61 256H66.8576H90.2884H102.654C102.654 254.204 101.198 252.746 99.4001 252.746H99.8645C99.8645 250.62 98.4584 248.84 96.5312 248.235C100.449 242.671 103.852 236.38 106.845 229.683L106.857 229.723C106.857 229.723 106.965 229.445 107.169 228.969C107.363 228.53 107.569 228.106 107.758 227.666C110.128 222.619 117.101 210.008 127.604 210.008C138.106 210.008 145.079 222.616 147.449 227.665C147.64 228.108 147.847 228.534 148.042 228.972C148.244 229.446 148.352 229.723 148.352 229.723L148.364 229.683C151.357 236.38 154.76 242.671 158.678 248.235C156.75 248.84 155.343 250.62 155.343 252.746H155.807C154.011 252.746 152.553 254.204 152.553 256H164.919H188.349H194.207C194.207 254.204 192.751 252.746 190.953 252.746" fill="#CCA352"/>
</svg>
