<svg width="256" height="256" viewBox="0 0 256 256" fill="none" xmlns="http://www.w3.org/2000/svg">
<g id="Icon-No-Withdrawals">
<g id="flat">
<path id="Vector" d="M0 0H256V256H0V0Z" fill="#CCCCCC"/>
<path id="Vector_2" d="M44.1379 238.345C29.3768 238.346 14.6319 237.37 0 235.421V256H256V161.672C196.575 211.317 121.571 238.46 44.1379 238.345Z" fill="#B3B3B3"/>
<path id="Vector_3" d="M17.9998 18H238.689V123.931H17.9998V18Z" fill="#C6E9FD"/>
<path id="Vector_4" d="M41.9319 114.759C33.7542 114.759 25.6623 114.417 17.656 113.733V123.586H238.346V36.1516C185.457 86.6964 115.089 114.858 41.9319 114.759Z" fill="#ABDDEF"/>
<g id="Group">
<path id="Vector_5" d="M17.656 17.6553H44.1388V123.586H17.656V17.6553Z" fill="#808080"/>
<path id="Vector_6" d="M211.863 17.6553H238.346V123.586H211.863V17.6553Z" fill="#808080"/>
<path id="Vector_7" d="M17.656 105.931H44.1388V123.586H17.656V105.931Z" fill="#808080"/>
</g>
<path id="Vector_8" d="M17.656 88.2759H44.1388V105.931H17.656V88.2759Z" fill="#999999"/>
<path id="Vector_9" d="M17.656 70.6206H44.1388V88.2758H17.656V70.6206Z" fill="#808080"/>
<path id="Vector_10" d="M17.656 52.9656H44.1388V70.6208H17.656V52.9656Z" fill="#999999"/>
<path id="Vector_11" d="M211.863 105.931H238.346V123.586H211.863V105.931Z" fill="#808080"/>
<path id="Vector_12" d="M211.863 88.2759H238.346V105.931H211.863V88.2759Z" fill="#999999"/>
<path id="Vector_13" d="M211.863 70.6206H238.346V88.2758H211.863V70.6206Z" fill="#808080"/>
<path id="Vector_14" d="M211.863 52.9656H238.346V70.6208H211.863V52.9656Z" fill="#999999"/>
<path id="Vector_15" d="M167.724 141.241H238.344V167.724H167.724V141.241Z" fill="#808080"/>
<path id="Vector_16" d="M185.38 154.483H220.691L229.518 207.448H176.553L185.38 154.483Z" fill="#39B54A"/>
<path id="Vector_17" d="M17.656 141.241H150.07V167.724H17.656V141.241Z" fill="#808080"/>
<path id="Vector_18" d="M30.8966 150.069H136.828V158.896H30.8966V150.069Z" fill="#4D4D4D"/>
<path id="Vector_19" d="M30.8966 180.966H48.5518V189.793H30.8966V180.966Z" fill="#808080"/>
<path id="Vector_20" d="M57.3798 180.966H75.0349V189.793H57.3798V180.966Z" fill="#808080"/>
<path id="Vector_21" d="M83.8628 180.966H101.518V189.793H83.8628V180.966Z" fill="#808080"/>
<path id="Vector_22" d="M110.344 180.966H136.827V189.793H110.344V180.966Z" fill="#D5494C"/>
<path id="Vector_23" d="M30.8966 198.621H48.5518V207.448H30.8966V198.621Z" fill="#808080"/>
<path id="Vector_24" d="M57.3798 198.621H75.0349V207.448H57.3798V198.621Z" fill="#808080"/>
<path id="Vector_25" d="M83.8628 198.621H101.518V207.448H83.8628V198.621Z" fill="#808080"/>
<path id="Vector_26" d="M110.344 198.621H136.827V207.448H110.344V198.621Z" fill="#FFC841"/>
<path id="Vector_27" d="M30.8966 216.276H48.5518V225.103H30.8966V216.276Z" fill="#808080"/>
<path id="Vector_28" d="M57.3798 216.276H75.0349V225.103H57.3798V216.276Z" fill="#808080"/>
<path id="Vector_29" d="M83.8628 216.276H101.518V225.103H83.8628V216.276Z" fill="#808080"/>
<path id="Vector_30" d="M110.344 216.276H136.827V225.103H110.344V216.276Z" fill="#E6E6E6"/>
<path id="Vector_31" d="M30.8966 233.931H48.5518V242.759H30.8966V233.931Z" fill="#808080"/>
<path id="Vector_32" d="M57.3798 233.931H75.0349V242.759H57.3798V233.931Z" fill="#808080"/>
<path id="Vector_33" d="M83.8628 233.931H101.518V242.759H83.8628V233.931Z" fill="#808080"/>
<path id="Vector_34" d="M110.344 233.931H136.827V242.759H110.344V233.931Z" fill="#39B54A"/>
<path id="Vector_35" d="M198.62 163.31H207.448V172.138H198.62V163.31Z" fill="#009245"/>
<path id="Vector_36" d="M189.793 189.793H216.276V198.621H189.793V189.793Z" fill="#009245"/>
<path id="Vector_37" d="M98.3809 85.1648L146.925 36.6203L153.166 42.8614L104.622 91.4059L98.3809 85.1648Z" fill="#84C7FE"/>
<path id="Vector_38" d="M120.445 85.167L146.924 58.6883L153.165 64.9294L126.686 91.4081L120.445 85.167Z" fill="#84C7FE"/>
<path id="Vector_39" d="M98.3792 63.0969L124.858 36.6183L131.099 42.8594L104.62 69.338L98.3792 63.0969Z" fill="#84C7FE"/>
</g>
<path id="Prohibited" fill-rule="evenodd" clip-rule="evenodd" d="M128 200C167.765 200 200 167.765 200 128C200 88.2355 167.765 56 128 56C88.2355 56 56 88.2355 56 128C56 167.765 88.2355 200 128 200ZM77.9146 128C77.9146 118.839 80.3739 110.253 84.6684 102.865L153.137 171.333C145.749 175.628 137.162 178.087 128.002 178.087C100.339 178.087 77.9146 155.662 77.9146 128ZM178.089 128C178.089 137.416 175.49 146.226 170.971 153.751L102.251 85.0305C109.776 80.5115 118.585 77.9129 128.002 77.9129C155.664 77.9129 178.089 100.338 178.089 128Z" fill="#DB0000"/>
</g>
</svg>
