<svg width="256" height="256" viewBox="0 0 256 256" fill="none" xmlns="http://www.w3.org/2000/svg">
<g id="Icon-Smartphone-256px">
<path id="Vector" d="M180.966 0H75.0345C67.7215 0 61.793 5.9285 61.793 13.2415V242.758C61.793 250.072 67.7215 256 75.0345 256H180.966C188.279 256 194.207 250.072 194.207 242.758V13.2415C194.207 5.9285 188.279 0 180.966 0ZM110.345 17.655C110.345 15.2175 112.322 13.241 114.759 13.241H141.242C143.68 13.241 145.656 15.2175 145.656 17.655C145.656 20.0925 143.68 22.069 141.242 22.069H114.759C112.321 22.069 110.345 20.0925 110.345 17.655ZM97.1035 13.2415C99.541 13.2415 101.518 15.218 101.518 17.6555C101.518 20.093 99.541 22.0695 97.1035 22.0695C94.666 22.0695 92.6895 20.093 92.6895 17.6555C92.6895 15.218 94.666 13.2415 97.1035 13.2415ZM128 247.173C123.125 247.173 119.173 243.22 119.173 238.345C119.173 233.469 123.125 229.518 128 229.518C132.876 229.518 136.828 233.469 136.828 238.345C136.828 243.22 132.876 247.173 128 247.173ZM185.38 167.724V220.689H70.6205V167.724V35.3105H185.379V167.724H185.38Z" fill="#707384"/>
<path id="Vector_2" d="M70.6205 167.724H105.931C105.931 165.287 107.907 163.31 110.345 163.31C112.782 163.31 114.759 165.287 114.759 167.724H123.586C123.586 165.287 125.563 163.31 128 163.31C130.438 163.31 132.414 165.287 132.414 167.724H141.242C141.242 165.287 143.218 163.31 145.656 163.31C148.093 163.31 150.07 165.287 150.07 167.724H185.38V35.3105H70.6205V167.724ZM150.069 57.3795C150.069 54.942 152.045 52.9655 154.483 52.9655H172.138C174.575 52.9655 176.552 54.942 176.552 57.3795V75.0345C176.552 77.472 174.575 79.4485 172.138 79.4485H154.483C152.045 79.4485 150.069 77.472 150.069 75.0345V57.3795ZM150.069 92.6895C150.069 90.252 152.045 88.2755 154.483 88.2755H172.138C174.575 88.2755 176.552 90.252 176.552 92.6895V110.345C176.552 112.782 174.575 114.759 172.138 114.759H154.483C152.045 114.759 150.069 112.782 150.069 110.345V92.6895ZM150.069 128C150.069 125.563 152.045 123.586 154.483 123.586H172.138C174.575 123.586 176.552 125.563 176.552 128V145.655C176.552 148.093 174.575 150.069 172.138 150.069H154.483C152.045 150.069 150.069 148.093 150.069 145.655V128ZM114.758 57.3795C114.758 54.942 116.735 52.9655 119.172 52.9655H136.827C139.265 52.9655 141.241 54.942 141.241 57.3795V75.0345C141.241 77.472 139.265 79.4485 136.827 79.4485H119.172C116.735 79.4485 114.758 77.472 114.758 75.0345V57.3795ZM114.758 92.6895C114.758 90.252 116.735 88.2755 119.172 88.2755H136.827C139.265 88.2755 141.241 90.252 141.241 92.6895V110.345C141.241 112.782 139.265 114.759 136.827 114.759H119.172C116.735 114.759 114.758 112.782 114.758 110.345V92.6895ZM114.758 128C114.758 125.563 116.735 123.586 119.172 123.586H136.827C139.265 123.586 141.241 125.563 141.241 128V145.655C141.241 148.093 139.265 150.069 136.827 150.069H119.172C116.735 150.069 114.758 148.093 114.758 145.655V128ZM79.4485 57.3795C79.4485 54.942 81.425 52.9655 83.8625 52.9655H101.517C103.955 52.9655 105.931 54.942 105.931 57.3795V75.0345C105.931 77.472 103.955 79.4485 101.517 79.4485H83.8625C81.425 79.4485 79.4485 77.472 79.4485 75.0345V57.3795ZM79.4485 92.6895C79.4485 90.252 81.425 88.2755 83.8625 88.2755H101.517C103.955 88.2755 105.931 90.252 105.931 92.6895V110.345C105.931 112.782 103.955 114.759 101.517 114.759H83.8625C81.425 114.759 79.4485 112.782 79.4485 110.345V92.6895ZM79.4485 128C79.4485 125.563 81.425 123.586 83.8625 123.586H101.517C103.955 123.586 105.931 125.563 105.931 128V145.655C105.931 148.093 103.955 150.069 101.517 150.069H83.8625C81.425 150.069 79.4485 148.093 79.4485 145.655V128Z" fill="#63AFDB"/>
<path id="Vector_3" d="M145.655 172.138C143.217 172.138 141.241 170.161 141.241 167.724H132.414C132.414 170.161 130.437 172.138 128 172.138C125.562 172.138 123.586 170.161 123.586 167.724H114.758C114.758 170.161 112.782 172.138 110.344 172.138C107.907 172.138 105.93 170.161 105.93 167.724H70.6195V220.689H185.378V167.724H150.068C150.069 170.161 148.092 172.138 145.655 172.138ZM105.931 203.035C105.931 205.472 103.955 207.449 101.517 207.449H83.862C81.4245 207.449 79.448 205.472 79.448 203.035V185.38C79.448 182.942 81.4245 180.965 83.862 180.965H101.517C103.955 180.965 105.931 182.942 105.931 185.38V203.035ZM141.242 203.035C141.242 205.472 139.265 207.449 136.827 207.449H119.173C116.735 207.449 114.759 205.472 114.759 203.035V185.38C114.759 182.942 116.735 180.965 119.173 180.965H136.827C139.265 180.965 141.242 182.942 141.242 185.38V203.035ZM154.483 180.965H172.138C174.576 180.965 176.552 182.942 176.552 185.38V203.035C176.552 205.472 174.576 207.449 172.138 207.449H154.483C152.046 207.449 150.069 205.472 150.069 203.035V185.38C150.069 182.942 152.045 180.965 154.483 180.965Z" fill="#468CBE"/>
<g id="Group">
<path id="Vector_4" d="M114.758 22.069H141.241C143.679 22.069 145.655 20.0925 145.655 17.655C145.655 15.2175 143.679 13.241 141.241 13.241H114.758C112.321 13.241 110.344 15.2175 110.344 17.655C110.345 20.0925 112.321 22.069 114.758 22.069Z" fill="#464655"/>
<path id="Vector_5" d="M97.1035 22.069C99.5412 22.069 101.517 20.0928 101.517 17.655C101.517 15.2172 99.5412 13.241 97.1035 13.241C94.6657 13.241 92.6895 15.2172 92.6895 17.655C92.6895 20.0928 94.6657 22.069 97.1035 22.069Z" fill="#464655"/>
<path id="Vector_6" d="M128 247.173C132.875 247.173 136.827 243.22 136.827 238.345C136.827 233.47 132.875 229.518 128 229.518C123.125 229.518 119.172 233.47 119.172 238.345C119.172 243.22 123.125 247.173 128 247.173Z" fill="#464655"/>
</g>
<path id="Vector_7" d="M136.828 180.965H119.173C116.735 180.965 114.759 182.942 114.759 185.379V203.034C114.759 205.472 116.735 207.448 119.173 207.448H136.828C139.265 207.448 141.242 205.472 141.242 203.034V185.379C141.242 182.942 139.265 180.965 136.828 180.965ZM128 203.034C123.125 203.034 119.173 199.082 119.173 194.207C119.173 189.331 123.125 185.379 128 185.379C132.876 185.379 136.828 189.331 136.828 194.207C136.828 199.082 132.876 203.034 128 203.034Z" fill="#63AFDB"/>
<path id="Vector_8" d="M150.069 203.034C150.069 205.472 152.046 207.448 154.483 207.448H172.138C174.576 207.448 176.552 205.472 176.552 203.034V185.379C176.552 182.942 174.576 180.965 172.138 180.965H154.483C152.046 180.965 150.069 182.942 150.069 185.379V203.034Z" fill="#FF6469"/>
<path id="Vector_9" d="M101.517 180.965H83.862C81.4245 180.965 79.448 182.942 79.448 185.379V203.034C79.448 205.472 81.4245 207.448 83.862 207.448H101.517C103.954 207.448 105.931 205.472 105.931 203.034V185.379C105.931 182.942 103.955 180.965 101.517 180.965Z" fill="#00DCCD"/>
<path id="Vector_10" d="M119.173 150.069H136.828C139.265 150.069 141.242 148.092 141.242 145.655V128C141.242 125.562 139.265 123.586 136.828 123.586H119.173C116.735 123.586 114.759 125.562 114.759 128V145.655C114.759 148.092 116.735 150.069 119.173 150.069Z" fill="#FFDC69"/>
<path id="Vector_11" d="M154.483 150.069H172.138C174.576 150.069 176.552 148.092 176.552 145.655V128C176.552 125.562 174.576 123.586 172.138 123.586H154.483C152.046 123.586 150.069 125.562 150.069 128V145.655C150.069 148.092 152.045 150.069 154.483 150.069ZM154.483 136.827C154.483 134.39 156.46 132.413 158.897 132.413H167.725C170.162 132.413 172.139 134.39 172.139 136.827C172.139 139.265 170.162 141.242 167.725 141.242H158.897C156.459 141.242 154.483 139.265 154.483 136.827Z" fill="white"/>
<path id="Vector_12" d="M83.862 150.069H101.517C103.954 150.069 105.931 148.092 105.931 145.655V128C105.931 125.562 103.954 123.586 101.517 123.586H83.862C81.4245 123.586 79.448 125.562 79.448 128V145.655C79.4485 148.092 81.4245 150.069 83.862 150.069ZM83.862 136.827C83.862 134.39 85.8385 132.413 88.276 132.413H97.1035C99.541 132.413 101.518 134.39 101.518 136.827C101.518 139.265 99.541 141.242 97.1035 141.242H88.276C85.8385 141.242 83.862 139.265 83.862 136.827Z" fill="#468CBE"/>
<path id="Vector_13" d="M119.173 114.759H136.828C139.265 114.759 141.242 112.782 141.242 110.345V92.6895C141.242 90.252 139.265 88.2755 136.828 88.2755H119.173C116.735 88.2755 114.759 90.252 114.759 92.6895V110.345C114.759 112.783 116.735 114.759 119.173 114.759ZM119.173 101.517C119.173 99.0795 121.149 97.103 123.587 97.103H132.414C134.852 97.103 136.828 99.0795 136.828 101.517C136.828 103.955 134.852 105.931 132.414 105.931H123.587C121.149 105.931 119.173 103.955 119.173 101.517Z" fill="#464655"/>
<path id="Vector_14" d="M154.483 114.759H172.138C174.576 114.759 176.552 112.782 176.552 110.345V92.6895C176.552 90.252 174.576 88.2755 172.138 88.2755H154.483C152.046 88.2755 150.069 90.252 150.069 92.6895V110.345C150.069 112.783 152.045 114.759 154.483 114.759Z" fill="#FFA055"/>
<path id="Vector_15" d="M83.862 114.759H101.517C103.954 114.759 105.931 112.782 105.931 110.345V92.6895C105.931 90.252 103.954 88.2755 101.517 88.2755H83.862C81.4245 88.2755 79.448 90.252 79.448 92.6895V110.345C79.4485 112.783 81.4245 114.759 83.862 114.759ZM92.6895 92.6895C97.565 92.6895 101.517 96.6415 101.517 101.517C101.517 106.392 97.565 110.345 92.6895 110.345C87.814 110.345 83.862 106.392 83.862 101.517C83.862 96.6415 87.814 92.6895 92.6895 92.6895Z" fill="#A0D778"/>
<path id="Vector_16" d="M119.173 79.4485H136.828C139.265 79.4485 141.242 77.472 141.242 75.0345V57.3795C141.242 54.942 139.265 52.9655 136.828 52.9655H119.173C116.735 52.9655 114.759 54.942 114.759 57.3795V75.0345C114.759 77.472 116.735 79.4485 119.173 79.4485Z" fill="#FF6469"/>
<path id="Vector_17" d="M154.483 79.4485H172.138C174.576 79.4485 176.552 77.472 176.552 75.0345V57.3795C176.552 54.942 174.576 52.9655 172.138 52.9655H154.483C152.046 52.9655 150.069 54.942 150.069 57.3795V75.0345C150.069 77.472 152.045 79.4485 154.483 79.4485ZM163.311 57.3795C168.186 57.3795 172.138 61.3315 172.138 66.207C172.138 71.082 168.186 75.0345 163.311 75.0345C158.435 75.0345 154.483 71.082 154.483 66.207C154.483 61.3315 158.435 57.3795 163.311 57.3795Z" fill="#00DCCD"/>
<g id="Group_2">
<path id="Vector_18" d="M83.862 79.4485H101.517C103.954 79.4485 105.931 77.472 105.931 75.0345V57.3795C105.931 54.942 103.954 52.9655 101.517 52.9655H83.862C81.4245 52.9655 79.448 54.942 79.448 57.3795V75.0345C79.4485 77.472 81.4245 79.4485 83.862 79.4485Z" fill="#FFDC69"/>
<path id="Vector_19" d="M92.6895 110.344C97.5648 110.344 101.517 106.392 101.517 101.517C101.517 96.6417 97.5648 92.6895 92.6895 92.6895C87.8142 92.6895 83.862 96.6417 83.862 101.517C83.862 106.392 87.8142 110.344 92.6895 110.344Z" fill="#FFDC69"/>
<path id="Vector_20" d="M128 203.034C132.875 203.034 136.827 199.082 136.827 194.207C136.827 189.332 132.875 185.379 128 185.379C123.125 185.379 119.172 189.332 119.172 194.207C119.172 199.082 123.125 203.034 128 203.034Z" fill="#FFDC69"/>
</g>
<path id="Vector_21" d="M163.31 75.0345C168.186 75.0345 172.138 71.0823 172.138 66.207C172.138 61.3317 168.186 57.3795 163.31 57.3795C158.435 57.3795 154.483 61.3317 154.483 66.207C154.483 71.0823 158.435 75.0345 163.31 75.0345Z" fill="#FF6469"/>
<path id="Vector_22" d="M123.586 105.931H132.413C134.851 105.931 136.827 103.954 136.827 101.517C136.827 99.0795 134.851 97.103 132.413 97.103H123.586C121.148 97.103 119.172 99.0795 119.172 101.517C119.172 103.955 121.148 105.931 123.586 105.931Z" fill="#468CBE"/>
<path id="Vector_23" d="M158.897 141.241H167.724C170.162 141.241 172.138 139.265 172.138 136.827C172.138 134.39 170.162 132.413 167.724 132.413H158.897C156.459 132.413 154.483 134.39 154.483 136.827C154.483 139.265 156.459 141.241 158.897 141.241Z" fill="#FF6469"/>
<path id="Vector_24" d="M88.276 141.241H97.1035C99.541 141.241 101.518 139.265 101.518 136.827C101.518 134.39 99.541 132.413 97.1035 132.413H88.276C85.8385 132.413 83.862 134.39 83.862 136.827C83.862 139.265 85.8385 141.241 88.276 141.241Z" fill="white"/>
<path id="Vector_25" d="M110.345 172.138C112.783 172.138 114.759 170.162 114.759 167.724C114.759 165.286 112.783 163.31 110.345 163.31C107.907 163.31 105.931 165.286 105.931 167.724C105.931 170.162 107.907 172.138 110.345 172.138Z" fill="#464655"/>
<g id="Group_3">
<path id="Vector_26" d="M128 172.138C130.438 172.138 132.414 170.162 132.414 167.724C132.414 165.286 130.438 163.31 128 163.31C125.562 163.31 123.586 165.286 123.586 167.724C123.586 170.162 125.562 172.138 128 172.138Z" fill="white"/>
<path id="Vector_27" d="M145.655 172.138C148.093 172.138 150.069 170.162 150.069 167.724C150.069 165.286 148.093 163.31 145.655 163.31C143.217 163.31 141.241 165.286 141.241 167.724C141.241 170.162 143.217 172.138 145.655 172.138Z" fill="white"/>
</g>
</g>
</svg>
