<svg width="256" height="541" viewBox="0 0 256 541" fill="none" xmlns="http://www.w3.org/2000/svg">
<g id="Icon-Cloud_coins-256px">
<g id="Vector">
<path d="M52.6795 170.667H191.776C228.539 170.667 256 142.617 256 107.807C256 71.9842 226.746 45.7364 188.75 45.7364C174.739 17.9116 148.736 0 116.455 0C74.1996 0 39.4536 33.1195 35.8669 75.0257C15.4676 80.8836 0 98.6825 0 122.452C0 149.038 19.2785 170.667 52.6795 170.667ZM52.4553 152.53C29.4781 152.53 17.9334 139.688 17.9334 123.015C17.9334 109.384 25.7793 97.3307 44.8336 92.1487C51.1103 90.5716 53.352 87.6427 53.8004 81.2216C56.3783 44.4972 83.951 18.0242 116.455 18.0242C141.562 18.0242 161.401 31.8803 173.506 56.8889C176.196 62.2962 179.447 64.2112 186.06 64.2112C219.236 64.2112 237.954 84.3758 237.954 108.371C237.954 132.928 218.452 152.53 192.897 152.53H52.4553Z" fill="#595959"/>
<path d="M128 115.749C136.995 115.749 144.771 107.638 144.771 97.0772C144.771 86.6429 136.953 78.9122 128 78.9122C119.005 78.9122 111.145 86.8119 111.187 97.1617C111.187 107.638 118.963 115.749 128 115.749ZM79.5797 116.721C87.4396 116.721 94.2066 109.624 94.2066 100.457C94.2066 91.3743 87.3975 84.6574 79.5797 84.6574C71.8038 84.6574 64.9107 91.5432 64.9527 100.541C64.9527 109.624 71.7618 116.721 79.5797 116.721ZM176.378 116.721C184.238 116.721 191.047 109.624 191.047 100.541C191.047 91.5432 184.196 84.6574 176.378 84.6574C168.56 84.6574 161.751 91.3743 161.751 100.457C161.751 109.624 168.56 116.721 176.378 116.721ZM56.1681 154.867H88.0701C83.6988 148.488 89.0368 135.646 98.1156 128.634C93.4081 125.508 87.3975 123.184 79.5797 123.184C60.6235 123.184 48.7706 137.251 48.7706 148.953C48.7706 152.755 50.8301 154.867 56.1681 154.867ZM199.79 154.867C205.128 154.867 207.187 152.755 207.187 148.953C207.187 137.251 195.377 123.184 176.42 123.184C168.56 123.184 162.55 125.508 157.842 128.634C166.921 135.646 172.259 148.488 167.888 154.867H199.79ZM101.562 154.867H154.354C160.995 154.867 163.349 152.966 163.349 149.249C163.349 138.35 149.772 123.311 127.958 123.311C106.186 123.311 92.6095 138.35 92.6095 149.249C92.6095 152.966 94.9632 154.867 101.562 154.867Z" fill="#595959"/>
</g>
<g id="Group 62">
<path id="&#244;&#128;&#150;&#151;" d="M64 305.778C77.6157 305.778 88.8889 294.505 88.8889 280.889C88.8889 267.298 77.5913 256 63.9756 256C50.3843 256 39.1111 267.298 39.1111 280.889C39.1111 294.505 50.4087 305.778 64 305.778ZM64 301.63C52.4828 301.63 43.2836 292.406 43.2836 280.889C43.2836 269.396 52.4584 260.148 63.9756 260.148C75.4928 260.148 84.7163 269.396 84.7407 280.889C84.7651 292.406 75.5172 301.63 64 301.63ZM63.9756 294.846C64.6344 294.846 65.1468 294.358 65.1468 293.675V291.967C68.9045 291.601 71.8571 289.405 71.8571 285.72C71.8571 282.402 69.7098 280.401 65.464 279.644L65.1468 279.571V272.788C66.8793 273.081 68.0993 274.13 68.5873 275.789C68.8313 276.521 69.295 276.985 70.0758 276.985C70.9054 276.985 71.5154 276.375 71.5154 275.545C71.5154 275.277 71.4422 275.057 71.3934 274.789C70.759 272.129 68.2701 270.323 65.1468 269.982V268.298C65.1468 267.615 64.6344 267.127 63.9756 267.127C63.3167 267.127 62.8287 267.59 62.8287 268.298V269.982C59.1198 270.397 56.5089 272.69 56.5089 276.009C56.5089 279.108 58.583 280.962 62.6579 281.914L62.8287 281.963V289.185C60.6327 288.868 59.3394 287.672 58.949 286.037C58.6806 285.208 58.1682 284.817 57.4361 284.817C56.6065 284.817 56.0209 285.403 56.0209 286.257C56.0209 286.525 56.0697 286.745 56.1429 287.014C56.8261 289.82 59.559 291.601 62.8287 291.942V293.675C62.8287 294.383 63.3167 294.846 63.9756 294.846ZM62.8287 278.986L62.6579 278.937C60.4618 278.278 59.5102 277.326 59.5102 275.862C59.5102 274.374 60.7547 273.129 62.8287 272.788V278.986ZM65.1468 282.573L65.6592 282.695C68.0261 283.353 68.8557 284.354 68.8557 285.891C68.8557 287.624 67.6357 288.917 65.1468 289.185V282.573Z" fill="#595959"/>
<g id="Group 59">
<path id="Line 1 (Stroke)" fill-rule="evenodd" clip-rule="evenodd" d="M49.7779 231.111C50.7597 231.111 51.5557 231.907 51.5557 232.889V250.667C51.5557 251.648 50.7597 252.444 49.7779 252.444C48.796 252.444 48.0001 251.648 48.0001 250.667V232.889C48.0001 231.907 48.796 231.111 49.7779 231.111Z" fill="#595959"/>
<path id="Line 2 (Stroke)" fill-rule="evenodd" clip-rule="evenodd" d="M64.0001 220.444C64.9819 220.444 65.7778 221.24 65.7778 222.222V247.111C65.7778 248.093 64.9819 248.889 64.0001 248.889C63.0182 248.889 62.2223 248.093 62.2223 247.111V222.222C62.2223 221.24 63.0182 220.444 64.0001 220.444Z" fill="#595959"/>
<path id="Line 3 (Stroke)" fill-rule="evenodd" clip-rule="evenodd" d="M78.2222 231.111C79.2041 231.111 80 231.907 80 232.889V250.667C80 251.648 79.2041 252.444 78.2222 252.444C77.2404 252.444 76.4444 251.648 76.4444 250.667V232.889C76.4444 231.907 77.2404 231.111 78.2222 231.111Z" fill="#595959"/>
</g>
</g>
<g id="Group 63">
<path id="&#244;&#128;&#150;&#167;" d="M128 341.333C141.616 341.333 152.889 330.06 152.889 316.444C152.889 302.853 141.591 291.556 127.976 291.556C114.384 291.556 103.111 302.853 103.111 316.444C103.111 330.06 114.409 341.333 128 341.333ZM128 337.185C116.483 337.185 107.284 327.962 107.284 316.444C107.284 304.952 116.458 295.704 127.976 295.704C139.493 295.704 148.716 304.952 148.741 316.444C148.765 327.962 139.517 337.185 128 337.185ZM131.562 328.206C132.734 328.206 133.612 328.084 134.222 327.84C134.93 327.547 135.247 327.083 135.247 326.473C135.247 325.619 134.637 325.131 133.807 325.131C133.271 325.131 132.539 325.278 131.514 325.278C127.951 325.278 125.023 323.472 123.925 319.885H131.514C132.221 319.885 132.709 319.348 132.709 318.689C132.709 317.982 132.221 317.469 131.514 317.469H123.486C123.437 317.152 123.437 316.835 123.437 316.469C123.437 316.103 123.437 315.761 123.461 315.42H131.514C132.221 315.42 132.709 314.883 132.709 314.2C132.709 313.492 132.221 313.004 131.514 313.004H123.974C125.072 309.49 128 307.709 131.514 307.709C132.539 307.709 133.271 307.831 133.807 307.831C134.637 307.831 135.247 307.343 135.247 306.489C135.247 305.903 135.027 305.391 134.173 305.049C133.588 304.83 132.758 304.732 131.562 304.732C126.438 304.732 121.924 307.489 120.607 313.004H117.849C117.19 313.004 116.654 313.492 116.654 314.2C116.654 314.883 117.19 315.42 117.849 315.42H120.265C120.216 315.761 120.216 316.054 120.216 316.444C120.216 316.884 120.265 317.25 120.265 317.469H117.849C117.19 317.469 116.654 317.982 116.654 318.689C116.654 319.348 117.19 319.885 117.849 319.885H120.582C121.9 325.448 126.39 328.206 131.562 328.206Z" fill="#595959"/>
<g id="Group 60">
<path id="Line 1 (Stroke)_2" fill-rule="evenodd" clip-rule="evenodd" d="M113.778 266.667C114.76 266.667 115.556 267.463 115.556 268.444V286.222C115.556 287.204 114.76 288 113.778 288C112.796 288 112 287.204 112 286.222V268.444C112 267.463 112.796 266.667 113.778 266.667Z" fill="#595959"/>
<path id="Line 2 (Stroke)_2" fill-rule="evenodd" clip-rule="evenodd" d="M128 256C128.982 256 129.778 256.796 129.778 257.778V282.667C129.778 283.649 128.982 284.444 128 284.444C127.018 284.444 126.222 283.649 126.222 282.667V257.778C126.222 256.796 127.018 256 128 256Z" fill="#595959"/>
<path id="Line 3 (Stroke)_2" fill-rule="evenodd" clip-rule="evenodd" d="M142.222 266.667C143.204 266.667 144 267.463 144 268.444V286.222C144 287.204 143.204 288 142.222 288C141.24 288 140.444 287.204 140.444 286.222V268.444C140.444 267.463 141.24 266.667 142.222 266.667Z" fill="#595959"/>
</g>
</g>
<g id="Group 64">
<path id="&#244;&#128;&#151;&#149;" d="M192 284.444C205.616 284.444 216.889 273.171 216.889 259.556C216.889 245.964 205.591 234.667 191.976 234.667C178.384 234.667 167.111 245.964 167.111 259.556C167.111 273.171 178.409 284.444 192 284.444ZM192 280.296C180.483 280.296 171.284 271.073 171.284 259.556C171.284 248.063 180.458 238.815 191.976 238.815C203.493 238.815 212.716 248.063 212.741 259.556C212.765 271.073 203.517 280.296 192 280.296ZM185.095 269.365C185.095 270.512 185.875 271.268 187.022 271.268H188.047V273.22C188.047 273.903 188.559 274.416 189.218 274.416C189.901 274.416 190.414 273.903 190.414 273.22V271.268H191.976V273.22C191.976 273.903 192.488 274.416 193.171 274.416C193.83 274.416 194.342 273.903 194.342 273.22V271.195C198.393 270.78 200.784 268.437 200.784 264.826C200.784 262.093 199.149 260.044 196.612 259.263C198.417 258.409 199.686 256.457 199.686 254.383C199.686 251.357 197.612 249.185 194.342 248.673V246.721C194.342 246.013 193.83 245.525 193.171 245.525C192.488 245.525 191.976 246.013 191.976 246.721V248.575H190.414V246.721C190.414 246.013 189.901 245.525 189.218 245.525C188.559 245.525 188.047 246.013 188.047 246.721V248.575H187.022C185.9 248.575 185.095 249.38 185.095 250.503V269.365ZM188.242 258.165V251.406H192.415C195.026 251.406 196.539 252.577 196.539 254.651C196.539 256.92 194.83 258.213 191.707 258.189L188.242 258.165ZM188.242 268.437V260.995H192.342C195.831 260.995 197.661 262.264 197.661 264.704C197.661 267.12 195.904 268.389 192.634 268.413L188.242 268.437Z" fill="#595959"/>
<g id="Group 61">
<path id="Line 1 (Stroke)_3" fill-rule="evenodd" clip-rule="evenodd" d="M177.778 209.778C178.76 209.778 179.556 210.574 179.556 211.556V229.333C179.556 230.315 178.76 231.111 177.778 231.111C176.796 231.111 176 230.315 176 229.333V211.556C176 210.574 176.796 209.778 177.778 209.778Z" fill="#595959"/>
<path id="Line 2 (Stroke)_3" fill-rule="evenodd" clip-rule="evenodd" d="M192 199.111C192.982 199.111 193.778 199.907 193.778 200.889V225.778C193.778 226.76 192.982 227.556 192 227.556C191.018 227.556 190.222 226.76 190.222 225.778V200.889C190.222 199.907 191.018 199.111 192 199.111Z" fill="#595959"/>
<path id="Line 3 (Stroke)_3" fill-rule="evenodd" clip-rule="evenodd" d="M206.222 209.778C207.204 209.778 208 210.574 208 211.556V229.333C208 230.315 207.204 231.111 206.222 231.111C205.24 231.111 204.444 230.315 204.444 229.333V211.556C204.444 210.574 205.24 209.778 206.222 209.778Z" fill="#595959"/>
</g>
</g>
<path id="creditcard" d="M46.7597 540.444H209.24C230.897 540.444 241.778 529.993 241.778 509.091V401.232C241.778 380.33 230.897 369.778 209.24 369.778H46.7597C24.9989 369.778 14.2222 380.33 14.2222 401.232V509.091C14.2222 529.993 24.9989 540.444 46.7597 540.444ZM30.9054 402.146C30.9054 391.593 36.6047 386.114 46.967 386.114H209.033C219.188 386.114 225.094 391.593 225.094 402.146V410.669H30.9054V402.146ZM46.967 524.108C36.6047 524.108 30.9054 518.731 30.9054 508.178V433.702H225.094V508.178C225.094 518.731 219.188 524.108 209.033 524.108H46.967ZM58.9872 494.074H84.3748C90.4885 494.074 94.5298 490.117 94.5298 484.334V465.562C94.5298 459.88 90.4885 455.821 84.3748 455.821H58.9872C52.8735 455.821 48.8322 459.88 48.8322 465.562V484.334C48.8322 490.117 52.8735 494.074 58.9872 494.074Z" fill="#595959"/>
</g>
</svg>
