<svg width="256" height="256" viewBox="0 0 256 256" fill="none" xmlns="http://www.w3.org/2000/svg">
<g id="Icon-Funding-Ethereum-256px" clip-path="url(#clip0_2658_223)">
<g id="Hand">
<path id="Vector" d="M178.407 212.685L215.866 194.992C224.126 190.821 234.203 193.879 238.753 201.933L162.613 251.186C152.404 255.897 140.948 257.193 129.945 254.884L77.432 240.145C72.6003 238.79 67.4289 239.355 63.0037 241.725L52.023 247.601L53.5009 194.042L53.9386 194.052C69.63 182.903 90.2386 181.46 107.331 190.317L110.474 191.945C115.389 194.49 120.815 195.893 126.349 196.043L157.219 196.895C166.905 197.16 175.385 203.478 178.407 212.685V212.685Z" fill="#FFE5C1"/>
<path id="Vector_2" d="M179.539 224.745H179.423L128.682 223.347C126.324 223.282 124.467 221.318 124.532 218.963C124.596 216.606 126.56 214.748 128.915 214.813L174.902 216.08C174.76 215.384 174.576 214.698 174.353 214.023C171.885 206.532 164.988 201.389 157.103 201.164L126.231 200.31C120.057 200.135 113.999 198.569 108.511 195.734L105.37 194.109C89.7055 185.944 70.7853 187.268 56.4112 197.533C54.4893 198.899 51.8234 198.446 50.4581 196.524C49.0928 194.603 49.5451 191.937 51.467 190.571C68.4445 178.448 90.7935 176.885 109.295 186.528L112.438 188.153C116.782 190.398 121.576 191.634 126.464 191.776L157.336 192.629C164.557 192.823 171.404 195.878 176.369 201.125C181.334 206.369 184.01 213.375 183.806 220.593C183.744 222.907 181.851 224.747 179.537 224.745H179.539Z" fill="#FED1A3"/>
<path id="Vector_3" d="M52.0232 247.601L51.8565 253.629L18.0098 252.701L20.0546 178.417L53.9055 179.347L53.5011 194.042L52.0232 247.601Z" fill="#62688F"/>
</g>
<g id="Coin-Ethereum">
<g id="Ellipse">
<circle cx="128" cy="128" r="50" fill="#8A92B2"/>
<circle cx="128" cy="128" r="49.875" stroke="black" stroke-opacity="0.25" stroke-width="0.25"/>
</g>
<g id="Ellipse_2">
<circle cx="128" cy="128" r="46" fill="#969FC2"/>
<circle cx="128" cy="128" r="45.875" stroke="black" stroke-opacity="0.25" stroke-width="0.25"/>
</g>
<g id="Ellipse_3">
<circle cx="128" cy="128" r="34" fill="#DBDBFF"/>
<circle cx="128" cy="128" r="33.875" stroke="black" stroke-opacity="0.25" stroke-width="0.25"/>
</g>
<g id="Logo-Ethereum-Purple">
<path id="Vector_4" d="M127.997 102.003L127.648 103.188V137.571L127.997 137.919L143.945 128.485L127.997 102.003Z" fill="#62688F"/>
<path id="Vector_5" d="M127.993 102.003L112.045 128.485L127.993 137.919V121.23V102.003Z" fill="#8A92B2"/>
<path id="Vector_6" d="M127.997 140.936L127.801 141.175V153.423L127.997 153.997L143.954 131.506L127.997 140.936Z" fill="#62688F"/>
<path id="Vector_7" d="M127.993 153.997V140.936L112.045 131.506L127.993 153.997Z" fill="#8A92B2"/>
<path id="Vector_8" d="M128.003 137.925L143.951 128.491L128.003 121.236V137.925Z" fill="#454A75"/>
<path id="Vector_9" d="M112.045 128.491L127.993 137.925V121.236L112.045 128.491Z" fill="#62688F"/>
</g>
</g>
<g id="Motion Lines">
<path id="Line 1 (Stroke)" fill-rule="evenodd" clip-rule="evenodd" d="M98 23C99.1046 23 100 23.8954 100 25L100 66C100 67.1046 99.1046 68 98 68C96.8954 68 96 67.1046 96 66L96 25C96 23.8954 96.8954 23 98 23Z" fill="#8A92B2" stroke="black" stroke-opacity="0.25" stroke-width="0.25" stroke-linecap="round"/>
<path id="Line 2 (Stroke)" fill-rule="evenodd" clip-rule="evenodd" d="M128 -8.74228e-08C129.105 -3.91405e-08 130 0.895431 130 2L130 58C130 59.1046 129.105 60 128 60C126.895 60 126 59.1046 126 58L126 2C126 0.89543 126.895 -1.35705e-07 128 -8.74228e-08Z" fill="#8A92B2" stroke="black" stroke-opacity="0.25" stroke-width="0.25" stroke-linecap="round"/>
<path id="Line 3 (Stroke)" fill-rule="evenodd" clip-rule="evenodd" d="M158 23C159.105 23 160 23.8954 160 25L160 66C160 67.1046 159.105 68 158 68C156.895 68 156 67.1046 156 66L156 25C156 23.8954 156.895 23 158 23Z" fill="#8A92B2" stroke="black" stroke-opacity="0.25" stroke-width="0.25" stroke-linecap="round"/>
</g>
</g>
<defs>
<clipPath id="clip0_2658_223">
<rect width="256" height="256" fill="white"/>
</clipPath>
</defs>
</svg>
