<svg width="256" height="256" viewBox="0 0 256 256" fill="none" xmlns="http://www.w3.org/2000/svg">
<path d="M119.997 189.18C123.142 174.695 125.057 160.593 126.218 149.046H129.782C130.944 160.593 132.86 174.695 136.004 189.18H119.997ZM128.001 121.492C128.001 121.492 128.117 130.668 129.35 144.489H126.65C127.884 130.668 128.001 121.492 128.001 121.492ZM191.35 252.746H188.529C188.529 250.121 186.403 247.995 183.778 247.995H181.175C174.969 240.341 165.825 226.606 157.118 204.367H166.184V200.896H167.594V196.991H171.391V189.18H151.713C147.991 177.658 144.503 164.345 141.537 149.046H148.177V146.659H151.648V144.489H140.681C135.659 116.946 132.339 83.2098 132.339 42.0879L134.184 40.4617H134.617V37.9665H134.292V34.604H134.617V30.4875H134.935V27.8224H134.532L134.075 24.6249C134.075 24.6249 132.773 19.3093 131.038 19.3093L129.106 7.03084V1.52588e-05H126.896V7.02922L124.964 19.3093C123.227 19.3093 121.926 24.6249 121.926 24.6249L121.468 27.8224H120.93V30.4875H121.384V34.604H121.709V37.9665H121.384V40.4617H121.818L123.661 42.0879C123.661 83.2098 120.342 116.946 115.321 144.489H104.353V146.659H107.824V149.046H114.465C111.497 164.345 108.009 177.658 104.289 189.18H84.6103V196.991H88.4081V200.896H89.8175V204.367H98.8839C90.1767 226.606 81.0326 240.341 74.827 247.995H72.2234C69.5988 247.995 67.4725 250.121 67.4725 252.746H64.6505C62.8543 252.746 61.3964 254.204 61.3964 256H67.2541H90.6848H103.051C103.051 254.204 101.594 252.746 99.7966 252.746H100.261C100.261 250.62 98.8548 248.84 96.9276 248.235C100.845 242.671 104.248 236.38 107.242 229.683L107.253 229.723C107.253 229.723 107.361 229.445 107.565 228.969C107.759 228.53 107.965 228.106 108.154 227.666C110.525 222.619 117.497 210.008 128.001 210.008C138.503 210.008 145.475 222.616 147.846 227.665C148.037 228.108 148.244 228.534 148.438 228.972C148.64 229.446 148.749 229.723 148.749 229.723L148.76 229.683C151.754 236.38 155.156 242.671 159.074 248.235C157.147 248.84 155.739 250.62 155.739 252.746H156.203C154.407 252.746 152.949 254.204 152.949 256H165.315H188.746H194.604C194.604 254.204 193.147 252.746 191.35 252.746Z" fill="#CCA352"/>
</svg>
