<svg width="256" height="256" viewBox="0 0 256 256" fill="none" xmlns="http://www.w3.org/2000/svg">
<g id="Icon-Funding-256px">
<g id="Hand">
<path id="Vector" d="M178.407 212.685L215.866 194.992C224.127 190.821 234.203 193.879 238.753 201.933L162.614 251.186C152.404 255.897 140.948 257.193 129.945 254.884L77.4322 240.145C72.6006 238.79 67.4291 239.355 63.0039 241.725L52.0233 247.601L53.5011 194.042L53.9388 194.052C69.6303 182.903 90.2388 181.46 107.331 190.317L110.474 191.945C115.389 194.49 120.815 195.893 126.349 196.043L157.219 196.895C166.906 197.16 175.385 203.478 178.407 212.685Z" fill="#FFE5C1"/>
<path id="Vector_2" d="M179.539 224.745H179.422L128.682 223.347C126.324 223.282 124.467 221.318 124.532 218.963C124.596 216.606 126.56 214.748 128.915 214.813L174.901 216.08C174.76 215.384 174.576 214.698 174.353 214.023C171.885 206.532 164.988 201.389 157.103 201.164L126.23 200.31C120.056 200.135 113.999 198.569 108.511 195.734L105.37 194.109C89.7052 185.944 70.785 187.268 56.4109 197.533C54.4891 198.899 51.8231 198.446 50.4579 196.524C49.0926 194.603 49.5449 191.937 51.4667 190.571C68.4442 178.448 90.7933 176.885 109.295 186.528L112.438 188.153C116.782 190.398 121.576 191.634 126.464 191.776L157.336 192.629C164.556 192.823 171.404 195.878 176.369 201.125C181.334 206.369 184.01 213.375 183.806 220.593C183.743 222.907 181.851 224.747 179.537 224.745H179.539Z" fill="#FED1A3"/>
<path id="Vector_3" d="M52.0232 247.601L51.8565 253.629L18.0098 252.701L20.0546 178.417L53.9055 179.347L53.5011 194.042L52.0232 247.601Z" fill="#62688F"/>
</g>
<g id="falling_ether">
<circle id="Ellipse 17" cx="130.5" cy="127.5" r="52.5" fill="#8A92B2"/>
<g id="&#244;&#128;&#150;&#151;">
<path d="M130.5 180C159.221 180 183 156.221 183 127.5C183 98.8311 159.169 75.0002 130.449 75.0002C101.779 75.0002 78 98.8311 78 127.5C78 156.221 101.831 180 130.5 180ZM130.5 171.25C106.206 171.25 86.8015 151.794 86.8015 127.5C86.8015 103.258 106.154 83.7502 130.449 83.7502C154.743 83.7502 174.199 103.258 174.25 127.5C174.301 151.794 154.794 171.25 130.5 171.25Z" fill="#454A75"/>
<path fill-rule="evenodd" clip-rule="evenodd" d="M130.548 94.7581C131.339 94.7585 132.072 95.1742 132.478 95.8528L149.587 124.447C149.896 124.962 149.985 125.58 149.835 126.162C149.686 126.744 149.309 127.242 148.79 127.545L131.681 137.529C130.981 137.938 130.116 137.938 129.415 137.531L112.259 127.546C111.739 127.244 111.361 126.745 111.212 126.162C111.062 125.579 111.152 124.96 111.461 124.444L128.618 95.8504C129.024 95.1723 129.757 94.7576 130.548 94.7581ZM118.301 125.856L128.297 131.673V121.35L118.301 125.856ZM128.297 116.414L119.017 120.597L128.297 105.131V116.414ZM132.797 105.15V116.415L142.037 120.592L132.797 105.15ZM142.756 125.856L132.797 121.354V131.668L142.756 125.856ZM111.639 132.143C112.356 131.362 113.521 131.187 114.436 131.724L130.544 141.179L146.56 131.727C147.473 131.188 148.638 131.359 149.357 132.139C150.076 132.919 150.153 134.094 149.542 134.961L132.386 159.289C131.965 159.886 131.28 160.241 130.55 160.242C129.819 160.243 129.134 159.89 128.711 159.294L111.461 134.966C110.848 134.101 110.922 132.925 111.639 132.143ZM128.297 145.078L121.19 140.906L128.297 150.929V145.078ZM132.797 150.898V145.074L139.831 140.923L132.797 150.898Z" fill="#454A75"/>
</g>
<g id="Group 59">
<path id="Line 1 (Stroke)" fill-rule="evenodd" clip-rule="evenodd" d="M100.5 22.5005C102.571 22.5005 104.25 24.1794 104.25 26.2505V63.7505C104.25 65.8216 102.571 67.5005 100.5 67.5005C98.4289 67.5005 96.7499 65.8216 96.7499 63.7505V26.2505C96.7499 24.1794 98.4289 22.5005 100.5 22.5005Z" fill="#454A75"/>
<path id="Line 2 (Stroke)" fill-rule="evenodd" clip-rule="evenodd" d="M130.5 0C132.571 0 134.25 1.67893 134.25 3.75V56.25C134.25 58.3211 132.571 60 130.5 60C128.429 60 126.75 58.3211 126.75 56.25V3.75C126.75 1.67893 128.429 0 130.5 0Z" fill="#454A75"/>
<path id="Line 3 (Stroke)" fill-rule="evenodd" clip-rule="evenodd" d="M160.5 22.5005C162.571 22.5005 164.25 24.1794 164.25 26.2505V63.7505C164.25 65.8216 162.571 67.5005 160.5 67.5005C158.429 67.5005 156.75 65.8216 156.75 63.7505V26.2505C156.75 24.1794 158.429 22.5005 160.5 22.5005Z" fill="#454A75"/>
</g>
</g>
</g>
</svg>
