<svg width="256" height="256" viewBox="0 0 256 256" fill="none" xmlns="http://www.w3.org/2000/svg">
<path d="M205.203 255.996H76.0688C57.4619 255.996 42.3784 240.912 42.3784 222.307V38.8499C42.3784 20.243 57.4619 5.15958 76.0688 5.15958H205.203C223.809 5.15958 238.892 20.243 238.892 38.8499V222.307C238.892 240.912 223.809 255.996 205.203 255.996Z" fill="#51F2D3"/>
<path d="M174.922 255.996H58.558C39.9511 255.996 24.8676 240.912 24.8676 222.307V38.8499C24.8676 20.243 39.9511 5.15958 58.558 5.15958H174.922C193.529 5.15958 208.612 20.243 208.612 38.8499V222.307C208.612 240.912 193.529 255.996 174.922 255.996Z" fill="#8EE8D7"/>
<path d="M200.745 43.7793V217.386C200.745 223.046 199.527 228.407 197.338 233.244C191.294 246.656 177.808 256 162.133 256H55.6163C34.2918 256 17.0041 238.711 17.0041 217.386V43.7793C17.0041 22.4436 34.2918 5.15582 55.6163 5.15582H162.133C183.457 5.15582 200.745 22.4436 200.745 43.7793Z" fill="#3CAF99"/>
<path d="M162.133 256H55.616C34.2914 256 17.0037 238.711 17.0037 217.386V193.176H44.5843C60.7056 193.548 82.6189 193.781 106.847 193.794C129.615 215.462 164.754 226.319 188.463 231.467C185.691 236.902 179.179 245.354 164.475 248.393C161.945 249.027 157.687 249.131 154.865 249.131C154.354 249.131 153.89 249.128 153.492 249.123C137.917 249.102 124.841 249.096 113.846 249.096C105.179 249.096 97.8048 249.1 91.5209 249.104C85.2248 249.108 80.0252 249.112 75.7107 249.112C55.0532 249.112 54.7477 249.02 52.263 248.397C40.4562 245.956 30.7223 239.129 26.6435 227.495L26.2168 226.187C25.2283 221.862 25.4491 221.951 24.8678 199.6C24.5873 210.395 24.5045 213.587 24.484 214.399C24.483 214.406 24.4821 214.464 24.4802 214.521C24.4784 214.583 24.4774 214.645 24.4774 214.645C24.4774 214.645 24.4784 214.583 24.484 214.399C24.484 214.398 24.484 214.397 24.484 214.397C24.484 214.398 24.4821 214.457 24.4774 214.635C24.4774 214.627 24.4774 214.624 24.4774 214.624C24.4774 214.624 24.4774 214.629 24.4774 214.64C24.4774 214.638 24.4774 214.637 24.4774 214.635C24.4718 214.901 24.3544 220.211 24.3535 220.281C24.5175 222.135 24.1914 222.304 24.9526 226.49C25.1268 226.754 28.3745 245.358 51.786 250.74C56.2719 251.959 56.9855 251.692 108.369 251.904C111.097 251.893 154.535 251.817 157.271 251.661C157.217 251.664 157.324 251.672 157.571 251.672C159.682 251.672 172.03 251.101 182.145 242.322C185.627 239.218 188.284 235.723 190.02 231.8C192.622 232.35 195.071 232.829 197.338 233.244C191.365 246.499 178.124 255.78 162.683 255.996C162.501 255.998 162.316 256 162.133 256ZM95.5083 201.881C92.2196 203.672 89.9892 207.159 89.9892 211.167C89.9892 217.002 94.7192 221.733 100.556 221.733C102.836 221.733 104.947 221.011 106.674 219.783C109.96 217.991 112.19 214.506 112.19 210.5C112.19 204.663 107.459 199.933 101.624 199.933C99.3449 199.933 97.2337 200.654 95.5083 201.881ZM93.1951 176.637L17 176.514L17.0037 43.7793C17.0037 33.0569 21.3704 23.3556 28.4211 16.3589C26.9286 19.6588 26.1013 23.3612 26.1013 27.3673V40.3741H107.514C92.7255 83.2142 76.4403 145.519 93.1951 176.637Z" fill="#2A9A81"/>
<path d="M218.342 5.89839C218.342 5.89839 218.154 5.90676 217.804 5.92446C213.673 6.13408 187.003 7.66015 183.472 12.2159C179.642 17.1574 180.755 39.3912 180.755 39.3912L178.284 40.376L173.961 26.4208L175.443 9.12842L181.619 4.18694C181.619 4.18694 185.572 4.43476 186.436 4.18694C187.301 3.94005 218.342 5.89839 218.342 5.89839Z" fill="#70F2D9"/>
<path d="M218.344 5.89656C218.344 5.89656 199.645 6.27479 187.712 7.92754C182.303 8.67659 178.285 13.3227 178.285 18.785V40.3741H26.1013V27.3674C26.1013 11.3886 39.2712 0.233959 55.2573 0.233959C55.2573 0.233959 63.2397 0.190201 75.3493 0.145481C106.025 0.0197067 163.167 -0.14336 183.918 0.233959C195.377 0.438923 216.746 4.81957 218.344 5.89656Z" fill="#1E8470"/>
<path d="M178.285 40.3741H26.1013V27.3674C26.1013 11.3886 39.2712 0.233959 55.2573 0.233959C55.2573 0.233959 63.2397 0.190201 75.3493 0.145481C68.3824 3.54694 60.5566 8.23871 60.6889 12.0929C60.9339 19.0077 114.051 22.7128 123.442 25.1882C132.824 27.6571 178.285 30.3766 178.285 30.3766V40.3741Z" fill="#1A7A66"/>
<path d="M138.262 9.62219C116.159 9.62219 98.2406 8.62722 98.2406 7.39838C98.2406 6.17139 116.159 5.17543 138.262 5.17543C160.366 5.17543 178.283 6.17139 178.283 7.39838C178.283 8.62722 160.366 9.62219 138.262 9.62219Z" fill="#2E9B86"/>
<path d="M178.283 40.376H24.8676V33.5852H178.283V40.376Z" fill="#207262"/>
<path d="M178.284 40.376H32.5278V53.3492H179.519V39.8841L178.284 40.376Z" fill="#073A30"/>
<path d="M17 176.514V193.176H44.5843C61.1537 193.558 83.8413 193.794 108.872 193.794C133.903 193.794 156.59 193.558 173.16 193.176H200.744V176.812L17 176.514Z" fill="#208471"/>
<path d="M17 176.514L108.872 176.366L200.744 176.514V176.812C136.366 180.32 70.6212 179.929 17 176.812V176.514Z" fill="#106857"/>
<path d="M113.064 192.435C111.087 192.436 109.579 180.769 114.793 180.453C114.793 180.453 136.065 180.22 153.45 180.22C163.475 180.22 172.204 180.298 174.824 180.542C181.989 181.208 183.71 187.744 174.824 189.88C165.937 192.016 115.04 192.433 113.064 192.435Z" fill="#2F9B86"/>
<path d="M24.8688 199.6C25.4501 221.951 25.2293 221.863 26.2178 226.187L26.6445 227.495C30.7233 239.129 40.4572 245.956 52.264 248.397C55.2676 249.151 55.0822 249.127 91.5219 249.104C105.778 249.095 125.641 249.086 153.493 249.124C156.088 249.151 161.488 249.141 164.476 248.393C186.688 243.802 190.206 226.862 190.377 226.622L190.519 226.186C190.846 224.758 191.434 222.162 191.396 218.4C191.387 218.634 191.46 215.333 191.871 199.6C192.206 212.423 192.163 210.712 192.118 209C192.071 207.289 192.024 205.577 192.348 218.4C192.858 228.165 189.187 236.045 182.146 242.322C170.817 252.155 156.687 251.691 157.276 251.66C154.579 251.817 111.099 251.893 108.37 251.904C56.9865 251.692 56.2729 251.959 51.787 250.74C28.3755 245.358 25.1278 226.754 24.9536 226.49C24.1924 222.304 24.5185 222.135 24.3545 220.281C24.3554 220.207 24.4868 214.271 24.4784 214.64C24.4877 214.275 24.485 214.398 24.4812 214.521C24.471 214.916 24.4607 215.311 24.8688 199.6Z" fill="#135145"/>
<path d="M111.122 211.167C111.122 217.002 106.391 221.733 100.556 221.733C94.7195 221.733 89.9895 217.002 89.9895 211.167C89.9895 205.331 94.7195 200.6 100.556 200.6C106.391 200.6 111.122 205.331 111.122 211.167Z" fill="#3C393F"/>
<path d="M112.189 210.5C112.189 216.335 107.458 221.066 101.623 221.066C95.7876 221.066 91.0567 216.335 91.0567 210.5C91.0567 204.663 95.7876 199.933 101.623 199.933C107.458 199.933 112.189 204.663 112.189 210.5Z" fill="#8E8993"/>
<path d="M105.901 217.509C104.289 217.509 102.768 216.535 102.575 215.645C102.227 214.042 93.017 211.24 95.0191 204.833C95.1113 204.539 97.6212 202.405 100.99 202.405C102.244 202.405 103.618 202.701 105.031 203.498C110.236 206.434 111.037 211.106 109.302 215.111C108.532 216.888 107.188 217.509 105.901 217.509Z" fill="#9C97A0"/>
<path d="M102.761 217.112H100.557V204.165H102.761V217.112Z" fill="#3C393F"/>
<path d="M158.281 156.459L125.488 117.819L159.602 86.2467V153.122C159.602 154.412 159.093 155.578 158.281 156.459ZM62.6756 157.695L96.1098 118.797L110.121 132.04L123.919 119.271L156.524 157.69C155.949 157.925 155.322 158.06 154.663 158.06C59.1866 157.921 64.3955 158.392 62.6756 157.695ZM59.5816 84.2707L94.5567 117.328L60.913 156.471C60.094 155.588 59.5816 154.418 59.5816 153.122V84.2707ZM64.5203 78.8644H154.663C157.239 78.8644 159.337 80.8563 159.559 83.3764L110.137 129.116L60.0363 81.7618C60.8161 80.0578 62.5275 78.8644 64.5203 78.8644ZM154.663 76.729H64.5203C60.6195 76.729 57.4463 79.9022 57.4463 83.804V153.122C57.4463 157.022 60.6195 160.197 64.5203 160.197H154.663C158.563 160.197 161.738 157.022 161.738 153.122V83.804C161.738 79.9022 158.563 76.729 154.663 76.729Z" fill="#207262"/>
</svg>
