<svg width="256" height="256" viewBox="0 0 256 256" fill="none" xmlns="http://www.w3.org/2000/svg">
<g id="Icon-Donate_to_one_person-256px">
<g clip-path="url(#clip0)">
<g id="Group">
<path id="Vector" fill-rule="evenodd" clip-rule="evenodd" d="M107.573 204.614V194.623C107.573 194.584 107.572 194.544 107.571 194.505C107.389 186.77 107.201 178.771 104.98 170.438C99.9157 151.491 88.9377 141.03 68.2755 135.457L67.94 135.366L67.9162 135.36C67.3396 135.204 66.6424 135.017 66.3865 134.908C66.291 134.807 66.027 134.492 65.485 133.61L52.4629 112.491C49.9669 108.432 46.0503 105.765 41.7408 104.736L38.6183 64.458C37.8823 55.061 30.6377 47.9604 21.7561 47.9414C12.7521 47.9414 5.48301 55.047 4.84751 64.471L0.0569727 135.757C0.0534727 135.808 0.0509727 135.859 0.0489726 135.91C-0.642033 154.761 5.98752 160.77 16.0226 169.864L16.2151 170.039C17.4781 171.184 18.9653 172.455 20.5399 173.802L20.5531 173.813C29.2342 181.234 42.3533 192.45 42.3533 203.259V204.614C37.3098 206.243 33.6507 210.978 33.6507 216.554V234.704C33.6507 241.622 39.2828 247.251 46.2048 247.251H103.721C110.643 247.251 116.275 241.622 116.275 234.704V216.554C116.275 210.978 112.616 206.243 107.573 204.614ZM43.6513 234.704C43.6513 236.085 44.8208 237.251 46.2053 237.251H103.721C105.129 237.251 106.275 236.109 106.275 234.704V216.554C106.275 215.173 105.106 214.007 103.721 214.007H46.2053C44.8208 214.007 43.6513 215.173 43.6513 216.554V234.704ZM52.3534 204.007H97.5727H97.5747V194.682C97.4067 187.55 97.2282 180.177 95.3197 173.018C91.8777 160.14 85.5181 150.465 65.669 145.112L65.341 145.023C61.5249 143.995 59.5799 143.101 56.9699 138.852L43.9488 117.735C41.8368 114.3 37.3223 113.228 33.8827 115.337C30.4557 117.448 29.3782 121.96 31.4872 125.39L52.5889 159.634C54.0374 161.985 53.3059 165.066 50.9549 166.514C48.6039 167.963 45.5233 167.231 44.0748 164.88L22.9706 130.632C17.9736 122.504 20.5196 111.823 28.6447 106.818C29.6482 106.202 30.6902 105.702 31.7557 105.312L28.6487 65.2355C28.3652 61.62 25.9027 57.951 21.7456 57.942C18.0821 57.942 15.1026 61.0375 14.8256 65.143L10.0401 136.351C9.53605 150.488 13.4076 153.998 22.7381 162.454L22.9316 162.63C24.078 163.669 25.4979 164.883 27.002 166.169L27.0517 166.212C37.1273 174.826 52.3534 187.844 52.3534 203.259V204.007Z" fill="#EEEEEE"/>
<path id="Vector_2" d="M255.951 135.91C255.949 135.859 255.946 135.808 255.943 135.757L251.152 64.4704C250.516 55.0473 243.246 47.9418 234.232 47.9418C225.362 47.9608 218.118 55.0613 217.381 64.4624L214.259 104.736C209.95 105.764 206.035 108.429 203.54 112.486L190.51 133.618C189.972 134.493 189.709 134.807 189.613 134.908C189.353 135.018 188.641 135.21 188.06 135.366L187.729 135.456C167.062 141.03 156.084 151.492 151.02 170.441C148.798 178.773 148.61 186.771 148.428 194.505C148.427 194.545 148.427 194.584 148.427 194.623V204.614C143.384 206.243 139.725 210.979 139.725 216.554V234.704C139.725 241.622 145.357 247.251 152.279 247.251H209.794C216.717 247.251 222.348 241.622 222.348 234.704V216.554C222.348 210.979 218.689 206.243 213.646 204.614V203.259C213.646 192.45 226.765 181.234 235.447 173.812C237.026 172.462 238.518 171.187 239.784 170.039L239.977 169.864C250.011 160.77 256.641 154.762 255.951 135.91V135.91ZM212.349 234.704C212.349 236.085 211.179 237.251 209.795 237.251H152.279C150.895 237.251 149.725 236.085 149.725 234.704V216.554C149.725 215.173 150.895 214.007 152.279 214.007H209.795C211.179 214.007 212.349 215.173 212.349 216.554V234.704ZM233.261 162.455L233.068 162.63C231.909 163.681 230.471 164.91 228.949 166.212C218.873 174.826 203.647 187.843 203.647 203.259V204.007H158.427V194.682C158.595 187.551 158.773 180.179 160.682 173.021C164.124 160.14 170.484 150.465 190.338 145.111L190.662 145.023C194.477 143.995 196.422 143.101 199.027 138.86L212.056 117.73C213.503 115.377 216.082 114.135 218.669 114.267C218.676 114.267 218.683 114.267 218.69 114.267C219.866 114.331 221.044 114.678 222.116 115.336C223.775 116.356 224.939 117.97 225.393 119.879C225.845 121.782 225.535 123.736 224.516 125.386L203.412 159.635C201.964 161.986 202.695 165.066 205.046 166.515C207.399 167.964 210.478 167.233 211.926 164.881L233.028 130.636C235.45 126.713 236.193 122.072 235.122 117.567C234.05 113.055 231.29 109.237 227.348 106.814C226.347 106.2 225.308 105.701 224.245 105.312L227.352 65.2404C227.635 61.6209 230.097 57.9514 234.244 57.9424C237.918 57.9424 240.898 61.0379 241.175 65.1424L245.96 136.351C246.463 150.489 242.592 153.999 233.261 162.455Z" fill="#EEEEEE"/>
<path id="Vector_3" d="M187.806 85.0446C205.152 67.0974 205.152 37.8947 187.806 19.9475C180.412 12.2975 170.282 8.33495 159.261 8.78346C148.814 9.21096 138.724 13.5005 130.853 20.8571L130.328 21.3476C129.529 22.0936 128.666 22.9006 128 23.4771C127.334 22.9011 126.47 22.0936 125.672 21.3476L125.15 20.8596C117.275 13.5 107.186 9.21096 96.7394 8.78296C85.7313 8.33795 75.5937 12.2975 68.2081 19.9455C50.8455 37.8937 50.8455 67.0979 68.2081 85.0461C68.2486 85.0876 68.2896 85.1286 68.3316 85.1691L124.529 139.352C125.498 140.286 126.749 140.753 128 140.753C129.251 140.753 130.501 140.286 131.47 139.353L187.681 85.1701C187.724 85.1291 187.765 85.0871 187.806 85.0446ZM128 128.808L105.387 107.005C106.04 99.8397 110.116 93.3711 116.301 89.6276C119.736 91.6491 123.733 92.8141 128 92.8141C132.267 92.8141 136.264 91.6491 139.699 89.6276C145.885 93.3716 149.961 99.8432 150.613 107.011L128 128.808ZM114.872 69.7054C114.872 62.4779 120.761 56.5973 127.999 56.5973C135.238 56.5973 141.127 62.4779 141.127 69.7054C141.127 76.9335 135.238 82.814 127.999 82.814C120.761 82.814 114.872 76.9335 114.872 69.7054ZM159.064 98.8647C156.919 92.3806 152.767 86.6691 147.179 82.6055C149.671 78.919 151.127 74.479 151.127 69.7054C151.127 56.9638 140.752 46.5973 128 46.5973C115.247 46.5973 104.872 56.9633 104.872 69.7054C104.872 74.479 106.328 78.919 108.82 82.6055C103.234 86.6676 99.0829 92.3771 96.9374 98.8582L75.3372 78.032C61.7431 63.9129 61.7621 40.9922 75.3992 26.8956C86.2713 15.635 105.525 16.2055 118.324 28.1686L118.844 28.6541C122.305 31.8891 124.592 34.0257 128 34.0257C131.408 34.0257 133.695 31.8891 137.156 28.6541L137.679 28.1656C150.472 16.2075 169.733 15.639 180.616 26.8971C194.239 40.9917 194.258 63.9129 180.675 78.0335L159.064 98.8647Z" fill="#EEEEEE"/>
</g>
</g>
</g>
<defs>
<clipPath id="clip0">
<rect width="256" height="256" fill="white"/>
</clipPath>
</defs>
</svg>
