<svg width="720" height="720" viewBox="0 0 720 720" fill="none" xmlns="http://www.w3.org/2000/svg">
<rect width="720" height="720" fill="#FAF2E6"/>
<g clip-path="url(#clip0_2804_73)">
<path d="M442.601 153.488H377.258V120H422.15C436.117 120 447.439 131.322 447.439 145.289V148.649C447.44 151.322 445.274 153.488 442.601 153.488Z" fill="#CFD2DC"/>
<path d="M406.156 600H208.244C199.582 600 192.56 592.978 192.56 584.316V190.999C192.56 182.336 199.582 175.314 208.244 175.314H406.156C414.819 175.314 421.841 182.336 421.841 190.999V584.316C421.841 592.977 414.82 600 406.156 600Z" fill="#3B4F66"/>
<path d="M406.156 175.313H372.153C381.191 175.313 388.517 182.64 388.517 191.678V583.636C388.517 592.674 381.191 600 372.153 600H406.156C414.819 600 421.841 592.978 421.841 584.316V190.999C421.841 182.336 414.82 175.313 406.156 175.313Z" fill="#2F455B"/>
<path d="M388.517 242.383H225.883V150.729C225.883 133.758 239.642 120 256.614 120H419.248C402.276 120 388.518 133.758 388.518 150.729V242.383H388.517Z" fill="#E6E9ED"/>
<path d="M397.572 249.593H216.83C212.848 249.593 209.62 246.366 209.62 242.383C209.62 238.401 212.848 235.173 216.83 235.173H397.573C401.555 235.173 404.783 238.401 404.783 242.383C404.783 246.366 401.554 249.593 397.572 249.593Z" fill="#253A4C"/>
<path d="M383.833 364.48H230.567C227.981 364.48 225.883 362.383 225.883 359.797V273.986C225.883 271.4 227.981 269.302 230.567 269.302H383.833C386.42 269.302 388.517 271.4 388.517 273.986V359.797C388.517 362.384 386.42 364.48 383.833 364.48Z" fill="#00C6C8"/>
<path d="M384.903 570.779H229.498C227.502 570.779 225.883 569.161 225.883 567.165V395.014C225.883 393.018 227.502 391.4 229.498 391.4H384.903C386.899 391.4 388.517 393.018 388.517 395.014V567.165C388.517 569.161 386.899 570.779 384.903 570.779Z" fill="#7A8593"/>
<path d="M260.024 425.769H251.316C247.334 425.769 244.106 422.541 244.106 418.559C244.106 414.576 247.334 411.349 251.316 411.349H260.024C264.006 411.349 267.234 414.576 267.234 418.559C267.235 422.541 264.007 425.769 260.024 425.769Z" fill="#E6E9ED"/>
<path d="M293.975 425.769H285.267C281.285 425.769 278.057 422.541 278.057 418.559C278.057 414.576 281.285 411.349 285.267 411.349H293.975C297.957 411.349 301.185 414.576 301.185 418.559C301.185 422.541 297.957 425.769 293.975 425.769Z" fill="#E6E9ED"/>
<path d="M327.925 425.769H319.218C315.236 425.769 312.008 422.541 312.008 418.559C312.008 414.576 315.236 411.349 319.218 411.349H327.925C331.907 411.349 335.135 414.576 335.135 418.559C335.136 422.541 331.908 425.769 327.925 425.769Z" fill="#E6E9ED"/>
<path d="M361.876 425.769H353.169C349.186 425.769 345.958 422.541 345.958 418.559C345.958 414.576 349.186 411.349 353.169 411.349H361.876C365.859 411.349 369.087 414.576 369.087 418.559C369.087 422.541 365.859 425.769 361.876 425.769Z" fill="#E6E9ED"/>
<path d="M260.024 451.487H251.316C247.334 451.487 244.106 448.259 244.106 444.276C244.106 440.294 247.334 437.066 251.316 437.066H260.024C264.006 437.066 267.234 440.294 267.234 444.276C267.235 448.259 264.007 451.487 260.024 451.487Z" fill="#E6E9ED"/>
<path d="M293.975 451.487H285.267C281.285 451.487 278.057 448.259 278.057 444.276C278.057 440.294 281.285 437.066 285.267 437.066H293.975C297.957 437.066 301.185 440.294 301.185 444.276C301.185 448.259 297.957 451.487 293.975 451.487Z" fill="#E6E9ED"/>
<path d="M327.925 451.487H319.218C315.236 451.487 312.008 448.259 312.008 444.276C312.008 440.294 315.236 437.066 319.218 437.066H327.925C331.907 437.066 335.135 440.294 335.135 444.276C335.136 448.259 331.908 451.487 327.925 451.487Z" fill="#E6E9ED"/>
<path d="M361.876 451.487H353.169C349.186 451.487 345.958 448.259 345.958 444.276C345.958 440.294 349.186 437.066 353.169 437.066H361.876C365.859 437.066 369.087 440.294 369.087 444.276C369.087 448.259 365.859 451.487 361.876 451.487Z" fill="#E6E9ED"/>
<path d="M260.024 476.162H251.316C247.334 476.162 244.106 472.934 244.106 468.952C244.106 464.969 247.334 461.741 251.316 461.741H260.024C264.006 461.741 267.234 464.969 267.234 468.952C267.234 472.934 264.007 476.162 260.024 476.162Z" fill="#E6E9ED"/>
<path d="M293.975 476.162H285.267C281.285 476.162 278.057 472.934 278.057 468.952C278.057 464.969 281.285 461.741 285.267 461.741H293.975C297.957 461.741 301.185 464.969 301.185 468.952C301.185 472.934 297.957 476.162 293.975 476.162Z" fill="#E6E9ED"/>
<path d="M327.925 476.162H319.218C315.236 476.162 312.008 472.934 312.008 468.952C312.008 464.969 315.236 461.741 319.218 461.741H327.925C331.907 461.741 335.135 464.969 335.135 468.952C335.135 472.934 331.908 476.162 327.925 476.162Z" fill="#E6E9ED"/>
<path d="M361.876 476.162H353.169C349.186 476.162 345.958 472.934 345.958 468.952C345.958 464.969 349.186 461.741 353.169 461.741H361.876C365.859 461.741 369.087 464.969 369.087 468.952C369.087 472.934 365.859 476.162 361.876 476.162Z" fill="#E6E9ED"/>
<path d="M260.024 502.681H251.316C247.334 502.681 244.106 499.453 244.106 495.471C244.106 491.488 247.334 488.26 251.316 488.26H260.024C264.006 488.26 267.234 491.488 267.234 495.471C267.235 499.453 264.007 502.681 260.024 502.681Z" fill="#E6E9ED"/>
<path d="M293.975 502.681H285.267C281.285 502.681 278.057 499.453 278.057 495.471C278.057 491.488 281.285 488.26 285.267 488.26H293.975C297.957 488.26 301.185 491.488 301.185 495.471C301.185 499.453 297.957 502.681 293.975 502.681Z" fill="#E6E9ED"/>
<path d="M327.925 502.681H319.218C315.236 502.681 312.008 499.453 312.008 495.471C312.008 491.488 315.236 488.26 319.218 488.26H327.925C331.907 488.26 335.135 491.488 335.135 495.471C335.136 499.453 331.908 502.681 327.925 502.681Z" fill="#E6E9ED"/>
<path d="M361.876 502.681H353.169C349.186 502.681 345.958 499.453 345.958 495.471C345.958 491.488 349.186 488.26 353.169 488.26H361.876C365.859 488.26 369.087 491.488 369.087 495.471C369.087 499.453 365.859 502.681 361.876 502.681Z" fill="#E6E9ED"/>
<path d="M260.024 528.398H251.316C247.334 528.398 244.106 525.171 244.106 521.188C244.106 517.206 247.334 513.978 251.316 513.978H260.024C264.006 513.978 267.234 517.206 267.234 521.188C267.235 525.171 264.007 528.398 260.024 528.398Z" fill="#E6E9ED"/>
<path d="M293.975 528.398H285.267C281.285 528.398 278.057 525.171 278.057 521.188C278.057 517.206 281.285 513.978 285.267 513.978H293.975C297.957 513.978 301.185 517.206 301.185 521.188C301.185 525.171 297.957 528.398 293.975 528.398Z" fill="#E6E9ED"/>
<path d="M327.925 528.398H319.218C315.236 528.398 312.008 525.171 312.008 521.188C312.008 517.206 315.236 513.978 319.218 513.978H327.925C331.907 513.978 335.135 517.206 335.135 521.188C335.136 525.171 331.908 528.398 327.925 528.398Z" fill="#E6E9ED"/>
<path d="M361.876 528.398H353.169C349.186 528.398 345.958 525.171 345.958 521.188C345.958 517.206 349.186 513.978 353.169 513.978H361.876C365.859 513.978 369.087 517.206 369.087 521.188C369.087 525.171 365.859 528.398 361.876 528.398Z" fill="#E6E9ED"/>
<path d="M260.024 553.073H251.316C247.334 553.073 244.106 549.846 244.106 545.863C244.106 541.881 247.334 538.653 251.316 538.653H260.024C264.006 538.653 267.234 541.881 267.234 545.863C267.234 549.846 264.007 553.073 260.024 553.073Z" fill="#EA5D55"/>
<path d="M293.975 553.073H285.268C281.285 553.073 278.057 549.846 278.057 545.863C278.057 541.881 281.285 538.653 285.268 538.653H293.975C297.958 538.653 301.185 541.881 301.185 545.863C301.185 549.846 297.958 553.073 293.975 553.073Z" fill="#E6E9ED"/>
<path d="M327.925 553.073H319.218C315.236 553.073 312.008 549.846 312.008 545.863C312.008 541.881 315.236 538.653 319.218 538.653H327.925C331.907 538.653 335.135 541.881 335.135 545.863C335.135 549.846 331.908 553.073 327.925 553.073Z" fill="#77D057"/>
<path d="M361.876 553.073H353.169C349.186 553.073 345.958 549.846 345.958 545.863C345.958 541.881 349.186 538.653 353.169 538.653H361.876C365.859 538.653 369.087 541.881 369.087 545.863C369.087 549.846 365.859 553.073 361.876 553.073Z" fill="#00C0F4"/>
<path d="M340.887 160.699H276.794C272.811 160.699 269.583 157.471 269.583 153.488C269.583 149.506 272.811 146.278 276.794 146.278H340.887C344.869 146.278 348.097 149.506 348.097 153.488C348.097 157.471 344.869 160.699 340.887 160.699Z" fill="#7A8593"/>
<path d="M317.813 188.402H296.662C292.679 188.402 289.452 185.174 289.452 181.192C289.452 177.209 292.679 173.981 296.662 173.981H317.813C321.795 173.981 325.023 177.209 325.023 181.192C325.023 185.174 321.795 188.402 317.813 188.402Z" fill="#7A8593"/>
<path d="M303.071 220.946H256.284C252.301 220.946 249.074 217.718 249.074 213.736C249.074 209.753 252.301 206.525 256.284 206.525H303.071C307.053 206.525 310.281 209.753 310.281 213.736C310.281 217.718 307.053 220.946 303.071 220.946Z" fill="#7A8593"/>
<path d="M356.909 220.529C360.892 220.529 364.12 217.301 364.12 213.319C364.12 209.337 360.892 206.108 356.909 206.108C352.927 206.108 349.699 209.337 349.699 213.319C349.699 217.301 352.927 220.529 356.909 220.529Z" fill="#7A8593"/>
<path d="M326.788 287.766H243.144V300.263H326.788V287.766Z" fill="#00AFAA"/>
<path d="M284.965 312.759H243.144V325.257H284.965V312.759Z" fill="#00AFAA"/>
</g>
<g clip-path="url(#clip1_2804_73)">
<path fill-rule="evenodd" clip-rule="evenodd" d="M212.166 293.275C208.328 297.114 208.328 303.337 212.166 307.175L409.072 504.081C412.911 507.92 419.134 507.92 422.973 504.081L541.994 385.06C545.832 381.222 545.832 374.999 541.994 371.16L345.088 174.254C341.249 170.416 335.026 170.416 331.187 174.254L212.166 293.275ZM273.414 256.353C270.536 259.232 270.536 263.899 273.414 266.778C276.293 269.657 280.961 269.657 283.84 266.778L304.69 245.928C307.569 243.049 307.569 238.381 304.69 235.502C301.811 232.624 297.144 232.624 294.265 235.502L273.414 256.353Z" fill="#FF4D00"/>
<path fill-rule="evenodd" clip-rule="evenodd" d="M499.084 357.614C499.291 356.841 500.085 356.383 500.858 356.59C505.195 357.752 509.15 360.036 512.325 363.211C515.501 366.386 517.784 370.341 518.946 374.679C519.153 375.451 518.695 376.245 517.922 376.452C517.15 376.659 516.356 376.201 516.149 375.428C515.118 371.582 513.093 368.074 510.278 365.259C507.462 362.443 503.955 360.418 500.108 359.387C499.336 359.18 498.877 358.386 499.084 357.614ZM497.207 363.245C497.414 362.473 498.208 362.014 498.981 362.221C502.418 363.142 505.552 364.952 508.068 367.468C510.584 369.984 512.394 373.118 513.315 376.556C513.522 377.328 513.064 378.122 512.291 378.329C511.519 378.536 510.725 378.078 510.518 377.305C509.728 374.359 508.177 371.673 506.02 369.516C503.864 367.359 501.177 365.808 498.231 365.019C497.459 364.812 497 364.018 497.207 363.245ZM495.349 368.546C495.559 367.774 496.355 367.32 497.127 367.53C499.694 368.231 502.037 369.592 503.923 371.477C505.808 373.362 507.169 375.706 507.87 378.273C508.08 379.044 507.625 379.84 506.854 380.051C506.082 380.261 505.286 379.807 505.076 379.035C504.508 376.955 503.405 375.055 501.875 373.525C500.345 371.995 498.444 370.891 496.365 370.324C495.593 370.113 495.138 369.317 495.349 368.546ZM493.604 374.081C493.764 373.297 494.529 372.792 495.312 372.952C497.115 373.32 498.759 374.197 500.049 375.487C501.34 376.777 502.216 378.421 502.584 380.224C502.744 381.008 502.239 381.773 501.455 381.933C500.672 382.093 499.907 381.587 499.747 380.804C499.49 379.547 498.883 378.416 498.002 377.535C497.12 376.653 495.989 376.046 494.732 375.789C493.949 375.629 493.443 374.864 493.604 374.081Z" fill="black"/>
<path d="M396.263 468.576C397.053 469.366 397.832 468.931 398.733 468.335C399.401 467.889 399.932 467.526 400.379 467.972C400.726 468.32 400.753 468.866 400.119 469.5C399.558 470.061 399.084 470.084 398.676 469.782L398 470.458C398.718 471.176 399.733 470.962 400.627 470.068C401.589 469.106 401.776 468.011 400.978 467.213C400.195 466.43 399.363 466.842 398.481 467.465C397.943 467.835 397.34 468.316 396.862 467.839C396.473 467.449 396.591 466.896 397.061 466.426C397.599 465.888 398.16 465.93 398.462 466.186L399.103 465.544C398.428 464.869 397.408 464.995 396.542 465.861C395.759 466.644 395.412 467.724 396.263 468.576ZM400.757 461.646C399.753 462.65 399.711 464.074 400.795 465.159L401.387 465.751C402.532 466.896 403.887 466.808 404.903 465.793C405.899 464.796 405.991 463.414 404.857 462.28L404.261 461.685C403.143 460.566 401.753 460.65 400.757 461.646ZM401.348 462.23C401.994 461.585 402.895 461.707 403.628 462.44L404.112 462.925C404.857 463.67 404.987 464.54 404.322 465.205C403.651 465.877 402.772 465.754 402.028 465.01L401.543 464.525C400.81 463.792 400.703 462.876 401.348 462.23ZM407.755 462.811L408.446 462.12L402.959 456.634L402.268 457.325L407.755 462.811ZM407.949 459.241C409.026 460.318 410.343 460.352 411.378 459.317C412.439 458.256 412.336 457.183 411.767 456.569L411.095 457.241C411.328 457.619 411.378 458.111 410.786 458.703C410.168 459.321 409.347 459.256 408.648 458.558L408.007 457.916C407.304 457.214 407.19 456.42 407.846 455.763C408.472 455.137 409.045 455.336 409.324 455.53L410 454.854C409.373 454.267 408.236 454.167 407.232 455.171C406.201 456.202 406.239 457.531 407.293 458.584L407.949 459.241ZM415.127 455.568C415.719 454.977 415.806 454.339 415.677 453.82L415.707 453.789L416.242 454.324L416.906 453.659L414.165 450.918C413.18 449.933 412.141 450.262 411.313 451.09C410.416 451.987 410.263 452.904 410.881 453.644L411.55 452.976C411.351 452.617 411.366 452.205 411.874 451.697C412.39 451.182 412.951 451.094 413.466 451.609L413.863 452.006L412.813 453.056C411.889 453.98 411.878 454.946 412.58 455.649C413.325 456.393 414.348 456.347 415.127 455.568ZM414.737 454.797C414.321 455.213 413.73 455.385 413.264 454.919C412.905 454.56 412.855 454.068 413.397 453.526L414.39 452.533L414.837 452.98C415.329 453.472 415.28 454.255 414.737 454.797ZM418.307 452.258L419.002 451.563L416.52 449.082C415.974 448.536 415.902 447.761 416.608 447.055C416.73 446.932 416.875 446.803 416.956 446.753L416.326 446.123C416.234 446.192 416.142 446.268 416.055 446.356C415.345 447.066 415.47 447.772 415.635 448.135L415.6 448.169L414.982 447.551L414.291 448.242L418.307 452.258ZM418.578 443.832C417.643 444.768 417.677 446.047 418.7 447.07L419.479 447.849C420.502 448.872 421.762 448.918 422.698 447.982C423.286 447.394 423.496 446.604 423.205 446.077L423.24 446.043L423.881 446.684L424.545 446.02L419.059 440.534L418.368 441.225L420.434 443.29L420.399 443.325C419.83 443.076 419.143 443.267 418.578 443.832ZM419.311 444.283C419.922 443.672 420.819 443.676 421.457 444.313L422.152 445.008C422.873 445.73 422.911 446.585 422.281 447.215C421.644 447.853 420.804 447.784 420.025 447.005L419.536 446.516C418.765 445.745 418.685 444.909 419.311 444.283ZM425.362 444.264C425.672 444.573 426.145 444.558 426.447 444.256C426.764 443.939 426.775 443.47 426.466 443.16C426.141 442.836 425.672 442.847 425.355 443.164C425.053 443.466 425.038 443.939 425.362 444.264ZM425.672 436.731C424.668 437.735 424.626 439.159 425.71 440.244L426.302 440.835C427.447 441.981 428.802 441.893 429.818 440.877C430.814 439.881 430.906 438.499 429.772 437.365L429.176 436.769C428.058 435.651 426.668 435.735 425.672 436.731ZM426.263 437.315C426.909 436.67 427.81 436.792 428.543 437.525L429.028 438.01C429.772 438.755 429.902 439.625 429.238 440.289C428.566 440.961 427.688 440.839 426.943 440.095L426.458 439.61C425.725 438.877 425.618 437.961 426.263 437.315ZM432.708 437.858L433.403 437.163L430.921 434.681C430.375 434.135 430.303 433.36 431.009 432.654C431.131 432.532 431.276 432.402 431.356 432.352L430.727 431.722C430.635 431.791 430.543 431.867 430.455 431.955C429.745 432.665 429.871 433.372 430.035 433.734L430.001 433.769L429.383 433.15L428.692 433.841L432.708 437.858ZM438.034 434.311C437.507 434.838 436.946 434.925 436.61 434.696L435.907 435.399C436.545 435.93 437.564 435.941 438.591 434.914C439.618 433.887 439.874 432.661 438.767 431.554L434.873 427.66L434.212 428.321L434.819 428.928L434.785 428.962C434.323 428.767 433.556 428.855 432.952 429.458C432.063 430.348 432.009 431.676 433.067 432.734L433.689 433.356C434.747 434.414 436.071 434.349 436.961 433.459C437.518 432.902 437.648 432.207 437.457 431.703L437.496 431.665L438.08 432.249C438.71 432.879 438.74 433.604 438.034 434.311ZM433.716 429.878C434.346 429.248 435.247 429.416 435.835 430.004L436.442 430.611C437.014 431.184 437.198 432.062 436.556 432.703C435.934 433.326 434.999 433.276 434.266 432.543L433.888 432.165C433.155 431.432 433.063 430.531 433.716 429.878ZM441.42 431.505L436.637 422.957L435.995 423.598L440.783 432.142L441.42 431.505ZM405.845 478.096C407.425 479.677 409.14 480.024 410.319 478.845C411.503 477.661 411.148 475.947 409.571 474.37L409.376 474.176C407.796 472.595 406.082 472.232 404.902 473.412C403.714 474.599 404.073 476.325 405.65 477.902L405.845 478.096ZM406.353 477.207C405.1 475.955 404.787 474.741 405.501 474.027C406.219 473.309 407.429 473.626 408.681 474.878L408.865 475.061C410.117 476.314 410.43 477.52 409.712 478.238C408.998 478.952 407.788 478.642 406.536 477.39L406.353 477.207ZM415.137 473.813L409.926 468.602L409.231 469.296L408.911 471.457L409.617 472.164L409.949 470.083L409.983 470.048L414.443 474.508L415.137 473.813ZM413.637 467.792C413.633 467.788 413.614 467.769 413.61 467.765C413.114 467.269 413.03 466.483 413.637 465.876C414.172 465.341 414.912 465.28 415.45 465.818C415.928 466.296 415.981 466.967 416.019 467.578L416.29 471.774L416.733 472.217L420.101 468.85L419.49 468.239L417.119 470.61L417.077 470.568L416.875 467.594C416.806 466.548 416.764 465.711 416.111 465.059C415.294 464.242 414.038 464.276 413.053 465.261C411.969 466.345 412.137 467.659 412.927 468.449L412.954 468.476L413.637 467.792ZM419.78 464.398L420.349 463.829C420.986 463.192 421.803 463.123 422.372 463.677C422.941 464.23 422.907 465.081 422.216 465.765C421.609 466.364 420.853 466.471 420.398 466.108L419.742 466.765C420.521 467.468 421.758 467.414 422.796 466.376C423.876 465.295 424.018 463.864 423.086 462.97C422.227 462.142 421.181 462.462 420.692 462.852L420.654 462.814C420.979 462.352 421.131 461.321 420.372 460.607C419.597 459.87 418.375 459.924 417.39 460.924C416.348 461.974 416.443 463.169 417.088 463.86L417.756 463.192C417.405 462.772 417.428 462.069 417.978 461.519C418.535 460.962 419.272 460.92 419.776 461.424C420.295 461.936 420.265 462.714 419.719 463.26L419.18 463.799L419.78 464.398ZM422.334 456.194C422.769 458.11 423.17 460.061 423.697 461.886L424.312 462.501L426.843 459.969L427.912 461.038L428.584 460.366L427.515 459.297L428.191 458.622L427.58 458.011L426.904 458.687L423.372 455.155L422.334 456.194ZM424.396 461.195L424.361 461.161C423.949 459.656 423.567 457.984 423.266 456.468L423.304 456.43L426.232 459.359L424.396 461.195ZM428.95 457.572C429.763 458.286 431.008 458.156 431.97 457.194C433.07 456.094 433.085 454.613 432.008 453.536C430.955 452.483 429.573 452.612 428.664 453.521C428.087 454.098 428.003 454.739 428.065 455.014L428.026 455.052L426.499 453.242L428.847 450.894L428.24 450.287L425.297 453.231L428.057 456.457L428.653 455.861C428.538 455.464 428.565 454.804 429.103 454.266C429.691 453.678 430.634 453.575 431.321 454.262C432.1 455.041 431.951 456.022 431.417 456.556C430.939 457.034 430.245 457.316 429.622 456.9L428.95 457.572ZM434.12 446.569C433.501 446.034 432.318 446.011 431.336 446.993C430.176 448.153 430.264 449.86 432.276 451.872C433.054 452.651 433.761 453.059 434.383 453.208C435.341 453.433 436.109 453.055 436.67 452.494C437.693 451.471 437.815 450.043 436.67 448.898C435.582 447.81 434.181 448.058 433.371 448.867C432.612 449.627 432.612 450.467 432.829 450.975L432.791 451.013C431.34 449.562 431.191 448.337 431.913 447.615C432.501 447.027 433.119 447.088 433.417 447.271L434.12 446.569ZM433.803 451.834C433.154 451.185 433.158 450.257 433.803 449.612C434.36 449.054 435.257 448.867 436.021 449.631C436.807 450.417 436.685 451.28 436.074 451.891C435.479 452.486 434.543 452.574 433.803 451.834ZM434.066 444.461L434.677 445.072L437.3 442.449L437.342 442.491L439.743 449.207L440.48 448.47L438.037 441.758L437.403 441.125L434.066 444.461ZM445.447 443.717C446.535 442.629 446.692 441.22 445.783 440.311C444.974 439.502 443.973 439.724 443.424 440.059L443.389 440.025C443.626 439.559 443.779 438.704 443.084 438.009C442.278 437.204 440.999 437.314 440.041 438.273C439.083 439.231 438.972 440.51 439.778 441.316C440.461 441.999 441.297 441.873 441.786 441.629L441.82 441.663C441.492 442.205 441.259 443.209 442.08 444.03C442.988 444.939 444.367 444.797 445.447 443.717ZM442.358 440.59C441.797 441.151 441.022 441.209 440.507 440.693C439.991 440.178 440.064 439.418 440.625 438.857C441.19 438.292 441.939 438.231 442.454 438.746C442.969 439.262 442.924 440.025 442.358 440.59ZM444.89 443.121C444.225 443.786 443.321 443.896 442.736 443.312C442.152 442.728 442.255 441.816 442.92 441.151C443.584 440.487 444.489 440.392 445.073 440.976C445.657 441.56 445.554 442.457 444.89 443.121ZM447.314 439.628C447.963 440.14 449.017 440.132 449.983 439.166C451.327 437.822 451.002 436.238 449.131 434.367C447.039 432.275 445.577 432.722 444.668 433.63C443.645 434.653 443.508 436.097 444.615 437.204C445.714 438.303 447.104 438.219 448.032 437.292C448.738 436.585 448.784 435.784 448.517 435.188L448.555 435.15C449.75 436.284 450.361 437.589 449.399 438.551C448.891 439.059 448.337 439.094 448.02 438.922L447.314 439.628ZM447.524 434.356C448.288 435.119 448.12 436.013 447.562 436.57C446.978 437.154 446.096 437.295 445.321 436.52C444.577 435.776 444.642 434.856 445.226 434.272C445.852 433.646 446.76 433.592 447.524 434.356ZM454.205 434.875C454.797 434.283 454.885 433.646 454.755 433.126L454.785 433.096L455.32 433.63L455.984 432.966L453.243 430.225C452.258 429.24 451.22 429.568 450.391 430.397C449.494 431.294 449.341 432.21 449.96 432.951L450.628 432.283C450.429 431.924 450.445 431.511 450.952 431.004C451.468 430.488 452.029 430.4 452.544 430.916L452.941 431.313L451.892 432.363C450.968 433.287 450.956 434.253 451.659 434.955C452.403 435.7 453.426 435.654 454.205 434.875ZM453.816 434.104C453.4 434.52 452.808 434.692 452.342 434.226C451.983 433.867 451.934 433.374 452.476 432.832L453.468 431.84L453.915 432.286C454.408 432.779 454.358 433.562 453.816 434.104ZM459.279 429.793C460.237 428.835 460.176 427.575 459.111 426.51L458.42 425.819C457.359 424.758 456.106 424.689 455.16 425.636C454.579 426.216 454.381 426.972 454.675 427.518L454.64 427.552L452.533 425.445L451.842 426.136L457.328 431.622L457.992 430.958L457.397 430.362L457.431 430.328C458.023 430.561 458.714 430.358 459.279 429.793ZM458.554 429.335C457.935 429.954 457.03 429.942 456.381 429.293L455.721 428.633C454.992 427.904 454.938 427.041 455.58 426.399C456.225 425.754 457.061 425.85 457.87 426.659L458.298 427.087C459.092 427.881 459.184 428.705 458.554 429.335ZM460.062 425.514C461.138 426.59 462.456 426.625 463.49 425.59C464.551 424.529 464.448 423.456 463.88 422.841L463.208 423.513C463.44 423.891 463.49 424.383 462.898 424.975C462.28 425.594 461.459 425.529 460.76 424.83L460.119 424.189C459.417 423.486 459.302 422.692 459.959 422.036C460.585 421.409 461.157 421.608 461.436 421.803L462.112 421.127C461.486 420.539 460.348 420.44 459.344 421.444C458.313 422.475 458.351 423.803 459.405 424.857L460.062 425.514ZM463.376 417.42C462.44 418.355 462.475 419.634 463.498 420.657L464.277 421.436C465.3 422.459 466.56 422.505 467.495 421.57C468.083 420.982 468.293 420.192 468.003 419.665L468.037 419.63L468.679 420.272L469.343 419.607L463.857 414.121L463.166 414.812L465.231 416.878L465.197 416.912C464.628 416.664 463.941 416.855 463.376 417.42ZM464.109 417.87C464.719 417.259 465.617 417.263 466.254 417.901L466.949 418.596C467.671 419.317 467.709 420.172 467.079 420.802C466.441 421.44 465.601 421.371 464.823 420.592L464.334 420.104C463.563 419.333 463.482 418.496 464.109 417.87ZM472.305 416.775C473.321 415.759 473.176 414.644 472.809 414.156L472.099 414.866C472.279 415.183 472.187 415.725 471.718 416.194C471.049 416.862 470.206 416.736 469.583 416.114L469.381 415.912L472.027 413.266L471.542 412.781C470.461 411.701 469.079 411.708 468.106 412.682C467.144 413.644 467.117 415.022 468.209 416.114L468.82 416.725C469.904 417.809 471.225 417.855 472.305 416.775ZM468.881 415.412L468.816 415.347C468.148 414.679 468.102 413.846 468.69 413.258C469.278 412.67 470.106 412.72 470.775 413.388L470.839 413.453L468.881 415.412ZM475.344 413.606L476.035 412.915L472.592 409.471L473.516 408.547L472.955 407.986L472.023 408.917L471.676 408.57C471.198 408.093 471.263 407.753 471.737 407.28C471.836 407.18 472.042 406.989 472.111 406.936L471.553 406.379C471.466 406.451 471.252 406.634 471.072 406.814C470.175 407.711 470.168 408.429 470.939 409.2L471.34 409.601L470.664 410.277L471.225 410.838L471.901 410.162L475.344 413.606Z" fill="black"/>
<path d="M389.308 445.82C390.856 447.205 393.231 447.3 395.587 444.945C397.935 442.596 398.077 440.092 396.353 438.368C394.799 436.814 393.089 437.085 391.249 438.246L389.478 439.352C388.487 439.99 387.666 440.078 387.109 439.522C386.39 438.802 386.471 437.676 387.483 436.664C388.467 435.68 389.58 435.585 390.36 436.135L392.098 434.397C390.584 433.06 388.175 433.094 386.057 435.212C384.014 437.255 383.702 439.78 385.399 441.477C386.804 442.881 388.541 442.8 390.306 441.687L392.071 440.587C393.258 439.848 394.053 439.719 394.697 440.363C395.458 441.124 395.376 442.25 394.236 443.391C393.143 444.483 391.921 444.646 391.08 444.049L389.308 445.82ZM396.503 429.015C394.521 430.997 394.514 433.637 396.516 435.639L397.31 436.434C399.462 438.585 401.967 438.47 403.962 436.474C405.93 434.506 406.039 431.981 403.901 429.843L403.093 429.035C401.057 426.999 398.471 427.047 396.503 429.015ZM397.887 430.4C398.878 429.409 400.243 429.796 401.335 430.888L402.082 431.635C403.168 432.721 403.595 434.058 402.571 435.083C401.539 436.115 400.181 435.694 399.102 434.615L398.356 433.868C397.27 432.782 396.89 431.397 397.887 430.4ZM408.971 431.207L410.763 429.416L401.01 419.662L399.218 421.454L408.971 431.207ZM403.514 418.013C404.098 418.597 404.96 418.536 405.618 417.877C406.29 417.205 406.344 416.35 405.761 415.766C405.17 415.176 404.308 415.223 403.636 415.895C402.978 416.554 402.917 417.416 403.514 418.013ZM413.07 427.108L414.855 425.323L407.654 418.122L405.869 419.907L413.07 427.108ZM412.215 413.371C410.58 415.006 410.688 417.26 412.663 419.235L413.736 420.307C415.711 422.282 417.95 422.404 419.579 420.775C420.625 419.73 420.957 418.38 420.448 417.423L420.536 417.334L421.69 418.488L423.448 416.73L413.695 406.977L411.903 408.769L415.548 412.414L415.466 412.495C414.455 412.04 413.227 412.359 412.215 413.371ZM414.238 414.199C415.134 413.303 416.464 413.33 417.543 414.409L418.473 415.339C419.647 416.513 419.715 417.803 418.806 418.712C417.883 419.635 416.613 419.52 415.378 418.285L414.679 417.585C413.451 416.357 413.335 415.101 414.238 414.199ZM427.711 412.685C428.776 411.619 428.885 410.52 428.64 409.705L428.722 409.624L429.638 410.54L431.328 408.85L426.489 404.011C424.663 402.185 422.695 402.85 421.079 404.466C419.104 406.441 419.213 408.233 420.312 409.495L422.002 407.805C421.643 407.269 421.67 406.604 422.403 405.871C423.136 405.138 423.95 405.015 424.677 405.742L425.321 406.386L423.564 408.144C421.894 409.814 421.853 411.565 423.143 412.855C424.5 414.212 426.306 414.09 427.711 412.685ZM426.977 410.785C426.367 411.395 425.478 411.633 424.806 410.961C424.256 410.411 424.229 409.638 425.023 408.843L426.401 407.466L427.147 408.212C427.846 408.911 427.731 410.031 426.977 410.785ZM433.48 406.699L435.305 404.873L431.186 400.753C430.215 399.782 430.086 398.54 431.253 397.373C431.532 397.095 431.844 396.823 432.02 396.728L430.473 395.181C430.31 395.289 430.106 395.452 429.862 395.697C428.722 396.837 428.939 398.113 429.278 398.751L429.19 398.839L428.063 397.712L426.278 399.497L433.48 406.699ZM429.767 391.76C430.351 392.344 431.213 392.283 431.871 391.624C432.543 390.952 432.597 390.097 432.014 389.513C431.423 388.923 430.561 388.97 429.889 389.642C429.231 390.301 429.17 391.163 429.767 391.76ZM439.323 400.855L441.109 399.07L433.907 391.869L432.122 393.654L439.323 400.855ZM436.717 389.194L435.584 390.328L436.955 391.699L438.047 390.606L441.774 394.332C443.246 395.805 444.448 395.812 446.24 394.02C446.647 393.613 447.102 393.063 447.217 392.893L445.894 391.57C445.778 391.712 445.527 391.991 445.303 392.215C444.556 392.961 444.041 393.043 443.321 392.323L439.826 388.828L441.421 387.233L440.05 385.862L438.455 387.457L436.663 385.665L434.925 387.403L436.717 389.194ZM448.127 377.649L446.233 379.543L450.332 386.765L450.258 386.839L443.063 382.713L441.088 384.688L450.801 389.405L450.943 389.642C451.513 390.484 451.398 391.169 450.59 391.977C450.4 392.167 450.108 392.418 449.973 392.513L451.269 393.81C451.527 393.647 451.975 393.253 452.294 392.934C453.835 391.393 454.052 389.873 453.027 387.599L452.762 387.009C452.735 386.955 449.253 379.78 448.127 377.649ZM453.298 376.509C451.581 374.792 451.344 373.048 452.626 371.765C453.678 370.713 455.111 370.733 456.169 371.643L457.941 369.871L457.771 369.701C455.857 367.95 453.102 368.195 451.065 370.231C448.588 372.708 448.798 375.742 451.425 378.369L452.579 379.523C455.206 382.149 458.192 382.339 460.683 379.848C462.712 377.819 462.991 375.097 461.307 373.238L461.131 373.061L459.359 374.833C460.235 375.857 460.215 377.222 459.149 378.287C457.853 379.584 456.156 379.366 454.445 377.656L453.298 376.509ZM468.04 372.355C469.106 371.29 469.214 370.19 468.97 369.376L469.052 369.294L469.968 370.21L471.658 368.52L466.819 363.681C464.993 361.855 463.025 362.521 461.409 364.136C459.434 366.111 459.543 367.903 460.642 369.165L462.332 367.475C461.972 366.939 462 366.274 462.733 365.541C463.466 364.808 464.28 364.686 465.006 365.412L465.651 366.057L463.893 367.815C462.224 369.484 462.183 371.235 463.472 372.525C464.83 373.882 466.635 373.76 468.04 372.355ZM467.307 370.455C466.696 371.066 465.807 371.303 465.135 370.631C464.586 370.082 464.558 369.308 465.353 368.514L466.73 367.136L467.477 367.882C468.176 368.582 468.061 369.701 467.307 370.455ZM473.809 366.369L475.635 364.543L471.515 360.423C470.545 359.453 470.416 358.211 471.583 357.043C471.861 356.765 472.174 356.493 472.35 356.398L470.803 354.851C470.64 354.96 470.436 355.122 470.192 355.367C469.052 356.507 469.269 357.783 469.608 358.421L469.52 358.509L468.393 357.383L466.608 359.168L473.809 366.369ZM474.522 351.064C472.886 352.699 472.995 354.953 474.97 356.928L476.042 358C478.018 359.975 480.257 360.098 481.886 358.469C482.931 357.423 483.264 356.073 482.755 355.116L482.843 355.027L483.997 356.181L485.755 354.423L476.002 344.67L474.21 346.462L477.855 350.107L477.773 350.188C476.762 349.733 475.533 350.052 474.522 351.064ZM476.545 351.892C477.441 350.996 478.771 351.023 479.85 352.102L480.78 353.032C481.954 354.206 482.022 355.496 481.113 356.405C480.189 357.328 478.92 357.213 477.685 355.978L476.986 355.279C475.757 354.05 475.642 352.794 476.545 351.892Z" fill="#FFE600"/>
<path d="M362.029 212.914L250.827 324.116L362.029 435.319L473.231 324.116L362.029 212.914Z" fill="white"/>
<path d="M268.082 320.761L264.727 324.116L268.082 327.472L271.437 324.116L268.082 320.761Z" fill="black"/>
<path d="M271.437 317.406L268.082 320.761L271.437 324.116L274.793 320.761L271.437 317.406Z" fill="black"/>
<path d="M274.793 314.051L271.437 317.406L274.793 320.761L278.148 317.406L274.793 314.051Z" fill="black"/>
<path d="M278.148 310.696L274.793 314.051L278.148 317.406L281.503 314.051L278.148 310.696Z" fill="black"/>
<path d="M281.503 307.34L278.148 310.696L281.503 314.051L284.858 310.696L281.503 307.34Z" fill="black"/>
<path d="M284.858 303.985L281.503 307.34L284.858 310.696L288.213 307.34L284.858 303.985Z" fill="black"/>
<path d="M288.213 300.63L284.858 303.985L288.213 307.34L291.569 303.985L288.213 300.63Z" fill="black"/>
<path d="M294.924 293.919L291.569 297.275L294.924 300.63L298.279 297.275L294.924 293.919Z" fill="black"/>
<path d="M298.279 290.564L294.924 293.919L298.279 297.275L301.634 293.919L298.279 290.564Z" fill="black"/>
<path d="M308.345 280.498L304.99 283.854L308.345 287.209L311.7 283.854L308.345 280.498Z" fill="black"/>
<path d="M311.7 277.143L308.345 280.498L311.7 283.854L315.055 280.498L311.7 277.143Z" fill="black"/>
<path d="M321.766 267.077L318.411 270.433L321.766 273.788L325.121 270.433L321.766 267.077Z" fill="black"/>
<path d="M328.476 260.367L325.121 263.722L328.476 267.077L331.832 263.722L328.476 260.367Z" fill="black"/>
<path d="M335.187 253.656L331.832 257.012L335.187 260.367L338.542 257.012L335.187 253.656Z" fill="black"/>
<path d="M341.897 246.946L338.542 250.301L341.897 253.656L345.252 250.301L341.897 246.946Z" fill="black"/>
<path d="M345.252 243.591L341.897 246.946L345.252 250.301L348.608 246.946L345.252 243.591Z" fill="black"/>
<path d="M348.608 240.236L345.252 243.591L348.608 246.946L351.963 243.591L348.608 240.236Z" fill="black"/>
<path d="M351.963 236.88L348.608 240.236L351.963 243.591L355.318 240.236L351.963 236.88Z" fill="black"/>
<path d="M355.318 233.525L351.963 236.88L355.318 240.236L358.673 236.88L355.318 233.525Z" fill="black"/>
<path d="M358.673 230.17L355.318 233.525L358.673 236.88L362.029 233.525L358.673 230.17Z" fill="black"/>
<path d="M362.029 226.815L358.673 230.17L362.029 233.525L365.384 230.17L362.029 226.815Z" fill="black"/>
<path d="M271.437 324.116L268.082 327.472L271.437 330.827L274.793 327.472L271.437 324.116Z" fill="black"/>
<path d="M291.569 303.985L288.213 307.34L291.569 310.696L294.924 307.34L291.569 303.985Z" fill="black"/>
<path d="M301.634 293.919L298.279 297.275L301.634 300.63L304.99 297.275L301.634 293.919Z" fill="black"/>
<path d="M304.99 290.564L301.634 293.919L304.99 297.275L308.345 293.919L304.99 290.564Z" fill="black"/>
<path d="M308.345 287.209L304.99 290.564L308.345 293.919L311.7 290.564L308.345 287.209Z" fill="black"/>
<path d="M311.7 283.854L308.345 287.209L311.7 290.564L315.055 287.209L311.7 283.854Z" fill="black"/>
<path d="M328.476 267.077L325.121 270.433L328.476 273.788L331.832 270.433L328.476 267.077Z" fill="black"/>
<path d="M345.252 250.301L341.897 253.656L345.252 257.012L348.608 253.656L345.252 250.301Z" fill="black"/>
<path d="M365.384 230.17L362.029 233.525L365.384 236.88L368.739 233.525L365.384 230.17Z" fill="black"/>
<path d="M274.793 327.472L271.437 330.827L274.793 334.182L278.148 330.827L274.793 327.472Z" fill="black"/>
<path d="M281.503 320.761L278.148 324.116L281.503 327.472L284.858 324.116L281.503 320.761Z" fill="black"/>
<path d="M284.858 317.406L281.503 320.761L284.858 324.116L288.213 320.761L284.858 317.406Z" fill="black"/>
<path d="M288.213 314.051L284.858 317.406L288.213 320.761L291.569 317.406L288.213 314.051Z" fill="black"/>
<path d="M294.924 307.34L291.569 310.696L294.924 314.051L298.279 310.696L294.924 307.34Z" fill="black"/>
<path d="M321.766 280.498L318.411 283.854L321.766 287.209L325.121 283.854L321.766 280.498Z" fill="black"/>
<path d="M328.476 273.788L325.121 277.143L328.476 280.498L331.832 277.143L328.476 273.788Z" fill="black"/>
<path d="M331.832 270.433L328.476 273.788L331.832 277.143L335.187 273.788L331.832 270.433Z" fill="black"/>
<path d="M335.187 267.077L331.832 270.433L335.187 273.788L338.542 270.433L335.187 267.077Z" fill="black"/>
<path d="M338.542 263.722L335.187 267.077L338.542 270.433L341.897 267.077L338.542 263.722Z" fill="black"/>
<path d="M348.608 253.656L345.252 257.012L348.608 260.367L351.963 257.012L348.608 253.656Z" fill="black"/>
<path d="M355.318 246.946L351.963 250.301L355.318 253.656L358.673 250.301L355.318 246.946Z" fill="black"/>
<path d="M358.673 243.591L355.318 246.946L358.673 250.301L362.029 246.946L358.673 243.591Z" fill="black"/>
<path d="M362.029 240.236L358.673 243.591L362.029 246.946L365.384 243.591L362.029 240.236Z" fill="black"/>
<path d="M368.739 233.525L365.384 236.88L368.739 240.236L372.094 236.88L368.739 233.525Z" fill="black"/>
<path d="M278.148 330.827L274.793 334.182L278.148 337.537L281.503 334.182L278.148 330.827Z" fill="black"/>
<path d="M284.858 324.116L281.503 327.472L284.858 330.827L288.213 327.472L284.858 324.116Z" fill="black"/>
<path d="M288.213 320.761L284.858 324.116L288.213 327.472L291.569 324.116L288.213 320.761Z" fill="black"/>
<path d="M291.569 317.406L288.213 320.761L291.569 324.116L294.924 320.761L291.569 317.406Z" fill="black"/>
<path d="M298.279 310.696L294.924 314.051L298.279 317.406L301.634 314.051L298.279 310.696Z" fill="black"/>
<path d="M304.99 303.985L301.634 307.34L304.99 310.696L308.345 307.34L304.99 303.985Z" fill="black"/>
<path d="M308.345 300.63L304.99 303.985L308.345 307.34L311.7 303.985L308.345 300.63Z" fill="black"/>
<path d="M315.055 293.919L311.7 297.275L315.055 300.63L318.411 297.275L315.055 293.919Z" fill="black"/>
<path d="M321.766 287.209L318.411 290.564L321.766 293.919L325.121 290.564L321.766 287.209Z" fill="black"/>
<path d="M325.121 283.854L321.766 287.209L325.121 290.564L328.476 287.209L325.121 283.854Z" fill="black"/>
<path d="M328.476 280.498L325.121 283.854L328.476 287.209L331.832 283.854L328.476 280.498Z" fill="black"/>
<path d="M345.252 263.722L341.897 267.077L345.252 270.433L348.608 267.077L345.252 263.722Z" fill="black"/>
<path d="M351.963 257.012L348.608 260.367L351.963 263.722L355.318 260.367L351.963 257.012Z" fill="black"/>
<path d="M358.673 250.301L355.318 253.656L358.673 257.012L362.029 253.656L358.673 250.301Z" fill="black"/>
<path d="M362.029 246.946L358.673 250.301L362.029 253.656L365.384 250.301L362.029 246.946Z" fill="black"/>
<path d="M365.384 243.591L362.029 246.946L365.384 250.301L368.739 246.946L365.384 243.591Z" fill="black"/>
<path d="M372.094 236.88L368.739 240.236L372.094 243.591L375.45 240.236L372.094 236.88Z" fill="black"/>
<path d="M281.503 334.182L278.148 337.537L281.503 340.893L284.858 337.537L281.503 334.182Z" fill="black"/>
<path d="M288.213 327.472L284.858 330.827L288.213 334.182L291.569 330.827L288.213 327.472Z" fill="black"/>
<path d="M291.569 324.116L288.213 327.472L291.569 330.827L294.924 327.472L291.569 324.116Z" fill="black"/>
<path d="M294.924 320.761L291.569 324.116L294.924 327.472L298.279 324.116L294.924 320.761Z" fill="black"/>
<path d="M301.634 314.051L298.279 317.406L301.634 320.761L304.99 317.406L301.634 314.051Z" fill="black"/>
<path d="M315.055 300.63L311.7 303.985L315.055 307.34L318.411 303.985L315.055 300.63Z" fill="black"/>
<path d="M328.476 287.209L325.121 290.564L328.476 293.919L331.832 290.564L328.476 287.209Z" fill="black"/>
<path d="M335.187 280.498L331.832 283.854L335.187 287.209L338.542 283.854L335.187 280.498Z" fill="black"/>
<path d="M338.542 277.143L335.187 280.498L338.542 283.854L341.897 280.498L338.542 277.143Z" fill="black"/>
<path d="M341.897 273.788L338.542 277.143L341.897 280.498L345.252 277.143L341.897 273.788Z" fill="black"/>
<path d="M355.318 260.367L351.963 263.722L355.318 267.077L358.673 263.722L355.318 260.367Z" fill="black"/>
<path d="M362.029 253.656L358.673 257.012L362.029 260.367L365.384 257.012L362.029 253.656Z" fill="black"/>
<path d="M365.384 250.301L362.029 253.656L365.384 257.012L368.739 253.656L365.384 250.301Z" fill="black"/>
<path d="M368.739 246.946L365.384 250.301L368.739 253.656L372.094 250.301L368.739 246.946Z" fill="black"/>
<path d="M375.45 240.236L372.094 243.591L375.45 246.946L378.805 243.591L375.45 240.236Z" fill="black"/>
<path d="M284.858 337.537L281.503 340.893L284.858 344.248L288.213 340.893L284.858 337.537Z" fill="black"/>
<path d="M304.99 317.406L301.634 320.761L304.99 324.116L308.345 320.761L304.99 317.406Z" fill="black"/>
<path d="M311.7 310.696L308.345 314.051L311.7 317.406L315.055 314.051L311.7 310.696Z" fill="black"/>
<path d="M321.766 300.63L318.411 303.985L321.766 307.34L325.121 303.985L321.766 300.63Z" fill="black"/>
<path d="M328.476 293.919L325.121 297.275L328.476 300.63L331.832 297.275L328.476 293.919Z" fill="black"/>
<path d="M338.542 283.854L335.187 287.209L338.542 290.564L341.897 287.209L338.542 283.854Z" fill="black"/>
<path d="M341.897 280.498L338.542 283.854L341.897 287.209L345.252 283.854L341.897 280.498Z" fill="black"/>
<path d="M345.252 277.143L341.897 280.498L345.252 283.854L348.608 280.498L345.252 277.143Z" fill="black"/>
<path d="M348.608 273.788L345.252 277.143L348.608 280.498L351.963 277.143L348.608 273.788Z" fill="black"/>
<path d="M351.963 270.433L348.608 273.788L351.963 277.143L355.318 273.788L351.963 270.433Z" fill="black"/>
<path d="M358.673 263.722L355.318 267.077L358.673 270.433L362.029 267.077L358.673 263.722Z" fill="black"/>
<path d="M378.805 243.591L375.45 246.946L378.805 250.301L382.16 246.946L378.805 243.591Z" fill="black"/>
<path d="M288.213 340.893L284.858 344.248L288.213 347.603L291.569 344.248L288.213 340.893Z" fill="black"/>
<path d="M291.569 337.537L288.213 340.893L291.569 344.248L294.924 340.893L291.569 337.537Z" fill="black"/>
<path d="M294.924 334.182L291.569 337.537L294.924 340.893L298.279 337.537L294.924 334.182Z" fill="black"/>
<path d="M298.279 330.827L294.924 334.182L298.279 337.537L301.634 334.182L298.279 330.827Z" fill="black"/>
<path d="M301.634 327.472L298.279 330.827L301.634 334.182L304.99 330.827L301.634 327.472Z" fill="black"/>
<path d="M304.99 324.116L301.634 327.472L304.99 330.827L308.345 327.472L304.99 324.116Z" fill="black"/>
<path d="M308.345 320.761L304.99 324.116L308.345 327.472L311.7 324.116L308.345 320.761Z" fill="black"/>
<path d="M315.055 314.051L311.7 317.406L315.055 320.761L318.411 317.406L315.055 314.051Z" fill="black"/>
<path d="M321.766 307.34L318.411 310.696L321.766 314.051L325.121 310.696L321.766 307.34Z" fill="black"/>
<path d="M328.476 300.63L325.121 303.985L328.476 307.34L331.832 303.985L328.476 300.63Z" fill="black"/>
<path d="M335.187 293.919L331.832 297.275L335.187 300.63L338.542 297.275L335.187 293.919Z" fill="black"/>
<path d="M341.897 287.209L338.542 290.564L341.897 293.919L345.252 290.564L341.897 287.209Z" fill="black"/>
<path d="M348.608 280.498L345.252 283.854L348.608 287.209L351.963 283.854L348.608 280.498Z" fill="black"/>
<path d="M355.318 273.788L351.963 277.143L355.318 280.498L358.673 277.143L355.318 273.788Z" fill="black"/>
<path d="M362.029 267.077L358.673 270.433L362.029 273.788L365.384 270.433L362.029 267.077Z" fill="black"/>
<path d="M365.384 263.722L362.029 267.077L365.384 270.433L368.739 267.077L365.384 263.722Z" fill="black"/>
<path d="M368.739 260.367L365.384 263.722L368.739 267.077L372.094 263.722L368.739 260.367Z" fill="black"/>
<path d="M372.094 257.012L368.739 260.367L372.094 263.722L375.45 260.367L372.094 257.012Z" fill="black"/>
<path d="M375.45 253.656L372.094 257.012L375.45 260.367L378.805 257.012L375.45 253.656Z" fill="black"/>
<path d="M378.805 250.301L375.45 253.656L378.805 257.012L382.16 253.656L378.805 250.301Z" fill="black"/>
<path d="M382.16 246.946L378.805 250.301L382.16 253.656L385.515 250.301L382.16 246.946Z" fill="black"/>
<path d="M325.121 310.696L321.766 314.051L325.121 317.406L328.476 314.051L325.121 310.696Z" fill="black"/>
<path d="M331.832 303.985L328.476 307.34L331.832 310.696L335.187 307.34L331.832 303.985Z" fill="black"/>
<path d="M335.187 300.63L331.832 303.985L335.187 307.34L338.542 303.985L335.187 300.63Z" fill="black"/>
<path d="M338.542 297.275L335.187 300.63L338.542 303.985L341.897 300.63L338.542 297.275Z" fill="black"/>
<path d="M341.897 293.919L338.542 297.275L341.897 300.63L345.252 297.275L341.897 293.919Z" fill="black"/>
<path d="M345.252 290.564L341.897 293.919L345.252 297.275L348.608 293.919L345.252 290.564Z" fill="black"/>
<path d="M351.963 283.854L348.608 287.209L351.963 290.564L355.318 287.209L351.963 283.854Z" fill="black"/>
<path d="M311.7 330.827L308.345 334.182L311.7 337.537L315.055 334.182L311.7 330.827Z" fill="black"/>
<path d="M315.055 327.472L311.7 330.827L315.055 334.182L318.411 330.827L315.055 327.472Z" fill="black"/>
<path d="M321.766 320.761L318.411 324.116L321.766 327.472L325.121 324.116L321.766 320.761Z" fill="black"/>
<path d="M328.476 314.051L325.121 317.406L328.476 320.761L331.832 317.406L328.476 314.051Z" fill="black"/>
<path d="M345.252 297.275L341.897 300.63L345.252 303.985L348.608 300.63L345.252 297.275Z" fill="black"/>
<path d="M355.318 287.209L351.963 290.564L355.318 293.919L358.673 290.564L355.318 287.209Z" fill="black"/>
<path d="M365.384 277.143L362.029 280.498L365.384 283.854L368.739 280.498L365.384 277.143Z" fill="black"/>
<path d="M372.094 270.433L368.739 273.788L372.094 277.143L375.45 273.788L372.094 270.433Z" fill="black"/>
<path d="M378.805 263.722L375.45 267.077L378.805 270.433L382.16 267.077L378.805 263.722Z" fill="black"/>
<path d="M388.871 253.656L385.515 257.012L388.871 260.367L392.226 257.012L388.871 253.656Z" fill="black"/>
<path d="M298.279 350.958L294.924 354.314L298.279 357.669L301.634 354.314L298.279 350.958Z" fill="black"/>
<path d="M301.634 347.603L298.279 350.958L301.634 354.314L304.99 350.958L301.634 347.603Z" fill="black"/>
<path d="M304.99 344.248L301.634 347.603L304.99 350.958L308.345 347.603L304.99 344.248Z" fill="black"/>
<path d="M308.345 340.893L304.99 344.248L308.345 347.603L311.7 344.248L308.345 340.893Z" fill="black"/>
<path d="M311.7 337.537L308.345 340.893L311.7 344.248L315.055 340.893L311.7 337.537Z" fill="black"/>
<path d="M321.766 327.472L318.411 330.827L321.766 334.182L325.121 330.827L321.766 327.472Z" fill="black"/>
<path d="M325.121 324.116L321.766 327.472L325.121 330.827L328.476 327.472L325.121 324.116Z" fill="black"/>
<path d="M328.476 320.761L325.121 324.116L328.476 327.472L331.832 324.116L328.476 320.761Z" fill="black"/>
<path d="M331.832 317.406L328.476 320.761L331.832 324.116L335.187 320.761L331.832 317.406Z" fill="black"/>
<path d="M335.187 314.051L331.832 317.406L335.187 320.761L338.542 317.406L335.187 314.051Z" fill="black"/>
<path d="M345.252 303.985L341.897 307.34L345.252 310.696L348.608 307.34L345.252 303.985Z" fill="black"/>
<path d="M348.608 300.63L345.252 303.985L348.608 307.34L351.963 303.985L348.608 300.63Z" fill="black"/>
<path d="M358.673 290.564L355.318 293.919L358.673 297.275L362.029 293.919L358.673 290.564Z" fill="black"/>
<path d="M362.029 287.209L358.673 290.564L362.029 293.919L365.384 290.564L362.029 287.209Z" fill="black"/>
<path d="M365.384 283.854L362.029 287.209L365.384 290.564L368.739 287.209L365.384 283.854Z" fill="black"/>
<path d="M368.739 280.498L365.384 283.854L368.739 287.209L372.094 283.854L368.739 280.498Z" fill="black"/>
<path d="M375.45 273.788L372.094 277.143L375.45 280.498L378.805 277.143L375.45 273.788Z" fill="black"/>
<path d="M378.805 270.433L375.45 273.788L378.805 277.143L382.16 273.788L378.805 270.433Z" fill="black"/>
<path d="M382.16 267.077L378.805 270.433L382.16 273.788L385.515 270.433L382.16 267.077Z" fill="black"/>
<path d="M385.515 263.722L382.16 267.077L385.515 270.433L388.871 267.077L385.515 263.722Z" fill="black"/>
<path d="M388.871 260.367L385.515 263.722L388.871 267.077L392.226 263.722L388.871 260.367Z" fill="black"/>
<path d="M392.226 257.012L388.871 260.367L392.226 263.722L395.581 260.367L392.226 257.012Z" fill="black"/>
<path d="M311.7 344.248L308.345 347.603L311.7 350.958L315.055 347.603L311.7 344.248Z" fill="black"/>
<path d="M318.411 337.537L315.055 340.893L318.411 344.248L321.766 340.893L318.411 337.537Z" fill="black"/>
<path d="M321.766 334.182L318.411 337.537L321.766 340.893L325.121 337.537L321.766 334.182Z" fill="black"/>
<path d="M328.476 327.472L325.121 330.827L328.476 334.182L331.832 330.827L328.476 327.472Z" fill="black"/>
<path d="M331.832 324.116L328.476 327.472L331.832 330.827L335.187 327.472L331.832 324.116Z" fill="black"/>
<path d="M338.542 317.406L335.187 320.761L338.542 324.116L341.897 320.761L338.542 317.406Z" fill="black"/>
<path d="M345.252 310.696L341.897 314.051L345.252 317.406L348.608 314.051L345.252 310.696Z" fill="black"/>
<path d="M348.608 307.34L345.252 310.696L348.608 314.051L351.963 310.696L348.608 307.34Z" fill="black"/>
<path d="M351.963 303.985L348.608 307.34L351.963 310.696L355.318 307.34L351.963 303.985Z" fill="black"/>
<path d="M355.318 300.63L351.963 303.985L355.318 307.34L358.673 303.985L355.318 300.63Z" fill="black"/>
<path d="M365.384 290.564L362.029 293.919L365.384 297.275L368.739 293.919L365.384 290.564Z" fill="black"/>
<path d="M382.16 273.788L378.805 277.143L382.16 280.498L385.515 277.143L382.16 273.788Z" fill="black"/>
<path d="M385.515 270.433L382.16 273.788L385.515 277.143L388.871 273.788L385.515 270.433Z" fill="black"/>
<path d="M388.871 267.077L385.515 270.433L388.871 273.788L392.226 270.433L388.871 267.077Z" fill="black"/>
<path d="M392.226 263.722L388.871 267.077L392.226 270.433L395.581 267.077L392.226 263.722Z" fill="black"/>
<path d="M304.99 357.669L301.634 361.024L304.99 364.379L308.345 361.024L304.99 357.669Z" fill="black"/>
<path d="M315.055 347.603L311.7 350.958L315.055 354.314L318.411 350.958L315.055 347.603Z" fill="black"/>
<path d="M318.411 344.248L315.055 347.603L318.411 350.958L321.766 347.603L318.411 344.248Z" fill="black"/>
<path d="M331.832 330.827L328.476 334.182L331.832 337.537L335.187 334.182L331.832 330.827Z" fill="black"/>
<path d="M335.187 327.472L331.832 330.827L335.187 334.182L338.542 330.827L335.187 327.472Z" fill="black"/>
<path d="M345.252 317.406L341.897 320.761L345.252 324.116L348.608 320.761L345.252 317.406Z" fill="black"/>
<path d="M348.608 314.051L345.252 317.406L348.608 320.761L351.963 317.406L348.608 314.051Z" fill="black"/>
<path d="M355.318 307.34L351.963 310.696L355.318 314.051L358.673 310.696L355.318 307.34Z" fill="black"/>
<path d="M388.871 273.788L385.515 277.143L388.871 280.498L392.226 277.143L388.871 273.788Z" fill="black"/>
<path d="M392.226 270.433L388.871 273.788L392.226 277.143L395.581 273.788L392.226 270.433Z" fill="black"/>
<path d="M398.936 263.722L395.581 267.077L398.936 270.433L402.291 267.077L398.936 263.722Z" fill="black"/>
<path d="M308.345 361.024L304.99 364.379L308.345 367.735L311.7 364.379L308.345 361.024Z" fill="black"/>
<path d="M311.7 357.669L308.345 361.024L311.7 364.379L315.055 361.024L311.7 357.669Z" fill="black"/>
<path d="M315.055 354.314L311.7 357.669L315.055 361.024L318.411 357.669L315.055 354.314Z" fill="black"/>
<path d="M328.476 340.893L325.121 344.248L328.476 347.603L331.832 344.248L328.476 340.893Z" fill="black"/>
<path d="M331.832 337.537L328.476 340.893L331.832 344.248L335.187 340.893L331.832 337.537Z" fill="black"/>
<path d="M335.187 334.182L331.832 337.537L335.187 340.893L338.542 337.537L335.187 334.182Z" fill="black"/>
<path d="M341.897 327.472L338.542 330.827L341.897 334.182L345.252 330.827L341.897 327.472Z" fill="black"/>
<path d="M348.608 320.761L345.252 324.116L348.608 327.472L351.963 324.116L348.608 320.761Z" fill="black"/>
<path d="M351.963 317.406L348.608 320.761L351.963 324.116L355.318 320.761L351.963 317.406Z" fill="black"/>
<path d="M355.318 314.051L351.963 317.406L355.318 320.761L358.673 317.406L355.318 314.051Z" fill="black"/>
<path d="M375.45 293.919L372.094 297.275L375.45 300.63L378.805 297.275L375.45 293.919Z" fill="black"/>
<path d="M382.16 287.209L378.805 290.564L382.16 293.919L385.515 290.564L382.16 287.209Z" fill="black"/>
<path d="M385.515 283.854L382.16 287.209L385.515 290.564L388.871 287.209L385.515 283.854Z" fill="black"/>
<path d="M388.871 280.498L385.515 283.854L388.871 287.209L392.226 283.854L388.871 280.498Z" fill="black"/>
<path d="M398.936 270.433L395.581 273.788L398.936 277.143L402.291 273.788L398.936 270.433Z" fill="black"/>
<path d="M311.7 364.379L308.345 367.735L311.7 371.09L315.055 367.735L311.7 364.379Z" fill="black"/>
<path d="M315.055 361.024L311.7 364.379L315.055 367.735L318.411 364.379L315.055 361.024Z" fill="black"/>
<path d="M318.411 357.669L315.055 361.024L318.411 364.379L321.766 361.024L318.411 357.669Z" fill="black"/>
<path d="M321.766 354.314L318.411 357.669L321.766 361.024L325.121 357.669L321.766 354.314Z" fill="black"/>
<path d="M325.121 350.958L321.766 354.314L325.121 357.669L328.476 354.314L325.121 350.958Z" fill="black"/>
<path d="M328.476 347.603L325.121 350.958L328.476 354.314L331.832 350.958L328.476 347.603Z" fill="black"/>
<path d="M362.029 314.051L358.673 317.406L362.029 320.761L365.384 317.406L362.029 314.051Z" fill="black"/>
<path d="M365.384 310.696L362.029 314.051L365.384 317.406L368.739 314.051L365.384 310.696Z" fill="black"/>
<path d="M372.094 303.985L368.739 307.34L372.094 310.696L375.45 307.34L372.094 303.985Z" fill="black"/>
<path d="M375.45 300.63L372.094 303.985L375.45 307.34L378.805 303.985L375.45 300.63Z" fill="black"/>
<path d="M382.16 293.919L378.805 297.275L382.16 300.63L385.515 297.275L382.16 293.919Z" fill="black"/>
<path d="M385.515 290.564L382.16 293.919L385.515 297.275L388.871 293.919L385.515 290.564Z" fill="black"/>
<path d="M388.871 287.209L385.515 290.564L388.871 293.919L392.226 290.564L388.871 287.209Z" fill="black"/>
<path d="M318.411 364.379L315.055 367.735L318.411 371.09L321.766 367.735L318.411 364.379Z" fill="black"/>
<path d="M325.121 357.669L321.766 361.024L325.121 364.379L328.476 361.024L325.121 357.669Z" fill="black"/>
<path d="M328.476 354.314L325.121 357.669L328.476 361.024L331.832 357.669L328.476 354.314Z" fill="black"/>
<path d="M331.832 350.958L328.476 354.314L331.832 357.669L335.187 354.314L331.832 350.958Z" fill="black"/>
<path d="M335.187 347.603L331.832 350.958L335.187 354.314L338.542 350.958L335.187 347.603Z" fill="black"/>
<path d="M338.542 344.248L335.187 347.603L338.542 350.958L341.897 347.603L338.542 344.248Z" fill="black"/>
<path d="M345.252 337.537L341.897 340.893L345.252 344.248L348.608 340.893L345.252 337.537Z" fill="black"/>
<path d="M351.963 330.827L348.608 334.182L351.963 337.537L355.318 334.182L351.963 330.827Z" fill="black"/>
<path d="M365.384 317.406L362.029 320.761L365.384 324.116L368.739 320.761L365.384 317.406Z" fill="black"/>
<path d="M368.739 314.051L365.384 317.406L368.739 320.761L372.094 317.406L368.739 314.051Z" fill="black"/>
<path d="M382.16 300.63L378.805 303.985L382.16 307.34L385.515 303.985L382.16 300.63Z" fill="black"/>
<path d="M388.871 293.919L385.515 297.275L388.871 300.63L392.226 297.275L388.871 293.919Z" fill="black"/>
<path d="M395.581 287.209L392.226 290.564L395.581 293.919L398.936 290.564L395.581 287.209Z" fill="black"/>
<path d="M398.936 283.854L395.581 287.209L398.936 290.564L402.291 287.209L398.936 283.854Z" fill="black"/>
<path d="M409.002 273.788L405.647 277.143L409.002 280.498L412.357 277.143L409.002 273.788Z" fill="black"/>
<path d="M321.766 367.735L318.411 371.09L321.766 374.445L325.121 371.09L321.766 367.735Z" fill="black"/>
<path d="M328.476 361.024L325.121 364.379L328.476 367.735L331.832 364.379L328.476 361.024Z" fill="black"/>
<path d="M345.252 344.248L341.897 347.603L345.252 350.958L348.608 347.603L345.252 344.248Z" fill="black"/>
<path d="M348.608 340.893L345.252 344.248L348.608 347.603L351.963 344.248L348.608 340.893Z" fill="black"/>
<path d="M355.318 334.182L351.963 337.537L355.318 340.893L358.673 337.537L355.318 334.182Z" fill="black"/>
<path d="M362.029 327.472L358.673 330.827L362.029 334.182L365.384 330.827L362.029 327.472Z" fill="black"/>
<path d="M365.384 324.116L362.029 327.472L365.384 330.827L368.739 327.472L365.384 324.116Z" fill="black"/>
<path d="M372.094 317.406L368.739 320.761L372.094 324.116L375.45 320.761L372.094 317.406Z" fill="black"/>
<path d="M375.45 314.051L372.094 317.406L375.45 320.761L378.805 317.406L375.45 314.051Z" fill="black"/>
<path d="M382.16 307.34L378.805 310.696L382.16 314.051L385.515 310.696L382.16 307.34Z" fill="black"/>
<path d="M388.871 300.63L385.515 303.985L388.871 307.34L392.226 303.985L388.871 300.63Z" fill="black"/>
<path d="M392.226 297.275L388.871 300.63L392.226 303.985L395.581 300.63L392.226 297.275Z" fill="black"/>
<path d="M398.936 290.564L395.581 293.919L398.936 297.275L402.291 293.919L398.936 290.564Z" fill="black"/>
<path d="M402.291 287.209L398.936 290.564L402.291 293.919L405.647 290.564L402.291 287.209Z" fill="black"/>
<path d="M409.002 280.498L405.647 283.854L409.002 287.209L412.357 283.854L409.002 280.498Z" fill="black"/>
<path d="M321.766 374.445L318.411 377.8L321.766 381.155L325.121 377.8L321.766 374.445Z" fill="black"/>
<path d="M328.476 367.735L325.121 371.09L328.476 374.445L331.832 371.09L328.476 367.735Z" fill="black"/>
<path d="M335.187 361.024L331.832 364.379L335.187 367.735L338.542 364.379L335.187 361.024Z" fill="black"/>
<path d="M341.897 354.314L338.542 357.669L341.897 361.024L345.252 357.669L341.897 354.314Z" fill="black"/>
<path d="M355.318 340.893L351.963 344.248L355.318 347.603L358.673 344.248L355.318 340.893Z" fill="black"/>
<path d="M362.029 334.182L358.673 337.537L362.029 340.893L365.384 337.537L362.029 334.182Z" fill="black"/>
<path d="M368.739 327.472L365.384 330.827L368.739 334.182L372.094 330.827L368.739 327.472Z" fill="black"/>
<path d="M372.094 324.116L368.739 327.472L372.094 330.827L375.45 327.472L372.094 324.116Z" fill="black"/>
<path d="M375.45 320.761L372.094 324.116L375.45 327.472L378.805 324.116L375.45 320.761Z" fill="black"/>
<path d="M385.515 310.696L382.16 314.051L385.515 317.406L388.871 314.051L385.515 310.696Z" fill="black"/>
<path d="M388.871 307.34L385.515 310.696L388.871 314.051L392.226 310.696L388.871 307.34Z" fill="black"/>
<path d="M392.226 303.985L388.871 307.34L392.226 310.696L395.581 307.34L392.226 303.985Z" fill="black"/>
<path d="M398.936 297.275L395.581 300.63L398.936 303.985L402.291 300.63L398.936 297.275Z" fill="black"/>
<path d="M405.647 290.564L402.291 293.919L405.647 297.275L409.002 293.919L405.647 290.564Z" fill="black"/>
<path d="M328.476 374.445L325.121 377.8L328.476 381.155L331.832 377.8L328.476 374.445Z" fill="black"/>
<path d="M331.832 371.09L328.476 374.445L331.832 377.8L335.187 374.445L331.832 371.09Z" fill="black"/>
<path d="M341.897 361.024L338.542 364.379L341.897 367.735L345.252 364.379L341.897 361.024Z" fill="black"/>
<path d="M348.608 354.314L345.252 357.669L348.608 361.024L351.963 357.669L348.608 354.314Z" fill="black"/>
<path d="M355.318 347.603L351.963 350.958L355.318 354.314L358.673 350.958L355.318 347.603Z" fill="black"/>
<path d="M358.673 344.248L355.318 347.603L358.673 350.958L362.029 347.603L358.673 344.248Z" fill="black"/>
<path d="M365.384 337.537L362.029 340.893L365.384 344.248L368.739 340.893L365.384 337.537Z" fill="black"/>
<path d="M368.739 334.182L365.384 337.537L368.739 340.893L372.094 337.537L368.739 334.182Z" fill="black"/>
<path d="M372.094 330.827L368.739 334.182L372.094 337.537L375.45 334.182L372.094 330.827Z" fill="black"/>
<path d="M375.45 327.472L372.094 330.827L375.45 334.182L378.805 330.827L375.45 327.472Z" fill="black"/>
<path d="M378.805 324.116L375.45 327.472L378.805 330.827L382.16 327.472L378.805 324.116Z" fill="black"/>
<path d="M388.871 314.051L385.515 317.406L388.871 320.761L392.226 317.406L388.871 314.051Z" fill="black"/>
<path d="M395.581 307.34L392.226 310.696L395.581 314.051L398.936 310.696L395.581 307.34Z" fill="black"/>
<path d="M398.936 303.985L395.581 307.34L398.936 310.696L402.291 307.34L398.936 303.985Z" fill="black"/>
<path d="M328.476 381.155L325.121 384.511L328.476 387.866L331.832 384.511L328.476 381.155Z" fill="black"/>
<path d="M338.542 371.09L335.187 374.445L338.542 377.8L341.897 374.445L338.542 371.09Z" fill="black"/>
<path d="M341.897 367.735L338.542 371.09L341.897 374.445L345.252 371.09L341.897 367.735Z" fill="black"/>
<path d="M348.608 361.024L345.252 364.379L348.608 367.735L351.963 364.379L348.608 361.024Z" fill="black"/>
<path d="M362.029 347.603L358.673 350.958L362.029 354.314L365.384 350.958L362.029 347.603Z" fill="black"/>
<path d="M365.384 344.248L362.029 347.603L365.384 350.958L368.739 347.603L365.384 344.248Z" fill="black"/>
<path d="M392.226 317.406L388.871 320.761L392.226 324.116L395.581 320.761L392.226 317.406Z" fill="black"/>
<path d="M409.002 300.63L405.647 303.985L409.002 307.34L412.357 303.985L409.002 300.63Z" fill="black"/>
<path d="M331.832 384.511L328.476 387.866L331.832 391.221L335.187 387.866L331.832 384.511Z" fill="black"/>
<path d="M348.608 367.735L345.252 371.09L348.608 374.445L351.963 371.09L348.608 367.735Z" fill="black"/>
<path d="M358.673 357.669L355.318 361.024L358.673 364.379L362.029 361.024L358.673 357.669Z" fill="black"/>
<path d="M365.384 350.958L362.029 354.314L365.384 357.669L368.739 354.314L365.384 350.958Z" fill="black"/>
<path d="M375.45 340.893L372.094 344.248L375.45 347.603L378.805 344.248L375.45 340.893Z" fill="black"/>
<path d="M385.515 330.827L382.16 334.182L385.515 337.537L388.871 334.182L385.515 330.827Z" fill="black"/>
<path d="M409.002 307.34L405.647 310.696L409.002 314.051L412.357 310.696L409.002 307.34Z" fill="black"/>
<path d="M419.068 297.275L415.712 300.63L419.068 303.985L422.423 300.63L419.068 297.275Z" fill="black"/>
<path d="M425.778 290.564L422.423 293.919L425.778 297.275L429.133 293.919L425.778 290.564Z" fill="black"/>
<path d="M338.542 384.511L335.187 387.866L338.542 391.221L341.897 387.866L338.542 384.511Z" fill="black"/>
<path d="M345.252 377.8L341.897 381.155L345.252 384.511L348.608 381.155L345.252 377.8Z" fill="black"/>
<path d="M348.608 374.445L345.252 377.8L348.608 381.155L351.963 377.8L348.608 374.445Z" fill="black"/>
<path d="M351.963 371.09L348.608 374.445L351.963 377.8L355.318 374.445L351.963 371.09Z" fill="black"/>
<path d="M355.318 367.735L351.963 371.09L355.318 374.445L358.673 371.09L355.318 367.735Z" fill="black"/>
<path d="M362.029 361.024L358.673 364.379L362.029 367.735L365.384 364.379L362.029 361.024Z" fill="black"/>
<path d="M385.515 337.537L382.16 340.893L385.515 344.248L388.871 340.893L385.515 337.537Z" fill="black"/>
<path d="M392.226 330.827L388.871 334.182L392.226 337.537L395.581 334.182L392.226 330.827Z" fill="black"/>
<path d="M398.936 324.116L395.581 327.472L398.936 330.827L402.291 327.472L398.936 324.116Z" fill="black"/>
<path d="M402.291 320.761L398.936 324.116L402.291 327.472L405.647 324.116L402.291 320.761Z" fill="black"/>
<path d="M405.647 317.406L402.291 320.761L405.647 324.116L409.002 320.761L405.647 317.406Z" fill="black"/>
<path d="M409.002 314.051L405.647 317.406L409.002 320.761L412.357 317.406L409.002 314.051Z" fill="black"/>
<path d="M412.357 310.696L409.002 314.051L412.357 317.406L415.712 314.051L412.357 310.696Z" fill="black"/>
<path d="M415.712 307.34L412.357 310.696L415.712 314.051L419.068 310.696L415.712 307.34Z" fill="black"/>
<path d="M425.778 297.275L422.423 300.63L425.778 303.985L429.133 300.63L425.778 297.275Z" fill="black"/>
<path d="M429.133 293.919L425.778 297.275L429.133 300.63L432.489 297.275L429.133 293.919Z" fill="black"/>
<path d="M365.384 364.379L362.029 367.735L365.384 371.09L368.739 367.735L365.384 364.379Z" fill="black"/>
<path d="M375.45 354.314L372.094 357.669L375.45 361.024L378.805 357.669L375.45 354.314Z" fill="black"/>
<path d="M402.291 327.472L398.936 330.827L402.291 334.182L405.647 330.827L402.291 327.472Z" fill="black"/>
<path d="M405.647 324.116L402.291 327.472L405.647 330.827L409.002 327.472L405.647 324.116Z" fill="black"/>
<path d="M419.068 310.696L415.712 314.051L419.068 317.406L422.423 314.051L419.068 310.696Z" fill="black"/>
<path d="M422.423 307.34L419.068 310.696L422.423 314.051L425.778 310.696L422.423 307.34Z" fill="black"/>
<path d="M425.778 303.985L422.423 307.34L425.778 310.696L429.133 307.34L425.778 303.985Z" fill="black"/>
<path d="M429.133 300.63L425.778 303.985L429.133 307.34L432.489 303.985L429.133 300.63Z" fill="black"/>
<path d="M432.489 297.275L429.133 300.63L432.489 303.985L435.844 300.63L432.489 297.275Z" fill="black"/>
<path d="M341.897 394.576L338.542 397.932L341.897 401.287L345.252 397.932L341.897 394.576Z" fill="black"/>
<path d="M345.252 391.221L341.897 394.576L345.252 397.932L348.608 394.576L345.252 391.221Z" fill="black"/>
<path d="M348.608 387.866L345.252 391.221L348.608 394.576L351.963 391.221L348.608 387.866Z" fill="black"/>
<path d="M351.963 384.511L348.608 387.866L351.963 391.221L355.318 387.866L351.963 384.511Z" fill="black"/>
<path d="M355.318 381.155L351.963 384.511L355.318 387.866L358.673 384.511L355.318 381.155Z" fill="black"/>
<path d="M358.673 377.8L355.318 381.155L358.673 384.511L362.029 381.155L358.673 377.8Z" fill="black"/>
<path d="M362.029 374.445L358.673 377.8L362.029 381.155L365.384 377.8L362.029 374.445Z" fill="black"/>
<path d="M372.094 364.379L368.739 367.735L372.094 371.09L375.45 367.735L372.094 364.379Z" fill="black"/>
<path d="M382.16 354.314L378.805 357.669L382.16 361.024L385.515 357.669L382.16 354.314Z" fill="black"/>
<path d="M388.871 347.603L385.515 350.958L388.871 354.314L392.226 350.958L388.871 347.603Z" fill="black"/>
<path d="M398.936 337.537L395.581 340.893L398.936 344.248L402.291 340.893L398.936 337.537Z" fill="black"/>
<path d="M402.291 334.182L398.936 337.537L402.291 340.893L405.647 337.537L402.291 334.182Z" fill="black"/>
<path d="M409.002 327.472L405.647 330.827L409.002 334.182L412.357 330.827L409.002 327.472Z" fill="black"/>
<path d="M415.712 320.761L412.357 324.116L415.712 327.472L419.068 324.116L415.712 320.761Z" fill="black"/>
<path d="M422.423 314.051L419.068 317.406L422.423 320.761L425.778 317.406L422.423 314.051Z" fill="black"/>
<path d="M425.778 310.696L422.423 314.051L425.778 317.406L429.133 314.051L425.778 310.696Z" fill="black"/>
<path d="M435.844 300.63L432.489 303.985L435.844 307.34L439.199 303.985L435.844 300.63Z" fill="black"/>
<path d="M345.252 397.932L341.897 401.287L345.252 404.642L348.608 401.287L345.252 397.932Z" fill="black"/>
<path d="M365.384 377.8L362.029 381.155L365.384 384.511L368.739 381.155L365.384 377.8Z" fill="black"/>
<path d="M372.094 371.09L368.739 374.445L372.094 377.8L375.45 374.445L372.094 371.09Z" fill="black"/>
<path d="M375.45 367.735L372.094 371.09L375.45 374.445L378.805 371.09L375.45 367.735Z" fill="black"/>
<path d="M378.805 364.379L375.45 367.735L378.805 371.09L382.16 367.735L378.805 364.379Z" fill="black"/>
<path d="M382.16 361.024L378.805 364.379L382.16 367.735L385.515 364.379L382.16 361.024Z" fill="black"/>
<path d="M388.871 354.314L385.515 357.669L388.871 361.024L392.226 357.669L388.871 354.314Z" fill="black"/>
<path d="M402.291 340.893L398.936 344.248L402.291 347.603L405.647 344.248L402.291 340.893Z" fill="black"/>
<path d="M409.002 334.182L405.647 337.537L409.002 340.893L412.357 337.537L409.002 334.182Z" fill="black"/>
<path d="M412.357 330.827L409.002 334.182L412.357 337.537L415.712 334.182L412.357 330.827Z" fill="black"/>
<path d="M425.778 317.406L422.423 320.761L425.778 324.116L429.133 320.761L425.778 317.406Z" fill="black"/>
<path d="M439.199 303.985L435.844 307.34L439.199 310.696L442.554 307.34L439.199 303.985Z" fill="black"/>
<path d="M348.608 401.287L345.252 404.642L348.608 407.997L351.963 404.642L348.608 401.287Z" fill="black"/>
<path d="M355.318 394.576L351.963 397.932L355.318 401.287L358.673 397.932L355.318 394.576Z" fill="black"/>
<path d="M358.673 391.221L355.318 394.576L358.673 397.932L362.029 394.576L358.673 391.221Z" fill="black"/>
<path d="M362.029 387.866L358.673 391.221L362.029 394.576L365.384 391.221L362.029 387.866Z" fill="black"/>
<path d="M368.739 381.155L365.384 384.511L368.739 387.866L372.094 384.511L368.739 381.155Z" fill="black"/>
<path d="M385.515 364.379L382.16 367.735L385.515 371.09L388.871 367.735L385.515 364.379Z" fill="black"/>
<path d="M415.712 334.182L412.357 337.537L415.712 340.893L419.068 337.537L415.712 334.182Z" fill="black"/>
<path d="M419.068 330.827L415.712 334.182L419.068 337.537L422.423 334.182L419.068 330.827Z" fill="black"/>
<path d="M422.423 327.472L419.068 330.827L422.423 334.182L425.778 330.827L422.423 327.472Z" fill="black"/>
<path d="M425.778 324.116L422.423 327.472L425.778 330.827L429.133 327.472L425.778 324.116Z" fill="black"/>
<path d="M429.133 320.761L425.778 324.116L429.133 327.472L432.489 324.116L429.133 320.761Z" fill="black"/>
<path d="M432.489 317.406L429.133 320.761L432.489 324.116L435.844 320.761L432.489 317.406Z" fill="black"/>
<path d="M435.844 314.051L432.489 317.406L435.844 320.761L439.199 317.406L435.844 314.051Z" fill="black"/>
<path d="M439.199 310.696L435.844 314.051L439.199 317.406L442.554 314.051L439.199 310.696Z" fill="black"/>
<path d="M351.963 404.642L348.608 407.997L351.963 411.353L355.318 407.997L351.963 404.642Z" fill="black"/>
<path d="M358.673 397.932L355.318 401.287L358.673 404.642L362.029 401.287L358.673 397.932Z" fill="black"/>
<path d="M362.029 394.576L358.673 397.932L362.029 401.287L365.384 397.932L362.029 394.576Z" fill="black"/>
<path d="M365.384 391.221L362.029 394.576L365.384 397.932L368.739 394.576L365.384 391.221Z" fill="black"/>
<path d="M372.094 384.511L368.739 387.866L372.094 391.221L375.45 387.866L372.094 384.511Z" fill="black"/>
<path d="M382.16 374.445L378.805 377.8L382.16 381.155L385.515 377.8L382.16 374.445Z" fill="black"/>
<path d="M398.936 357.669L395.581 361.024L398.936 364.379L402.291 361.024L398.936 357.669Z" fill="black"/>
<path d="M409.002 347.603L405.647 350.958L409.002 354.314L412.357 350.958L409.002 347.603Z" fill="black"/>
<path d="M415.712 340.893L412.357 344.248L415.712 347.603L419.068 344.248L415.712 340.893Z" fill="black"/>
<path d="M425.778 330.827L422.423 334.182L425.778 337.537L429.133 334.182L425.778 330.827Z" fill="black"/>
<path d="M429.133 327.472L425.778 330.827L429.133 334.182L432.489 330.827L429.133 327.472Z" fill="black"/>
<path d="M435.844 320.761L432.489 324.116L435.844 327.472L439.199 324.116L435.844 320.761Z" fill="black"/>
<path d="M445.91 310.696L442.554 314.051L445.91 317.406L449.265 314.051L445.91 310.696Z" fill="black"/>
<path d="M355.318 407.997L351.963 411.353L355.318 414.708L358.673 411.353L355.318 407.997Z" fill="black"/>
<path d="M362.029 401.287L358.673 404.642L362.029 407.997L365.384 404.642L362.029 401.287Z" fill="black"/>
<path d="M365.384 397.932L362.029 401.287L365.384 404.642L368.739 401.287L365.384 397.932Z" fill="black"/>
<path d="M368.739 394.576L365.384 397.932L368.739 401.287L372.094 397.932L368.739 394.576Z" fill="black"/>
<path d="M375.45 387.866L372.094 391.221L375.45 394.576L378.805 391.221L375.45 387.866Z" fill="black"/>
<path d="M392.226 371.09L388.871 374.445L392.226 377.8L395.581 374.445L392.226 371.09Z" fill="black"/>
<path d="M412.357 350.958L409.002 354.314L412.357 357.669L415.712 354.314L412.357 350.958Z" fill="black"/>
<path d="M422.423 340.893L419.068 344.248L422.423 347.603L425.778 344.248L422.423 340.893Z" fill="black"/>
<path d="M429.133 334.182L425.778 337.537L429.133 340.893L432.489 337.537L429.133 334.182Z" fill="black"/>
<path d="M432.489 330.827L429.133 334.182L432.489 337.537L435.844 334.182L432.489 330.827Z" fill="black"/>
<path d="M439.199 324.116L435.844 327.472L439.199 330.827L442.554 327.472L439.199 324.116Z" fill="black"/>
<path d="M442.554 320.761L439.199 324.116L442.554 327.472L445.91 324.116L442.554 320.761Z" fill="black"/>
<path d="M358.673 411.353L355.318 414.708L358.673 418.063L362.029 414.708L358.673 411.353Z" fill="black"/>
<path d="M378.805 391.221L375.45 394.576L378.805 397.932L382.16 394.576L378.805 391.221Z" fill="black"/>
<path d="M388.871 381.155L385.515 384.511L388.871 387.866L392.226 384.511L388.871 381.155Z" fill="black"/>
<path d="M392.226 377.8L388.871 381.155L392.226 384.511L395.581 381.155L392.226 377.8Z" fill="black"/>
<path d="M395.581 374.445L392.226 377.8L395.581 381.155L398.936 377.8L395.581 374.445Z" fill="black"/>
<path d="M398.936 371.09L395.581 374.445L398.936 377.8L402.292 374.445L398.936 371.09Z" fill="black"/>
<path d="M402.291 367.735L398.936 371.09L402.292 374.445L405.647 371.09L402.291 367.735Z" fill="black"/>
<path d="M405.647 364.379L402.291 367.735L405.647 371.09L409.002 367.735L405.647 364.379Z" fill="black"/>
<path d="M412.357 357.669L409.002 361.024L412.357 364.379L415.712 361.024L412.357 357.669Z" fill="black"/>
<path d="M415.712 354.314L412.357 357.669L415.712 361.024L419.068 357.669L415.712 354.314Z" fill="black"/>
<path d="M419.068 350.958L415.712 354.314L419.068 357.669L422.423 354.314L419.068 350.958Z" fill="black"/>
<path d="M432.489 337.537L429.133 340.893L432.489 344.248L435.844 340.893L432.489 337.537Z" fill="black"/>
<path d="M435.844 334.182L432.489 337.537L435.844 340.893L439.199 337.537L435.844 334.182Z" fill="black"/>
<path d="M439.199 330.827L435.844 334.182L439.199 337.537L442.554 334.182L439.199 330.827Z" fill="black"/>
<path d="M449.265 320.761L445.91 324.116L449.265 327.472L452.62 324.116L449.265 320.761Z" fill="black"/>
<path d="M452.62 317.406L449.265 320.761L452.62 324.116L455.975 320.761L452.62 317.406Z" fill="black"/>
<path d="M362.029 414.708L358.673 418.063L362.029 421.418L365.384 418.063L362.029 414.708Z" fill="black"/>
<path d="M365.384 411.353L362.029 414.708L365.384 418.063L368.739 414.708L365.384 411.353Z" fill="black"/>
<path d="M368.739 407.997L365.384 411.353L368.739 414.708L372.094 411.353L368.739 407.997Z" fill="black"/>
<path d="M372.094 404.642L368.739 407.997L372.094 411.353L375.45 407.997L372.094 404.642Z" fill="black"/>
<path d="M375.45 401.287L372.094 404.642L375.45 407.997L378.805 404.642L375.45 401.287Z" fill="black"/>
<path d="M378.805 397.932L375.45 401.287L378.805 404.642L382.16 401.287L378.805 397.932Z" fill="black"/>
<path d="M382.16 394.576L378.805 397.932L382.16 401.287L385.515 397.932L382.16 394.576Z" fill="black"/>
<path d="M392.226 384.511L388.871 387.866L392.226 391.221L395.581 387.866L392.226 384.511Z" fill="black"/>
<path d="M409.002 367.735L405.647 371.09L409.002 374.445L412.357 371.09L409.002 367.735Z" fill="black"/>
<path d="M412.357 364.379L409.002 367.735L412.357 371.09L415.712 367.735L412.357 364.379Z" fill="black"/>
<path d="M415.712 361.024L412.357 364.379L415.712 367.735L419.068 364.379L415.712 361.024Z" fill="black"/>
<path d="M419.068 357.669L415.712 361.024L419.068 364.379L422.423 361.024L419.068 357.669Z" fill="black"/>
<path d="M422.423 354.314L419.068 357.669L422.423 361.024L425.778 357.669L422.423 354.314Z" fill="black"/>
<path d="M429.133 347.603L425.778 350.958L429.133 354.314L432.489 350.958L429.133 347.603Z" fill="black"/>
<path d="M432.489 344.248L429.133 347.603L432.489 350.958L435.844 347.603L432.489 344.248Z" fill="black"/>
<path d="M445.91 330.827L442.554 334.182L445.91 337.537L449.265 334.182L445.91 330.827Z" fill="black"/>
<path d="M449.265 327.472L445.91 330.827L449.265 334.182L452.62 330.827L449.265 327.472Z" fill="black"/>
<path d="M540.559 420.78L616.131 345.208L642.483 371.56L566.911 447.132L540.559 420.78Z" fill="#62688F"/>
<path d="M491.358 263.21L429.933 259.108L487.028 316.203L429.933 316.205C417.806 316.401 408.131 326.392 408.328 338.519C408.521 350.367 418.083 359.929 429.931 360.123L504.596 360.123L507.191 367.918C513.92 388.103 528.961 404.446 548.514 412.825L605.608 355.731L531.14 281.262C520.502 270.625 506.369 264.214 491.358 263.21Z" fill="#DBAB84"/>
<path d="M517.77 320.597C516.607 321.76 515.026 322.417 513.378 322.414L487.027 322.414C483.598 322.357 480.866 319.528 480.922 316.098C480.984 312.751 483.68 310.055 487.027 309.993L513.378 309.993C516.809 309.998 519.589 312.778 519.589 316.203C519.589 317.854 518.935 319.432 517.77 320.597Z" fill="#CC8866"/>
</g>
<defs>
<clipPath id="clip0_2804_73">
<rect width="480" height="480" fill="white" transform="translate(80 120)"/>
</clipPath>
<clipPath id="clip1_2804_73">
<rect width="360" height="360" fill="white" transform="translate(165.442 340) rotate(-45)"/>
</clipPath>
</defs>
</svg>
