<svg width="256" height="256" viewBox="0 0 256 256" fill="none" xmlns="http://www.w3.org/2000/svg">
<g id="payment_terminal-256px">
<path id="Vector" d="M193.387 17.8605H158.538V0H182.48C189.929 0 195.968 6.0385 195.968 13.4875V15.2795C195.968 16.705 194.813 17.8605 193.387 17.8605Z" fill="#CFD2DC"/>
<path id="Vector_2" d="M173.95 256H68.397C63.777 256 60.032 252.255 60.032 247.635V37.866C60.032 33.246 63.777 29.501 68.397 29.501H173.95C178.57 29.501 182.315 33.246 182.315 37.866V247.635C182.315 252.255 178.57 256 173.95 256Z" fill="#3B4F66"/>
<path id="Vector_3" d="M173.95 29.5005H155.815C160.635 29.5005 164.543 33.408 164.543 38.228V247.272C164.543 252.092 160.635 256 155.815 256H173.95C178.57 256 182.315 252.255 182.315 247.635V37.866C182.315 33.246 178.571 29.5005 173.95 29.5005Z" fill="#2F455B"/>
<path id="Vector_4" d="M164.543 65.271H77.8046V16.389C77.8046 7.3375 85.1426 0 94.1941 0H180.932C171.881 0 164.543 7.3375 164.543 16.389V65.271H164.543Z" fill="#E6E9ED"/>
<path id="Vector_5" d="M169.371 69.1165H72.976C70.852 69.1165 69.1305 67.395 69.1305 65.271C69.1305 63.147 70.852 61.4255 72.976 61.4255H169.372C171.496 61.4255 173.217 63.147 173.217 65.271C173.217 67.395 171.495 69.1165 169.371 69.1165Z" fill="#253A4C"/>
<path id="Vector_6" d="M162.045 130.389H80.3026C78.9231 130.389 77.8046 129.271 77.8046 127.891V82.126C77.8046 80.7465 78.9231 79.628 80.3026 79.628H162.045C163.424 79.628 164.543 80.7465 164.543 82.126V127.891C164.543 129.271 163.424 130.389 162.045 130.389Z" fill="#00C6C8"/>
<path id="Vector_7" d="M162.615 240.415H79.7321C78.6676 240.415 77.8046 239.552 77.8046 238.488V146.674C77.8046 145.609 78.6676 144.746 79.7321 144.746H162.615C163.68 144.746 164.543 145.609 164.543 146.674V238.488C164.543 239.552 163.68 240.415 162.615 240.415Z" fill="#7A8593"/>
<g id="Group">
<path id="Vector_8" d="M96.0126 163.077H91.3686C89.2446 163.077 87.5231 161.355 87.5231 159.231C87.5231 157.107 89.2446 155.386 91.3686 155.386H96.0126C98.1366 155.386 99.8581 157.107 99.8581 159.231C99.8586 161.355 98.1371 163.077 96.0126 163.077Z" fill="#E6E9ED"/>
<path id="Vector_9" d="M114.12 163.077H109.476C107.352 163.077 105.63 161.355 105.63 159.231C105.63 157.107 107.352 155.386 109.476 155.386H114.12C116.244 155.386 117.965 157.107 117.965 159.231C117.965 161.355 116.244 163.077 114.12 163.077Z" fill="#E6E9ED"/>
<path id="Vector_10" d="M132.227 163.077H127.583C125.459 163.077 123.738 161.355 123.738 159.231C123.738 157.107 125.459 155.386 127.583 155.386H132.227C134.351 155.386 136.072 157.107 136.072 159.231C136.073 161.355 134.351 163.077 132.227 163.077Z" fill="#E6E9ED"/>
<path id="Vector_11" d="M150.334 163.077H145.69C143.566 163.077 141.844 161.355 141.844 159.231C141.844 157.107 143.566 155.386 145.69 155.386H150.334C152.458 155.386 154.179 157.107 154.179 159.231C154.179 161.355 152.458 163.077 150.334 163.077Z" fill="#E6E9ED"/>
<path id="Vector_12" d="M96.0126 176.793H91.3686C89.2446 176.793 87.5231 175.071 87.5231 172.947C87.5231 170.823 89.2446 169.102 91.3686 169.102H96.0126C98.1366 169.102 99.8581 170.823 99.8581 172.947C99.8586 175.071 98.1371 176.793 96.0126 176.793Z" fill="#E6E9ED"/>
<path id="Vector_13" d="M114.12 176.793H109.476C107.352 176.793 105.63 175.071 105.63 172.947C105.63 170.823 107.352 169.102 109.476 169.102H114.12C116.244 169.102 117.965 170.823 117.965 172.947C117.965 175.071 116.244 176.793 114.12 176.793Z" fill="#E6E9ED"/>
<path id="Vector_14" d="M132.227 176.793H127.583C125.459 176.793 123.738 175.071 123.738 172.947C123.738 170.823 125.459 169.102 127.583 169.102H132.227C134.351 169.102 136.072 170.823 136.072 172.947C136.073 175.071 134.351 176.793 132.227 176.793Z" fill="#E6E9ED"/>
<path id="Vector_15" d="M150.334 176.793H145.69C143.566 176.793 141.844 175.071 141.844 172.947C141.844 170.823 143.566 169.102 145.69 169.102H150.334C152.458 169.102 154.179 170.823 154.179 172.947C154.179 175.071 152.458 176.793 150.334 176.793Z" fill="#E6E9ED"/>
<path id="Vector_16" d="M96.0126 189.953H91.3686C89.2446 189.953 87.5231 188.231 87.5231 186.107C87.5231 183.983 89.2446 182.262 91.3686 182.262H96.0126C98.1366 182.262 99.8581 183.983 99.8581 186.107C99.8581 188.231 98.1371 189.953 96.0126 189.953Z" fill="#E6E9ED"/>
<path id="Vector_17" d="M114.12 189.953H109.476C107.352 189.953 105.63 188.231 105.63 186.107C105.63 183.983 107.352 182.262 109.476 182.262H114.12C116.244 182.262 117.965 183.983 117.965 186.107C117.965 188.231 116.244 189.953 114.12 189.953Z" fill="#E6E9ED"/>
<path id="Vector_18" d="M132.227 189.953H127.583C125.459 189.953 123.738 188.231 123.738 186.107C123.738 183.983 125.459 182.262 127.583 182.262H132.227C134.351 182.262 136.072 183.983 136.072 186.107C136.072 188.231 134.351 189.953 132.227 189.953Z" fill="#E6E9ED"/>
<path id="Vector_19" d="M150.334 189.953H145.69C143.566 189.953 141.844 188.231 141.844 186.107C141.844 183.983 143.566 182.262 145.69 182.262H150.334C152.458 182.262 154.179 183.983 154.179 186.107C154.179 188.231 152.458 189.953 150.334 189.953Z" fill="#E6E9ED"/>
<path id="Vector_20" d="M96.0126 204.096H91.3686C89.2446 204.096 87.5231 202.375 87.5231 200.251C87.5231 198.127 89.2446 196.405 91.3686 196.405H96.0126C98.1366 196.405 99.8581 198.127 99.8581 200.251C99.8586 202.375 98.1371 204.096 96.0126 204.096Z" fill="#E6E9ED"/>
<path id="Vector_21" d="M114.12 204.096H109.476C107.352 204.096 105.63 202.375 105.63 200.251C105.63 198.127 107.352 196.405 109.476 196.405H114.12C116.244 196.405 117.965 198.127 117.965 200.251C117.965 202.375 116.244 204.096 114.12 204.096Z" fill="#E6E9ED"/>
<path id="Vector_22" d="M132.227 204.096H127.583C125.459 204.096 123.738 202.375 123.738 200.251C123.738 198.127 125.459 196.405 127.583 196.405H132.227C134.351 196.405 136.072 198.127 136.072 200.251C136.073 202.375 134.351 204.096 132.227 204.096Z" fill="#E6E9ED"/>
<path id="Vector_23" d="M150.334 204.096H145.69C143.566 204.096 141.844 202.375 141.844 200.251C141.844 198.127 143.566 196.405 145.69 196.405H150.334C152.458 196.405 154.179 198.127 154.179 200.251C154.179 202.375 152.458 204.096 150.334 204.096Z" fill="#E6E9ED"/>
<path id="Vector_24" d="M96.0126 217.813H91.3686C89.2446 217.813 87.5231 216.091 87.5231 213.967C87.5231 211.843 89.2446 210.122 91.3686 210.122H96.0126C98.1366 210.122 99.8581 211.843 99.8581 213.967C99.8586 216.091 98.1371 217.813 96.0126 217.813Z" fill="#E6E9ED"/>
<path id="Vector_25" d="M114.12 217.813H109.476C107.352 217.813 105.63 216.091 105.63 213.967C105.63 211.843 107.352 210.122 109.476 210.122H114.12C116.244 210.122 117.965 211.843 117.965 213.967C117.965 216.091 116.244 217.813 114.12 217.813Z" fill="#E6E9ED"/>
<path id="Vector_26" d="M132.227 217.813H127.583C125.459 217.813 123.738 216.091 123.738 213.967C123.738 211.843 125.459 210.122 127.583 210.122H132.227C134.351 210.122 136.072 211.843 136.072 213.967C136.073 216.091 134.351 217.813 132.227 217.813Z" fill="#E6E9ED"/>
<path id="Vector_27" d="M150.334 217.813H145.69C143.566 217.813 141.844 216.091 141.844 213.967C141.844 211.843 143.566 210.122 145.69 210.122H150.334C152.458 210.122 154.179 211.843 154.179 213.967C154.179 216.091 152.458 217.813 150.334 217.813Z" fill="#E6E9ED"/>
</g>
<path id="Vector_28" d="M96.0126 230.973H91.3686C89.2446 230.973 87.5231 229.251 87.5231 227.127C87.5231 225.003 89.2446 223.281 91.3686 223.281H96.0126C98.1366 223.281 99.8581 225.003 99.8581 227.127C99.8581 229.251 98.1371 230.973 96.0126 230.973Z" fill="#EA5D55"/>
<path id="Vector_29" d="M114.12 230.973H109.476C107.352 230.973 105.63 229.251 105.63 227.127C105.63 225.003 107.352 223.281 109.476 223.281H114.12C116.244 223.281 117.965 225.003 117.965 227.127C117.965 229.251 116.244 230.973 114.12 230.973Z" fill="#E6E9ED"/>
<path id="Vector_30" d="M132.226 230.973H127.583C125.459 230.973 123.737 229.251 123.737 227.127C123.737 225.003 125.459 223.281 127.583 223.281H132.226C134.35 223.281 136.072 225.003 136.072 227.127C136.072 229.251 134.351 230.973 132.226 230.973Z" fill="#77D057"/>
<path id="Vector_31" d="M150.334 230.973H145.69C143.566 230.973 141.844 229.251 141.844 227.127C141.844 225.003 143.566 223.281 145.69 223.281H150.334C152.458 223.281 154.179 225.003 154.179 227.127C154.179 229.251 152.458 230.973 150.334 230.973Z" fill="#00C0F4"/>
<g id="Group_2">
<path id="Vector_32" d="M139.139 21.706H104.956C102.832 21.706 101.111 19.9845 101.111 17.8605C101.111 15.7365 102.832 14.015 104.956 14.015H139.139C141.263 14.015 142.985 15.7365 142.985 17.8605C142.985 19.9845 141.263 21.706 139.139 21.706Z" fill="#7A8593"/>
<path id="Vector_33" d="M126.833 36.481H115.553C113.429 36.481 111.707 34.7595 111.707 32.6355C111.707 30.5115 113.429 28.79 115.553 28.79H126.833C128.957 28.79 130.679 30.5115 130.679 32.6355C130.679 34.7595 128.957 36.481 126.833 36.481Z" fill="#7A8593"/>
<path id="Vector_34" d="M118.971 53.838H94.018C91.894 53.838 90.1725 52.1165 90.1725 49.9925C90.1725 47.8685 91.894 46.147 94.018 46.147H118.971C121.095 46.147 122.816 47.8685 122.816 49.9925C122.816 52.1165 121.095 53.838 118.971 53.838Z" fill="#7A8593"/>
<path id="Vector_35" d="M147.685 53.6155C149.809 53.6155 151.53 51.8938 151.53 49.77C151.53 47.6462 149.809 45.9245 147.685 45.9245C145.561 45.9245 143.839 47.6462 143.839 49.77C143.839 51.8938 145.561 53.6155 147.685 53.6155Z" fill="#7A8593"/>
</g>
<g id="Group_3">
<path id="Vector_36" d="M131.62 89.475H87.01V96.1405H131.62V89.475Z" fill="#00AFAA"/>
<path id="Vector_37" d="M109.315 102.805H87.01V109.471H109.315V102.805Z" fill="#00AFAA"/>
</g>
</g>
</svg>
