<svg width="720" height="720" viewBox="0 0 720 720" fill="none" xmlns="http://www.w3.org/2000/svg">
<rect width="720" height="720" fill="white"/>
<rect width="720" height="720" fill="#00B140"/>
<path d="M540.86 435.806C508.765 412.358 494.4 405.597 483.144 410.971C471.55 416.506 471.086 432.091 470.714 444.61L468.732 510.449L466.751 555.76C466.607 559.047 465.178 562.095 462.727 564.345C460.28 566.591 457.129 567.752 453.851 567.607C447.019 567.308 441.704 561.507 442.002 554.677L442.69 538.937C442.695 538.836 442.706 538.736 442.711 538.635C442.713 538.585 442.709 538.536 442.71 538.486L443.986 509.296C444.227 503.778 439.95 499.11 434.432 498.869C428.928 498.605 424.246 502.905 424.005 508.422L422.716 537.905C422.339 544.665 416.615 549.899 409.8 549.608C402.968 549.309 397.653 543.508 397.951 536.678L398.639 520.937C398.644 520.836 398.655 520.735 398.66 520.634C398.662 520.584 398.658 520.536 398.659 520.487L399.935 491.297C400.176 485.779 395.899 481.111 390.381 480.87C384.887 480.606 380.194 484.906 379.954 490.423L378.665 519.911C378.485 523.13 377.068 526.112 374.654 528.321C372.198 530.567 369.043 531.716 365.75 531.581C362.463 531.437 359.414 530.008 357.164 527.556C354.917 525.108 353.759 521.956 353.902 518.679L354.593 502.85C354.597 502.769 354.606 502.689 354.61 502.607C354.612 502.567 354.608 502.528 354.609 502.487L355.885 473.268C356.126 467.75 351.849 463.082 346.331 462.841C340.774 462.587 336.144 466.877 335.904 472.395L334.617 501.85C334.256 508.624 328.468 513.869 321.7 513.58C318.423 513.436 315.383 512.007 313.139 509.554C310.893 507.098 309.736 503.937 309.88 500.636L310.56 484.558L311.865 455.262C312.301 445.139 311.256 434.737 308.77 424.235C314.164 421.259 318.608 416.789 321.605 411.212C325.709 403.575 326.603 394.82 324.114 386.54C320.24 373.75 309.115 365.087 296.595 363.695C297.572 358.632 297.324 353.385 295.803 348.323C293.321 340.061 287.746 333.25 280.108 329.144C276.371 327.135 272.365 325.901 268.28 325.45C269.227 320.493 269.036 315.245 267.486 310.084C265.004 301.822 259.429 295.011 251.791 290.905C248.057 288.898 244.055 287.665 239.974 287.213C240.927 282.243 240.734 276.983 239.169 271.817C236.686 263.553 231.108 256.745 223.464 252.647C215.83 248.555 207.079 247.669 198.818 250.152L175.305 257.229L128.138 210.04L210.035 128.142L241.853 159.943C233.798 164.429 227.404 171.925 224.545 181.441C221.752 190.799 222.779 200.709 227.438 209.344C232.1 217.986 239.823 224.283 249.17 227.072L306.746 244.337C320.528 248.461 320.528 248.461 329.29 257.305C330.367 258.392 331.553 259.589 332.871 260.905L357.012 285.045C367.104 295.167 379.761 305.987 402.319 306.238C444.125 306.772 470.312 331.914 496.197 360.574C517.563 384.23 533.488 403.853 540.86 435.806Z" fill="#FFE600"/>
<path d="M243.707 187.175C244.982 182.931 247.854 179.425 251.794 177.303C255.732 175.182 260.237 174.715 264.482 175.991L340.188 198.666C350.6 201.792 352.898 205.055 359.038 213.775L359.08 213.835C360.252 215.497 361.577 217.377 363.057 219.383L413 286.924C409.481 286.524 405.999 286.281 402.577 286.237H402.57C402.566 286.237 402.562 286.236 402.558 286.236C388.868 286.087 380.967 280.738 371.167 270.909L347.009 246.751C345.718 245.463 344.564 244.298 343.513 243.237L343.511 243.235L343.508 243.233L343.501 243.225C332.546 232.166 330.111 230.447 312.487 225.174L254.904 207.907C250.668 206.643 247.166 203.78 245.043 199.844C242.918 195.908 242.446 191.401 243.707 187.175Z" fill="#FFE600"/>
<path d="M196.536 344.377C193.396 345.327 190.056 344.986 187.127 343.416C184.197 341.844 182.064 339.247 181.112 336.083C180.162 332.943 180.503 329.602 182.073 326.674C183.645 323.744 186.242 321.611 189.386 320.666C189.464 320.642 189.537 320.61 189.615 320.584L217.509 312.188C217.515 312.187 217.521 312.185 217.526 312.183L232.897 307.54C239.437 305.572 246.369 309.294 248.335 315.835C250.289 322.337 246.647 329.204 240.21 331.224C240.21 331.224 211.94 339.751 211.935 339.753L196.536 344.377Z" fill="#FFE600"/>
<path d="M168.239 306.132C165.086 307.08 161.735 306.736 158.802 305.163C155.874 303.594 153.743 301.002 152.794 297.844C151.843 294.703 152.186 291.359 153.758 288.427C155.333 285.491 157.937 283.348 161.072 282.398L204.579 269.304C205.746 268.953 206.94 268.78 208.131 268.78C210.155 268.78 212.169 269.283 214.017 270.273C216.944 271.842 219.075 274.434 220.024 277.592C222.003 284.127 218.282 291.059 211.729 293.044L168.239 306.132Z" fill="#FFE600"/>
<path d="M224.825 382.616C218.304 384.59 211.386 380.87 209.408 374.343C207.441 367.796 211.162 360.87 217.714 358.902L261.215 345.781C262.376 345.432 263.565 345.259 264.75 345.259C266.776 345.259 268.792 345.764 270.643 346.759C273.574 348.335 275.708 350.933 276.653 354.077C277.599 357.223 277.252 360.571 275.675 363.503C274.1 366.435 271.5 368.569 268.357 369.513L268.344 369.517C268.344 369.517 268.342 369.518 268.34 369.518L224.825 382.616Z" fill="#FFE600"/>
<path d="M303.992 401.742C302.417 404.673 299.817 406.808 296.665 407.755L253.163 420.876C250.017 421.821 246.67 421.475 243.736 419.898C240.805 418.322 238.671 415.724 237.726 412.58C236.778 409.428 237.122 406.076 238.695 403.143C240.263 400.216 242.855 398.085 245.993 397.143C246.069 397.12 246.141 397.088 246.216 397.063L289.505 384.019C296.049 382.05 302.991 385.782 304.97 392.315C305.916 395.462 305.568 398.81 303.992 401.742Z" fill="#FFE600"/>
<path d="M509.936 591.858L484.692 566.614C485.88 563.454 486.581 560.097 486.733 556.633L488.717 511.251C488.719 511.206 488.721 511.16 488.722 511.115L490.706 445.207C490.983 435.909 491.636 431.493 492.269 429.448C494.188 429.912 498.486 431.495 507.031 436.81C515.833 442.284 527.846 450.845 545.716 464.384C547.267 465.559 548.739 466.84 550.115 468.215L591.857 509.937L509.936 591.858Z" fill="#FFE600"/>
<path fill-rule="evenodd" clip-rule="evenodd" d="M613.069 502.863L564.205 454.023C559.148 408.782 539.892 379.942 510.604 347.524C489.925 324.637 473.018 305.37 443.383 294.381L379.139 207.5C377.801 205.689 376.605 203.992 375.449 202.35L375.389 202.265C368.451 192.411 362.971 184.628 345.93 179.513L270.226 156.839C268.839 156.422 267.445 156.101 266.052 155.854L217.106 106.927C213.199 103.024 206.871 103.026 202.965 106.929L106.929 202.965C103.025 206.87 103.024 213.2 106.927 217.106L153.613 263.814C146.114 266.533 139.95 271.861 136.135 278.973C132.033 286.619 131.153 295.38 133.648 303.62C136.131 311.884 141.709 318.692 149.353 322.79C153.083 324.79 157.081 326.013 161.158 326.463C160.179 331.538 160.432 336.796 161.965 341.859C164.449 350.127 170.028 356.939 177.672 361.04C181.403 363.042 185.4 364.265 189.471 364.714C188.517 369.682 188.706 374.944 190.261 380.119C194.141 392.926 205.271 401.562 217.779 402.935C216.8 408.006 217.048 413.263 218.573 418.336C221.055 426.598 226.63 433.409 234.268 437.515C239.07 440.096 244.313 441.407 249.601 441.407C252.722 441.407 255.86 440.95 258.929 440.028L289.731 430.737C291.481 438.794 292.217 446.719 291.887 454.386L290.582 483.69L289.902 499.775C289.524 508.392 292.537 516.658 298.384 523.052C304.237 529.451 312.207 533.183 320.828 533.56C321.307 533.581 321.784 533.592 322.26 533.592C327.13 533.592 331.771 532.501 335.942 530.546C337.385 534.386 339.566 537.957 342.431 541.078C348.288 547.46 356.26 551.182 364.876 551.559C365.357 551.58 365.838 551.591 366.317 551.591C371.098 551.591 375.74 550.539 379.986 548.546C384.41 560.351 395.556 569.002 408.925 569.587C409.405 569.608 409.883 569.619 410.36 569.619C415.231 569.619 419.874 568.527 424.046 566.571C428.477 578.363 439.615 587.002 452.975 587.587C453.456 587.608 453.935 587.619 454.413 587.619C460.756 587.619 466.854 585.769 472.1 582.309L502.862 613.071C504.815 615.024 507.374 616 509.933 616C512.492 616 515.051 615.023 517.004 613.071L613.068 517.007C614.943 515.131 615.997 512.587 615.997 509.934C616 507.282 614.945 504.738 613.069 502.863ZM540.86 435.806C533.488 403.853 517.563 384.23 496.197 360.574C470.312 331.914 444.125 306.772 402.319 306.238C379.761 305.987 367.104 295.167 357.012 285.045L332.871 260.905C331.553 259.589 330.367 258.392 329.29 257.305C320.528 248.461 320.528 248.461 306.746 244.337L249.17 227.072C239.823 224.283 232.1 217.986 227.438 209.344C222.779 200.709 221.752 190.799 224.545 181.441C227.404 171.925 233.798 164.429 241.853 159.943L210.035 128.142L128.138 210.04L175.305 257.229L198.818 250.152C207.079 247.669 215.83 248.555 223.464 252.647C231.108 256.745 236.686 263.553 239.169 271.817C240.734 276.983 240.927 282.243 239.974 287.213C244.055 287.665 248.057 288.898 251.791 290.905C259.429 295.011 265.004 301.822 267.486 310.084C269.036 315.245 269.227 320.493 268.28 325.45C272.365 325.901 276.371 327.135 280.108 329.144C287.746 333.25 293.321 340.061 295.803 348.323C297.324 353.385 297.572 358.632 296.595 363.695C309.115 365.087 320.24 373.75 324.114 386.54C326.603 394.82 325.709 403.575 321.605 411.212C318.608 416.789 314.164 421.259 308.77 424.235C311.256 434.737 312.301 445.139 311.865 455.262L310.56 484.558L309.88 500.636C309.736 503.937 310.893 507.098 313.139 509.554C315.383 512.007 318.423 513.436 321.7 513.58C328.468 513.869 334.256 508.624 334.617 501.85L335.904 472.395C336.144 466.877 340.774 462.587 346.331 462.841C351.849 463.082 356.126 467.75 355.885 473.268L354.609 502.487C354.608 502.528 354.612 502.567 354.61 502.607C354.606 502.689 354.597 502.769 354.593 502.85L353.902 518.679C353.759 521.956 354.917 525.108 357.164 527.556C359.414 530.008 362.463 531.437 365.75 531.581C369.043 531.716 372.198 530.567 374.654 528.321C377.068 526.112 378.485 523.13 378.665 519.911L379.954 490.423C380.194 484.906 384.887 480.606 390.381 480.87C395.899 481.111 400.176 485.779 399.935 491.297L398.659 520.487C398.658 520.536 398.662 520.584 398.66 520.634C398.655 520.735 398.644 520.836 398.639 520.937L397.951 536.678C397.653 543.508 402.968 549.309 409.8 549.608C416.615 549.899 422.339 544.665 422.716 537.905L424.005 508.422C424.246 502.905 428.928 498.605 434.432 498.869C439.95 499.11 444.227 503.778 443.986 509.296L442.71 538.486C442.709 538.536 442.713 538.585 442.711 538.635C442.706 538.736 442.695 538.836 442.69 538.937L442.002 554.677C441.704 561.507 447.019 567.308 453.851 567.607C457.129 567.752 460.28 566.591 462.727 564.345C465.178 562.095 466.607 559.047 466.751 555.76L468.732 510.449L470.714 444.61C471.086 432.091 471.55 416.506 483.144 410.971C494.4 405.597 508.765 412.358 540.86 435.806ZM251.794 177.303C247.854 179.425 244.982 182.931 243.707 187.175C242.446 191.401 242.918 195.908 245.043 199.844C247.166 203.78 250.668 206.643 254.904 207.907L312.487 225.174C330.111 230.447 332.546 232.166 343.501 243.225L343.508 243.233L343.511 243.235L343.513 243.237C344.564 244.298 345.718 245.463 347.009 246.751L371.167 270.909C380.967 280.738 388.868 286.087 402.558 286.236C402.562 286.236 402.566 286.237 402.57 286.237H402.577C405.999 286.281 409.481 286.524 413 286.924L363.057 219.383C361.577 217.377 360.252 215.497 359.08 213.835L359.038 213.775C352.898 205.055 350.6 201.792 340.188 198.666L264.482 175.991C260.237 174.715 255.732 175.182 251.794 177.303ZM158.802 305.163C161.735 306.736 165.086 307.08 168.239 306.132L211.729 293.044C218.282 291.059 222.003 284.127 220.024 277.592C219.075 274.434 216.944 271.842 214.017 270.273C212.169 269.283 210.155 268.78 208.131 268.78C206.94 268.78 205.746 268.953 204.579 269.304L161.072 282.398C157.937 283.348 155.333 285.491 153.758 288.427C152.186 291.359 151.843 294.703 152.794 297.844C153.743 301.002 155.874 303.594 158.802 305.163ZM187.127 343.416C190.056 344.986 193.396 345.327 196.536 344.377L211.935 339.753C211.94 339.751 240.21 331.224 240.21 331.224C246.647 329.204 250.289 322.337 248.335 315.835C246.369 309.294 239.437 305.572 232.897 307.54L217.526 312.183C217.521 312.185 217.515 312.187 217.509 312.188L189.615 320.584C189.537 320.61 189.464 320.642 189.386 320.666C186.242 321.611 183.645 323.744 182.073 326.674C180.503 329.602 180.162 332.943 181.112 336.083C182.064 339.247 184.197 341.844 187.127 343.416ZM209.408 374.343C211.386 380.87 218.304 384.59 224.825 382.616L268.34 369.518C268.342 369.518 268.344 369.517 268.344 369.517L268.357 369.513C271.5 368.569 274.1 366.435 275.675 363.503C277.252 360.571 277.599 357.223 276.653 354.077C275.708 350.933 273.574 348.335 270.643 346.759C268.792 345.764 266.776 345.259 264.75 345.259C263.565 345.259 262.376 345.432 261.215 345.781L217.714 358.902C211.162 360.87 207.441 367.796 209.408 374.343ZM296.665 407.755C299.817 406.808 302.417 404.673 303.992 401.742C305.568 398.81 305.916 395.462 304.97 392.315C302.991 385.782 296.049 382.05 289.505 384.019L246.216 397.063C246.141 397.088 246.069 397.12 245.993 397.143C242.855 398.085 240.263 400.216 238.695 403.143C237.122 406.076 236.778 409.428 237.726 412.58C238.671 415.724 240.805 418.322 243.736 419.898C246.67 421.475 250.017 421.821 253.163 420.876L296.665 407.755ZM484.692 566.614L509.936 591.858L591.857 509.937L550.115 468.215C548.739 466.84 547.267 465.559 545.716 464.384C527.846 450.845 515.833 442.284 507.031 436.81C498.486 431.495 494.188 429.912 492.269 429.448C491.636 431.493 490.983 435.909 490.706 445.207L488.722 511.115C488.721 511.16 488.719 511.206 488.717 511.251L486.733 556.633C486.581 560.097 485.88 563.454 484.692 566.614Z" fill="black"/>
</svg>
