<svg width="720" height="720" viewBox="0 0 720 720" fill="none" xmlns="http://www.w3.org/2000/svg">
<g id="AppIcon-SolidarityCard-FF4D00-720px">
<mask id="mask0_1990_26" style="mask-type:alpha" maskUnits="userSpaceOnUse" x="0" y="0" width="720" height="720">
<path id="AppIcon-Mask" d="M0 156C0 69.8436 69.8436 0 156 0H564C650.156 0 720 69.8436 720 156V564C720 650.156 650.156 720 564 720H156C69.8436 720 0 650.156 0 564V156Z" fill="#FF0000"/>
</mask>
<g mask="url(#mask0_1990_26)">
<g id="Logo-SolidarityCard-FF4D00-720px">
<rect width="720" height="720" fill="#FF4D00"/>
<g id="Vector">
<path d="M533.172 432.582C502.441 410.132 488.687 403.658 477.91 408.804C466.809 414.103 466.365 429.025 466.008 441.012L464.111 504.051L462.214 547.436C462.076 550.583 460.708 553.501 458.361 555.656C456.018 557.806 453.001 558.918 449.863 558.779C443.321 558.492 438.232 552.938 438.517 546.399L439.176 531.328C439.181 531.231 439.191 531.135 439.196 531.039C439.198 530.991 439.194 530.944 439.195 530.896L440.417 502.947C440.648 497.664 436.553 493.195 431.269 492.964C425.999 492.711 421.516 496.828 421.286 502.111L420.051 530.34C419.691 536.812 414.21 541.824 407.685 541.545C401.143 541.259 396.054 535.705 396.34 529.165L396.998 514.093C397.003 513.997 397.014 513.9 397.018 513.803C397.02 513.755 397.017 513.709 397.017 513.662L398.239 485.714C398.47 480.43 394.375 475.961 389.092 475.73C383.831 475.477 379.338 479.595 379.108 484.877L377.874 513.111C377.701 516.193 376.345 519.048 374.033 521.163C371.682 523.314 368.661 524.414 365.508 524.285C362.361 524.147 359.441 522.779 357.287 520.431C355.136 518.087 354.027 515.069 354.164 511.931L354.825 496.776C354.829 496.698 354.838 496.621 354.842 496.543C354.844 496.504 354.84 496.467 354.841 496.428L356.062 468.451C356.293 463.168 352.198 458.699 346.915 458.468C341.594 458.225 337.161 462.332 336.931 467.616L335.699 495.818C335.353 502.304 329.811 507.326 323.331 507.049C320.193 506.911 317.283 505.543 315.134 503.194C312.984 500.843 311.876 497.816 312.014 494.656L312.665 479.261L313.914 451.211C314.332 441.519 313.331 431.559 310.951 421.503C316.116 418.654 320.371 414.374 323.24 409.034C327.17 401.722 328.026 393.339 325.642 385.411C321.933 373.165 311.281 364.871 299.294 363.538C300.229 358.69 299.992 353.666 298.535 348.82C296.159 340.909 290.821 334.387 283.508 330.456C279.93 328.533 276.094 327.351 272.183 326.919C273.089 322.173 272.907 317.148 271.422 312.207C269.046 304.296 263.708 297.775 256.395 293.843C252.82 291.922 248.988 290.741 245.08 290.308C245.993 285.55 245.808 280.513 244.31 275.567C241.932 267.654 236.591 261.136 229.272 257.212C221.963 253.294 213.584 252.446 205.674 254.823L183.161 261.599L138 216.417L216.414 138.001L246.879 168.45C239.167 172.745 233.045 179.923 230.307 189.034C227.633 197.994 228.617 207.483 233.077 215.75C237.541 224.025 244.936 230.054 253.885 232.725L309.013 249.255C322.209 253.204 322.209 253.204 330.598 261.672C331.629 262.713 332.765 263.859 334.027 265.119L357.141 288.232C366.804 297.924 378.923 308.284 400.522 308.524C440.551 309.036 465.623 333.108 490.408 360.549C510.865 383.199 526.113 401.988 533.172 432.582Z" fill="#FFE600"/>
<path d="M248.655 194.524C249.875 190.461 252.625 187.104 256.398 185.072C260.168 183.041 264.482 182.594 268.546 183.816L341.033 205.527C351.002 208.52 353.202 211.644 359.081 219.993L359.122 220.05C360.244 221.642 361.512 223.442 362.929 225.363L410.749 290.031C407.379 289.648 404.045 289.416 400.769 289.374H400.762C400.758 289.374 400.755 289.373 400.751 289.373C387.643 289.23 380.078 284.108 370.695 274.697L347.564 251.567C346.328 250.333 345.223 249.218 344.217 248.202L344.214 248.2L344.212 248.198L344.205 248.191C333.716 237.602 331.384 235.956 314.51 230.907L259.375 214.375C255.32 213.164 251.966 210.423 249.934 206.654C247.899 202.886 247.447 198.57 248.655 194.524Z" fill="#FFE600"/>
<path d="M203.489 345.041C200.483 345.951 197.285 345.624 194.481 344.121C191.675 342.616 189.633 340.129 188.721 337.1C187.812 334.094 188.138 330.895 189.641 328.091C191.147 325.286 193.633 323.243 196.644 322.339C196.718 322.316 196.788 322.285 196.863 322.26L223.571 314.221C223.576 314.22 223.582 314.218 223.587 314.216L238.304 309.771C244.566 307.886 251.203 311.45 253.086 317.713C254.957 323.939 251.47 330.514 245.306 332.448C245.306 332.448 218.238 340.612 218.234 340.614L203.489 345.041Z" fill="#FFE600"/>
<path d="M176.396 308.423C173.377 309.33 170.168 309.001 167.36 307.495C164.557 305.993 162.516 303.511 161.608 300.487C160.697 297.48 161.025 294.278 162.531 291.471C164.039 288.659 166.532 286.608 169.534 285.698L211.19 273.161C212.308 272.825 213.451 272.659 214.591 272.659C216.529 272.659 218.458 273.141 220.227 274.089C223.03 275.591 225.07 278.073 225.979 281.096C227.874 287.353 224.311 293.991 218.036 295.891L176.396 308.423Z" fill="#FFE600"/>
<path d="M230.576 381.654C224.332 383.544 217.708 379.982 215.814 373.733C213.931 367.464 217.494 360.833 223.767 358.949L265.418 346.386C266.53 346.051 267.668 345.886 268.803 345.886C270.743 345.886 272.673 346.369 274.445 347.322C277.252 348.831 279.295 351.319 280.2 354.329C281.105 357.341 280.773 360.547 279.263 363.354C277.755 366.161 275.266 368.205 272.256 369.108L272.244 369.112C272.244 369.112 272.242 369.113 272.24 369.113L230.576 381.654Z" fill="#FFE600"/>
<path d="M306.376 399.967C304.868 402.773 302.379 404.818 299.361 405.724L257.708 418.287C254.696 419.192 251.492 418.861 248.682 417.351C245.876 415.842 243.833 413.354 242.928 410.344C242.02 407.326 242.35 404.117 243.856 401.308C245.357 398.506 247.839 396.465 250.843 395.564C250.916 395.541 250.985 395.511 251.057 395.487L292.505 382.998C298.771 381.112 305.418 384.686 307.312 390.941C308.218 393.954 307.885 397.16 306.376 399.967Z" fill="#FFE600"/>
<path d="M503.563 581.999L479.392 557.828C480.53 554.802 481.201 551.588 481.346 548.271L483.246 504.819C483.248 504.776 483.25 504.732 483.251 504.689L485.15 441.584C485.416 432.681 486.041 428.453 486.647 426.495C488.484 426.939 492.599 428.455 500.781 433.544C509.209 438.785 520.711 446.982 537.821 459.945C539.306 461.07 540.716 462.297 542.033 463.613L582 503.561L503.563 581.999Z" fill="#FFE600"/>
</g>
</g>
</g>
</g>
</svg>
