<svg width="720" height="720" viewBox="0 0 720 720" fill="none" xmlns="http://www.w3.org/2000/svg">
<g id="AppIcon-SolidarityDAO-FF4D00-720px">
<rect width="720" height="720" rx="160" fill="#FF4D00"/>
<g id="Vector">
<path d="M526.5 431.357V518.572C526.5 522.951 522.951 526.5 518.572 526.5C514.193 526.5 510.644 522.951 510.644 518.572V463.072C510.644 458.693 507.094 455.144 502.715 455.144C498.336 455.144 494.787 458.693 494.787 463.072V550.286C494.787 554.665 491.237 558.214 486.859 558.214C482.48 558.214 478.931 554.665 478.931 550.286V463.071C478.931 458.692 475.381 455.143 471.002 455.143C466.623 455.143 463.074 458.692 463.074 463.071V574.072C463.074 578.451 459.525 582 455.146 582C450.767 582 447.218 578.451 447.218 574.072V463.071C447.218 458.692 443.668 455.143 439.289 455.143C434.91 455.143 431.361 458.692 431.361 463.071V534.429C431.361 538.808 427.812 542.357 423.433 542.357C419.054 542.357 415.504 538.808 415.504 534.429V415.5C415.504 411.121 411.955 407.572 407.576 407.572H392.217C393.923 393.725 400.896 381.067 411.688 372.225C419.066 366.164 423.37 357.136 423.434 347.588V320.357H502.714V344.026C502.583 358.565 506.403 372.868 513.764 385.407C522.092 399.288 526.494 415.17 526.5 431.357Z" fill="#FFE600"/>
<path d="M399.643 502.714H375.974C361.434 502.583 347.132 506.403 334.592 513.764C320.712 522.092 304.83 526.494 288.643 526.5H201.428C197.049 526.5 193.5 522.951 193.5 518.572C193.5 514.193 197.049 510.644 201.428 510.644H256.928C261.307 510.644 264.856 507.094 264.856 502.715C264.856 498.336 261.306 494.787 256.928 494.787H169.714C165.335 494.787 161.786 491.237 161.786 486.859C161.786 482.48 165.335 478.931 169.714 478.931H256.929C261.308 478.931 264.857 475.381 264.857 471.002C264.857 466.623 261.307 463.074 256.929 463.074H145.928C141.549 463.074 138 459.525 138 455.146C138 450.767 141.549 447.218 145.928 447.218H256.929C261.308 447.218 264.857 443.668 264.857 439.289C264.857 434.91 261.307 431.361 256.929 431.361H185.571C181.192 431.361 177.643 427.812 177.643 423.433C177.643 419.054 181.192 415.504 185.571 415.504H304.5C308.879 415.504 312.429 411.955 312.429 407.576V392.217C326.275 393.923 338.933 400.896 347.774 411.688C353.836 419.066 362.864 423.37 372.412 423.434H399.643V502.714Z" fill="#FFE600"/>
<path d="M193.5 288.643V201.428C193.5 197.049 197.049 193.5 201.428 193.5C205.807 193.5 209.356 197.049 209.356 201.428V256.928C209.356 261.307 212.906 264.856 217.285 264.856C221.664 264.856 225.213 261.306 225.213 256.928V169.714C225.213 165.335 228.762 161.786 233.141 161.786C237.52 161.786 241.071 165.335 241.071 169.714V256.929C241.071 261.308 244.621 264.857 249 264.857C253.379 264.857 256.928 261.307 256.928 256.929V145.928C256.928 141.549 260.478 138 264.856 138C269.235 138 272.784 141.549 272.784 145.928V256.929C272.784 261.308 276.334 264.857 280.713 264.857C285.092 264.857 288.641 261.307 288.641 256.929V185.571C288.641 181.192 292.19 177.643 296.569 177.643C300.948 177.643 304.497 181.192 304.497 185.571V304.5C304.497 308.879 308.047 312.429 312.426 312.429H327.785C326.079 326.275 319.106 338.933 308.314 347.774C300.936 353.836 296.632 362.864 296.568 372.412V399.643H217.286V375.974C217.416 361.434 213.597 347.132 206.236 334.592C197.908 320.712 193.506 304.83 193.5 288.643Z" fill="#FFE600"/>
<path d="M574.072 272.785H463.071C458.692 272.785 455.143 276.335 455.143 280.714C455.143 285.093 458.692 288.642 463.071 288.642H534.429C538.808 288.642 542.357 292.191 542.357 296.57C542.357 300.949 538.808 304.498 534.429 304.498H415.5C411.121 304.498 407.572 308.048 407.572 312.427V327.786C393.725 326.08 381.067 319.107 372.225 308.315C366.164 300.937 357.136 296.633 347.588 296.569H320.357V217.286H344.026C358.565 217.416 372.868 213.597 385.407 206.236C399.287 197.908 415.169 193.506 431.356 193.5H518.571C522.95 193.5 526.499 197.049 526.499 201.428C526.499 205.807 522.95 209.356 518.571 209.356H463.071C458.692 209.356 455.143 212.906 455.143 217.285C455.143 221.664 458.692 225.213 463.071 225.213H550.286C554.665 225.213 558.214 228.762 558.214 233.141C558.214 237.52 554.665 241.071 550.286 241.071H463.071C458.692 241.071 455.143 244.621 455.143 249C455.143 253.379 458.692 256.928 463.071 256.928H574.072C578.451 256.928 582 260.478 582 264.856C582 269.236 578.451 272.785 574.072 272.785Z" fill="#FFE600"/>
</g>
</g>
</svg>
