<svg width="720" height="720" viewBox="0 0 720 720" fill="none" xmlns="http://www.w3.org/2000/svg">
<g id="AppIcon-SolidarityCard-FF4D00-720px">
<rect width="720" height="720" rx="160" fill="#FF4D00"/>
<g id="Vector">
<path d="M533.172 432.581C502.441 410.13 488.687 403.657 477.91 408.802C466.809 414.102 466.365 429.024 466.008 441.011L464.111 504.05L462.214 547.434C462.076 550.581 460.708 553.5 458.361 555.654C456.018 557.805 453.001 558.916 449.863 558.777C443.321 558.491 438.232 552.937 438.517 546.397L439.176 531.326C439.181 531.23 439.191 531.134 439.196 531.037C439.198 530.989 439.194 530.943 439.195 530.895L440.417 502.946C440.648 497.663 436.553 493.193 431.269 492.962C425.999 492.71 421.516 496.827 421.286 502.109L420.051 530.338C419.691 536.811 414.21 541.822 407.685 541.544C401.143 541.257 396.054 535.703 396.34 529.164L396.998 514.092C397.003 513.995 397.014 513.899 397.018 513.802C397.02 513.754 397.017 513.708 397.017 513.661L398.239 485.712C398.47 480.429 394.375 475.959 389.092 475.729C383.831 475.476 379.338 479.593 379.108 484.876L377.874 513.11C377.701 516.192 376.345 519.047 374.033 521.162C371.682 523.312 368.661 524.413 365.508 524.283C362.361 524.145 359.441 522.777 357.287 520.429C355.136 518.086 354.027 515.068 354.164 511.93L354.825 496.774C354.829 496.697 354.838 496.62 354.842 496.541C354.844 496.503 354.84 496.466 354.841 496.426L356.062 468.45C356.293 463.167 352.198 458.697 346.915 458.466C341.594 458.223 337.161 462.331 336.931 467.614L335.699 495.817C335.353 502.303 329.811 507.324 323.331 507.048C320.193 506.91 317.283 505.542 315.134 503.193C312.984 500.841 311.876 497.815 312.014 494.654L312.665 479.26L313.914 451.21C314.332 441.517 313.331 431.557 310.951 421.502C316.116 418.653 320.371 414.373 323.24 409.033C327.17 401.721 328.026 393.338 325.642 385.41C321.933 373.164 311.281 364.869 299.294 363.536C300.229 358.689 299.992 353.665 298.535 348.818C296.159 340.907 290.821 334.386 283.508 330.455C279.93 328.531 276.094 327.35 272.183 326.918C273.089 322.172 272.907 317.147 271.422 312.205C269.046 304.294 263.708 297.773 256.395 293.842C252.82 291.92 248.988 290.74 245.08 290.307C245.993 285.548 245.808 280.512 244.31 275.565C241.932 267.653 236.591 261.134 229.272 257.211C221.963 253.293 213.584 252.444 205.674 254.822L183.161 261.598L138 216.415L216.414 138L246.879 168.449C239.167 172.744 233.045 179.921 230.307 189.033C227.633 197.993 228.617 207.481 233.077 215.749C237.541 224.024 244.936 230.053 253.885 232.723L309.013 249.254C322.209 253.203 322.209 253.203 330.598 261.671C331.629 262.711 332.765 263.857 334.027 265.117L357.141 288.231C366.804 297.922 378.923 308.282 400.522 308.523C440.551 309.034 465.623 333.107 490.408 360.548C510.865 383.198 526.113 401.987 533.172 432.581Z" fill="#FFE600"/>
<path d="M248.655 194.523C249.875 190.459 252.625 187.102 256.398 185.07C260.168 183.04 264.482 182.593 268.546 183.814L341.033 205.525C351.002 208.518 353.202 211.642 359.081 219.992L359.122 220.049C360.244 221.641 361.512 223.441 362.929 225.361L410.749 290.03C407.379 289.647 404.045 289.414 400.769 289.372H400.762C400.758 289.372 400.755 289.371 400.751 289.371C387.643 289.229 380.078 284.107 370.695 274.696L347.564 251.565C346.328 250.332 345.223 249.217 344.217 248.201L344.214 248.199L344.212 248.196L344.205 248.189C333.716 237.601 331.384 235.955 314.51 230.906L259.375 214.373C255.32 213.163 251.966 210.422 249.934 206.653C247.899 202.884 247.447 198.569 248.655 194.523Z" fill="#FFE600"/>
<path d="M203.489 345.04C200.483 345.95 197.285 345.623 194.481 344.12C191.675 342.615 189.633 340.128 188.721 337.099C187.812 334.092 188.138 330.893 189.641 328.09C191.147 325.284 193.633 323.242 196.644 322.337C196.718 322.314 196.788 322.284 196.863 322.259L223.571 314.22C223.576 314.219 223.582 314.217 223.587 314.215L238.304 309.769C244.566 307.885 251.203 311.449 253.086 317.712C254.957 323.937 251.47 330.512 245.306 332.446C245.306 332.446 218.238 340.611 218.234 340.613L203.489 345.04Z" fill="#FFE600"/>
<path d="M176.396 308.421C173.377 309.329 170.168 309 167.36 307.493C164.557 305.991 162.516 303.509 161.608 300.486C160.697 297.478 161.025 294.276 162.531 291.469C164.039 288.658 166.532 286.606 169.534 285.696L211.19 273.159C212.308 272.823 213.451 272.658 214.591 272.658C216.529 272.658 218.458 273.139 220.227 274.087C223.03 275.589 225.07 278.071 225.979 281.095C227.874 287.352 224.311 293.989 218.036 295.89L176.396 308.421Z" fill="#FFE600"/>
<path d="M230.576 381.653C224.332 383.543 217.708 379.981 215.814 373.732C213.931 367.463 217.494 360.832 223.767 358.947L265.418 346.384C266.53 346.05 267.668 345.884 268.803 345.884C270.743 345.884 272.673 346.368 274.445 347.321C277.252 348.83 279.295 351.317 280.2 354.327C281.105 357.34 280.773 360.545 279.263 363.353C277.755 366.16 275.266 368.203 272.256 369.107L272.244 369.111C272.244 369.111 272.242 369.112 272.24 369.112L230.576 381.653Z" fill="#FFE600"/>
<path d="M306.376 399.966C304.868 402.772 302.379 404.816 299.361 405.723L257.708 418.286C254.696 419.191 251.492 418.859 248.682 417.349C245.876 415.84 243.833 413.353 242.928 410.343C242.02 407.325 242.35 404.115 243.856 401.307C245.357 398.504 247.839 396.464 250.843 395.562C250.916 395.54 250.985 395.509 251.057 395.485L292.505 382.996C298.771 381.111 305.418 384.684 307.312 390.939C308.218 393.953 307.885 397.158 306.376 399.966Z" fill="#FFE600"/>
<path d="M503.563 581.997L479.392 557.827C480.53 554.801 481.201 551.587 481.346 548.27L483.246 504.818C483.248 504.775 483.25 504.731 483.251 504.688L485.15 441.582C485.416 432.68 486.041 428.451 486.647 426.493C488.484 426.938 492.599 428.453 500.781 433.542C509.209 438.784 520.711 446.981 537.821 459.944C539.306 461.069 540.716 462.295 542.033 463.612L582 503.56L503.563 581.997Z" fill="#FFE600"/>
</g>
</g>
</svg>
