<svg width="2304" height="720" viewBox="0 0 2304 720" fill="none" xmlns="http://www.w3.org/2000/svg">
<rect width="2304" height="720" rx="144" fill="#FF4D00"/>
<mask id="mask0_6539_118" style="mask-type:alpha" maskUnits="userSpaceOnUse" x="230" y="168" width="257" height="256">
<path fill-rule="evenodd" clip-rule="evenodd" d="M341.682 392.936C322.493 407.916 288.743 424 275.198 424C266.507 424 264.024 416.265 268.426 410.126C269.689 408.318 271.559 405.871 273.73 403.031C278.932 396.224 285.864 387.154 290.324 379.185C291.227 377.343 290.662 375.501 288.969 374.519C252.736 353.4 230.5 318.899 230.5 279.609C230.5 217.849 287.389 168 358.5 168C429.611 168 486.5 217.849 486.5 279.609C486.5 280.079 486.497 280.549 486.49 281.018C414.115 281.022 353.278 328.193 344.583 391.249C343.68 391.581 342.731 392.13 341.682 392.936Z" fill="#C4C4C4"/>
</mask>
<g mask="url(#mask0_6539_118)">
<rect x="230.5" y="168" width="256" height="256" fill="#FFE600"/>
</g>
<mask id="mask1_6539_118" style="mask-type:alpha" maskUnits="userSpaceOnUse" x="358" y="296" width="257" height="257">
<path d="M569.804 552.008C556.259 552.008 522.509 535.923 503.321 520.944C501.402 519.47 499.822 518.857 498.241 518.857C496.774 518.979 495.307 519.102 493.839 519.102C412.456 519.102 358.502 468.762 358.502 407.616C358.502 345.857 415.391 296.008 486.502 296.008C557.613 296.008 614.502 345.857 614.502 407.616C614.502 446.906 592.266 481.408 556.033 502.527C554.34 503.509 553.776 505.351 554.679 507.192C561 518.488 572.287 531.994 576.576 538.133C580.978 544.272 578.495 552.008 569.804 552.008Z" fill="#FF0000"/>
</mask>
<g mask="url(#mask1_6539_118)">
<rect x="358.5" y="296" width="256" height="256" fill="#FFE600"/>
</g>
<path d="M746.25 440.797C782.742 440.797 805.629 422.234 805.629 392.598V392.492C805.629 369.5 792.234 356.633 760.172 349.883L743.824 346.402C724.84 342.395 717.141 335.645 717.141 324.887V324.781C717.141 311.809 729.164 303.898 746.039 303.898C763.441 303.793 774.727 312.23 776.625 324.043L776.836 325.309H802.887L802.781 323.938C800.883 299.469 779.895 281.012 746.145 281.012C713.238 281.012 689.824 299.363 689.824 326.574V326.68C689.824 349.355 703.324 363.91 734.438 370.449L750.785 373.824C770.402 378.043 778.313 384.688 778.313 395.656V395.762C778.313 408.84 765.445 417.91 747.094 417.91C727.793 417.91 714.188 409.473 712.922 396.711L712.816 395.656H686.449L686.555 397.133C688.453 423.395 710.918 440.797 746.25 440.797ZM883.254 439.32C917.742 439.32 938.731 416.75 938.731 379.414V379.203C938.731 342.078 917.637 319.508 883.254 319.508C848.977 319.508 827.777 342.184 827.777 379.203V379.414C827.777 416.75 848.66 439.32 883.254 439.32ZM883.254 418.016C865.008 418.016 854.566 403.777 854.566 379.52V379.309C854.566 355.051 865.008 340.707 883.254 340.707C901.395 340.707 911.836 355.051 911.836 379.309V379.52C911.836 403.777 901.5 418.016 883.254 418.016ZM966.152 437H992.414V277.109H966.152V437ZM1039.14 302.422C1047.68 302.422 1054.75 295.566 1054.75 286.918C1054.75 278.375 1047.68 271.414 1039.14 271.414C1030.49 271.414 1023.42 278.375 1023.42 286.918C1023.42 295.566 1030.49 302.422 1039.14 302.422ZM1025.95 437H1052.21V321.723H1025.95V437ZM1126.04 438.898C1142.29 438.898 1154.73 431.516 1161.06 418.965H1162.85V437H1189.22V277.109H1162.85V340.074H1161.06C1155.05 327.629 1141.86 319.824 1126.04 319.824C1096.83 319.824 1078.79 342.605 1078.79 379.309V379.52C1078.79 416.012 1097.14 438.898 1126.04 438.898ZM1134.27 416.75C1116.34 416.75 1105.48 402.723 1105.48 379.52V379.309C1105.48 356.105 1116.45 341.973 1134.27 341.973C1152.09 341.973 1163.27 356.211 1163.27 379.309V379.52C1163.27 402.617 1152.2 416.75 1134.27 416.75ZM1253.66 438.898C1268.85 438.898 1281.08 432.359 1287.41 421.18H1289.2V437H1315.15V358.215C1315.15 333.852 1298.48 319.508 1268.85 319.508C1241.43 319.508 1222.86 332.375 1220.33 351.781L1220.23 352.73H1245.01L1245.12 352.309C1247.75 344.715 1255.56 340.391 1267.58 340.391C1281.71 340.391 1289.2 346.719 1289.2 358.215V368.129L1259.57 369.922C1231.51 371.609 1215.8 383.633 1215.8 404.199V404.41C1215.8 425.398 1231.72 438.898 1253.66 438.898ZM1241.74 403.145V402.934C1241.74 393.441 1248.6 388.063 1263.26 387.113L1289.2 385.426V394.707C1289.2 408.418 1277.5 418.754 1261.68 418.754C1250.07 418.754 1241.74 412.953 1241.74 403.145ZM1346.68 437H1372.95V370.027C1372.95 353.574 1384.44 343.133 1401.95 343.133C1406.48 343.133 1410.81 343.766 1415.03 344.609V321.09C1412.5 320.352 1408.38 319.824 1404.37 319.824C1389.19 319.824 1378.64 327.102 1374.74 339.441H1372.95V321.723H1346.68V437ZM1450.04 302.422C1458.59 302.422 1465.65 295.566 1465.65 286.918C1465.65 278.375 1458.59 271.414 1450.04 271.414C1441.39 271.414 1434.33 278.375 1434.33 286.918C1434.33 295.566 1441.39 302.422 1450.04 302.422ZM1436.86 437H1463.12V321.723H1436.86V437ZM1540.75 437.527C1545.81 437.527 1550.66 437.105 1554.46 436.367V416.117C1551.29 416.434 1549.29 416.539 1545.6 416.539C1534.63 416.539 1530.09 411.688 1530.09 400.191V342.078H1554.46V321.723H1530.09V293.457H1503.41V321.723H1485.48V342.078H1503.41V406.414C1503.41 428.668 1514.27 437.527 1540.75 437.527ZM1592.95 477.5C1618.48 477.5 1631.66 468.324 1641.57 439.426L1682.92 321.723H1655.29L1628.5 411.793H1626.49L1599.6 321.723H1570.91L1612.15 437.105L1610.78 442.379C1607.93 452.82 1601.5 457.25 1590.74 457.25C1588 457.25 1585.04 457.145 1582.93 456.934V477.078C1586.1 477.395 1589.79 477.5 1592.95 477.5ZM1746.62 437H1778.47L1831.1 284.809H1801.04L1763.39 405.57H1761.6L1723.95 284.809H1693.99L1746.62 437ZM1892.38 439.32C1926.87 439.32 1947.86 416.75 1947.86 379.414V379.203C1947.86 342.078 1926.76 319.508 1892.38 319.508C1858.1 319.508 1836.9 342.184 1836.9 379.203V379.414C1836.9 416.75 1857.79 439.32 1892.38 439.32ZM1892.38 418.016C1874.13 418.016 1863.69 403.777 1863.69 379.52V379.309C1863.69 355.051 1874.13 340.707 1892.38 340.707C1910.52 340.707 1920.96 355.051 1920.96 379.309V379.52C1920.96 403.777 1910.62 418.016 1892.38 418.016ZM1959.56 437H1987.83L2011.35 396.922H2013.14L2036.77 437H2066.3L2028.64 378.676L2065.87 321.723H2037.08L2014.3 361.695H2012.51L1989.62 321.723H1959.25L1996.9 379.836L1959.56 437Z" fill="#FFE600"/>
</svg>
