<svg width="2304" height="720" viewBox="0 0 2304 720" fill="none" xmlns="http://www.w3.org/2000/svg">
<rect width="2304" height="720" rx="144" fill="#FF4D00"/>
<mask id="mask0_6539_104" style="mask-type:alpha" maskUnits="userSpaceOnUse" x="132" y="168" width="257" height="256">
<path fill-rule="evenodd" clip-rule="evenodd" d="M243.682 392.936C224.493 407.916 190.743 424 177.198 424C168.507 424 166.024 416.265 170.426 410.126C171.689 408.318 173.559 405.871 175.73 403.031C180.932 396.224 187.864 387.154 192.324 379.185C193.227 377.343 192.662 375.501 190.969 374.519C154.736 353.4 132.5 318.899 132.5 279.609C132.5 217.849 189.389 168 260.5 168C331.611 168 388.5 217.849 388.5 279.609C388.5 280.079 388.497 280.549 388.49 281.018C316.115 281.022 255.278 328.193 246.583 391.249C245.68 391.581 244.731 392.13 243.682 392.936Z" fill="#C4C4C4"/>
</mask>
<g mask="url(#mask0_6539_104)">
<rect x="132.5" y="168" width="256" height="256" fill="#FFE600"/>
</g>
<mask id="mask1_6539_104" style="mask-type:alpha" maskUnits="userSpaceOnUse" x="260" y="296" width="257" height="257">
<path d="M471.804 552.007C458.259 552.007 424.509 535.923 405.321 520.944C403.402 519.47 401.822 518.856 400.241 518.856C398.774 518.979 397.307 519.102 395.839 519.102C314.456 519.102 260.502 468.761 260.502 407.616C260.502 345.857 317.391 296.007 388.502 296.007C459.613 296.007 516.502 345.857 516.502 407.616C516.502 446.906 494.266 481.408 458.033 502.526C456.34 503.509 455.776 505.35 456.679 507.192C463 518.488 474.287 531.994 478.576 538.133C482.978 544.272 480.495 552.007 471.804 552.007Z" fill="#FF0000"/>
</mask>
<g mask="url(#mask1_6539_104)">
<rect x="260.5" y="296" width="256" height="256" fill="#FFE600"/>
</g>
<path d="M648.375 440.797C684.867 440.797 707.754 422.234 707.754 392.598V392.492C707.754 369.5 694.359 356.633 662.297 349.883L645.949 346.402C626.965 342.395 619.266 335.645 619.266 324.887V324.781C619.266 311.809 631.289 303.898 648.164 303.898C665.566 303.793 676.852 312.23 678.75 324.043L678.961 325.309H705.012L704.906 323.938C703.008 299.469 682.02 281.012 648.27 281.012C615.363 281.012 591.949 299.363 591.949 326.574V326.68C591.949 349.355 605.449 363.91 636.563 370.449L652.91 373.824C672.527 378.043 680.438 384.688 680.438 395.656V395.762C680.438 408.84 667.57 417.91 649.219 417.91C629.918 417.91 616.313 409.473 615.047 396.711L614.941 395.656H588.574L588.68 397.133C590.578 423.395 613.043 440.797 648.375 440.797ZM785.379 439.32C819.867 439.32 840.856 416.75 840.856 379.414V379.203C840.856 342.078 819.762 319.508 785.379 319.508C751.102 319.508 729.902 342.184 729.902 379.203V379.414C729.902 416.75 750.785 439.32 785.379 439.32ZM785.379 418.016C767.133 418.016 756.691 403.777 756.691 379.52V379.309C756.691 355.051 767.133 340.707 785.379 340.707C803.52 340.707 813.961 355.051 813.961 379.309V379.52C813.961 403.777 803.625 418.016 785.379 418.016ZM868.277 437H894.539V277.109H868.277V437ZM941.262 302.422C949.805 302.422 956.871 295.566 956.871 286.918C956.871 278.375 949.805 271.414 941.262 271.414C932.613 271.414 925.547 278.375 925.547 286.918C925.547 295.566 932.613 302.422 941.262 302.422ZM928.078 437H954.34V321.723H928.078V437ZM1028.17 438.898C1044.41 438.898 1056.86 431.516 1063.18 418.965H1064.98V437H1091.34V277.109H1064.98V340.074H1063.18C1057.17 327.629 1043.99 319.824 1028.17 319.824C998.953 319.824 980.918 342.605 980.918 379.309V379.52C980.918 416.012 999.27 438.898 1028.17 438.898ZM1036.39 416.75C1018.46 416.75 1007.6 402.723 1007.6 379.52V379.309C1007.6 356.105 1018.57 341.973 1036.39 341.973C1054.22 341.973 1065.4 356.211 1065.4 379.309V379.52C1065.4 402.617 1054.32 416.75 1036.39 416.75ZM1155.79 438.898C1170.97 438.898 1183.21 432.359 1189.54 421.18H1191.33V437H1217.27V358.215C1217.27 333.852 1200.61 319.508 1170.97 319.508C1143.55 319.508 1124.99 332.375 1122.46 351.781L1122.35 352.73H1147.14L1147.24 352.309C1149.88 344.715 1157.68 340.391 1169.71 340.391C1183.84 340.391 1191.33 346.719 1191.33 358.215V368.129L1161.69 369.922C1133.64 371.609 1117.92 383.633 1117.92 404.199V404.41C1117.92 425.398 1133.85 438.898 1155.79 438.898ZM1143.87 403.145V402.934C1143.87 393.441 1150.72 388.063 1165.38 387.113L1191.33 385.426V394.707C1191.33 408.418 1179.62 418.754 1163.8 418.754C1152.2 418.754 1143.87 412.953 1143.87 403.145ZM1248.81 437H1275.07V370.027C1275.07 353.574 1286.57 343.133 1304.07 343.133C1308.61 343.133 1312.93 343.766 1317.15 344.609V321.09C1314.62 320.352 1310.51 319.824 1306.5 319.824C1291.31 319.824 1280.77 327.102 1276.86 339.441H1275.07V321.723H1248.81V437ZM1352.17 302.422C1360.71 302.422 1367.78 295.566 1367.78 286.918C1367.78 278.375 1360.71 271.414 1352.17 271.414C1343.52 271.414 1336.45 278.375 1336.45 286.918C1336.45 295.566 1343.52 302.422 1352.17 302.422ZM1338.98 437H1365.25V321.723H1338.98V437ZM1442.87 437.527C1447.93 437.527 1452.79 437.105 1456.58 436.367V416.117C1453.42 416.434 1451.41 416.539 1447.72 416.539C1436.75 416.539 1432.22 411.688 1432.22 400.191V342.078H1456.58V321.723H1432.22V293.457H1405.54V321.723H1387.61V342.078H1405.54V406.414C1405.54 428.668 1416.4 437.527 1442.87 437.527ZM1495.08 477.5C1520.6 477.5 1533.79 468.324 1543.7 439.426L1585.04 321.723H1557.41L1530.62 411.793H1528.62L1501.72 321.723H1473.04L1514.27 437.105L1512.9 442.379C1510.05 452.82 1503.62 457.25 1492.86 457.25C1490.12 457.25 1487.17 457.145 1485.06 456.934V477.078C1488.22 477.395 1491.91 477.5 1495.08 477.5ZM1648.75 437H1680.6L1733.23 284.809H1703.17L1665.52 405.57H1663.72L1626.07 284.809H1596.12L1648.75 437ZM1794.5 439.32C1828.99 439.32 1849.98 416.75 1849.98 379.414V379.203C1849.98 342.078 1828.89 319.508 1794.5 319.508C1760.23 319.508 1739.03 342.184 1739.03 379.203V379.414C1739.03 416.75 1759.91 439.32 1794.5 439.32ZM1794.5 418.016C1776.26 418.016 1765.82 403.777 1765.82 379.52V379.309C1765.82 355.051 1776.26 340.707 1794.5 340.707C1812.64 340.707 1823.09 355.051 1823.09 379.309V379.52C1823.09 403.777 1812.75 418.016 1794.5 418.016ZM1889.85 302.422C1898.39 302.422 1905.46 295.566 1905.46 286.918C1905.46 278.375 1898.39 271.414 1889.85 271.414C1881.2 271.414 1874.13 278.375 1874.13 286.918C1874.13 295.566 1881.2 302.422 1889.85 302.422ZM1876.66 437H1902.93V321.723H1876.66V437ZM1984.66 439.32C2013.88 439.32 2030.86 423.605 2034.66 399.98L2034.87 399.137L2010.08 399.242L2009.87 399.664C2006.6 411.793 1998.27 418.016 1984.66 418.016C1966.84 418.016 1956.19 403.672 1956.19 379.203V378.992C1956.19 354.84 1966.73 340.707 1984.66 340.707C1999.01 340.707 2007.55 348.723 2009.98 359.902L2010.08 360.219H2034.87V359.797C2031.91 335.961 2014.2 319.508 1984.56 319.508C1949.86 319.508 1929.5 341.762 1929.5 378.992V379.203C1929.5 416.855 1949.96 439.32 1984.66 439.32ZM2109.22 439.32C2140.55 439.32 2155.95 421.285 2159.64 406.414L2159.95 405.465H2134.96L2134.64 406.203C2132.11 411.477 2123.99 418.648 2109.75 418.648C2091.93 418.648 2080.75 406.625 2080.43 385.953H2161.01V377.305C2161.01 342.5 2140.76 319.508 2107.96 319.508C2075.16 319.508 2054.17 343.238 2054.17 379.52V379.625C2054.17 416.328 2074.95 439.32 2109.22 439.32ZM2108.27 340.074C2122.93 340.074 2133.59 349.461 2135.38 368.34H2080.64C2082.64 349.988 2093.61 340.074 2108.27 340.074Z" fill="#FFE600"/>
</svg>
