<svg width="2304" height="720" viewBox="0 0 2304 720" fill="none" xmlns="http://www.w3.org/2000/svg">
<rect width="2304" height="720" rx="160" fill="#FF4D00"/>
<g clip-path="url(#clip0_3404_398)">
<path d="M495.646 416.856C471.574 399.27 460.801 394.199 452.359 398.23C443.663 402.381 443.315 414.07 443.036 423.459L441.55 472.838L440.064 506.821C439.956 509.287 438.884 511.573 437.046 513.26C435.211 514.945 432.847 515.815 430.389 515.707C425.265 515.482 421.279 511.132 421.502 506.009L422.018 494.204C422.022 494.128 422.03 494.053 422.034 493.978C422.035 493.94 422.032 493.903 422.033 493.866L422.99 471.973C423.171 467.835 419.963 464.334 415.825 464.153C411.697 463.955 408.185 467.18 408.004 471.318L407.038 493.43C406.755 498.5 402.462 502.426 397.351 502.207C392.227 501.983 388.24 497.632 388.464 492.51L388.98 480.704C388.984 480.628 388.992 480.553 388.996 480.477C388.997 480.439 388.994 480.403 388.995 480.367L389.952 458.474C390.133 454.336 386.925 450.835 382.786 450.654C378.666 450.456 375.146 453.681 374.966 457.819L373.999 479.935C373.864 482.349 372.802 484.585 370.991 486.242C369.149 487.927 366.783 488.788 364.313 488.687C361.848 488.579 359.561 487.507 357.874 485.668C356.188 483.832 355.32 481.468 355.427 479.011L355.945 467.139C355.948 467.078 355.955 467.018 355.958 466.957C355.96 466.927 355.957 466.897 355.957 466.867L356.914 444.952C357.095 440.814 353.887 437.313 349.749 437.132C345.581 436.942 342.109 440.159 341.929 444.298L340.963 466.389C340.693 471.469 336.352 475.403 331.276 475.186C328.818 475.078 326.538 474.007 324.855 472.167C323.17 470.325 322.303 467.954 322.411 465.478L322.921 453.42L323.899 431.448C324.226 423.856 323.443 416.054 321.578 408.178C325.624 405.946 328.957 402.593 331.204 398.41C334.282 392.683 334.953 386.116 333.086 379.906C330.181 370.314 321.837 363.817 312.447 362.773C313.18 358.975 312.994 355.04 311.853 351.244C309.991 345.047 305.81 339.939 300.082 336.859C297.279 335.353 294.274 334.427 291.211 334.089C291.921 330.371 291.778 326.435 290.615 322.564C288.754 316.368 284.572 311.26 278.844 308.18C276.043 306.675 273.042 305.75 269.981 305.411C270.696 301.684 270.551 297.739 269.377 293.864C267.515 287.666 263.332 282.56 257.599 279.487C251.873 276.418 245.31 275.753 239.114 277.615L221.479 282.923L186.104 247.531L247.527 186.108L271.39 209.959C265.349 213.323 260.554 218.945 258.409 226.082C256.315 233.101 257.085 240.533 260.579 247.009C264.076 253.491 269.868 258.214 276.878 260.305L320.06 273.254C330.397 276.347 330.397 276.347 336.968 282.98C337.776 283.795 338.665 284.693 339.654 285.68L357.76 303.785C365.329 311.377 374.821 319.492 391.74 319.68C423.095 320.081 442.734 338.937 462.148 360.432C478.173 378.174 490.117 392.891 495.646 416.856Z" fill="#FFE600"/>
<path d="M272.781 230.383C273.737 227.2 275.891 224.57 278.846 222.979C281.8 221.388 285.178 221.038 288.362 221.995L345.142 239.001C352.951 241.345 354.674 243.793 359.279 250.333L359.311 250.378C360.19 251.624 361.183 253.034 362.293 254.539L399.751 305.194C397.111 304.894 394.5 304.712 391.933 304.679H391.928C391.925 304.679 391.922 304.678 391.919 304.678C381.652 304.567 375.726 300.555 368.376 293.183L350.257 275.065C349.289 274.099 348.424 273.225 347.636 272.429L347.634 272.427L347.632 272.426L347.626 272.42C339.41 264.126 337.584 262.837 324.366 258.882L281.179 245.932C278.002 244.984 275.375 242.836 273.783 239.884C272.189 236.932 271.835 233.552 272.781 230.383Z" fill="#FFE600"/>
<path d="M237.403 348.284C235.048 348.997 232.543 348.741 230.346 347.563C228.148 346.384 226.549 344.437 225.835 342.064C225.122 339.709 225.378 337.203 226.555 335.007C227.734 332.809 229.682 331.21 232.04 330.501C232.099 330.483 232.153 330.459 232.212 330.439L253.132 324.142C253.137 324.142 253.141 324.14 253.145 324.139L264.673 320.656C269.578 319.18 274.777 321.972 276.252 326.878C277.717 331.754 274.986 336.904 270.158 338.419C270.158 338.419 248.956 344.815 248.952 344.816L237.403 348.284Z" fill="#FFE600"/>
<path d="M216.18 319.6C213.815 320.311 211.302 320.053 209.102 318.874C206.906 317.697 205.308 315.753 204.596 313.384C203.883 311.029 204.14 308.521 205.319 306.322C206.5 304.12 208.453 302.512 210.805 301.8L243.435 291.979C244.31 291.716 245.206 291.586 246.099 291.586C247.617 291.586 249.127 291.964 250.513 292.706C252.709 293.883 254.307 295.827 255.019 298.195C256.503 303.097 253.712 308.296 248.797 309.784L216.18 319.6Z" fill="#FFE600"/>
<path d="M258.619 376.963C253.729 378.444 248.54 375.654 247.057 370.759C245.581 365.848 248.372 360.654 253.286 359.178L285.912 349.337C286.783 349.075 287.674 348.946 288.563 348.946C290.083 348.946 291.595 349.324 292.983 350.071C295.181 351.253 296.782 353.201 297.49 355.559C298.2 357.919 297.94 360.43 296.757 362.629C295.576 364.828 293.626 366.428 291.268 367.136L291.259 367.139C291.259 367.139 291.257 367.14 291.256 367.14L258.619 376.963Z" fill="#FFE600"/>
<path d="M317.995 391.308C316.813 393.506 314.863 395.107 312.499 395.818L279.873 405.658C277.513 406.367 275.003 406.108 272.803 404.925C270.604 403.743 269.004 401.794 268.295 399.436C267.584 397.072 267.842 394.558 269.022 392.359C270.198 390.163 272.142 388.565 274.495 387.859C274.552 387.841 274.606 387.817 274.663 387.799L307.129 378.016C312.037 376.539 317.244 379.338 318.728 384.238C319.438 386.598 319.177 389.109 317.995 391.308Z" fill="#FFE600"/>
<path d="M472.453 533.895L453.52 514.962C454.411 512.592 454.936 510.074 455.05 507.476L456.538 473.44C456.54 473.406 456.541 473.371 456.542 473.338L458.03 423.907C458.238 416.933 458.728 413.621 459.202 412.087C460.642 412.435 463.865 413.623 470.274 417.609C476.875 421.714 485.885 428.135 499.288 438.289C500.451 439.171 501.555 440.131 502.587 441.163L533.893 472.454L472.453 533.895Z" fill="#FFE600"/>
</g>
<path d="M684.551 440.797C721.043 440.797 743.93 422.234 743.93 392.598V392.492C743.93 369.5 730.535 356.633 698.473 349.883L682.125 346.402C663.141 342.395 655.441 335.645 655.441 324.887V324.781C655.441 311.809 667.465 303.898 684.34 303.898C701.742 303.793 713.027 312.23 714.926 324.043L715.137 325.309H741.188L741.082 323.938C739.184 299.469 718.195 281.012 684.445 281.012C651.539 281.012 628.125 299.363 628.125 326.574V326.68C628.125 349.355 641.625 363.91 672.738 370.449L689.086 373.824C708.703 378.043 716.613 384.688 716.613 395.656V395.762C716.613 408.84 703.746 417.91 685.395 417.91C666.094 417.91 652.488 409.473 651.223 396.711L651.117 395.656H624.75L624.856 397.133C626.754 423.395 649.219 440.797 684.551 440.797ZM821.555 439.32C856.043 439.32 877.031 416.75 877.031 379.414V379.203C877.031 342.078 855.938 319.508 821.555 319.508C787.277 319.508 766.078 342.184 766.078 379.203V379.414C766.078 416.75 786.961 439.32 821.555 439.32ZM821.555 418.016C803.309 418.016 792.867 403.777 792.867 379.52V379.309C792.867 355.051 803.309 340.707 821.555 340.707C839.695 340.707 850.137 355.051 850.137 379.309V379.52C850.137 403.777 839.801 418.016 821.555 418.016ZM904.453 437H930.715V277.109H904.453V437ZM977.438 302.422C985.98 302.422 993.047 295.566 993.047 286.918C993.047 278.375 985.98 271.414 977.438 271.414C968.789 271.414 961.723 278.375 961.723 286.918C961.723 295.566 968.789 302.422 977.438 302.422ZM964.254 437H990.516V321.723H964.254V437ZM1064.34 438.898C1080.59 438.898 1093.03 431.516 1099.36 418.965H1101.15V437H1127.52V277.109H1101.15V340.074H1099.36C1093.35 327.629 1080.16 319.824 1064.34 319.824C1035.13 319.824 1017.09 342.605 1017.09 379.309V379.52C1017.09 416.012 1035.45 438.898 1064.34 438.898ZM1072.57 416.75C1054.64 416.75 1043.78 402.723 1043.78 379.52V379.309C1043.78 356.105 1054.75 341.973 1072.57 341.973C1090.39 341.973 1101.57 356.211 1101.57 379.309V379.52C1101.57 402.617 1090.5 416.75 1072.57 416.75ZM1191.96 438.898C1207.15 438.898 1219.38 432.359 1225.71 421.18H1227.5V437H1253.45V358.215C1253.45 333.852 1236.79 319.508 1207.15 319.508C1179.73 319.508 1161.16 332.375 1158.63 351.781L1158.53 352.73H1183.31L1183.42 352.309C1186.05 344.715 1193.86 340.391 1205.88 340.391C1220.02 340.391 1227.5 346.719 1227.5 358.215V368.129L1197.87 369.922C1169.81 371.609 1154.1 383.633 1154.1 404.199V404.41C1154.1 425.398 1170.02 438.898 1191.96 438.898ZM1180.04 403.145V402.934C1180.04 393.441 1186.9 388.063 1201.56 387.113L1227.5 385.426V394.707C1227.5 408.418 1215.8 418.754 1199.98 418.754C1188.37 418.754 1180.04 412.953 1180.04 403.145ZM1284.98 437H1311.25V370.027C1311.25 353.574 1322.74 343.133 1340.25 343.133C1344.79 343.133 1349.11 343.766 1353.33 344.609V321.09C1350.8 320.352 1346.68 319.824 1342.68 319.824C1327.49 319.824 1316.94 327.102 1313.04 339.441H1311.25V321.723H1284.98V437ZM1388.34 302.422C1396.89 302.422 1403.95 295.566 1403.95 286.918C1403.95 278.375 1396.89 271.414 1388.34 271.414C1379.7 271.414 1372.63 278.375 1372.63 286.918C1372.63 295.566 1379.7 302.422 1388.34 302.422ZM1375.16 437H1401.42V321.723H1375.16V437ZM1479.05 437.527C1484.11 437.527 1488.96 437.105 1492.76 436.367V416.117C1489.59 416.434 1487.59 416.539 1483.9 416.539C1472.93 416.539 1468.39 411.688 1468.39 400.191V342.078H1492.76V321.723H1468.39V293.457H1441.71V321.723H1423.78V342.078H1441.71V406.414C1441.71 428.668 1452.57 437.527 1479.05 437.527ZM1531.25 477.5C1556.78 477.5 1569.96 468.324 1579.87 439.426L1621.22 321.723H1593.59L1566.8 411.793H1564.79L1537.9 321.723H1509.21L1550.45 437.105L1549.08 442.379C1546.23 452.82 1539.8 457.25 1529.04 457.25C1526.3 457.25 1523.34 457.145 1521.23 456.934V477.078C1524.4 477.395 1528.09 477.5 1531.25 477.5ZM1710.02 440.797C1745.14 440.797 1770.35 420.441 1774.36 389.961V389.223H1747.68L1747.57 389.75C1743.67 406.52 1729.32 417.277 1710.02 417.277C1684.08 417.277 1667.94 395.656 1667.94 360.957V360.746C1667.94 326.152 1684.08 304.531 1709.92 304.531C1729.11 304.531 1743.67 316.449 1747.57 334.484L1747.68 334.906H1774.36V334.063C1770.77 302.949 1744.51 281.012 1709.92 281.012C1666.78 281.012 1640.1 311.492 1640.1 360.852V361.063C1640.1 410.211 1666.89 440.797 1710.02 440.797ZM1833.42 438.898C1848.61 438.898 1860.84 432.359 1867.17 421.18H1868.96V437H1894.91V358.215C1894.91 333.852 1878.25 319.508 1848.61 319.508C1821.19 319.508 1802.62 332.375 1800.09 351.781L1799.99 352.73H1824.77L1824.88 352.309C1827.52 344.715 1835.32 340.391 1847.34 340.391C1861.48 340.391 1868.96 346.719 1868.96 358.215V368.129L1839.33 369.922C1811.27 371.609 1795.56 383.633 1795.56 404.199V404.41C1795.56 425.398 1811.48 438.898 1833.42 438.898ZM1821.5 403.145V402.934C1821.5 393.441 1828.36 388.063 1843.02 387.113L1868.96 385.426V394.707C1868.96 408.418 1857.26 418.754 1841.44 418.754C1829.84 418.754 1821.5 412.953 1821.5 403.145ZM1926.45 437H1952.71V370.027C1952.71 353.574 1964.2 343.133 1981.71 343.133C1986.25 343.133 1990.57 343.766 1994.79 344.609V321.09C1992.26 320.352 1988.14 319.824 1984.14 319.824C1968.95 319.824 1958.4 327.102 1954.5 339.441H1952.71V321.723H1926.45V437ZM2054.91 438.898C2071.15 438.898 2083.59 431.516 2089.92 418.965H2091.71V437H2118.08V277.109H2091.71V340.074H2089.92C2083.91 327.629 2070.73 319.824 2054.91 319.824C2025.69 319.824 2007.66 342.605 2007.66 379.309V379.52C2007.66 416.012 2026.01 438.898 2054.91 438.898ZM2063.13 416.75C2045.2 416.75 2034.34 402.723 2034.34 379.52V379.309C2034.34 356.105 2045.31 341.973 2063.13 341.973C2080.96 341.973 2092.14 356.211 2092.14 379.309V379.52C2092.14 402.617 2081.06 416.75 2063.13 416.75Z" fill="#FFE600"/>
<defs>
<clipPath id="clip0_3404_398">
<rect width="384" height="384" fill="white" transform="translate(168 168)"/>
</clipPath>
</defs>
</svg>
