<svg width="720" height="720" viewBox="0 0 720 720" fill="none" xmlns="http://www.w3.org/2000/svg">
<g id="Logo-SolidarityCard-FF4D00-720px">
<rect width="720" height="720" fill="white"/>
<rect id="Background" width="720" height="720" fill="#FF4D00"/>
<g id="Icon-Helping_hand">
<g id="Vector">
<path d="M540.86 435.806C508.765 412.358 494.4 405.597 483.144 410.971C471.55 416.506 471.086 432.091 470.714 444.61L468.732 510.449L466.751 555.76C466.607 559.047 465.178 562.095 462.727 564.345C460.28 566.591 457.129 567.752 453.851 567.607C447.019 567.308 441.704 561.507 442.002 554.677L442.69 538.937C442.695 538.836 442.706 538.736 442.711 538.635C442.713 538.585 442.709 538.536 442.71 538.486L443.986 509.296C444.227 503.778 439.95 499.11 434.432 498.869C428.928 498.605 424.246 502.905 424.005 508.422L422.716 537.905C422.339 544.665 416.615 549.899 409.8 549.608C402.968 549.309 397.653 543.508 397.951 536.678L398.639 520.937C398.644 520.836 398.655 520.735 398.66 520.634C398.662 520.584 398.658 520.536 398.659 520.487L399.935 491.297C400.176 485.779 395.899 481.111 390.381 480.87C384.887 480.606 380.194 484.906 379.954 490.423L378.665 519.911C378.485 523.13 377.068 526.112 374.654 528.321C372.198 530.567 369.043 531.716 365.75 531.581C362.463 531.437 359.414 530.008 357.164 527.556C354.917 525.108 353.759 521.956 353.902 518.679L354.593 502.85C354.597 502.769 354.606 502.689 354.61 502.607C354.612 502.567 354.608 502.528 354.609 502.487L355.885 473.268C356.126 467.75 351.849 463.082 346.331 462.841C340.774 462.587 336.144 466.877 335.904 472.395L334.617 501.85C334.256 508.624 328.468 513.869 321.7 513.58C318.423 513.436 315.383 512.007 313.139 509.554C310.893 507.098 309.736 503.937 309.88 500.636L310.56 484.558L311.865 455.262C312.301 445.139 311.256 434.737 308.77 424.235C314.164 421.259 318.608 416.789 321.605 411.212C325.709 403.575 326.603 394.82 324.114 386.54C320.24 373.75 309.115 365.087 296.595 363.695C297.572 358.632 297.324 353.385 295.803 348.323C293.321 340.061 287.746 333.25 280.108 329.144C276.371 327.135 272.365 325.901 268.28 325.45C269.227 320.493 269.036 315.245 267.486 310.084C265.004 301.822 259.429 295.011 251.791 290.905C248.057 288.898 244.055 287.665 239.974 287.213C240.927 282.243 240.734 276.983 239.169 271.817C236.686 263.553 231.108 256.745 223.464 252.647C215.83 248.555 207.079 247.669 198.818 250.152L175.305 257.229L128.138 210.04L210.035 128.142L241.853 159.943C233.798 164.429 227.404 171.925 224.545 181.441C221.752 190.799 222.779 200.709 227.438 209.344C232.1 217.986 239.823 224.283 249.17 227.072L306.746 244.337C320.528 248.461 320.528 248.461 329.29 257.305C330.367 258.392 331.553 259.589 332.871 260.905L357.012 285.045C367.104 295.167 379.761 305.987 402.319 306.238C444.125 306.772 470.312 331.914 496.197 360.574C517.563 384.23 533.488 403.853 540.86 435.806Z" fill="#FFE600"/>
<path d="M243.707 187.175C244.982 182.931 247.854 179.425 251.794 177.303C255.732 175.182 260.237 174.715 264.482 175.991L340.188 198.666C350.6 201.792 352.898 205.055 359.038 213.775L359.08 213.835C360.252 215.497 361.577 217.377 363.057 219.383L413 286.924C409.481 286.524 405.999 286.281 402.577 286.237H402.57C402.566 286.237 402.562 286.236 402.558 286.236C388.868 286.087 380.967 280.738 371.167 270.909L347.009 246.751C345.718 245.463 344.564 244.298 343.513 243.237L343.511 243.235L343.508 243.233L343.501 243.225C332.546 232.166 330.111 230.447 312.487 225.174L254.904 207.907C250.668 206.643 247.166 203.78 245.043 199.844C242.918 195.908 242.446 191.401 243.707 187.175Z" fill="#FFE600"/>
<path d="M196.536 344.377C193.396 345.327 190.056 344.986 187.127 343.416C184.197 341.844 182.064 339.247 181.112 336.083C180.162 332.943 180.503 329.602 182.073 326.674C183.645 323.744 186.242 321.611 189.386 320.666C189.464 320.642 189.537 320.61 189.615 320.584L217.509 312.188C217.515 312.187 217.521 312.185 217.526 312.183L232.897 307.54C239.437 305.572 246.369 309.294 248.335 315.835C250.289 322.337 246.647 329.204 240.21 331.224C240.21 331.224 211.94 339.751 211.935 339.753L196.536 344.377Z" fill="#FFE600"/>
<path d="M168.239 306.132C165.086 307.08 161.735 306.736 158.802 305.163C155.874 303.594 153.743 301.002 152.794 297.844C151.843 294.703 152.186 291.359 153.758 288.427C155.333 285.491 157.937 283.348 161.072 282.398L204.579 269.304C205.746 268.953 206.94 268.78 208.131 268.78C210.155 268.78 212.169 269.283 214.017 270.273C216.944 271.842 219.075 274.434 220.024 277.592C222.003 284.127 218.282 291.059 211.729 293.044L168.239 306.132Z" fill="#FFE600"/>
<path d="M224.825 382.616C218.304 384.59 211.386 380.87 209.408 374.343C207.441 367.796 211.162 360.87 217.714 358.902L261.215 345.781C262.376 345.432 263.565 345.259 264.75 345.259C266.776 345.259 268.792 345.764 270.643 346.759C273.574 348.335 275.708 350.933 276.653 354.077C277.599 357.223 277.252 360.571 275.675 363.503C274.1 366.435 271.5 368.569 268.357 369.513L268.344 369.517C268.344 369.517 268.342 369.518 268.34 369.518L224.825 382.616Z" fill="#FFE600"/>
<path d="M303.992 401.742C302.417 404.673 299.817 406.808 296.665 407.755L253.163 420.876C250.017 421.821 246.67 421.475 243.736 419.898C240.805 418.322 238.671 415.724 237.726 412.58C236.778 409.428 237.122 406.076 238.695 403.143C240.263 400.216 242.855 398.085 245.993 397.143C246.069 397.12 246.141 397.088 246.216 397.063L289.505 384.019C296.049 382.05 302.991 385.782 304.97 392.315C305.916 395.462 305.568 398.81 303.992 401.742Z" fill="#FFE600"/>
<path d="M509.936 591.858L484.692 566.614C485.88 563.454 486.581 560.097 486.733 556.633L488.717 511.251C488.719 511.206 488.721 511.16 488.722 511.115L490.706 445.207C490.983 435.909 491.636 431.493 492.269 429.448C494.188 429.912 498.486 431.495 507.031 436.81C515.833 442.284 527.846 450.845 545.716 464.384C547.267 465.559 548.739 466.84 550.115 468.215L591.857 509.937L509.936 591.858Z" fill="#FFE600"/>
</g>
</g>
</g>
</svg>
