<svg width="720" height="720" viewBox="0 0 720 720" fill="none" xmlns="http://www.w3.org/2000/svg">
<rect width="720" height="720" fill="#FF4D00"/>
<mask id="mask0_6378_354" style="mask-type:alpha" maskUnits="userSpaceOnUse" x="240" y="181" width="160" height="160">
<path fill-rule="evenodd" clip-rule="evenodd" d="M309.489 321.585C297.496 330.947 276.402 341 267.937 341C262.504 341 260.952 336.165 263.704 332.329C264.493 331.199 265.662 329.67 267.019 327.894C270.27 323.64 274.602 317.971 277.39 312.99C277.954 311.839 277.601 310.688 276.543 310.074C253.898 296.875 240 275.312 240 250.755C240 212.156 275.556 181 320 181C364.444 181 400 212.156 400 250.755C400 251.049 399.998 251.343 399.994 251.636C354.76 251.639 316.736 281.121 311.302 320.531C310.737 320.738 310.145 321.081 309.489 321.585Z" fill="#C4C4C4"/>
</mask>
<g mask="url(#mask0_6378_354)">
<rect x="240" y="181" width="160" height="160" fill="#FFE600"/>
</g>
<mask id="mask1_6378_354" style="mask-type:alpha" maskUnits="userSpaceOnUse" x="320" y="261" width="161" height="161">
<path d="M452.065 421.005C443.6 421.005 422.506 410.952 410.513 401.59C409.314 400.669 408.326 400.285 407.339 400.285C406.422 400.362 405.505 400.439 404.587 400.439C353.723 400.439 320.002 368.976 320.002 330.76C320.002 292.16 355.558 261.005 400.002 261.005C444.446 261.005 480.002 292.16 480.002 330.76C480.002 355.316 466.104 376.88 443.459 390.079C442.401 390.693 442.048 391.844 442.612 392.995C446.563 400.055 453.617 408.496 456.298 412.333C459.05 416.17 457.498 421.005 452.065 421.005Z" fill="#FF0000"/>
</mask>
<g mask="url(#mask1_6378_354)">
<rect x="320" y="261" width="160" height="160" fill="#FFE600"/>
</g>
<path d="M118.125 523.266C130.289 523.266 137.918 517.078 137.918 507.199V507.164C137.918 499.5 133.453 495.211 122.766 492.961L117.316 491.801C110.988 490.465 108.422 488.215 108.422 484.629V484.594C108.422 480.27 112.43 477.633 118.055 477.633C123.855 477.598 127.617 480.41 128.25 484.348L128.32 484.77H137.004L136.969 484.312C136.336 476.156 129.34 470.004 118.09 470.004C107.121 470.004 99.3164 476.121 99.3164 485.191V485.227C99.3164 492.785 103.816 497.637 114.188 499.816L119.637 500.941C126.176 502.348 128.812 504.562 128.812 508.219V508.254C128.812 512.613 124.523 515.637 118.406 515.637C111.973 515.637 107.438 512.824 107.016 508.57L106.98 508.219H98.1914L98.2266 508.711C98.8594 517.465 106.348 523.266 118.125 523.266ZM163.793 522.773C175.289 522.773 182.285 515.25 182.285 502.805V502.734C182.285 490.359 175.254 482.836 163.793 482.836C152.367 482.836 145.301 490.395 145.301 502.734V502.805C145.301 515.25 152.262 522.773 163.793 522.773ZM163.793 515.672C157.711 515.672 154.23 510.926 154.23 502.84V502.77C154.23 494.684 157.711 489.902 163.793 489.902C169.84 489.902 173.32 494.684 173.32 502.77V502.84C173.32 510.926 169.875 515.672 163.793 515.672ZM191.426 522H200.18V468.703H191.426V522ZM215.754 477.141C218.602 477.141 220.957 474.855 220.957 471.973C220.957 469.125 218.602 466.805 215.754 466.805C212.871 466.805 210.516 469.125 210.516 471.973C210.516 474.855 212.871 477.141 215.754 477.141ZM211.359 522H220.113V483.574H211.359V522ZM244.723 522.633C250.137 522.633 254.285 520.172 256.395 515.988H256.992V522H265.781V468.703H256.992V489.691H256.395C254.391 485.543 249.996 482.941 244.723 482.941C234.984 482.941 228.973 490.535 228.973 502.77V502.84C228.973 515.004 235.09 522.633 244.723 522.633ZM247.465 515.25C241.488 515.25 237.867 510.574 237.867 502.84V502.77C237.867 495.035 241.523 490.324 247.465 490.324C253.406 490.324 257.133 495.07 257.133 502.77V502.84C257.133 510.539 253.441 515.25 247.465 515.25ZM287.262 522.633C292.324 522.633 296.402 520.453 298.512 516.727H299.109V522H307.758V495.738C307.758 487.617 302.203 482.836 292.324 482.836C283.184 482.836 276.996 487.125 276.152 493.594L276.117 493.91H284.379L284.414 493.77C285.293 491.238 287.895 489.797 291.902 489.797C296.613 489.797 299.109 491.906 299.109 495.738V499.043L289.23 499.641C279.879 500.203 274.641 504.211 274.641 511.066V511.137C274.641 518.133 279.949 522.633 287.262 522.633ZM283.289 510.715V510.645C283.289 507.48 285.574 505.688 290.461 505.371L299.109 504.809V507.902C299.109 512.473 295.207 515.918 289.934 515.918C286.066 515.918 283.289 513.984 283.289 510.715ZM318.27 522H327.023V499.676C327.023 494.191 330.855 490.711 336.691 490.711C338.203 490.711 339.645 490.922 341.051 491.203V483.363C340.207 483.117 338.836 482.941 337.5 482.941C332.438 482.941 328.922 485.367 327.621 489.48H327.023V483.574H318.27V522ZM352.723 477.141C355.57 477.141 357.926 474.855 357.926 471.973C357.926 469.125 355.57 466.805 352.723 466.805C349.84 466.805 347.484 469.125 347.484 471.973C347.484 474.855 349.84 477.141 352.723 477.141ZM348.328 522H357.082V483.574H348.328V522ZM382.957 522.176C384.645 522.176 386.262 522.035 387.527 521.789V515.039C386.473 515.145 385.805 515.18 384.574 515.18C380.918 515.18 379.406 513.562 379.406 509.73V490.359H387.527V483.574H379.406V474.152H370.512V483.574H364.535V490.359H370.512V511.805C370.512 519.223 374.133 522.176 382.957 522.176ZM400.359 535.5C408.867 535.5 413.262 532.441 416.566 522.809L430.348 483.574H421.137L412.207 513.598H411.539L402.574 483.574H393.012L406.758 522.035L406.301 523.793C405.352 527.273 403.207 528.75 399.621 528.75C398.707 528.75 397.723 528.715 397.02 528.645V535.359C398.074 535.465 399.305 535.5 400.359 535.5ZM451.582 522H462.199L479.742 471.27H469.723L457.172 511.523H456.574L444.023 471.27H434.039L451.582 522ZM500.168 522.773C511.664 522.773 518.66 515.25 518.66 502.805V502.734C518.66 490.359 511.629 482.836 500.168 482.836C488.742 482.836 481.676 490.395 481.676 502.734V502.805C481.676 515.25 488.637 522.773 500.168 522.773ZM500.168 515.672C494.086 515.672 490.605 510.926 490.605 502.84V502.77C490.605 494.684 494.086 489.902 500.168 489.902C506.215 489.902 509.695 494.684 509.695 502.77V502.84C509.695 510.926 506.25 515.672 500.168 515.672ZM531.949 477.141C534.797 477.141 537.152 474.855 537.152 471.973C537.152 469.125 534.797 466.805 531.949 466.805C529.066 466.805 526.711 469.125 526.711 471.973C526.711 474.855 529.066 477.141 531.949 477.141ZM527.555 522H536.309V483.574H527.555V522ZM563.555 522.773C573.293 522.773 578.953 517.535 580.219 509.66L580.289 509.379L572.027 509.414L571.957 509.555C570.867 513.598 568.09 515.672 563.555 515.672C557.613 515.672 554.062 510.891 554.062 502.734V502.664C554.062 494.613 557.578 489.902 563.555 489.902C568.336 489.902 571.184 492.574 571.992 496.301L572.027 496.406H580.289V496.266C579.305 488.32 573.398 482.836 563.52 482.836C551.953 482.836 545.168 490.254 545.168 502.664V502.734C545.168 515.285 551.988 522.773 563.555 522.773ZM605.074 522.773C615.516 522.773 620.648 516.762 621.879 511.805L621.984 511.488H613.652L613.547 511.734C612.703 513.492 609.996 515.883 605.25 515.883C599.309 515.883 595.582 511.875 595.477 504.984H622.336V502.102C622.336 490.5 615.586 482.836 604.652 482.836C593.719 482.836 586.723 490.746 586.723 502.84V502.875C586.723 515.109 593.648 522.773 605.074 522.773ZM604.758 489.691C609.645 489.691 613.195 492.82 613.793 499.113H595.547C596.215 492.996 599.871 489.691 604.758 489.691Z" fill="white"/>
</svg>
