<svg width="720" height="720" viewBox="0 0 720 720" fill="none" xmlns="http://www.w3.org/2000/svg">
<g id="Logo-SolidarityDAO-FF4D00-720px">
<rect width="720" height="720" fill="white"/>
<rect id="Background" width="720" height="720" fill="#FF4D00"/>
<g id="Icon-Solidarity">
<g id="Vector">
<path d="M539.2 436.8V530.667C539.2 535.38 535.38 539.2 530.667 539.2C525.954 539.2 522.134 535.38 522.134 530.667V470.934C522.134 466.221 518.314 462.401 513.601 462.401C508.888 462.401 505.068 466.221 505.068 470.934V564.8C505.068 569.513 501.247 573.333 496.535 573.333C491.822 573.333 488.002 569.513 488.002 564.8V470.933C488.002 466.22 484.182 462.4 479.469 462.4C474.756 462.4 470.936 466.22 470.936 470.933V590.4C470.936 595.113 467.116 598.933 462.403 598.933C457.69 598.933 453.87 595.113 453.87 590.4V470.933C453.87 466.22 450.05 462.4 445.337 462.4C440.624 462.4 436.804 466.22 436.804 470.933V547.733C436.804 552.446 432.984 556.266 428.271 556.266C423.558 556.266 419.738 552.446 419.738 547.733V419.733C419.738 415.02 415.918 411.2 411.205 411.2H394.674C396.51 396.297 404.015 382.674 415.63 373.158C423.571 366.634 428.203 356.918 428.272 346.641V317.333H513.6V342.808C513.459 358.456 517.57 373.85 525.492 387.345C534.455 402.285 539.193 419.378 539.2 436.8Z" fill="#FFE600"/>
<path d="M402.667 513.6H377.192C361.543 513.459 346.15 517.57 332.654 525.492C317.715 534.455 300.622 539.193 283.2 539.2H189.333C184.62 539.2 180.8 535.38 180.8 530.667C180.8 525.954 184.62 522.134 189.333 522.134H249.066C253.779 522.134 257.599 518.314 257.599 513.601C257.599 508.888 253.778 505.068 249.066 505.068H155.2C150.487 505.068 146.667 501.247 146.667 496.535C146.667 491.822 150.487 488.002 155.2 488.002H249.067C253.78 488.002 257.6 484.182 257.6 479.469C257.6 474.756 253.779 470.936 249.067 470.936H129.6C124.887 470.936 121.067 467.116 121.067 462.403C121.067 457.69 124.887 453.87 129.6 453.87H249.067C253.78 453.87 257.6 450.05 257.6 445.337C257.6 440.624 253.779 436.804 249.067 436.804H172.267C167.554 436.804 163.734 432.984 163.734 428.271C163.734 423.558 167.554 419.738 172.267 419.738H300.267C304.98 419.738 308.8 415.918 308.8 411.205V394.674C323.703 396.51 337.326 404.015 346.842 415.63C353.366 423.571 363.082 428.203 373.359 428.272H402.667V513.6Z" fill="#FFE600"/>
<path d="M180.8 283.2V189.333C180.8 184.62 184.62 180.8 189.333 180.8C194.046 180.8 197.866 184.62 197.866 189.333V249.066C197.866 253.779 201.686 257.599 206.399 257.599C211.112 257.599 214.932 253.778 214.932 249.066V155.2C214.932 150.487 218.752 146.667 223.465 146.667C228.178 146.667 232 150.487 232 155.2V249.067C232 253.78 235.82 257.6 240.533 257.6C245.246 257.6 249.066 253.779 249.066 249.067V129.6C249.066 124.887 252.887 121.067 257.599 121.067C262.312 121.067 266.132 124.887 266.132 129.6V249.067C266.132 253.78 269.952 257.6 274.665 257.6C279.378 257.6 283.198 253.779 283.198 249.067V172.267C283.198 167.554 287.018 163.734 291.731 163.734C296.444 163.734 300.264 167.554 300.264 172.267V300.267C300.264 304.98 304.084 308.8 308.797 308.8H325.328C323.492 323.703 315.987 337.326 304.372 346.842C296.431 353.366 291.799 363.082 291.73 373.359V402.667H206.4V377.192C206.54 361.543 202.43 346.15 194.508 332.654C185.545 317.715 180.807 300.622 180.8 283.2Z" fill="#FFE600"/>
<path d="M590.4 266.133H470.933C466.22 266.133 462.4 269.953 462.4 274.666C462.4 279.379 466.22 283.199 470.933 283.199H547.733C552.446 283.199 556.266 287.019 556.266 291.732C556.266 296.445 552.446 300.265 547.733 300.265H419.733C415.02 300.265 411.2 304.085 411.2 308.798V325.329C396.297 323.493 382.674 315.988 373.158 304.373C366.634 296.432 356.918 291.8 346.641 291.731H317.333V206.4H342.808C358.456 206.54 373.85 202.43 387.345 194.508C402.284 185.545 419.377 180.807 436.799 180.8H530.666C535.379 180.8 539.199 184.62 539.199 189.333C539.199 194.046 535.379 197.866 530.666 197.866H470.933C466.22 197.866 462.4 201.686 462.4 206.399C462.4 211.112 466.22 214.932 470.933 214.932H564.8C569.513 214.932 573.333 218.752 573.333 223.465C573.333 228.178 569.513 232 564.8 232H470.933C466.22 232 462.4 235.82 462.4 240.533C462.4 245.246 466.22 249.066 470.933 249.066H590.4C595.113 249.066 598.933 252.887 598.933 257.599C598.933 262.313 595.113 266.133 590.4 266.133Z" fill="#FFE600"/>
</g>
</g>
</g>
</svg>
