<svg width="2304" height="720" viewBox="0 0 2304 720" fill="none" xmlns="http://www.w3.org/2000/svg">
<rect width="2304" height="720" rx="160" fill="#FF4D00"/>
<path d="M514.4 417.6V488C514.4 491.535 511.535 494.4 508 494.4C504.465 494.4 501.601 491.535 501.601 488V443.2C501.601 439.666 498.736 436.801 495.201 436.801C491.666 436.801 488.801 439.666 488.801 443.2V513.6C488.801 517.135 485.935 520 482.401 520C478.867 520 476.002 517.135 476.002 513.6V443.2C476.002 439.665 473.136 436.8 469.602 436.8C466.067 436.8 463.202 439.665 463.202 443.2V532.8C463.202 536.335 460.337 539.2 456.802 539.2C453.268 539.2 450.402 536.335 450.402 532.8V443.2C450.402 439.665 447.538 436.8 444.003 436.8C440.468 436.8 437.603 439.665 437.603 443.2V500.8C437.603 504.335 434.738 507.199 431.203 507.199C427.668 507.199 424.804 504.335 424.804 500.8V404.8C424.804 401.265 421.938 398.4 418.404 398.4H406.006C407.383 387.223 413.011 377.005 421.723 369.868C427.678 364.975 431.152 357.689 431.204 349.981V328H495.2V347.106C495.094 358.842 498.178 370.388 504.119 380.509C510.841 391.714 514.395 404.533 514.4 417.6Z" fill="#FFE600"/>
<path d="M412 475.2H392.894C381.157 475.094 369.613 478.178 359.491 484.119C348.286 490.841 335.466 494.395 322.4 494.4H252C248.465 494.4 245.6 491.535 245.6 488C245.6 484.465 248.465 481.601 252 481.601H296.799C300.334 481.601 303.199 478.736 303.199 475.201C303.199 471.666 300.333 468.801 296.799 468.801H226.4C222.865 468.801 220 465.935 220 462.401C220 458.867 222.865 456.002 226.4 456.002H296.8C300.335 456.002 303.2 453.136 303.2 449.602C303.2 446.067 300.334 443.202 296.8 443.202H207.2C203.665 443.202 200.8 440.337 200.8 436.802C200.8 433.268 203.665 430.402 207.2 430.402H296.8C300.335 430.402 303.2 427.538 303.2 424.003C303.2 420.468 300.334 417.603 296.8 417.603H239.2C235.665 417.603 232.801 414.738 232.801 411.203C232.801 407.668 235.665 404.804 239.2 404.804H335.2C338.735 404.804 341.6 401.938 341.6 398.404V386.006C352.777 387.383 362.994 393.011 370.131 401.723C375.024 407.678 382.312 411.152 390.019 411.204H412V475.2Z" fill="#FFE600"/>
<path d="M245.6 302.4V232C245.6 228.465 248.465 225.6 252 225.6C255.535 225.6 258.399 228.465 258.399 232V276.799C258.399 280.334 261.265 283.199 264.799 283.199C268.334 283.199 271.199 280.333 271.199 276.799V206.4C271.199 202.865 274.064 200 277.599 200C281.133 200 284 202.865 284 206.4V276.8C284 280.335 286.865 283.2 290.4 283.2C293.935 283.2 296.799 280.334 296.799 276.8V187.2C296.799 183.665 299.665 180.8 303.199 180.8C306.734 180.8 309.599 183.665 309.599 187.2V276.8C309.599 280.335 312.464 283.2 315.999 283.2C319.533 283.2 322.398 280.334 322.398 276.8V219.2C322.398 215.665 325.264 212.801 328.798 212.801C332.333 212.801 335.198 215.665 335.198 219.2V315.2C335.198 318.735 338.063 321.6 341.598 321.6H353.996C352.619 332.777 346.99 342.994 338.279 350.131C332.323 355.024 328.849 362.312 328.797 370.019V392H264.8V372.894C264.905 361.157 261.823 349.613 255.881 339.491C249.159 328.286 245.605 315.466 245.6 302.4Z" fill="#FFE600"/>
<path d="M552.8 289.6H463.2C459.665 289.6 456.8 292.465 456.8 296C456.8 299.534 459.665 302.399 463.2 302.399H520.8C524.335 302.399 527.199 305.264 527.199 308.799C527.199 312.334 524.335 315.199 520.8 315.199H424.8C421.265 315.199 418.4 318.064 418.4 321.599V333.997C407.223 332.62 397.005 326.991 389.868 318.28C384.975 312.324 377.689 308.85 369.981 308.798H348V244.8H367.106C378.842 244.905 390.388 241.823 400.509 235.881C411.713 229.159 424.533 225.605 437.599 225.6H507.999C511.534 225.6 514.399 228.465 514.399 232C514.399 235.535 511.534 238.399 507.999 238.399H463.2C459.665 238.399 456.8 241.265 456.8 244.799C456.8 248.334 459.665 251.199 463.2 251.199H533.6C537.135 251.199 540 254.064 540 257.599C540 261.133 537.135 264 533.6 264H463.2C459.665 264 456.8 266.865 456.8 270.4C456.8 273.935 459.665 276.799 463.2 276.799H552.8C556.335 276.799 559.2 279.665 559.2 283.199C559.2 286.735 556.335 289.6 552.8 289.6Z" fill="#FFE600"/>
<path d="M704.273 440.797C740.766 440.797 763.652 422.234 763.652 392.598V392.492C763.652 369.5 750.258 356.633 718.195 349.883L701.848 346.402C682.863 342.395 675.164 335.645 675.164 324.887V324.781C675.164 311.809 687.188 303.898 704.063 303.898C721.465 303.793 732.75 312.23 734.648 324.043L734.859 325.309H760.91L760.805 323.938C758.906 299.469 737.918 281.012 704.168 281.012C671.262 281.012 647.848 299.363 647.848 326.574V326.68C647.848 349.355 661.348 363.91 692.461 370.449L708.809 373.824C728.426 378.043 736.336 384.688 736.336 395.656V395.762C736.336 408.84 723.469 417.91 705.117 417.91C685.816 417.91 672.211 409.473 670.945 396.711L670.84 395.656H644.473L644.578 397.133C646.477 423.395 668.941 440.797 704.273 440.797ZM841.277 439.32C875.766 439.32 896.754 416.75 896.754 379.414V379.203C896.754 342.078 875.66 319.508 841.277 319.508C807 319.508 785.801 342.184 785.801 379.203V379.414C785.801 416.75 806.684 439.32 841.277 439.32ZM841.277 418.016C823.031 418.016 812.59 403.777 812.59 379.52V379.309C812.59 355.051 823.031 340.707 841.277 340.707C859.418 340.707 869.859 355.051 869.859 379.309V379.52C869.859 403.777 859.523 418.016 841.277 418.016ZM924.176 437H950.438V277.109H924.176V437ZM997.16 302.422C1005.7 302.422 1012.77 295.566 1012.77 286.918C1012.77 278.375 1005.7 271.414 997.16 271.414C988.512 271.414 981.445 278.375 981.445 286.918C981.445 295.566 988.512 302.422 997.16 302.422ZM983.977 437H1010.24V321.723H983.977V437ZM1084.07 438.898C1100.31 438.898 1112.75 431.516 1119.08 418.965H1120.88V437H1147.24V277.109H1120.88V340.074H1119.08C1113.07 327.629 1099.89 319.824 1084.07 319.824C1054.85 319.824 1036.82 342.605 1036.82 379.309V379.52C1036.82 416.012 1055.17 438.898 1084.07 438.898ZM1092.29 416.75C1074.36 416.75 1063.5 402.723 1063.5 379.52V379.309C1063.5 356.105 1074.47 341.973 1092.29 341.973C1110.12 341.973 1121.3 356.211 1121.3 379.309V379.52C1121.3 402.617 1110.22 416.75 1092.29 416.75ZM1211.68 438.898C1226.87 438.898 1239.11 432.359 1245.43 421.18H1247.23V437H1273.17V358.215C1273.17 333.852 1256.51 319.508 1226.87 319.508C1199.45 319.508 1180.89 332.375 1178.36 351.781L1178.25 352.73H1203.04L1203.14 352.309C1205.78 344.715 1213.58 340.391 1225.61 340.391C1239.74 340.391 1247.23 346.719 1247.23 358.215V368.129L1217.59 369.922C1189.54 371.609 1173.82 383.633 1173.82 404.199V404.41C1173.82 425.398 1189.75 438.898 1211.68 438.898ZM1199.77 403.145V402.934C1199.77 393.441 1206.62 388.063 1221.28 387.113L1247.23 385.426V394.707C1247.23 408.418 1235.52 418.754 1219.7 418.754C1208.1 418.754 1199.77 412.953 1199.77 403.145ZM1304.71 437H1330.97V370.027C1330.97 353.574 1342.46 343.133 1359.97 343.133C1364.51 343.133 1368.83 343.766 1373.05 344.609V321.09C1370.52 320.352 1366.41 319.824 1362.4 319.824C1347.21 319.824 1336.66 327.102 1332.76 339.441H1330.97V321.723H1304.71V437ZM1408.07 302.422C1416.61 302.422 1423.68 295.566 1423.68 286.918C1423.68 278.375 1416.61 271.414 1408.07 271.414C1399.42 271.414 1392.35 278.375 1392.35 286.918C1392.35 295.566 1399.42 302.422 1408.07 302.422ZM1394.88 437H1421.14V321.723H1394.88V437ZM1498.77 437.527C1503.83 437.527 1508.68 437.105 1512.48 436.367V416.117C1509.32 416.434 1507.31 416.539 1503.62 416.539C1492.65 416.539 1488.12 411.688 1488.12 400.191V342.078H1512.48V321.723H1488.12V293.457H1461.43V321.723H1443.5V342.078H1461.43V406.414C1461.43 428.668 1472.3 437.527 1498.77 437.527ZM1550.98 477.5C1576.5 477.5 1589.68 468.324 1599.6 439.426L1640.94 321.723H1613.31L1586.52 411.793H1584.52L1557.62 321.723H1528.93L1570.17 437.105L1568.8 442.379C1565.95 452.82 1559.52 457.25 1548.76 457.25C1546.02 457.25 1543.07 457.145 1540.96 456.934V477.078C1544.12 477.395 1547.81 477.5 1550.98 477.5ZM1666.25 437H1723.31C1768.87 437 1794.93 409.051 1794.93 360.324V360.113C1794.93 312.441 1768.56 284.809 1723.31 284.809H1666.25V437ZM1693.46 414.113V307.695H1719.73C1749.57 307.695 1767.19 327.102 1767.19 360.535V360.746C1767.19 394.918 1750 414.113 1719.73 414.113H1693.46ZM1807.69 437H1836.16L1848.82 397.66H1905.14L1917.9 437H1946.38L1892.38 284.809H1861.69L1807.69 437ZM1876.14 313.074H1877.93L1898.39 376.672H1855.68L1876.14 313.074ZM2030.96 440.797C2075.37 440.797 2102.89 409.895 2102.89 360.957V360.746C2102.89 311.703 2075.26 281.012 2030.96 281.012C1986.77 281.012 1958.93 311.703 1958.93 360.746V360.957C1958.93 409.895 1986.35 440.797 2030.96 440.797ZM2030.96 417.277C2003.54 417.277 1986.67 395.129 1986.67 360.957V360.746C1986.67 326.363 2003.96 304.531 2030.96 304.531C2057.96 304.531 2075.16 326.363 2075.16 360.746V360.957C2075.16 395.129 2058.07 417.277 2030.96 417.277Z" fill="#FFE600"/>
</svg>
