<svg width="720" height="720" viewBox="0 0 720 720" fill="none" xmlns="http://www.w3.org/2000/svg">
<rect width="720" height="720" fill="#FF4D00"/>
<path d="M450 339.571V386.715C450 389.082 448.082 391 445.715 391C443.348 391 441.429 389.082 441.429 386.715V356.715C441.429 354.348 439.51 352.429 437.143 352.429C434.776 352.429 432.858 354.348 432.858 356.715V403.857C432.858 406.224 430.939 408.143 428.572 408.143C426.205 408.143 424.287 406.224 424.287 403.857V356.714C424.287 354.347 422.368 352.429 420.001 352.429C417.634 352.429 415.716 354.347 415.716 356.714V416.714C415.716 419.081 413.797 421 411.43 421C409.063 421 407.145 419.081 407.145 416.714V356.714C407.145 354.347 405.226 352.429 402.859 352.429C400.492 352.429 398.573 354.347 398.573 356.714V395.286C398.573 397.653 396.655 399.571 394.288 399.571C391.921 399.571 390.002 397.653 390.002 395.286V331C390.002 328.633 388.084 326.714 385.717 326.714H377.414C378.337 319.23 382.106 312.388 387.939 307.608C391.927 304.332 394.254 299.452 394.288 294.291V279.571H437.143V292.366C437.072 300.225 439.137 307.956 443.116 314.734C447.617 322.237 449.997 330.822 450 339.571Z" fill="#FFE600"/>
<path d="M381.429 378.143H368.634C360.775 378.072 353.044 380.137 346.266 384.116C338.763 388.617 330.178 390.997 321.429 391H274.285C271.918 391 270 389.082 270 386.715C270 384.348 271.918 382.429 274.285 382.429H304.285C306.652 382.429 308.571 380.51 308.571 378.143C308.571 375.776 306.652 373.858 304.285 373.858H257.143C254.776 373.858 252.857 371.939 252.857 369.572C252.857 367.205 254.776 365.287 257.143 365.287H304.286C306.653 365.287 308.571 363.368 308.571 361.001C308.571 358.634 306.652 356.716 304.286 356.716H244.286C241.919 356.716 240 354.797 240 352.43C240 350.063 241.919 348.145 244.286 348.145H304.286C306.653 348.145 308.571 346.226 308.571 343.859C308.571 341.492 306.652 339.573 304.286 339.573H265.714C263.347 339.573 261.429 337.655 261.429 335.288C261.429 332.921 263.347 331.002 265.714 331.002H330C332.367 331.002 334.286 329.084 334.286 326.717V318.414C341.77 319.337 348.612 323.106 353.392 328.939C356.668 332.927 361.548 335.254 366.709 335.288H381.429V378.143Z" fill="#FFE600"/>
<path d="M270 262.429V215.285C270 212.918 271.918 211 274.285 211C276.652 211 278.571 212.918 278.571 215.285V245.285C278.571 247.652 280.49 249.571 282.857 249.571C285.224 249.571 287.142 247.652 287.142 245.285V198.143C287.142 195.776 289.061 193.857 291.428 193.857C293.795 193.857 295.714 195.776 295.714 198.143V245.286C295.714 247.653 297.633 249.571 300 249.571C302.367 249.571 304.285 247.652 304.285 245.286V185.286C304.285 182.919 306.204 181 308.571 181C310.938 181 312.856 182.919 312.856 185.286V245.286C312.856 247.653 314.775 249.571 317.142 249.571C319.509 249.571 321.428 247.652 321.428 245.286V206.714C321.428 204.347 323.346 202.429 325.713 202.429C328.08 202.429 329.999 204.347 329.999 206.714V271C329.999 273.367 331.917 275.286 334.284 275.286H342.587C341.664 282.77 337.895 289.612 332.062 294.392C328.074 297.668 325.747 302.548 325.713 307.709V322.429H282.857V309.634C282.927 301.775 280.863 294.044 276.884 287.266C272.383 279.763 270.003 271.178 270 262.429Z" fill="#FFE600"/>
<path d="M475.714 253.857H415.714C413.347 253.857 411.429 255.775 411.429 258.142C411.429 260.509 413.347 262.428 415.714 262.428H454.286C456.653 262.428 458.571 264.347 458.571 266.714C458.571 269.081 456.653 270.999 454.286 270.999H390C387.633 270.999 385.714 272.918 385.714 275.285V283.587C378.23 282.665 371.388 278.896 366.608 273.062C363.332 269.074 358.452 266.748 353.291 266.713H338.571V223.857H351.366C359.225 223.927 366.956 221.863 373.734 217.884C381.236 213.383 389.821 211.003 398.571 211H445.714C448.081 211 450 212.918 450 215.285C450 217.652 448.081 219.571 445.714 219.571H415.714C413.347 219.571 411.429 221.49 411.429 223.857C411.429 226.224 413.347 228.142 415.714 228.142H462.857C465.224 228.142 467.143 230.061 467.143 232.428C467.143 234.795 465.224 236.714 462.857 236.714H415.714C413.347 236.714 411.429 238.633 411.429 241C411.429 243.367 413.347 245.285 415.714 245.285H475.714C478.081 245.285 480 247.204 480 249.571C480 251.938 478.081 253.857 475.714 253.857Z" fill="#FFE600"/>
<path d="M136.758 523.266C148.922 523.266 156.551 517.078 156.551 507.199V507.164C156.551 499.5 152.086 495.211 141.398 492.961L135.949 491.801C129.621 490.465 127.055 488.215 127.055 484.629V484.594C127.055 480.27 131.062 477.633 136.688 477.633C142.488 477.598 146.25 480.41 146.883 484.348L146.953 484.77H155.637L155.602 484.312C154.969 476.156 147.973 470.004 136.723 470.004C125.754 470.004 117.949 476.121 117.949 485.191V485.227C117.949 492.785 122.449 497.637 132.82 499.816L138.27 500.941C144.809 502.348 147.445 504.562 147.445 508.219V508.254C147.445 512.613 143.156 515.637 137.039 515.637C130.605 515.637 126.07 512.824 125.648 508.57L125.613 508.219H116.824L116.859 508.711C117.492 517.465 124.98 523.266 136.758 523.266ZM182.426 522.773C193.922 522.773 200.918 515.25 200.918 502.805V502.734C200.918 490.359 193.887 482.836 182.426 482.836C171 482.836 163.934 490.395 163.934 502.734V502.805C163.934 515.25 170.895 522.773 182.426 522.773ZM182.426 515.672C176.344 515.672 172.863 510.926 172.863 502.84V502.77C172.863 494.684 176.344 489.902 182.426 489.902C188.473 489.902 191.953 494.684 191.953 502.77V502.84C191.953 510.926 188.508 515.672 182.426 515.672ZM210.059 522H218.812V468.703H210.059V522ZM234.387 477.141C237.234 477.141 239.59 474.855 239.59 471.973C239.59 469.125 237.234 466.805 234.387 466.805C231.504 466.805 229.148 469.125 229.148 471.973C229.148 474.855 231.504 477.141 234.387 477.141ZM229.992 522H238.746V483.574H229.992V522ZM263.355 522.633C268.77 522.633 272.918 520.172 275.027 515.988H275.625V522H284.414V468.703H275.625V489.691H275.027C273.023 485.543 268.629 482.941 263.355 482.941C253.617 482.941 247.605 490.535 247.605 502.77V502.84C247.605 515.004 253.723 522.633 263.355 522.633ZM266.098 515.25C260.121 515.25 256.5 510.574 256.5 502.84V502.77C256.5 495.035 260.156 490.324 266.098 490.324C272.039 490.324 275.766 495.07 275.766 502.77V502.84C275.766 510.539 272.074 515.25 266.098 515.25ZM305.895 522.633C310.957 522.633 315.035 520.453 317.145 516.727H317.742V522H326.391V495.738C326.391 487.617 320.836 482.836 310.957 482.836C301.816 482.836 295.629 487.125 294.785 493.594L294.75 493.91H303.012L303.047 493.77C303.926 491.238 306.527 489.797 310.535 489.797C315.246 489.797 317.742 491.906 317.742 495.738V499.043L307.863 499.641C298.512 500.203 293.273 504.211 293.273 511.066V511.137C293.273 518.133 298.582 522.633 305.895 522.633ZM301.922 510.715V510.645C301.922 507.48 304.207 505.688 309.094 505.371L317.742 504.809V507.902C317.742 512.473 313.84 515.918 308.566 515.918C304.699 515.918 301.922 513.984 301.922 510.715ZM336.902 522H345.656V499.676C345.656 494.191 349.488 490.711 355.324 490.711C356.836 490.711 358.277 490.922 359.684 491.203V483.363C358.84 483.117 357.469 482.941 356.133 482.941C351.07 482.941 347.555 485.367 346.254 489.48H345.656V483.574H336.902V522ZM371.355 477.141C374.203 477.141 376.559 474.855 376.559 471.973C376.559 469.125 374.203 466.805 371.355 466.805C368.473 466.805 366.117 469.125 366.117 471.973C366.117 474.855 368.473 477.141 371.355 477.141ZM366.961 522H375.715V483.574H366.961V522ZM401.59 522.176C403.277 522.176 404.895 522.035 406.16 521.789V515.039C405.105 515.145 404.438 515.18 403.207 515.18C399.551 515.18 398.039 513.562 398.039 509.73V490.359H406.16V483.574H398.039V474.152H389.145V483.574H383.168V490.359H389.145V511.805C389.145 519.223 392.766 522.176 401.59 522.176ZM418.992 535.5C427.5 535.5 431.895 532.441 435.199 522.809L448.98 483.574H439.77L430.84 513.598H430.172L421.207 483.574H411.645L425.391 522.035L424.934 523.793C423.984 527.273 421.84 528.75 418.254 528.75C417.34 528.75 416.355 528.715 415.652 528.645V535.359C416.707 535.465 417.938 535.5 418.992 535.5ZM457.418 522H476.438C491.625 522 500.309 512.684 500.309 496.441V496.371C500.309 480.48 491.52 471.27 476.438 471.27H457.418V522ZM466.488 514.371V478.898H475.242C485.191 478.898 491.062 485.367 491.062 496.512V496.582C491.062 507.973 485.332 514.371 475.242 514.371H466.488ZM504.562 522H514.055L518.273 508.887H537.047L541.301 522H550.793L532.793 471.27H522.562L504.562 522ZM527.379 480.691H527.977L534.797 501.891H520.559L527.379 480.691ZM578.988 523.266C593.789 523.266 602.965 512.965 602.965 496.652V496.582C602.965 480.234 593.754 470.004 578.988 470.004C564.258 470.004 554.977 480.234 554.977 496.582V496.652C554.977 512.965 564.117 523.266 578.988 523.266ZM578.988 515.426C569.848 515.426 564.223 508.043 564.223 496.652V496.582C564.223 485.121 569.988 477.844 578.988 477.844C587.988 477.844 593.719 485.121 593.719 496.582V496.652C593.719 508.043 588.023 515.426 578.988 515.426Z" fill="white"/>
</svg>
