<svg width="720" height="720" viewBox="0 0 720 720" fill="none" xmlns="http://www.w3.org/2000/svg">
<rect width="720" height="720" fill="#FF4D00"/>
<g clip-path="url(#clip0_6222_68)">
<path d="M453.256 346.087C436.707 333.997 429.3 330.511 423.496 333.282C417.518 336.136 417.279 344.172 417.087 350.627L416.065 384.575L415.043 407.939C414.969 409.634 414.232 411.205 412.968 412.365C411.707 413.523 410.082 414.122 408.392 414.047C404.869 413.893 402.128 410.902 402.282 407.38L402.637 399.264C402.639 399.212 402.645 399.161 402.648 399.109C402.649 399.083 402.647 399.058 402.647 399.032L403.305 383.981C403.429 381.136 401.224 378.729 398.379 378.604C395.541 378.468 393.127 380.685 393.002 383.53L392.338 398.732C392.143 402.218 389.192 404.917 385.678 404.767C382.155 404.612 379.415 401.621 379.568 398.1L379.923 389.983C379.926 389.931 379.931 389.879 379.934 389.827C379.935 389.801 379.933 389.776 379.933 389.751L380.591 374.7C380.716 371.855 378.51 369.448 375.665 369.324C372.832 369.187 370.412 371.405 370.289 374.249L369.624 389.454C369.531 391.114 368.801 392.651 367.556 393.791C366.289 394.949 364.663 395.541 362.965 395.471C361.27 395.397 359.698 394.66 358.538 393.396C357.379 392.134 356.782 390.509 356.856 388.819L357.212 380.657C357.214 380.615 357.219 380.574 357.221 380.532C357.222 380.511 357.22 380.491 357.22 380.47L357.878 365.404C358.002 362.559 355.797 360.152 352.952 360.027C350.086 359.896 347.699 362.108 347.575 364.954L346.912 380.141C346.726 383.634 343.741 386.339 340.251 386.19C338.562 386.115 336.994 385.379 335.837 384.114C334.679 382.847 334.082 381.217 334.157 379.515L334.507 371.225L335.18 356.119C335.405 350.9 334.866 345.536 333.584 340.121C336.366 338.587 338.657 336.282 340.202 333.406C342.319 329.468 342.779 324.954 341.496 320.685C339.499 314.09 333.762 309.623 327.307 308.905C327.81 306.295 327.682 303.589 326.898 300.979C325.618 296.719 322.744 293.207 318.806 291.09C316.879 290.054 314.813 289.418 312.707 289.185C313.195 286.629 313.096 283.923 312.297 281.262C311.017 277.002 308.143 273.49 304.205 271.373C302.279 270.338 300.216 269.702 298.111 269.469C298.603 266.907 298.503 264.194 297.696 261.531C296.416 257.27 293.54 253.759 289.598 251.646C285.662 249.536 281.15 249.079 276.89 250.36L264.766 254.009L240.446 229.677L282.674 187.448L299.08 203.846C294.927 206.159 291.63 210.024 290.156 214.931C288.716 219.756 289.245 224.866 291.648 229.318C294.051 233.774 298.034 237.021 302.853 238.459L332.541 247.361C339.647 249.488 339.647 249.488 344.165 254.048C344.72 254.608 345.332 255.226 346.011 255.904L358.459 268.351C363.663 273.57 370.189 279.15 381.821 279.279C403.377 279.555 416.879 292.518 430.226 307.296C441.243 319.493 449.455 329.612 453.256 346.087Z" fill="#FFE600"/>
<path d="M300.036 217.887C300.694 215.699 302.175 213.891 304.206 212.797C306.237 211.703 308.56 211.462 310.748 212.12L349.784 223.812C355.153 225.424 356.338 227.106 359.504 231.603L359.526 231.634C360.13 232.491 360.813 233.46 361.576 234.494L387.328 269.32C385.513 269.114 383.718 268.989 381.954 268.966H381.95C381.948 268.966 381.946 268.965 381.944 268.965C374.885 268.889 370.811 266.131 365.758 261.062L353.301 248.606C352.636 247.942 352.041 247.341 351.499 246.794L351.498 246.793L351.496 246.792L351.493 246.788C345.844 241.086 344.588 240.199 335.501 237.48L305.81 228.577C303.626 227.925 301.82 226.449 300.725 224.42C299.629 222.39 299.386 220.066 300.036 217.887Z" fill="#FFE600"/>
<path d="M275.714 298.944C274.095 299.434 272.372 299.258 270.862 298.449C269.351 297.638 268.252 296.299 267.761 294.668C267.271 293.049 267.447 291.326 268.256 289.816C269.067 288.305 270.406 287.206 272.027 286.718C272.067 286.706 272.105 286.69 272.145 286.676L286.528 282.347C286.531 282.346 286.534 282.345 286.537 282.344L294.462 279.95C297.835 278.936 301.409 280.855 302.423 284.227C303.43 287.58 301.552 291.121 298.233 292.162C298.233 292.162 283.656 296.559 283.654 296.56L275.714 298.944Z" fill="#FFE600"/>
<path d="M261.123 279.224C259.497 279.713 257.769 279.536 256.257 278.725C254.747 277.916 253.649 276.579 253.159 274.951C252.669 273.331 252.846 271.607 253.656 270.095C254.468 268.581 255.811 267.476 257.428 266.986L279.861 260.235C280.463 260.054 281.078 259.965 281.692 259.965C282.736 259.965 283.774 260.224 284.727 260.735C286.237 261.544 287.335 262.88 287.825 264.508C288.845 267.878 286.926 271.452 283.548 272.476L261.123 279.224Z" fill="#FFE600"/>
<path d="M290.3 318.661C286.938 319.679 283.371 317.761 282.351 314.396C281.337 311.02 283.255 307.449 286.634 306.434L309.064 299.668C309.662 299.488 310.276 299.399 310.887 299.399C311.931 299.399 312.971 299.66 313.925 300.173C315.436 300.985 316.537 302.325 317.024 303.946C317.512 305.568 317.333 307.294 316.52 308.806C315.708 310.318 314.367 311.418 312.746 311.905L312.74 311.907C312.74 311.907 312.739 311.908 312.738 311.908L290.3 318.661Z" fill="#FFE600"/>
<path d="M331.121 328.523C330.309 330.035 328.968 331.135 327.343 331.624L304.912 338.389C303.29 338.876 301.564 338.698 300.051 337.885C298.54 337.072 297.44 335.733 296.952 334.112C296.463 332.486 296.641 330.758 297.452 329.246C298.26 327.736 299.597 326.638 301.215 326.152C301.254 326.14 301.291 326.123 301.33 326.111L323.651 319.385C327.025 318.37 330.605 320.294 331.625 323.662C332.113 325.285 331.933 327.011 331.121 328.523Z" fill="#FFE600"/>
<path d="M437.311 426.552L424.294 413.535C424.907 411.906 425.268 410.175 425.347 408.389L426.37 384.989C426.371 384.966 426.372 384.942 426.372 384.919L427.395 350.935C427.538 346.141 427.875 343.864 428.201 342.809C429.191 343.048 431.407 343.865 435.813 346.605C440.351 349.428 446.545 353.842 455.76 360.823C456.559 361.429 457.318 362.089 458.028 362.798L479.551 384.311L437.311 426.552Z" fill="#FFE600"/>
</g>
<path d="M130.184 529.266C142.348 529.266 149.977 523.078 149.977 513.199V513.164C149.977 505.5 145.512 501.211 134.824 498.961L129.375 497.801C123.047 496.465 120.48 494.215 120.48 490.629V490.594C120.48 486.27 124.488 483.633 130.113 483.633C135.914 483.598 139.676 486.41 140.309 490.348L140.379 490.77H149.062L149.027 490.312C148.395 482.156 141.398 476.004 130.148 476.004C119.18 476.004 111.375 482.121 111.375 491.191V491.227C111.375 498.785 115.875 503.637 126.246 505.816L131.695 506.941C138.234 508.348 140.871 510.562 140.871 514.219V514.254C140.871 518.613 136.582 521.637 130.465 521.637C124.031 521.637 119.496 518.824 119.074 514.57L119.039 514.219H110.25L110.285 514.711C110.918 523.465 118.406 529.266 130.184 529.266ZM175.852 528.773C187.348 528.773 194.344 521.25 194.344 508.805V508.734C194.344 496.359 187.312 488.836 175.852 488.836C164.426 488.836 157.359 496.395 157.359 508.734V508.805C157.359 521.25 164.32 528.773 175.852 528.773ZM175.852 521.672C169.77 521.672 166.289 516.926 166.289 508.84V508.77C166.289 500.684 169.77 495.902 175.852 495.902C181.898 495.902 185.379 500.684 185.379 508.77V508.84C185.379 516.926 181.934 521.672 175.852 521.672ZM203.484 528H212.238V474.703H203.484V528ZM227.812 483.141C230.66 483.141 233.016 480.855 233.016 477.973C233.016 475.125 230.66 472.805 227.812 472.805C224.93 472.805 222.574 475.125 222.574 477.973C222.574 480.855 224.93 483.141 227.812 483.141ZM223.418 528H232.172V489.574H223.418V528ZM256.781 528.633C262.195 528.633 266.344 526.172 268.453 521.988H269.051V528H277.84V474.703H269.051V495.691H268.453C266.449 491.543 262.055 488.941 256.781 488.941C247.043 488.941 241.031 496.535 241.031 508.77V508.84C241.031 521.004 247.148 528.633 256.781 528.633ZM259.523 521.25C253.547 521.25 249.926 516.574 249.926 508.84V508.77C249.926 501.035 253.582 496.324 259.523 496.324C265.465 496.324 269.191 501.07 269.191 508.77V508.84C269.191 516.539 265.5 521.25 259.523 521.25ZM299.32 528.633C304.383 528.633 308.461 526.453 310.57 522.727H311.168V528H319.816V501.738C319.816 493.617 314.262 488.836 304.383 488.836C295.242 488.836 289.055 493.125 288.211 499.594L288.176 499.91H296.438L296.473 499.77C297.352 497.238 299.953 495.797 303.961 495.797C308.672 495.797 311.168 497.906 311.168 501.738V505.043L301.289 505.641C291.938 506.203 286.699 510.211 286.699 517.066V517.137C286.699 524.133 292.008 528.633 299.32 528.633ZM295.348 516.715V516.645C295.348 513.48 297.633 511.688 302.52 511.371L311.168 510.809V513.902C311.168 518.473 307.266 521.918 301.992 521.918C298.125 521.918 295.348 519.984 295.348 516.715ZM330.328 528H339.082V505.676C339.082 500.191 342.914 496.711 348.75 496.711C350.262 496.711 351.703 496.922 353.109 497.203V489.363C352.266 489.117 350.895 488.941 349.559 488.941C344.496 488.941 340.98 491.367 339.68 495.48H339.082V489.574H330.328V528ZM364.781 483.141C367.629 483.141 369.984 480.855 369.984 477.973C369.984 475.125 367.629 472.805 364.781 472.805C361.898 472.805 359.543 475.125 359.543 477.973C359.543 480.855 361.898 483.141 364.781 483.141ZM360.387 528H369.141V489.574H360.387V528ZM395.016 528.176C396.703 528.176 398.32 528.035 399.586 527.789V521.039C398.531 521.145 397.863 521.18 396.633 521.18C392.977 521.18 391.465 519.562 391.465 515.73V496.359H399.586V489.574H391.465V480.152H382.57V489.574H376.594V496.359H382.57V517.805C382.57 525.223 386.191 528.176 395.016 528.176ZM412.418 541.5C420.926 541.5 425.32 538.441 428.625 528.809L442.406 489.574H433.195L424.266 519.598H423.598L414.633 489.574H405.07L418.816 528.035L418.359 529.793C417.41 533.273 415.266 534.75 411.68 534.75C410.766 534.75 409.781 534.715 409.078 534.645V541.359C410.133 541.465 411.363 541.5 412.418 541.5ZM472.008 529.266C483.715 529.266 492.117 522.48 493.453 512.32V512.074H484.559L484.523 512.25C483.223 517.84 478.441 521.426 472.008 521.426C463.359 521.426 457.98 514.219 457.98 502.652V502.582C457.98 491.051 463.359 483.844 471.973 483.844C478.371 483.844 483.223 487.816 484.523 493.828L484.559 493.969H493.453V493.688C492.258 483.316 483.504 476.004 471.973 476.004C457.594 476.004 448.699 486.164 448.699 502.617V502.688C448.699 519.07 457.629 529.266 472.008 529.266ZM513.141 528.633C518.203 528.633 522.281 526.453 524.391 522.727H524.988V528H533.637V501.738C533.637 493.617 528.082 488.836 518.203 488.836C509.062 488.836 502.875 493.125 502.031 499.594L501.996 499.91H510.258L510.293 499.77C511.172 497.238 513.773 495.797 517.781 495.797C522.492 495.797 524.988 497.906 524.988 501.738V505.043L515.109 505.641C505.758 506.203 500.52 510.211 500.52 517.066V517.137C500.52 524.133 505.828 528.633 513.141 528.633ZM509.168 516.715V516.645C509.168 513.48 511.453 511.688 516.34 511.371L524.988 510.809V513.902C524.988 518.473 521.086 521.918 515.812 521.918C511.945 521.918 509.168 519.984 509.168 516.715ZM544.148 528H552.902V505.676C552.902 500.191 556.734 496.711 562.57 496.711C564.082 496.711 565.523 496.922 566.93 497.203V489.363C566.086 489.117 564.715 488.941 563.379 488.941C558.316 488.941 554.801 491.367 553.5 495.48H552.902V489.574H544.148V528ZM586.969 528.633C592.383 528.633 596.531 526.172 598.641 521.988H599.238V528H608.027V474.703H599.238V495.691H598.641C596.637 491.543 592.242 488.941 586.969 488.941C577.23 488.941 571.219 496.535 571.219 508.77V508.84C571.219 521.004 577.336 528.633 586.969 528.633ZM589.711 521.25C583.734 521.25 580.113 516.574 580.113 508.84V508.77C580.113 501.035 583.77 496.324 589.711 496.324C595.652 496.324 599.379 501.07 599.379 508.77V508.84C599.379 516.539 595.688 521.25 589.711 521.25Z" fill="white"/>
<defs>
<clipPath id="clip0_6222_68">
<rect width="264" height="264" fill="white" transform="translate(228 175)"/>
</clipPath>
</defs>
</svg>
